<?xml version="1.0" encoding="UTF-8" standalone="no"?><!-- Generator: Gravit.io --><svg xmlns="http://www.w3.org/2000/svg" xmlns:xlink="http://www.w3.org/1999/xlink" style="isolation:isolate" viewBox="0 0 1000 1000" width="1000pt" height="1000pt"><defs><clipPath id="_clipPath_F2bmncRLuv7V4hT36IxkBukEbhfxiBBk"><rect width="1000" height="1000"/></clipPath></defs><g clip-path="url(#_clipPath_F2bmncRLuv7V4hT36IxkBukEbhfxiBBk)"><g><path d=" M 482 546.318 L 482 393 L 400 355 L 400 338 L 501 355 L 590 338 L 590 355 L 516 393 L 516 546.318 L 627 498 L 627 338 L 596 193 L 498 155 L 400 201 L 362 338 L 377 498 L 482 546.318 Z " fill="rgb(128,127,127)"/><path d=" M 466.667 516.333 L 444 504.333 L 439.383 421 L 427.009 498 L 410.426 489.667 L 404.667 421 L 393.333 482.333 L 384 474.333 L 368 384.333 L 377 498 L 482 546.318 L 482 421 L 466.667 516.333 Z " fill="rgb(40,40,40)"/><path d=" M 531.333 516.333 L 554 504.333 L 558.617 421 L 570.991 498 L 587.574 489.667 L 593.333 421 L 604.667 482.333 L 614 474.333 L 627 384.333 L 627 498 L 516 546.318 L 516 421 L 531.333 516.333 Z " fill="rgb(40,40,40)"/><path d=" M 384 262 L 501 222 L 609 255 L 596 193 L 498 155 L 400 201 L 384 262 Z " fill="rgb(0,0,0)" fill-opacity="0.1"/><path d=" M 553.609 279.264 L 509.325 176.208 L 508.624 331.222 L 555.031 225.779 L 453.515 306.959 L 544.206 304.571 L 443.391 230.736 L 487.675 333.792 L 488.376 178.778 L 441.969 284.221 L 543.485 203.041 L 452.794 205.429 L 553.609 279.264 Z " fill="rgb(104,25,25)"/><g><path d=" M 370 303 L 280 255 L 289.909 155 L 349 95 L 233 135 L 202 269 L 325 381 L 362 375 L 370 303 Z " fill="rgb(215,206,175)"/><path d=" M 395 286 L 379 339 L 379 394 L 357 381 L 363 293 L 395 286 Z " fill="rgb(123,121,112)"/><path d=" M 349 95 L 259.853 143 L 289.909 155 L 349 95 Z " fill="rgb(0,0,0)" fill-opacity="0.1"/><path d=" M 349 95 L 259.853 143 L 233 135 L 349 95 Z " fill="rgb(255,255,255)" fill-opacity="0.1"/><path d=" M 280 254.224 L 245 254.224 L 259.853 143 L 289.909 155 L 280 254.224 Z " fill="rgb(0,0,0)" fill-opacity="0.1"/><path d=" M 233 135 L 202 269 L 245 257.681 L 259.853 143 L 233 135 Z " fill="rgb(255,255,255)" fill-opacity="0.05"/><path d=" M 363 300.553 L 280 254.224 L 245 254.224 L 362 346 L 363 300.553 Z " fill="rgb(0,0,0)" fill-opacity="0.05"/><path d=" M 202 269 L 245 254.224 L 362 346 L 357 375 L 325 381 L 202 269 Z " fill="rgb(255,255,255)" fill-opacity="0.1"/></g><g><path d=" M 625.485 303 L 715.485 255 L 705.576 155 L 646.485 95 L 762.485 135 L 793.485 269 L 670.485 381 L 633.485 375 L 625.485 303 Z " fill="rgb(215,206,175)"/><path d=" M 600.485 286 L 616.485 339 L 616.485 394 L 638.485 381 L 632.485 293 L 600.485 286 Z " fill="rgb(123,121,112)"/><path d=" M 646.485 95 L 735.632 143 L 705.576 155 L 646.485 95 Z " fill="rgb(0,0,0)" fill-opacity="0.1"/><path d=" M 646.485 95 L 735.632 143 L 762.485 135 L 646.485 95 Z " fill="rgb(255,255,255)" fill-opacity="0.1"/><path d=" M 715.485 254.224 L 750.485 254.224 L 735.632 143 L 705.576 155 L 715.485 254.224 Z " fill="rgb(0,0,0)" fill-opacity="0.1"/><path d=" M 762.485 135 L 793.485 269 L 750.485 257.681 L 735.632 143 L 762.485 135 Z " fill="rgb(255,255,255)" fill-opacity="0.05"/><path d=" M 632.485 300.553 L 715.485 254.224 L 750.485 254.224 L 633.485 346 L 632.485 300.553 Z " fill="rgb(0,0,0)" fill-opacity="0.05"/><path d=" M 793.485 269 L 750.485 254.224 L 633.485 346 L 638.485 375 L 670.485 381 L 793.485 269 Z " fill="rgb(255,255,255)" fill-opacity="0.1"/></g><path d=" M 399.5 355 L 482 393 L 404.667 365 L 404.667 403.5 Q 391.618 342.301 390.5 340.5 L 399.5 281.5 L 407 330 L 427.009 330 L 423 311.5 L 455.5 334.5 L 451 317 L 498.5 340.5 L 498.5 356 L 399.5 340.5 L 399.5 355 Z " fill="rgb(40,40,40)"/><path d=" M 590 355 L 516 393 L 587.574 365 L 587.574 403.5 L 599.5 340 L 596 281.5 L 588.5 330 L 568.491 330 L 572.5 311.5 L 540 334.5 L 544.5 317 L 497 340.5 L 498 356 L 590 339 L 590 355 Z " fill="rgb(40,40,40)"/></g></g></svg>