<?xml version="1.0" encoding="UTF-8" standalone="no"?><!-- Generator: Gravit.io --><svg xmlns="http://www.w3.org/2000/svg" xmlns:xlink="http://www.w3.org/1999/xlink" style="isolation:isolate" viewBox="0 0 1000 1000" width="1000pt" height="1000pt"><defs><clipPath id="_clipPath_CxuwzQ1z9VzAsVSrO6hQEssdaqOMvApG"><rect width="1000" height="1000"/></clipPath></defs><g clip-path="url(#_clipPath_CxuwzQ1z9VzAsVSrO6hQEssdaqOMvApG)"><g><path d=" M 416.333 486.324 L 431 413.667 L 499 378.873 L 571 413.667 L 572 491.324 L 620 452.5 L 596 285 L 389.333 285 L 378.667 458 L 416.333 486.324 L 416.333 486.324 L 416.333 486.324 Z " fill="rgb(0,0,0)" fill-opacity="0.1"/><path d=" M 400.5 621.5 L 332 596 L 360 458 L 368 237 L 427 178 L 499 164 L 572 178 L 620 237 L 643 458 L 660 596 L 606 621.5 L 585.333 584 L 606 475 L 572 318 L 499 338 L 427 318 L 389.333 475 L 415.333 584 L 400.5 621.5 Z " fill="rgb(255,244,219)"/><path d=" M 389.333 475 L 415.333 584 L 400.5 621.5 L 332 596 L 389.333 475 L 389.333 475 Z " fill="rgb(0,0,0)" fill-opacity="0.1"/><path d=" M 585.333 584 L 606 475 L 660 596 L 606 621.5 L 585.333 584 L 585.333 584 Z " fill="rgb(0,0,0)" fill-opacity="0.1"/><path d=" M 389.333 475 L 360 458 L 332 596 L 389.333 475 L 389.333 475 L 389.333 475 Z " fill="rgb(0,0,0)" fill-opacity="0.05"/><path d=" M 606 475 L 643 458 L 660 596 L 606 475 L 606 475 L 606 475 Z " fill="rgb(0,0,0)" fill-opacity="0.05"/><path d=" M 389.333 475 L 360 458 L 368 237 L 427 318 L 389.333 475 L 389.333 475 L 389.333 475 Z " fill="rgb(0,0,0)" fill-opacity="0.1"/><path d=" M 643 458 L 606 475 L 571 318 L 620 237 L 643 458 L 643 458 L 643 458 Z " fill="rgb(0,0,0)" fill-opacity="0.1"/><path d=" M 368 237 L 427 178 L 499 164 L 431 199 L 499 253.146 L 452 291 L 427 318 L 368 237 L 368 237 L 368 237 Z " fill="rgb(0,0,0)" fill-opacity="0.05"/><path d=" M 571 318 L 540 291 L 499 253.146 L 560.667 199 L 499 164 L 572 178 L 620 237 L 571 318 L 571 318 L 571 318 Z " fill="rgb(0,0,0)" fill-opacity="0.05"/><path d=" M 452 291 L 499 253.146 L 540 291 L 572 318 L 499 338 L 427 318 L 452 291 L 452 291 L 452 291 Z " fill="rgb(0,0,0)" fill-opacity="0.1"/></g></g></svg>