<?xml version="1.0" encoding="UTF-8" standalone="no"?><!-- Generator: Gravit.io --><svg xmlns="http://www.w3.org/2000/svg" xmlns:xlink="http://www.w3.org/1999/xlink" style="isolation:isolate" viewBox="0 0 1000 1000" width="1000pt" height="1000pt"><defs><clipPath id="_clipPath_pCNpRrYd4axbjPJdDM1a6cwlYHwNLQvf"><rect width="1000" height="1000"/></clipPath></defs><g clip-path="url(#_clipPath_pCNpRrYd4axbjPJdDM1a6cwlYHwNLQvf)"><path d="M 185 50 L 815 50 L 950 185 L 950 815 L 815 950 L 185 950 L 50 815 L 50 185 L 185 50 Z" style="stroke:none;fill:#44280F;stroke-miterlimit:10;"/><path d="M 134.835 240.901 L 240.901 134.835 L 276.256 134.835 L 382.322 240.901 L 382.322 276.256 L 276.256 382.322 L 240.901 382.322 L 134.835 276.256 L 134.835 240.901 Z" style="stroke:none;fill:#F9D798;stroke-miterlimit:10;"/><path d="M 425 400 L 575 400 L 600 425 L 600 575 L 575 600 L 425 600 L 400 575 L 400 425 L 425 400 Z" style="stroke:none;fill:#F9D798;stroke-miterlimit:10;"/><path d="M 617.678 240.901 L 723.744 134.835 L 759.099 134.835 L 865.165 240.901 L 865.165 276.256 L 759.099 382.322 L 723.744 382.322 L 617.678 276.256 L 617.678 240.901 Z" style="stroke:none;fill:#F9D798;stroke-miterlimit:10;"/><path d="M 134.835 723.744 L 240.901 617.678 L 276.256 617.678 L 382.322 723.744 L 382.322 759.099 L 276.256 865.165 L 240.901 865.165 L 134.835 759.099 L 134.835 723.744 Z" style="stroke:none;fill:#F9D798;stroke-miterlimit:10;"/><path d="M 617.678 723.744 L 723.744 617.678 L 759.099 617.678 L 865.165 723.744 L 865.165 759.099 L 759.099 865.165 L 723.744 865.165 L 617.678 759.099 L 617.678 723.744 Z" style="stroke:none;fill:#F9D798;stroke-miterlimit:10;"/></g></svg>