<?xml version="1.0" encoding="UTF-8" standalone="no"?><!-- Generator: Gravit.io --><svg xmlns="http://www.w3.org/2000/svg" xmlns:xlink="http://www.w3.org/1999/xlink" style="isolation:isolate" viewBox="0 0 1000 1000" width="1000pt" height="1000pt"><defs><clipPath id="_clipPath_jiFF5MnaLknaXEL1dt2FHtg1Y87STyoa"><rect width="1000" height="1000"/></clipPath></defs><g clip-path="url(#_clipPath_jiFF5MnaLknaXEL1dt2FHtg1Y87STyoa)"><g><path d=" M 233.549 416.706 L 78.53 231.961 L 54.966 251.734 L 209.984 436.478 L 233.549 416.706 Z " fill="rgb(62,56,56)"/><path d=" M 86.385 225.371 L 34.644 203.467 L 47.425 258.062 L 65.511 264.302 L 89.076 244.529 L 86.385 225.371 Z " fill="rgb(165,165,165)"/><path d=" M 74.657 251.274 L 45.159 216.193 L 86.385 225.371 L 34.548 203.547 L 47.425 258.062 L 65.511 264.302 L 74.657 251.274 Z " fill="rgb(0,0,0)" fill-opacity="0.1"/><path d=" M 341.544 427.133 L 321.521 443.934 L 290.698 445.948 L 249.751 436.014 L 238.011 445.865 L 226.186 455.787 L 228.945 497.765 L 221.609 527.771 L 201.586 544.572 L 717.352 1017.12 L 341.544 427.133 Z " fill="rgb(255,255,255)"/><path d=" M 336.659 443.804 L 319.793 457.956 L 293.829 459.653 L 247.857 437.603 L 238.011 445.865 L 226.186 455.787 L 241.811 503.3 L 235.632 528.576 L 218.766 542.728 L 653.221 940.779 L 336.659 443.804 Z " fill="rgb(183,183,183)"/><path d=" M 238.011 445.865 L 226.186 455.787 L 228.945 497.765 L 221.609 527.771 L 201.586 544.572 L 717.352 1017.12 L 238.011 445.865 Z " fill="rgb(0,0,0)" fill-opacity="0.1"/><path d=" M 555.574 824.321 L 349.177 515.641 L 289.037 506.675 L 287.424 567.458 L 555.574 824.321 Z " fill="rgb(179,29,29)"/><path d=" M 325.419 550.033 L 555.531 824.357 L 349.177 515.641 L 325.419 550.033 Z " fill="rgb(255,255,255)" fill-opacity="0.1"/><path d=" M 287.424 567.458 L 325.376 550.069 L 555.531 824.357 L 287.424 567.458 Z " fill="rgb(0,0,0)" fill-opacity="0.1"/><path d=" M 288.994 506.711 L 325.376 550.069 L 287.424 567.458 L 288.994 506.711 Z " fill="rgb(255,255,255)" fill-opacity="0.1"/><path d=" M 349.177 515.641 L 325.376 550.069 L 288.994 506.711 L 349.177 515.641 Z " fill="rgb(0,0,0)" fill-opacity="0.1"/><path d=" M 221.826 426.542 L 257.41 396.684 L 313.447 375.363 L 347.184 398.55 L 400.014 450.497 L 330.916 412.201 L 300.98 409.381 L 273.788 421.491 L 238.028 445.85 L 221.826 426.542 Z " fill="rgb(64,13,13)"/><path d=" M 222.601 441.943 L 221.783 426.578 L 269.742 386.336 L 340.865 352.356 L 377.518 373.098 L 432.233 423.462 L 355.592 391.496 L 320.03 393.397 L 285.214 411.903 L 237.985 445.887 L 222.601 441.943 Z " fill="rgb(176,63,63)"/><path d=" M 229.884 436.233 L 237.985 445.887 L 263.261 424.677 L 281.422 383.739 L 262.018 348.524 L 218.464 288.795 L 250.462 358.22 L 252.727 384.259 L 242.429 403.608 L 221.783 426.578 L 229.884 436.233 Z " fill="rgb(81,25,25)"/><path d=" M 221.793 426.57 L 186.209 456.429 L 155.482 507.911 L 172.458 545.163 L 214.442 606.21 L 188.726 531.512 L 191.148 501.542 L 207.795 476.865 L 237.994 445.879 L 221.793 426.57 Z " fill="rgb(64,13,13)"/><path d=" M 221.793 426.57 L 186.209 456.429 L 155.482 507.911 L 172.458 545.163 L 214.442 606.21 L 188.726 531.512 L 191.148 501.542 L 207.795 476.865 L 237.994 445.879 L 221.793 426.57 Z " fill="rgb(0,0,0)" fill-opacity="0.1"/><path d=" M 221.75 426.606 L 173.791 466.848 L 127.977 530.99 L 142.039 570.688 L 182.137 633.317 L 163.965 552.29 L 172.013 517.598 L 196.284 486.524 L 237.952 445.914 L 221.75 426.606 Z " fill="rgb(176,63,63)"/><path d=" M 221.75 426.606 L 173.791 466.848 L 127.977 530.99 L 142.039 570.688 L 182.137 633.317 L 163.965 552.29 L 172.013 517.598 L 196.284 486.524 L 237.952 445.914 L 221.75 426.606 Z " fill="rgb(0,0,0)" fill-opacity="0.1"/><path d=" M 230.297 430.696 L 237.952 445.914 L 212.676 467.124 L 169.205 477.9 L 137.895 452.676 L 86.636 399.411 L 149.451 442.979 L 174.7 449.731 L 195.544 442.95 L 221.75 426.606 L 230.297 430.696 Z " fill="rgb(81,25,25)"/><path d=" M 237.952 445.914 L 212.676 467.124 L 169.205 477.9 L 137.895 452.676 L 86.636 399.411 L 149.451 442.979 L 174.7 449.731 L 195.544 442.95 L 221.75 426.606 L 237.952 445.914 Z " fill="rgb(0,0,0)" fill-opacity="0.1"/><path d=" M 231.751 443.914 L 238.164 446.126 L 269.173 420.106 L 301.319 381.638 L 297.281 361.995 L 280.804 332.761 L 283.104 373.89 L 275.158 393.053 L 258.414 411.893 L 230.918 437.49 L 231.751 443.914 Z " fill="rgb(134,84,84)"/><path d=" M 238.124 446.159 L 207.114 472.179 L 163.649 497.157 L 145.005 489.769 L 119.077 468.466 L 159.182 477.873 L 179.434 473.376 L 200.894 460.157 L 230.878 437.524 L 238.124 446.159 Z " fill="rgb(134,84,84)"/><path d=" M 238.124 446.159 L 207.114 472.179 L 163.649 497.157 L 145.005 489.769 L 119.077 468.466 L 159.182 477.873 L 179.434 473.376 L 200.894 460.157 L 230.878 437.524 L 238.124 446.159 Z " fill="rgb(0,0,0)" fill-opacity="0.1"/><path d=" M 205.239 430.823 L 212.721 391.885 L 180.294 353.239 L 175.975 395.948 L 205.239 430.823 Z " fill="rgb(58,12,12)"/><path d=" M 162.16 379.164 L 169.642 340.225 L 137.215 301.58 L 132.896 344.289 L 162.16 379.164 Z " fill="rgb(58,12,12)"/><path d=" M 116.357 324.971 L 123.839 286.033 L 91.412 247.387 L 87.093 290.096 L 116.357 324.971 Z " fill="rgb(58,12,12)"/></g><g><path d=" M 760.351 416.706 L 915.37 231.961 L 938.934 251.734 L 783.915 436.478 L 760.351 416.706 Z " fill="rgb(62,56,56)"/><path d=" M 907.515 225.371 L 959.256 203.467 L 946.474 258.062 L 928.388 264.302 L 904.824 244.529 L 907.515 225.371 Z " fill="rgb(165,165,165)"/><path d=" M 919.243 251.274 L 948.74 216.193 L 907.515 225.371 L 959.352 203.547 L 946.474 258.062 L 928.388 264.302 L 919.243 251.274 Z " fill="rgb(0,0,0)" fill-opacity="0.1"/><path d=" M 652.356 427.133 L 672.378 443.934 L 703.202 445.948 L 744.149 436.014 L 755.888 445.865 L 767.713 455.787 L 764.955 497.765 L 772.291 527.771 L 792.313 544.572 L 276.548 1017.12 L 652.356 427.133 Z " fill="rgb(255,255,255)"/><path d=" M 657.24 443.804 L 674.106 457.956 L 700.071 459.653 L 746.043 437.603 L 755.888 445.865 L 767.713 455.787 L 752.088 503.3 L 758.268 528.576 L 775.134 542.728 L 340.679 940.779 L 657.24 443.804 Z " fill="rgb(183,183,183)"/><path d=" M 755.888 445.865 L 767.713 455.787 L 764.955 497.765 L 772.291 527.771 L 792.313 544.572 L 276.548 1017.12 L 755.888 445.865 Z " fill="rgb(0,0,0)" fill-opacity="0.1"/><path d=" M 438.325 824.321 L 644.722 515.641 L 704.863 506.675 L 706.475 567.458 L 438.325 824.321 Z " fill="rgb(179,29,29)"/><path d=" M 668.481 550.033 L 438.368 824.357 L 644.722 515.641 L 668.481 550.033 Z " fill="rgb(255,255,255)" fill-opacity="0.1"/><path d=" M 706.475 567.458 L 668.524 550.069 L 438.368 824.357 L 706.475 567.458 Z " fill="rgb(0,0,0)" fill-opacity="0.1"/><path d=" M 704.905 506.711 L 668.524 550.069 L 706.475 567.458 L 704.905 506.711 Z " fill="rgb(255,255,255)" fill-opacity="0.1"/><path d=" M 644.722 515.641 L 668.524 550.069 L 704.905 506.711 L 644.722 515.641 Z " fill="rgb(0,0,0)" fill-opacity="0.1"/><path d=" M 772.073 426.542 L 736.489 396.684 L 680.453 375.363 L 646.715 398.55 L 593.886 450.497 L 662.984 412.201 L 692.919 409.381 L 720.112 421.491 L 755.872 445.85 L 772.073 426.542 Z " fill="rgb(64,13,13)"/><path d=" M 771.298 441.943 L 772.117 426.578 L 724.158 386.336 L 653.034 352.356 L 616.382 373.098 L 561.667 423.462 L 638.308 391.496 L 673.87 393.397 L 708.686 411.903 L 755.915 445.887 L 771.298 441.943 Z " fill="rgb(176,63,63)"/><path d=" M 764.016 436.233 L 755.915 445.887 L 730.638 424.677 L 712.477 383.739 L 731.881 348.524 L 775.436 288.795 L 743.437 358.22 L 741.172 384.259 L 751.47 403.608 L 772.117 426.578 L 764.016 436.233 Z " fill="rgb(81,25,25)"/><path d=" M 772.107 426.57 L 807.691 456.429 L 838.418 507.911 L 821.441 545.163 L 779.457 606.21 L 805.173 531.512 L 802.752 501.542 L 786.104 476.865 L 755.905 445.879 L 772.107 426.57 Z " fill="rgb(64,13,13)"/><path d=" M 772.107 426.57 L 807.691 456.429 L 838.418 507.911 L 821.441 545.163 L 779.457 606.21 L 805.173 531.512 L 802.752 501.542 L 786.104 476.865 L 755.905 445.879 L 772.107 426.57 Z " fill="rgb(0,0,0)" fill-opacity="0.1"/><path d=" M 772.149 426.606 L 820.108 466.848 L 865.923 530.99 L 851.861 570.688 L 811.762 633.317 L 829.935 552.29 L 821.887 517.598 L 797.616 486.524 L 755.947 445.914 L 772.149 426.606 Z " fill="rgb(176,63,63)"/><path d=" M 772.149 426.606 L 820.108 466.848 L 865.923 530.99 L 851.861 570.688 L 811.762 633.317 L 829.935 552.29 L 821.887 517.598 L 797.616 486.524 L 755.947 445.914 L 772.149 426.606 Z " fill="rgb(0,0,0)" fill-opacity="0.1"/><path d=" M 763.603 430.696 L 755.948 445.914 L 781.224 467.124 L 824.694 477.9 L 856.005 452.676 L 907.263 399.411 L 844.449 442.979 L 819.199 449.731 L 798.356 442.95 L 772.149 426.606 L 763.603 430.696 Z " fill="rgb(81,25,25)"/><path d=" M 755.948 445.914 L 781.224 467.124 L 824.694 477.9 L 856.005 452.676 L 907.263 399.411 L 844.449 442.979 L 819.199 449.731 L 798.356 442.95 L 772.149 426.606 L 755.948 445.914 Z " fill="rgb(0,0,0)" fill-opacity="0.1"/><path d=" M 762.149 443.914 L 755.736 446.126 L 724.726 420.106 L 692.581 381.638 L 696.619 361.995 L 713.096 332.761 L 710.796 373.89 L 718.742 393.053 L 735.486 411.893 L 762.982 437.49 L 762.149 443.914 Z " fill="rgb(134,84,84)"/><path d=" M 755.776 446.159 L 786.785 472.179 L 830.25 497.157 L 848.894 489.769 L 874.823 468.466 L 834.718 477.873 L 814.466 473.376 L 793.005 460.157 L 763.022 437.524 L 755.776 446.159 Z " fill="rgb(134,84,84)"/><path d=" M 755.776 446.159 L 786.785 472.179 L 830.25 497.157 L 848.894 489.769 L 874.823 468.466 L 834.718 477.873 L 814.466 473.376 L 793.005 460.157 L 763.022 437.524 L 755.776 446.159 Z " fill="rgb(0,0,0)" fill-opacity="0.1"/><path d=" M 788.661 430.823 L 781.178 391.885 L 813.606 353.239 L 817.924 395.948 L 788.661 430.823 Z " fill="rgb(58,12,12)"/><path d=" M 831.74 379.164 L 824.258 340.225 L 856.685 301.58 L 861.004 344.289 L 831.74 379.164 Z " fill="rgb(58,12,12)"/><path d=" M 877.543 324.971 L 870.06 286.033 L 902.487 247.387 L 906.806 290.096 L 877.543 324.971 Z " fill="rgb(58,12,12)"/></g></g></svg>