<?xml version="1.0" encoding="UTF-8" standalone="no"?><!-- Generator: Gravit.io --><svg xmlns="http://www.w3.org/2000/svg" xmlns:xlink="http://www.w3.org/1999/xlink" style="isolation:isolate" viewBox="0 0 1000 1000" width="1000pt" height="1000pt"><defs><clipPath id="_clipPath_J4jysdHos11KSQXA6AWsaEPa9WxNoyIc"><rect width="1000" height="1000"/></clipPath></defs><g clip-path="url(#_clipPath_J4jysdHos11KSQXA6AWsaEPa9WxNoyIc)"><g><g><path d=" M 684.04 420.966 L 486.793 703.934 L 502.217 714.686 L 699.465 431.717 L 684.04 420.966 Z " fill="rgb(87,45,9)"/><path d=" M 691.299 426.025 L 494.051 708.994 L 502.217 714.686 L 699.465 431.717 L 691.299 426.025 Z " fill="rgb(0,0,0)" fill-opacity="0.1"/><path d=" M 724.509 300.945 L 677.407 376.203 L 674.154 451.588 L 743.758 422.454 L 798.072 352.223 L 770.395 359.643 L 778.264 348.355 L 752.499 364.562 L 758.495 351.348 L 741.564 354.884 L 739.023 337.774 L 728.699 347.972 L 734.991 318.191 L 727.123 329.479 L 724.509 300.945 Z " fill="rgb(74,140,33)"/><path d=" M 674.154 451.588 L 743.758 422.454 L 798.072 352.223 L 770.395 359.643 L 778.264 348.355 L 752.499 364.562 L 758.495 351.348 L 741.564 354.884 L 674.154 451.588 Z " fill="rgb(0,0,0)" fill-opacity="0.1"/></g><g><path d=" M 758.441 472.828 L 561.193 755.796 L 576.618 766.548 L 773.865 483.58 L 758.441 472.828 Z " fill="rgb(87,45,9)"/><path d=" M 765.7 477.887 L 568.452 760.856 L 576.618 766.548 L 773.865 483.58 L 765.7 477.887 Z " fill="rgb(0,0,0)" fill-opacity="0.1"/><path d=" M 798.909 352.807 L 751.808 428.065 L 748.555 503.45 L 818.159 474.316 L 872.472 404.085 L 844.796 411.505 L 852.664 400.217 L 826.9 416.424 L 832.896 403.21 L 815.964 406.746 L 813.423 389.636 L 803.1 399.834 L 809.392 370.053 L 801.523 381.341 L 798.909 352.807 Z " fill="rgb(74,140,33)"/><path d=" M 748.555 503.45 L 818.159 474.316 L 872.472 404.085 L 844.796 411.505 L 852.664 400.217 L 826.9 416.424 L 832.896 403.21 L 815.964 406.746 L 748.555 503.45 Z " fill="rgb(0,0,0)" fill-opacity="0.1"/></g><g><path d=" M 733.036 455.119 L 535.788 738.087 L 551.213 748.839 L 748.46 465.871 L 733.036 455.119 Z " fill="rgb(87,45,9)"/><path d=" M 740.294 460.178 L 543.047 743.147 L 551.213 748.839 L 748.46 465.871 L 740.294 460.178 Z " fill="rgb(0,0,0)" fill-opacity="0.1"/><path d=" M 773.504 335.098 L 726.402 410.356 L 723.15 485.741 L 792.753 456.607 L 847.067 386.376 L 819.391 393.796 L 827.259 382.508 L 801.495 398.715 L 807.491 385.501 L 790.559 389.037 L 788.018 371.927 L 777.695 382.125 L 783.987 352.344 L 776.118 363.632 L 773.504 335.098 Z " fill="rgb(74,140,33)"/><path d=" M 723.15 485.741 L 792.753 456.607 L 847.067 386.376 L 819.391 393.796 L 827.259 382.508 L 801.495 398.715 L 807.491 385.501 L 790.559 389.037 L 723.15 485.741 Z " fill="rgb(0,0,0)" fill-opacity="0.1"/></g><g><path d=" M 709.445 438.675 L 512.198 721.643 L 527.622 732.395 L 724.87 449.426 L 709.445 438.675 Z " fill="rgb(87,45,9)"/><path d=" M 716.704 443.734 L 519.457 726.703 L 527.622 732.395 L 724.87 449.426 L 716.704 443.734 Z " fill="rgb(0,0,0)" fill-opacity="0.1"/><path d=" M 749.914 318.654 L 702.812 393.912 L 699.559 469.297 L 769.163 440.163 L 823.477 369.932 L 795.8 377.352 L 803.669 366.064 L 777.904 382.271 L 783.9 369.057 L 766.969 372.593 L 764.428 355.483 L 754.104 365.681 L 760.396 335.9 L 752.528 347.188 L 749.914 318.654 Z " fill="rgb(74,140,33)"/><path d=" M 699.559 469.297 L 769.163 440.163 L 823.477 369.932 L 795.8 377.352 L 803.669 366.064 L 777.904 382.271 L 783.9 369.057 L 766.969 372.593 L 699.559 469.297 Z " fill="rgb(0,0,0)" fill-opacity="0.1"/></g><g><path d=" M 606.767 493.858 L 270.802 975.829 L 304.054 1069.959 L 395.408 1062.687 L 731.373 580.716 L 606.767 493.858 Z " fill="rgb(68,37,10)"/><path d=" M 681.274 528.806 L 739.342 569.283 L 396.126 1061.657 L 304.054 1069.959 L 681.274 528.806 Z " fill="rgb(0,0,0)" fill-opacity="0.1"/><path d=" M 605.058 475.679 L 589.12 498.544 L 734.291 599.739 L 750.23 576.873 L 605.058 475.679 Z " fill="rgb(12,87,11)"/></g></g><g><g><g><path d=" M 139.82 162.155 L 293.433 255.301 L 268.612 724.897 L 403.842 723.168 L 438 759.357 L 465.504 733.397 L 431.345 697.208 L 301.906 693.472 L 322.384 227.974 L 359.304 168.491 L 317.461 154.61 L 339.05 177.482 L 302.204 212.261 L 115.809 67.118 L 136.939 115.604 L 78.187 53.359 L 139.82 162.155 Z " fill="rgb(102,53,10)"/><path d=" M 136.939 115.604 L 306.943 242.548 L 322.384 227.974 L 115.809 67.118 Q 132.759 114.075 136.939 115.604 Z " fill="rgb(0,0,0)" fill-opacity="0.1"/><path d=" M 136.939 115.604 L 139.82 162.155 L 78.187 53.359 L 136.939 115.604 Z " fill="rgb(255,255,255)" fill-opacity="0.05"/><path d=" M 293.433 255.301 L 306.943 242.548 L 137.452 115.12 L 139.82 162.155 L 293.433 255.301 Z " fill="rgb(0,0,0)" fill-opacity="0.05"/><path d=" M 322.384 227.974 L 306.943 242.548 L 287.43 707.135 L 301.906 693.472 L 322.384 227.974 Z " fill="rgb(0,0,0)" fill-opacity="0.15"/><path d=" M 268.612 724.897 L 293.433 255.301 L 306.943 242.548 L 287.43 707.135 L 268.612 724.897 Z " fill="rgb(255,255,255)" fill-opacity="0.05"/><path d=" M 416.87 710.871 L 287.43 707.135 L 268.612 724.897 L 403.842 723.168 L 416.87 710.871 Z " fill="rgb(0,0,0)" fill-opacity="0.05"/><path d=" M 431.345 697.208 L 416.87 710.871 L 287.43 707.135 L 301.906 693.472 L 431.345 697.208 Z " fill="rgb(0,0,0)" fill-opacity="0.2"/><path d=" M 451.028 747.06 L 416.87 710.871 L 403.842 723.168 L 438 759.357 L 451.028 747.06 Z " fill="rgb(255,255,255)" fill-opacity="0.1"/><path d=" M 465.504 733.397 L 451.028 747.06 L 416.87 710.871 L 431.345 697.208 L 465.504 733.397 Z " fill="rgb(0,0,0)" fill-opacity="0.1"/><path d=" M 322.384 227.974 L 359.304 168.491 L 339.05 177.482 L 302.135 212.187 L 322.384 227.974 Z " fill="rgb(0,0,0)" fill-opacity="0.15"/><path d=" M 317.823 154.268 L 339.343 177.067 L 358.6 168.47 L 317.823 154.268 Z " fill="rgb(0,0,0)" fill-opacity="0.1"/></g><g><polygon points="307.872,192.025,358.053,230.288,347.524,285.768,286.813,302.985,236.631,264.722,247.16,209.242" fill="rgb(102,53,10)"/><polygon points="303.783,213.568,334.479,236.973,328.038,270.91,290.901,281.441,260.206,258.036,266.646,224.1" fill="rgb(102,223,112)"/><path d=" M 236.631 264.722 L 297.342 247.505 L 247.16 209.242 L 236.631 264.722 Z " fill="rgb(0,0,0)" fill-opacity="0.1"/><path d=" M 358.053 230.288 L 297.342 247.505 L 347.524 285.768 L 358.053 230.288 Z " fill="rgb(0,0,0)" fill-opacity="0.1"/><path d=" M 358.053 230.288 L 297.342 247.505 L 247.16 209.242 L 307.872 192.025 L 358.053 230.288 Z " fill="rgb(0,0,0)" fill-opacity="0.2"/><path d=" M 236.631 264.722 L 286.813 302.985 L 347.524 285.768 L 297.342 247.505 L 236.631 264.722 Z " fill="rgb(0,0,0)" fill-opacity="0.2"/></g><g><path d=" M 268.612 724.897 L 267.626 433.857 L 246.282 377.412 L 199.073 320.63 L 259.793 364.659 L 292.257 426.119 L 268.612 724.897 Z " fill="rgb(102,53,10)"/><path d=" M 279.613 429.157 L 292.257 426.119 L 268.612 724.897 L 279.613 429.157 Z " fill="rgb(0,0,0)" fill-opacity="0.2"/><path d=" M 267.626 433.857 L 268.612 724.897 L 279.613 429.157 L 267.626 433.857 Z " fill="rgb(255,255,255)" fill-opacity="0.1"/><path d=" M 252.555 371.491 L 199.073 320.63 L 259.793 364.659 L 252.555 371.491 Z " fill="rgb(0,0,0)" fill-opacity="0.1"/><path d=" M 246.282 377.412 L 199.073 320.63 L 252.555 371.491 L 246.282 377.412 Z " fill="rgb(255,255,255)" fill-opacity="0.1"/><path d=" M 259.793 364.659 L 292.257 426.119 L 279.613 429.157 L 252.555 371.491 L 259.793 364.659 Z " fill="rgb(0,0,0)" fill-opacity="0.15"/><path d=" M 267.626 433.857 L 246.282 377.412 L 252.555 371.491 L 279.613 429.157 L 267.626 433.857 Z " fill="rgb(255,255,255)" fill-opacity="0.05"/></g></g><g><g><path d=" M 1004.028 1077.739 L 919.898 919.009 L 449.652 916.699 L 459.178 781.795 L 425.02 745.606 L 452.524 719.645 L 486.682 755.834 L 482.946 885.274 L 948.849 891.682 L 1010.363 858.254 L 1021.807 900.828 L 1000.218 877.956 L 963.373 912.734 L 1097.522 1107.192 L 1050.335 1083.3 L 1109.088 1145.545 L 1004.028 1077.739 Z " fill="rgb(102,53,10)"/><path d=" M 1050.335 1083.3 L 933.408 906.256 L 948.849 891.682 L 1097.522 1107.192 Q 1051.62 1087.561 1050.335 1083.3 Z " fill="rgb(0,0,0)" fill-opacity="0.1"/><path d=" M 1050.335 1083.3 L 1004.028 1077.739 L 1109.088 1145.545 L 1050.335 1083.3 Z " fill="rgb(255,255,255)" fill-opacity="0.05"/><path d=" M 919.898 919.009 L 933.408 906.256 L 1050.848 1082.816 L 1004.028 1077.739 L 919.898 919.009 Z " fill="rgb(0,0,0)" fill-opacity="0.05"/><path d=" M 948.849 891.682 L 933.408 906.256 L 468.47 898.937 L 482.946 885.274 L 948.849 891.682 Z " fill="rgb(0,0,0)" fill-opacity="0.15"/><path d=" M 449.652 916.699 L 919.898 919.009 L 933.408 906.256 L 468.47 898.937 L 449.652 916.699 Z " fill="rgb(255,255,255)" fill-opacity="0.05"/><path d=" M 472.206 769.498 L 468.47 898.937 L 449.652 916.699 L 459.178 781.795 L 472.206 769.498 Z " fill="rgb(0,0,0)" fill-opacity="0.05"/><path d=" M 486.682 755.834 L 472.206 769.498 L 468.47 898.937 L 482.946 885.274 L 486.682 755.834 Z " fill="rgb(0,0,0)" fill-opacity="0.2"/><path d=" M 438.048 733.309 L 472.206 769.498 L 459.178 781.795 L 425.02 745.606 L 438.048 733.309 Z " fill="rgb(255,255,255)" fill-opacity="0.1"/><path d=" M 452.524 719.645 L 438.048 733.309 L 472.206 769.498 L 486.682 755.834 L 452.524 719.645 Z " fill="rgb(0,0,0)" fill-opacity="0.1"/><path d=" M 948.849 891.682 L 1010.363 858.254 L 1000.218 877.956 L 963.442 912.808 L 948.849 891.682 Z " fill="rgb(0,0,0)" fill-opacity="0.15"/><path d=" M 1022.169 900.487 L 1000.649 877.688 L 1010.343 858.958 L 1022.169 900.487 Z " fill="rgb(0,0,0)" fill-opacity="0.1"/></g><g><polygon points="983.901,908.244,948.597,855.938,892.602,863.25,871.912,922.867,907.216,975.172,963.211,967.86" fill="rgb(102,53,10)"/><polygon points="962.158,911.083,940.563,879.088,906.311,883.56,893.655,920.027,915.25,952.022,949.502,947.55" fill="rgb(102,223,112)"/><path d=" M 907.216 975.172 L 927.907 915.555 L 963.211 967.86 L 907.216 975.172 Z " fill="rgb(0,0,0)" fill-opacity="0.1"/><path d=" M 948.597 855.938 L 927.907 915.555 L 892.602 863.25 L 948.597 855.938 Z " fill="rgb(0,0,0)" fill-opacity="0.1"/><path d=" M 948.597 855.938 L 927.907 915.555 L 963.211 967.86 L 983.901 908.244 L 948.597 855.938 Z " fill="rgb(0,0,0)" fill-opacity="0.2"/><path d=" M 907.216 975.172 L 871.912 922.867 L 892.602 863.25 L 927.907 915.555 L 907.216 975.172 Z " fill="rgb(0,0,0)" fill-opacity="0.2"/></g><g><path d=" M 449.652 916.699 L 740.151 934.472 L 795.271 959.037 L 849.235 1009.442 L 808.781 946.284 L 749.296 910.329 L 449.652 916.699 Z " fill="rgb(102,53,10)"/><path d=" M 745.534 922.776 L 749.296 910.329 L 449.652 916.699 L 745.534 922.776 Z " fill="rgb(0,0,0)" fill-opacity="0.2"/><path d=" M 740.151 934.472 L 449.652 916.699 L 745.534 922.776 L 740.151 934.472 Z " fill="rgb(255,255,255)" fill-opacity="0.1"/><path d=" M 801.544 953.116 L 849.235 1009.442 L 808.781 946.284 L 801.544 953.116 Z " fill="rgb(0,0,0)" fill-opacity="0.1"/><path d=" M 795.271 959.037 L 849.235 1009.442 L 801.544 953.116 L 795.271 959.037 Z " fill="rgb(255,255,255)" fill-opacity="0.1"/><path d=" M 808.781 946.284 L 749.296 910.329 L 745.534 922.776 L 801.544 953.116 L 808.781 946.284 Z " fill="rgb(0,0,0)" fill-opacity="0.15"/><path d=" M 740.151 934.472 L 795.271 959.037 L 801.544 953.116 L 745.534 922.776 L 740.151 934.472 Z " fill="rgb(255,255,255)" fill-opacity="0.05"/></g></g><path d=" M 1003.362 881.286 L 340.005 178.495 L 129.668 99.201 L 137.622 116.328 L 333.491 184.643 L 995.481 885.987 L 1048.969 1081.852 L 1066.975 1092.229 L 1003.362 881.286 Z " fill="rgb(51,51,51)"/><path d=" M 323.841 193.752 L 285.214 133.496 L 341.689 193.328 L 323.841 193.752 Z " fill="rgb(102,53,10)"/><path d=" M 982.643 891.719 L 1040.571 933.757 L 984.095 873.924 L 982.643 891.719 Z " fill="rgb(102,53,10)"/></g></g></svg>