<?xml version="1.0" encoding="UTF-8" standalone="no"?><!-- Generator: Gravit.io --><svg xmlns="http://www.w3.org/2000/svg" xmlns:xlink="http://www.w3.org/1999/xlink" style="isolation:isolate" viewBox="0 0 1000 1000" width="1000pt" height="1000pt"><defs><clipPath id="_clipPath_PT4CEr3a0zC99EGSuBVobNRGN0SCQn6B"><rect width="1000" height="1000"/></clipPath></defs><g clip-path="url(#_clipPath_PT4CEr3a0zC99EGSuBVobNRGN0SCQn6B)"><g><path d=" M 680.587 494.478 L 867.384 307.681 L 894.983 335.28 L 708.185 522.077 L 680.587 494.478 Z " fill="rgb(111,50,50)"/><path d=" M 782.074 448.188 L 794.112 436.15 L 766.514 408.551 L 754.475 420.589 L 782.074 448.188 Z " fill="rgb(162,80,80)"/><path d=" M 814.245 416.017 L 826.283 403.979 L 798.684 376.381 L 786.646 388.419 L 814.245 416.017 Z " fill="rgb(162,80,80)"/><path d=" M 847.246 383.017 L 859.284 370.979 L 831.685 343.38 L 819.647 355.418 L 847.246 383.017 Z " fill="rgb(162,80,80)"/><path d=" M 639.072 416.194 L 228.788 827.273 L 200 992.424 L 357.576 962.121 L 786.469 563.591 L 639.072 416.194 Z " fill="rgb(189,189,189)"/><path d=" M 639.072 416.194 L 228.788 827.273 L 200 992.424 L 713.279 490.401 L 639.072 416.194 Z " fill="rgb(0,0,0)" fill-opacity="0.1"/><path d=" M 927.768 275.912 L 867.453 275.372 L 851.264 291.561 L 843.11 315.786 L 865.277 337.952 L 887.894 360.569 L 911.669 351.965 L 927.858 335.776 L 927.768 275.912 Z " fill="rgb(219,206,25)"/><path d=" M 616.853 412.36 L 788.989 584.496 L 894.23 555.622 L 821.752 551.733 L 802.515 545.414 L 658.972 401.872 L 651.688 381.669 L 648.057 309.449 L 616.853 412.36 Z " fill="rgb(219,206,25)"/><path d=" M 616.853 412.36 L 703.862 499.368 L 730.165 473.065 L 658.972 401.872 L 651.688 381.669 L 648.057 309.449 L 616.853 412.36 Z " fill="rgb(0,0,0)" fill-opacity="0.1"/><path d=" M 927.768 275.912 L 904.53 325.732 L 865.277 337.952 L 887.894 360.569 L 911.669 351.965 L 927.858 335.776 L 927.768 275.912 Z " fill="rgb(0,0,0)" fill-opacity="0.1"/><path d=" M 851.264 291.561 L 867.453 275.372 L 927.768 275.912 L 897.88 305.799 L 843.11 315.786 L 851.264 291.561 Z " fill="rgb(255,255,255)" fill-opacity="0.2"/></g></g></svg>