<?xml version="1.0" encoding="UTF-8" standalone="no"?><!-- Generator: Gravit.io --><svg xmlns="http://www.w3.org/2000/svg" xmlns:xlink="http://www.w3.org/1999/xlink" style="isolation:isolate" viewBox="0 0 1000 1000" width="1000pt" height="1000pt"><defs><clipPath id="_clipPath_qBu5wiCxJ2tgDcEG8J5VsoakLyTWVfnQ"><rect width="1000" height="1000"/></clipPath></defs><g clip-path="url(#_clipPath_qBu5wiCxJ2tgDcEG8J5VsoakLyTWVfnQ)"><g><path d=" M 208.053 262.725 L 517.39 798.513 L 559.689 774.091 C 384.863 471.284 281.751 292.688 250.352 238.304 L 208.053 262.725 Z " fill="rgb(85,64,47)"/><path d=" M 261.681 288.162 L 285.852 274.207 L 307.841 223.912 L 392.462 244.883 L 357.847 310.524 L 306.784 310.463 L 282.613 324.418 L 240.314 348.839 L 242.995 432.561 L 307.163 525.097 L 273.149 531.306 L 241.606 509.233 L 239.135 537.516 L 171.107 549.935 L 122.249 515.013 L 115.086 482.364 L 87.901 490.462 L 33.927 451.883 L 15.276 280.027 L 31.875 240.916 L 63.363 228.093 L 48.352 202.095 L 93.786 95.045 L 168.775 285.402 L 219.382 312.583 L 261.681 288.162 Z " fill="rgb(98,98,98)"/><path d=" M 50.729 251.501 L 90.474 236.612 L 70.704 202.37 L 93.786 95.045 L 48.352 202.095 L 63.363 228.093 L 31.875 240.916 L 15.276 280.027 L 33.927 451.883 L 93.226 494.268 L 114.775 481.826 L 120.056 513.446 L 171.107 549.935 L 238.93 537.553 L 247.57 519.563 L 272.174 531.484 L 307.163 525.097 L 279.846 512.669 L 260.861 511.89 L 238.3 502.189 L 227.506 517.374 L 178.499 525.525 L 134.836 491.298 L 127.706 460.808 L 98.8 463.94 L 62.127 435.602 L 41.274 287.845 L 50.729 251.501 Z " fill="rgb(224,224,224)"/><path d=" M 285.852 274.207 L 315.982 238.012 L 377.355 253.605 L 350.869 298.439 L 306.784 310.463 L 357.847 310.524 L 392.462 244.883 L 307.841 223.912 L 285.852 274.207 Z " fill="rgb(224,224,224)"/><path d=" M 225.084 305.598 L 226.683 308.368 L 301.521 326.93 L 295.706 316.859 L 235.407 299.638 L 225.084 305.598 Z " fill="rgb(94,29,29)"/><path d=" M 278.965 274.49 L 280.564 277.259 L 259.222 351.352 L 253.407 341.28 L 268.642 280.45 L 278.965 274.49 Z " fill="rgb(94,29,29)"/><path d=" M 259.222 351.352 L 322.217 362.777 L 352.398 415.053 L 295.655 414.457 L 259.222 351.352 Z " fill="rgb(94,29,29)"/><path d=" M 313.879 446.021 L 376.874 457.446 L 407.056 509.722 L 350.313 509.126 L 313.879 446.021 Z " fill="rgb(94,29,29)"/><path d=" M 370.862 544.719 L 433.857 556.144 L 464.039 608.42 L 407.296 607.824 L 370.862 544.719 Z " fill="rgb(94,29,29)"/><path d=" M 434.823 655.502 L 497.818 666.927 L 528 719.203 L 471.256 718.607 L 434.823 655.502 Z " fill="rgb(94,29,29)"/><path d=" M 504.986 777.027 L 500.421 799.358 L 522.429 807.241 L 564.728 782.82 L 570.92 758.655 L 547.285 752.606 L 504.986 777.027 Z " fill="rgb(98,98,98)"/><path d=" M 136.071 327.999 L 214.587 425.43 L 181.82 337.073 L 136.7 453.786 L 196.836 381.23 L 73.199 400.511 L 166.102 416.313 L 87.586 318.881 L 120.354 407.238 L 165.474 290.526 L 105.338 363.081 L 228.974 343.8 L 136.071 327.999 Z " fill="rgb(94,29,29)"/></g><g><path d=" M 783.142 262.725 L 473.805 798.513 L 431.506 774.091 C 606.332 471.284 709.444 292.688 740.843 238.304 L 783.142 262.725 Z " fill="rgb(85,64,47)"/><path d=" M 729.514 288.162 L 705.344 274.207 L 683.354 223.912 L 598.733 244.883 L 633.348 310.524 L 684.411 310.463 L 708.582 324.418 L 750.881 348.839 L 748.2 432.561 L 684.032 525.097 L 718.046 531.306 L 749.59 509.233 L 752.06 537.516 L 820.088 549.935 L 868.947 515.013 L 876.11 482.364 L 903.294 490.462 L 957.268 451.883 L 975.919 280.027 L 959.32 240.916 L 927.833 228.094 L 942.843 202.095 L 897.409 95.045 L 822.42 285.402 L 771.813 312.583 L 729.514 288.162 Z " fill="rgb(98,98,98)"/><path d=" M 940.466 251.502 L 900.721 236.612 L 920.491 202.37 L 897.409 95.045 L 942.843 202.095 L 927.833 228.094 L 959.32 240.916 L 975.919 280.027 L 957.268 451.883 L 897.969 494.268 L 876.42 481.826 L 871.139 513.446 L 820.088 549.935 L 752.265 537.553 L 743.625 519.564 L 719.021 531.484 L 684.032 525.097 L 711.35 512.669 L 730.334 511.89 L 752.895 502.189 L 763.689 517.374 L 812.696 525.525 L 856.359 491.298 L 863.489 460.808 L 892.395 463.94 L 929.069 435.602 L 949.921 287.845 L 940.466 251.502 Z " fill="rgb(224,224,224)"/><path d=" M 705.344 274.207 L 675.213 238.012 L 613.84 253.605 L 640.326 298.439 L 684.411 310.463 L 633.348 310.524 L 598.733 244.883 L 683.354 223.912 L 705.344 274.207 Z " fill="rgb(224,224,224)"/><path d=" M 766.111 305.598 L 764.512 308.368 L 689.675 326.93 L 695.489 316.859 L 755.788 299.638 L 766.111 305.598 Z " fill="rgb(94,29,29)"/><path d=" M 712.23 274.49 L 710.631 277.259 L 731.974 351.352 L 737.788 341.281 L 722.553 280.45 L 712.23 274.49 Z " fill="rgb(94,29,29)"/><path d=" M 731.974 351.352 L 668.979 362.777 L 638.797 415.053 L 695.54 414.457 L 731.974 351.352 Z " fill="rgb(94,29,29)"/><path d=" M 677.316 446.021 L 614.321 457.446 L 584.14 509.723 L 640.883 509.126 L 677.316 446.021 Z " fill="rgb(94,29,29)"/><path d=" M 620.333 544.719 L 557.338 556.144 L 527.156 608.42 L 583.9 607.824 L 620.333 544.719 Z " fill="rgb(94,29,29)"/><path d=" M 556.373 655.502 L 493.377 666.927 L 463.196 719.203 L 519.939 718.607 L 556.373 655.502 Z " fill="rgb(94,29,29)"/><path d=" M 486.21 777.028 L 490.774 799.358 L 468.766 807.241 L 426.467 782.82 L 420.276 758.655 L 443.911 752.606 L 486.21 777.028 Z " fill="rgb(98,98,98)"/><path d=" M 855.124 327.999 L 776.608 425.43 L 809.376 337.073 L 854.495 453.786 L 794.36 381.23 L 917.996 400.511 L 825.093 416.313 L 903.609 318.881 L 870.842 407.238 L 825.722 290.526 L 885.857 363.081 L 762.221 343.8 L 855.124 327.999 Z " fill="rgb(94,29,29)"/></g></g></svg>