<?xml version="1.0" encoding="UTF-8" standalone="no"?><!-- Generator: Gravit.io --><svg xmlns="http://www.w3.org/2000/svg" xmlns:xlink="http://www.w3.org/1999/xlink" style="isolation:isolate" viewBox="0 0 1000 1000" width="1000pt" height="1000pt"><defs><clipPath id="_clipPath_ajltEOFCfFggJuRwKaqjpGQROTrvTo8q"><rect width="1000" height="1000"/></clipPath></defs><g clip-path="url(#_clipPath_ajltEOFCfFggJuRwKaqjpGQROTrvTo8q)"><g><path d=" M 722.278 203.419 L 553.491 555.624 L 421.036 713.426 L 319.882 938.432 L 166.88 1056.946 L 344.098 963.707 L 460.695 725.124 L 588.527 564.791 L 736.888 275.505 L 788.615 279.792 L 830.264 364.677 L 753.194 428.631 L 730.519 404.2 L 720.474 462.788 L 812.411 485.083 L 901.146 403.483 L 904.724 265.25 L 830.166 156.338 L 722.278 203.419 Z " fill="rgb(66,32,32)"/><path d=" M 753.194 428.631 L 730.519 404.2 L 720.474 462.788 L 812.411 485.083 L 753.194 428.631 Z " fill="rgb(0,0,0)" fill-opacity="0.1"/><path d=" M 901.146 403.483 L 753.194 428.631 L 812.411 485.083 L 901.146 403.483 Z " fill="rgb(255,255,255)" fill-opacity="0.05"/><path d=" M 830.264 364.677 L 901.146 403.483 L 753.194 428.631 L 830.264 364.677 Z " fill="rgb(0,0,0)" fill-opacity="0.05"/><path d=" M 904.724 265.25 L 830.264 364.677 L 901.146 403.483 L 904.724 265.25 Z " fill="rgb(255,255,255)" fill-opacity="0.1"/><path d=" M 788.615 279.792 L 904.724 265.25 L 830.264 364.677 L 788.615 279.792 Z " fill="rgb(255,255,255)" fill-opacity="0.05"/><path d=" M 830.166 156.338 L 788.615 279.792 L 904.724 265.25 L 830.166 156.338 Z " fill="rgb(0,0,0)" fill-opacity="0.05"/><path d=" M 736.888 275.505 L 830.166 156.338 L 788.615 279.792 L 736.888 275.505 Z " fill="rgb(0,0,0)" fill-opacity="0.1"/><path d=" M 722.278 203.419 L 736.888 275.505 L 830.166 156.338 L 722.278 203.419 Z " fill="rgb(255,255,255)" fill-opacity="0.1"/><path d=" M 702.758 340.445 L 722.278 203.419 L 736.888 275.505 L 702.758 340.445 Z " fill="rgb(255,255,255)" fill-opacity="0.1"/><path d=" M 588.527 564.791 L 722.278 203.419 L 702.758 340.445 L 588.527 564.791 Z " fill="rgb(0,0,0)" fill-opacity="0.1"/><path d=" M 553.491 555.624 L 722.278 203.419 L 588.527 564.791 L 553.491 555.624 Z " fill="rgb(255,255,255)" fill-opacity="0.05"/><path d=" M 460.695 725.124 L 553.491 555.624 L 588.527 564.791 L 460.695 725.124 Z " fill="rgb(0,0,0)" fill-opacity="0.05"/><path d=" M 421.036 713.426 L 553.491 555.624 L 460.695 725.124 L 421.036 713.426 Z " fill="rgb(255,255,255)" fill-opacity="0.1"/><path d=" M 344.098 963.707 L 421.036 713.426 L 460.695 725.124 L 344.098 963.707 Z " fill="rgb(0,0,0)" fill-opacity="0.1"/><path d=" M 319.882 938.432 L 344.098 963.707 L 421.036 713.426 L 319.882 938.432 Z " fill="rgb(255,255,255)" fill-opacity="0.05"/><path d=" M 166.88 1056.946 L 319.882 938.432 L 344.098 963.707 L 166.88 1056.946 Z " fill="rgb(0,0,0)" fill-opacity="0.05"/></g><g><path d=" M 762.463 327.559 L 731.399 351.622 L 730.519 404.2 L 739.326 421.037 L 753.194 428.631 L 794.805 417.617 L 830.264 364.677 L 789.722 314.351 L 762.463 327.559 Z " fill="rgb(23,195,81)"/><path d=" M 772.015 368.645 L 789.722 314.351 L 830.264 364.677 L 772.015 368.645 Z " fill="rgb(255,255,255)" fill-opacity="0.1"/><path d=" M 739.326 421.037 L 772.015 368.645 L 753.194 428.631 L 739.326 421.037 Z " fill="rgb(255,255,255)" fill-opacity="0.1"/><path d=" M 794.805 417.617 L 772.015 368.645 L 830.264 364.677 L 794.805 417.617 Z " fill="rgb(0,0,0)" fill-opacity="0.1"/><path d=" M 762.463 327.559 L 789.722 314.351 L 772.015 368.645 L 762.463 327.559 Z " fill="rgb(0,0,0)" fill-opacity="0.1"/><path d=" M 731.399 351.622 L 772.015 368.645 L 762.463 327.559 L 731.399 351.622 Z " fill="rgb(255,255,255)" fill-opacity="0.1"/><path d=" M 794.805 417.617 L 772.015 368.645 L 753.194 428.631 L 794.805 417.617 Z " fill="rgb(0,0,0)" fill-opacity="0.05"/><path d=" M 730.519 404.2 L 772.015 368.645 L 739.326 421.037 L 730.519 404.2 Z " fill="rgb(0,0,0)" fill-opacity="0.05"/><path d=" M 731.399 351.622 L 772.015 368.645 L 730.519 404.2 L 731.399 351.622 Z " fill="rgb(0,0,0)" fill-opacity="0.1"/><polygon points="825.079,419.055,761.471,436.099,714.907,389.534,731.951,325.927,795.559,308.883,842.123,355.447" fill="rgb(46,201,98)" fill-opacity="0.1"/><polygon points="844.421,441.214,757.213,464.581,693.372,400.74,716.739,313.532,803.948,290.165,867.789,354.006" fill="rgb(46,201,98)" fill-opacity="0.1"/><polygon points="859.83,454.806,748.983,484.507,667.837,403.361,697.538,292.514,808.385,262.813,889.531,343.958" fill="rgb(46,201,98)" fill-opacity="0.1"/><polygon points="866.922,466.198,744.502,499,654.885,409.383,687.687,286.963,810.107,254.161,899.724,343.778" fill="rgb(46,201,98)" fill-opacity="0.15"/></g></g></svg>