<?xml version="1.0" encoding="UTF-8" standalone="no"?><!-- Generator: Gravit.io --><svg xmlns="http://www.w3.org/2000/svg" xmlns:xlink="http://www.w3.org/1999/xlink" style="isolation:isolate" viewBox="0 0 1000 1000" width="1000pt" height="1000pt"><defs><clipPath id="_clipPath_jjuENUpKlcwm9ZQndzOuxXgL5FapObbl"><rect width="1000" height="1000"/></clipPath></defs><g clip-path="url(#_clipPath_jjuENUpKlcwm9ZQndzOuxXgL5FapObbl)"><g><g><path d=" M 501.062 629.867 L 619.334 548.019 L 589.458 518.522 L 558.764 419.513 L 501.062 419.513 L 501.062 629.867 L 501.062 629.867 L 501.062 629.867 L 501.062 629.867 L 501.062 629.867 L 501.062 629.867 Z " fill="rgb(0,0,0)" fill-opacity="0.1"/><path d=" M 577.833 1174.168 L 627.966 935.521 L 798.864 645.009 L 588.64 518.552 L 560.421 419.513 L 499.554 419.513 L 447.654 419.513 L 411.435 518.552 L 201.212 645.009 L 377.931 935.521 L 422.243 1174.168 L 500.521 1211 L 577.833 1174.168 L 577.833 1174.168 L 577.833 1174.168 L 577.833 1174.168 L 577.833 1174.168 Z " fill="rgb(255,221,187)"/><path d=" M 499.554 492.769 L 499.554 419.513 L 560.421 419.513 L 588.64 518.552 L 798.864 645.009 L 627.966 935.521 L 577.833 1174.168 L 499.554 1211 L 499.554 492.769 L 499.554 492.769 L 499.554 492.769 L 499.554 492.769 L 499.554 492.769 Z " fill="rgb(0,0,0)" fill-opacity="0.1"/><path d=" M 340.226 700.258 L 393.018 743.228 L 500.521 743.228 L 607.055 743.228 L 659.849 700.258 L 588.64 729.724 L 411.435 729.724 L 340.226 700.258 L 340.226 700.258 L 340.226 700.258 L 340.226 700.258 L 340.226 700.258 L 340.226 700.258 Z " fill="rgb(0,0,0)" fill-opacity="0.1"/><path d=" M 377.931 935.521 L 422.243 1174.168 L 499.554 1211 L 395.592 820.723 L 201.212 645.009 L 377.931 935.521 L 377.931 935.521 L 377.931 935.521 L 377.931 935.521 L 377.931 935.521 L 377.931 935.521 Z " fill="rgb(0,0,0)" fill-opacity="0.1"/><path d=" M 627.966 935.521 L 577.833 1174.168 L 500.521 1211 L 605.389 819.057 L 798.864 645.009 L 627.966 935.521 L 627.966 935.521 L 627.966 935.521 L 627.966 935.521 L 627.966 935.521 L 627.966 935.521 Z " fill="rgb(0,0,0)" fill-opacity="0.1"/><path d=" M 426.516 541.006 L 377.931 576.556 L 440.736 557.596 L 482.988 571.117 L 499.554 659.902 L 516.104 571.498 L 560.421 557.596 L 627.966 576.556 L 573.456 541.006 L 560.421 529.156 L 499.554 557.596 L 440.736 529.156 L 426.516 541.006 L 426.516 541.006 L 426.516 541.006 L 426.516 541.006 L 426.516 541.006 L 426.516 541.006 Z " fill="rgb(0,0,0)" fill-opacity="0.1"/></g><g><path d=" M 222.383 589.612 L 138.371 618.5 L 138.371 700.168 L 153.447 753.5 L 138.371 803.5 L 172.26 1022.535 L 214.481 1070.423 L 253.421 1029.577 L 276.703 815.167 L 267.735 736.834 L 305.037 643.501 L 222.383 589.612 L 222.383 589.612 L 222.383 589.612 L 222.383 589.612 L 222.383 589.612 L 222.383 589.612 Z " fill="rgb(255,221,187)"/><path d=" M 222.383 736.834 L 305.037 643.501 L 267.735 736.834 L 222.383 736.834 L 222.383 736.834 L 222.383 736.834 L 222.383 736.834 L 222.383 736.834 L 222.383 736.834 Z " fill="rgb(0,0,0)" fill-opacity="0.2"/><path d=" M 222.383 589.612 L 222.383 736.834 L 305.037 643.501 L 222.383 589.612 L 222.383 589.612 L 222.383 589.612 L 222.383 589.612 L 222.383 589.612 L 222.383 589.612 Z " fill="rgb(0,0,0)" fill-opacity="0.15"/><path d=" M 138.371 618.5 L 222.383 736.834 L 222.383 589.612 L 138.371 618.5 L 138.371 618.5 L 138.371 618.5 L 138.371 618.5 L 138.371 618.5 L 138.371 618.5 Z " fill="rgb(0,0,0)" fill-opacity="0.05"/><path d=" M 138.371 700.168 L 138.371 618.5 L 222.383 736.834 L 138.371 700.168 L 138.371 700.168 L 138.371 700.168 L 138.371 700.168 L 138.371 700.168 L 138.371 700.168 Z " fill="rgb(0,0,0)" fill-opacity="0.1"/><path d=" M 153.447 753.5 L 222.383 736.834 L 138.371 700.168 L 153.447 753.5 L 153.447 753.5 L 153.447 753.5 L 153.447 753.5 L 153.447 753.5 L 153.447 753.5 Z " fill="rgb(255,255,255)" fill-opacity="0.1"/><path d=" M 251.333 1035.333 L 214 1069.333 L 222.383 736.834 L 267.735 736.834 L 276.703 815.167 L 267.735 902.667 L 251.333 1035.333 L 251.333 1035.333 L 251.333 1035.333 L 251.333 1035.333 Z " fill="rgb(0,0,0)" fill-opacity="0.1"/><path d=" M 222.383 736.834 L 153.447 753.5 L 138.371 803.5 L 172.26 1053.521 L 214.481 1100 L 222.383 736.834 L 222.383 736.834 L 222.383 736.834 L 222.383 736.834 L 222.383 736.834 L 222.383 736.834 Z " fill="rgb(0,0,0)" fill-opacity="0.05"/></g><g><path d=" M 785.094 589.612 L 869.106 618.5 L 869.106 700.168 L 854.03 753.5 L 869.106 803.5 L 835.217 1022.535 L 792.996 1070.422 L 754.056 1029.578 L 730.774 815.167 L 739.742 736.834 L 702.44 643.501 L 785.094 589.612 L 785.094 589.612 L 785.094 589.612 L 785.094 589.612 L 785.094 589.612 L 785.094 589.612 Z " fill="rgb(255,221,187)"/><path d=" M 785.094 736.834 L 702.44 643.501 L 739.742 736.834 L 785.094 736.834 L 785.094 736.834 L 785.094 736.834 L 785.094 736.834 L 785.094 736.834 L 785.094 736.834 Z " fill="rgb(0,0,0)" fill-opacity="0.2"/><path d=" M 785.094 589.612 L 785.094 736.834 L 702.44 643.501 L 785.094 589.612 L 785.094 589.612 L 785.094 589.612 L 785.094 589.612 L 785.094 589.612 L 785.094 589.612 Z " fill="rgb(0,0,0)" fill-opacity="0.15"/><path d=" M 869.106 618.5 L 785.094 736.834 L 785.094 589.612 L 869.106 618.5 L 869.106 618.5 L 869.106 618.5 L 869.106 618.5 L 869.106 618.5 L 869.106 618.5 Z " fill="rgb(0,0,0)" fill-opacity="0.05"/><path d=" M 869.106 700.168 L 869.106 618.5 L 785.094 736.834 L 869.106 700.168 L 869.106 700.168 L 869.106 700.168 L 869.106 700.168 L 869.106 700.168 L 869.106 700.168 Z " fill="rgb(0,0,0)" fill-opacity="0.1"/><path d=" M 854.03 753.5 L 785.094 736.834 L 869.106 700.168 L 854.03 753.5 L 854.03 753.5 L 854.03 753.5 L 854.03 753.5 L 854.03 753.5 L 854.03 753.5 Z " fill="rgb(255,255,255)" fill-opacity="0.1"/><path d=" M 756.144 1035.333 L 793.477 1069.333 L 785.094 736.834 L 739.742 736.834 L 730.774 815.167 L 739.742 902.667 L 756.144 1035.333 L 756.144 1035.333 L 756.144 1035.333 L 756.144 1035.333 Z " fill="rgb(0,0,0)" fill-opacity="0.1"/><path d=" M 785.094 736.834 L 854.03 753.5 L 869.106 803.5 L 835.217 1053.521 L 792.996 1100 L 785.094 736.834 L 785.094 736.834 L 785.094 736.834 L 785.094 736.834 L 785.094 736.834 L 785.094 736.834 Z " fill="rgb(0,0,0)" fill-opacity="0.05"/></g><g><path d=" M 395.99 247.835 L 392.21 427.289 L 459.857 498.908 L 499.253 498.908 L 538.65 498.908 L 611.869 427.289 L 602.517 247.835 L 550.588 211 L 499.253 211 L 447.919 211 L 395.99 247.835 L 395.99 247.835 L 395.99 247.835 L 395.99 247.835 L 395.99 247.835 Z " fill="rgb(255,221,187)"/><path d=" M 602.517 247.835 L 612.665 427.289 L 538.65 498.908 L 499.253 498.908 L 499.253 273.002 L 447.919 211 L 550.588 211 L 602.517 247.835 L 602.517 247.835 L 602.517 247.835 L 602.517 247.835 L 602.517 247.835 Z " fill="rgb(0,0,0)" fill-opacity="0.1"/><path d=" M 447.919 211 L 499.253 273.002 L 550.588 211 L 447.919 211 L 447.919 211 L 447.919 211 L 447.919 211 L 447.919 211 Z " fill="rgb(0,0,0)" fill-opacity="0.1"/><path d=" M 395.99 247.835 L 400.763 355.262 L 411.12 375.12 L 417.775 427.289 L 465.827 488.472 L 499.253 482.948 L 499.253 498.908 L 459.857 498.908 L 392.21 427.289 L 395.99 247.835 L 395.99 247.835 L 395.99 247.835 L 395.99 247.835 L 395.99 247.835 Z " fill="rgb(0,0,0)" fill-opacity="0.1"/><path d=" M 602.517 247.835 L 598.936 355.262 L 580.732 427.289 L 532.68 488.472 L 499.253 482.948 L 499.253 498.908 L 538.65 498.908 L 611.869 427.289 L 602.517 247.835 L 602.517 247.835 L 602.517 247.835 L 602.517 247.835 L 602.517 247.835 Z " fill="rgb(0,0,0)" fill-opacity="0.1"/><path d=" M 464.931 433.837 L 499.253 427.289 L 533.576 433.837 L 499.253 433.837 L 464.931 433.837 L 464.931 433.837 L 464.931 433.837 L 464.931 433.837 L 464.931 433.837 Z " fill="rgb(0,0,0)" fill-opacity="0.1"/><path d=" M 499.253 394.549 L 482.54 385.956 L 515.967 385.956 L 499.253 394.549 L 499.253 394.549 L 499.253 394.549 L 499.253 394.549 L 499.253 394.549 Z " fill="rgb(0,0,0)" fill-opacity="0.1"/></g></g><path d=" M 657.061 599.795 L 716.152 630.5 L 746.208 527.318 L 704.03 495.05 L 657.061 599.795 L 657.061 599.795 L 657.061 599.795 Z " fill="rgb(51,50,50)"/><path d=" M 349 599.795 L 289.909 630.5 L 259.853 527.318 L 302.03 495.05 L 349 599.795 L 349 599.795 L 349 599.795 Z " fill="rgb(51,50,50)"/><g><path d=" M 136.364 599 L 126.761 805.136 L 159.091 1000 L 262.121 1000 L 284.848 819.697 L 274.242 736.364 L 136.364 599 L 136.364 599 Z " fill="rgb(117,117,117)"/><path d=" M 195.333 980.667 L 204 665.333 L 136.364 644.667 L 126.761 805.136 L 159.091 1000 L 195.333 1000 L 195.333 980.667 L 195.333 980.667 Z " fill="rgb(0,0,0)" fill-opacity="0.1"/><path d=" M 195.333 1000 L 203.333 706 L 259.853 725.333 L 240 1000 L 195.333 1000 L 195.333 1000 L 195.333 1000 Z " fill="rgb(0,0,0)" fill-opacity="0.15"/><path d=" M 282.848 841.833 L 221.424 841.833 L 136.364 805.136 L 117.311 841.833 L 136.364 894.864 L 221.424 863.045 L 281.909 863.045 L 282.848 841.833 L 282.848 841.833 L 282.848 841.833 Z " fill="rgb(40,40,40)"/></g><g><path d=" M 868.856 599 L 877.465 803.803 L 846.129 1000 L 743.099 1000 L 720.371 819.697 L 730.977 736.364 L 868.856 599 Z " fill="rgb(117,117,117)"/><path d=" M 805.333 841.833 L 801.22 665.333 L 868.856 644.667 L 877.465 805.136 L 846.129 1000 L 809.886 1000 L 805.333 841.833 Z " fill="rgb(0,0,0)" fill-opacity="0.1"/><path d=" M 809.886 1000 L 801.886 706 L 745.367 725.333 L 765.22 1000 L 809.886 1000 L 809.886 1000 Z " fill="rgb(0,0,0)" fill-opacity="0.15"/><path d=" M 722.371 841.833 L 783.796 841.833 L 868.856 805.136 L 887.909 841.833 L 868.856 894.864 L 783.796 863.045 L 723.311 863.045 L 722.371 841.833 L 722.371 841.833 Z " fill="rgb(40,40,40)"/></g><g><path d=" M 248.485 736.364 L 374.242 943.939 L 374.242 1000 L 631.818 1000 L 631.818 943.939 L 754.545 736.364 L 872.727 599 L 589.394 519.697 L 498.485 540.909 L 413.636 519.697 L 136.364 599 L 248.485 736.364 L 248.485 736.364 L 248.485 736.364 Z " fill="rgb(128,127,127)"/><path d=" M 374.242 1000 L 374.242 943.939 L 248.485 736.364 L 136.364 599 L 248.485 566 L 413.636 943.939 L 413.636 1000 L 374.242 1000 L 374.242 1000 L 374.242 1000 Z " fill="rgb(0,0,0)" fill-opacity="0.2"/><path d=" M 630.394 1000 L 630.394 943.939 L 754.545 736.364 L 872.727 599 L 754.545 566 L 591 943.939 L 591 1000 L 630.394 1000 L 630.394 1000 L 630.394 1000 Z " fill="rgb(0,0,0)" fill-opacity="0.2"/><path d=" M 413.636 1000 L 455 1000 L 455 926 L 345.455 540.909 L 248.485 566 L 413.636 943.939 L 413.636 1000 L 413.636 1000 L 413.636 1000 Z " fill="rgb(0,0,0)" fill-opacity="0.1"/><path d=" M 591.364 1000 L 550 1000 L 550 926 L 659.545 540.909 L 754.545 566 L 591.364 943.939 L 591.364 1000 L 591.364 1000 L 591.364 1000 Z " fill="rgb(0,0,0)" fill-opacity="0.1"/><path d=" M 609.217 926 L 393.939 926 L 337.455 886 L 370.242 943.939 L 632.394 943.939 L 670 886 L 609.217 926 L 609.217 926 L 609.217 926 Z " fill="rgb(75,74,74)"/><path d=" M 609.217 984.848 L 400 984.848 L 374.242 968.182 L 374.242 1000 L 632.394 1000 L 632.394 968.182 L 609.217 984.848 L 609.217 984.848 L 609.217 984.848 Z " fill="rgb(75,74,74)"/><path d=" M 404.122 494.667 L 373.242 519.697 L 383.333 544.205 L 502.02 570 L 622.401 540.909 L 632.818 520.697 L 603.217 493.667 L 581 490.667 L 584.894 504.667 L 588.394 519.697 L 498.485 540.909 L 413.636 519.697 L 416.636 504.667 L 422 490.667 L 404.122 494.667 L 404.122 494.667 L 404.122 494.667 Z " fill="rgb(103,102,102)"/><path d=" M 502.02 579.333 L 621.401 555 L 638.667 536.667 L 631.818 519.697 L 621.401 540.909 L 502.02 566 L 383.333 540.909 L 374.242 519.697 L 370.242 540.909 L 383.333 555 L 502.02 579.333 L 502.02 579.333 L 502.02 579.333 Z " fill="rgb(81,78,78)"/></g><g><path d=" M 276.273 539.167 L 298.18 517.424 L 373.242 636.419 L 312.636 492.07 L 164.152 471.5 L 90.135 522.413 L 73.242 586.409 L 225.788 798 L 276.273 812.5 L 365.242 756 L 276.273 539.167 L 276.273 539.167 L 276.273 539.167 Z " fill="rgb(74,74,74)"/><path d=" M 240.909 540.909 L 288.909 504.106 L 174.507 495.05 L 117.311 534.394 L 109.606 585.409 L 221.424 743.579 L 274.242 773.427 L 321.576 718.609 L 240.909 540.909 L 240.909 540.909 L 240.909 540.909 Z " fill="rgb(40,40,40)"/></g><g><path d=" M 729.788 539.167 L 707.881 517.424 L 632.818 636.419 L 693.424 492.07 L 841.909 471.5 L 915.926 522.413 L 932.818 586.409 L 780.273 798 L 729.788 812.5 L 640.818 756 L 729.788 539.167 L 729.788 539.167 L 729.788 539.167 Z " fill="rgb(74,74,74)"/><path d=" M 765.152 540.909 L 717.152 504.106 L 831.553 495.05 L 888.75 534.394 L 896.455 585.409 L 784.636 743.579 L 731.818 773.427 L 684.485 718.609 L 765.152 540.909 L 765.152 540.909 L 765.152 540.909 Z " fill="rgb(40,40,40)"/></g><g><path d=" M 465.152 992.667 L 438 936.667 L 498.485 933.333 L 558.667 936.667 L 537.879 992.667 L 465.152 992.667 L 465.152 992.667 L 465.152 992.667 Z " fill="rgb(40,40,40)"/><path d=" M 476.701 982.341 L 459 945.832 L 498.432 943.659 L 537.667 945.832 L 524.114 982.341 L 476.701 982.341 L 476.701 982.341 L 476.701 982.341 Z " fill="rgb(125,39,39)"/><path d=" M 498.432 963.5 L 498.432 943.659 L 537.667 945.832 L 524.114 982.341 L 498.485 982.341 L 498.432 963.5 L 498.432 963.5 L 498.432 963.5 Z " fill="rgb(0,0,0)" fill-opacity="0.1"/></g><g><path d=" M 599.551 695.209 L 550.786 799.5 L 453.254 799.5 L 404.488 695.209 L 453.254 590.919 L 550.786 590.919 L 599.551 695.209 L 599.551 695.209 Z " fill="rgb(40,40,40)"/><path d=" M 575.169 695.209 L 538.594 773.427 L 465.446 773.427 L 428.871 695.209 L 465.446 616.992 L 538.594 616.992 L 575.169 695.209 L 575.169 695.209 Z " fill="rgb(125,39,39)"/><path d=" M 502.02 695.209 L 502.02 616.992 L 538.594 616.992 L 502.02 695.209 L 502.02 695.209 L 502.02 695.209 Z " fill="rgb(0,0,0)" fill-opacity="0.1"/><path d=" M 538.594 773.427 L 502.02 695.209 L 502.02 773.427 L 538.594 773.427 L 538.594 773.427 L 538.594 773.427 Z " fill="rgb(255,255,255)" fill-opacity="0.05"/><path d=" M 502.02 695.209 L 502.02 773.427 L 465.446 773.427 L 502.02 695.209 L 502.02 695.209 L 502.02 695.209 Z " fill="rgb(0,0,0)" fill-opacity="0.1"/><path d=" M 465.446 616.992 L 502.02 695.209 L 502.02 616.992 L 465.446 616.992 L 465.446 616.992 L 465.446 616.992 Z " fill="rgb(255,255,255)" fill-opacity="0.05"/><path d=" M 428.871 695.209 L 502.02 695.209 L 465.446 616.992 L 428.871 695.209 L 428.871 695.209 L 428.871 695.209 Z " fill="rgb(0,0,0)" fill-opacity="0.1"/><path d=" M 465.152 773.427 L 428.871 695.209 L 502.02 695.209 L 465.152 773.427 L 465.152 773.427 L 465.152 773.427 Z " fill="rgb(255,255,255)" fill-opacity="0.05"/><path d=" M 538.594 773.427 L 502.02 695.209 L 575.169 695.209 L 538.594 773.427 L 538.594 773.427 L 538.594 773.427 Z " fill="rgb(0,0,0)" fill-opacity="0.1"/><path d=" M 537.879 616.992 L 502.02 695.209 L 575.169 695.209 L 537.879 616.992 L 537.879 616.992 L 537.879 616.992 Z " fill="rgb(255,255,255)" fill-opacity="0.05"/><path d=" M 446.158 624.5 L 362 585 L 344.455 539.909 L 297.788 551.56 L 312 599 L 426.871 667.152 L 446.158 624.5 L 446.158 624.5 L 446.158 624.5 Z " fill="rgb(40,40,40)"/><path d=" M 562.894 624.5 L 642.894 584.295 L 659.439 540.205 L 713.894 554.295 L 692.894 598.295 L 575.863 669.152 L 562.894 624.5 L 562.894 624.5 L 562.894 624.5 Z " fill="rgb(40,40,40)"/><path d=" M 428.871 739 L 362 783 L 321.212 850 L 337.455 886 L 383.333 799.5 L 447.158 767 L 428.871 739 L 428.871 739 L 428.871 739 Z " fill="rgb(40,40,40)"/><path d=" M 575.863 739 L 642.734 783 L 683.522 850 L 667.28 886 L 621.401 799.5 L 557.576 767 L 575.863 739 L 575.863 739 L 575.863 739 Z " fill="rgb(40,40,40)"/><path d=" M 428.871 673.795 L 481 674.5 L 455 619.5 L 428.871 673.795 L 428.871 673.795 L 428.871 673.795 Z " fill="rgb(40,40,40)"/><path d=" M 554 624.5 L 529 674.5 L 584.894 674.5 L 554 624.5 L 554 624.5 L 554 624.5 Z " fill="rgb(40,40,40)"/><path d=" M 567.5 739 L 529 710.5 L 554 767 L 567.5 739 L 567.5 739 L 567.5 739 Z " fill="rgb(40,40,40)"/><path d=" M 453.254 767 Q 451.5 764 476.701 710.5 L 435 734.318 Q 455.008 770 453.254 767 Z " fill="rgb(40,40,40)"/><path d=" M 490 783 L 502.02 752.5 L 515 783 L 490 783 L 490 783 L 490 783 Z " fill="rgb(40,40,40)"/><path d=" M 490 608 L 502.02 643.064 L 515 608 L 490 608 L 490 608 L 490 608 Z " fill="rgb(40,40,40)"/></g></g></svg>