<?xml version="1.0" encoding="UTF-8" standalone="no"?><!-- Generator: Gravit.io --><svg xmlns="http://www.w3.org/2000/svg" xmlns:xlink="http://www.w3.org/1999/xlink" style="isolation:isolate" viewBox="0 0 1000 1000" width="1000pt" height="1000pt"><defs><clipPath id="_clipPath_kLD2vLVqnAZ4Fu5SPD5lVEGUNrksxRG9"><rect width="1000" height="1000"/></clipPath></defs><g clip-path="url(#_clipPath_kLD2vLVqnAZ4Fu5SPD5lVEGUNrksxRG9)"><rect width="1000" height="1000" style="fill:rgb(0,0,0)" fill-opacity="0"/><path d=" M 265.152 631.818 L 330.303 1000 L 678.788 1000 L 736.364 631.818 L 265.152 631.818 L 265.152 631.818 Z " fill="rgb(7,36,10)"/><g><g><path d=" M 501.062 629.867 L 619.334 548.019 L 589.458 518.522 L 558.764 419.513 L 501.062 419.513 L 501.062 629.867 L 501.062 629.867 L 501.062 629.867 L 501.062 629.867 L 501.062 629.867 Z " fill="rgb(0,0,0)" fill-opacity="0.1"/><path d=" M 577.833 1174.168 L 627.966 935.521 L 798.864 645.009 L 588.64 518.552 L 560.421 419.513 L 499.554 419.513 L 447.654 419.513 L 411.435 518.552 L 201.212 645.009 L 377.931 935.521 L 422.243 1174.168 L 500.521 1211 L 577.833 1174.168 L 577.833 1174.168 L 577.833 1174.168 L 577.833 1174.168 Z " fill="rgb(255,221,187)"/><path d=" M 499.554 492.769 L 499.554 419.513 L 560.421 419.513 L 588.64 518.552 L 798.864 645.009 L 627.966 935.521 L 577.833 1174.168 L 499.554 1211 L 499.554 492.769 L 499.554 492.769 L 499.554 492.769 L 499.554 492.769 Z " fill="rgb(0,0,0)" fill-opacity="0.1"/><path d=" M 340.226 700.258 L 393.018 743.228 L 500.521 743.228 L 607.055 743.228 L 659.849 700.258 L 588.64 729.724 L 411.435 729.724 L 340.226 700.258 L 340.226 700.258 L 340.226 700.258 L 340.226 700.258 L 340.226 700.258 Z " fill="rgb(0,0,0)" fill-opacity="0.1"/><path d=" M 377.931 935.521 L 422.243 1174.168 L 499.554 1211 L 395.592 820.723 L 201.212 645.009 L 377.931 935.521 L 377.931 935.521 L 377.931 935.521 L 377.931 935.521 L 377.931 935.521 Z " fill="rgb(0,0,0)" fill-opacity="0.1"/><path d=" M 627.966 935.521 L 577.833 1174.168 L 500.521 1211 L 605.389 819.057 L 798.864 645.009 L 627.966 935.521 L 627.966 935.521 L 627.966 935.521 L 627.966 935.521 L 627.966 935.521 Z " fill="rgb(0,0,0)" fill-opacity="0.1"/><path d=" M 426.516 541.006 L 377.931 576.556 L 440.736 557.596 L 482.988 571.117 L 499.554 659.902 L 516.104 571.498 L 560.421 557.596 L 627.966 576.556 L 573.456 541.006 L 560.421 529.156 L 499.554 557.596 L 440.736 529.156 L 426.516 541.006 L 426.516 541.006 L 426.516 541.006 L 426.516 541.006 L 426.516 541.006 Z " fill="rgb(0,0,0)" fill-opacity="0.1"/></g><g><path d=" M 222.383 589.612 L 138.371 618.5 L 138.371 700.168 L 153.447 753.5 L 138.371 803.5 L 172.26 1022.535 L 214.481 1070.423 L 253.421 1029.577 L 276.703 815.167 L 267.735 736.834 L 305.037 643.501 L 222.383 589.612 L 222.383 589.612 L 222.383 589.612 L 222.383 589.612 L 222.383 589.612 Z " fill="rgb(255,221,187)"/><path d=" M 222.383 736.834 L 305.037 643.501 L 267.735 736.834 L 222.383 736.834 L 222.383 736.834 L 222.383 736.834 L 222.383 736.834 L 222.383 736.834 Z " fill="rgb(0,0,0)" fill-opacity="0.2"/><path d=" M 222.383 589.612 L 222.383 736.834 L 305.037 643.501 L 222.383 589.612 L 222.383 589.612 L 222.383 589.612 L 222.383 589.612 L 222.383 589.612 Z " fill="rgb(0,0,0)" fill-opacity="0.15"/><path d=" M 138.371 618.5 L 222.383 736.834 L 222.383 589.612 L 138.371 618.5 L 138.371 618.5 L 138.371 618.5 L 138.371 618.5 L 138.371 618.5 Z " fill="rgb(0,0,0)" fill-opacity="0.05"/><path d=" M 138.371 700.168 L 138.371 618.5 L 222.383 736.834 L 138.371 700.168 L 138.371 700.168 L 138.371 700.168 L 138.371 700.168 L 138.371 700.168 Z " fill="rgb(0,0,0)" fill-opacity="0.1"/><path d=" M 153.447 753.5 L 222.383 736.834 L 138.371 700.168 L 153.447 753.5 L 153.447 753.5 L 153.447 753.5 L 153.447 753.5 L 153.447 753.5 Z " fill="rgb(255,255,255)" fill-opacity="0.1"/><path d=" M 251.333 1035.333 L 214 1069.333 L 222.383 736.834 L 267.735 736.834 L 276.703 815.167 L 267.735 902.667 L 251.333 1035.333 L 251.333 1035.333 L 251.333 1035.333 Z " fill="rgb(0,0,0)" fill-opacity="0.1"/><path d=" M 222.383 736.834 L 153.447 753.5 L 138.371 803.5 L 172.26 1053.521 L 214.481 1100 L 222.383 736.834 L 222.383 736.834 L 222.383 736.834 L 222.383 736.834 L 222.383 736.834 Z " fill="rgb(0,0,0)" fill-opacity="0.05"/></g><g><path d=" M 785.094 589.612 L 869.106 618.5 L 869.106 700.168 L 854.03 753.5 L 869.106 803.5 L 835.217 1022.535 L 792.996 1070.422 L 754.056 1029.578 L 730.774 815.167 L 739.742 736.834 L 702.44 643.501 L 785.094 589.612 L 785.094 589.612 L 785.094 589.612 L 785.094 589.612 L 785.094 589.612 Z " fill="rgb(255,221,187)"/><path d=" M 785.094 736.834 L 702.44 643.501 L 739.742 736.834 L 785.094 736.834 L 785.094 736.834 L 785.094 736.834 L 785.094 736.834 L 785.094 736.834 Z " fill="rgb(0,0,0)" fill-opacity="0.2"/><path d=" M 785.094 589.612 L 785.094 736.834 L 702.44 643.501 L 785.094 589.612 L 785.094 589.612 L 785.094 589.612 L 785.094 589.612 L 785.094 589.612 Z " fill="rgb(0,0,0)" fill-opacity="0.15"/><path d=" M 869.106 618.5 L 785.094 736.834 L 785.094 589.612 L 869.106 618.5 L 869.106 618.5 L 869.106 618.5 L 869.106 618.5 L 869.106 618.5 Z " fill="rgb(0,0,0)" fill-opacity="0.05"/><path d=" M 869.106 700.168 L 869.106 618.5 L 785.094 736.834 L 869.106 700.168 L 869.106 700.168 L 869.106 700.168 L 869.106 700.168 L 869.106 700.168 Z " fill="rgb(0,0,0)" fill-opacity="0.1"/><path d=" M 854.03 753.5 L 785.094 736.834 L 869.106 700.168 L 854.03 753.5 L 854.03 753.5 L 854.03 753.5 L 854.03 753.5 L 854.03 753.5 Z " fill="rgb(255,255,255)" fill-opacity="0.1"/><path d=" M 756.144 1035.333 L 793.477 1069.333 L 785.094 736.834 L 739.742 736.834 L 730.774 815.167 L 739.742 902.667 L 756.144 1035.333 L 756.144 1035.333 L 756.144 1035.333 Z " fill="rgb(0,0,0)" fill-opacity="0.1"/><path d=" M 785.094 736.834 L 854.03 753.5 L 869.106 803.5 L 835.217 1053.521 L 792.996 1100 L 785.094 736.834 L 785.094 736.834 L 785.094 736.834 L 785.094 736.834 L 785.094 736.834 Z " fill="rgb(0,0,0)" fill-opacity="0.05"/></g><g><path d=" M 395.99 247.835 L 392.21 427.289 L 459.857 498.908 L 499.253 498.908 L 538.65 498.908 L 611.869 427.289 L 602.517 247.835 L 550.588 211 L 499.253 211 L 447.919 211 L 395.99 247.835 L 395.99 247.835 L 395.99 247.835 L 395.99 247.835 Z " fill="rgb(255,221,187)"/><path d=" M 602.517 247.835 L 612.665 427.289 L 538.65 498.908 L 499.253 498.908 L 499.253 273.002 L 447.919 211 L 550.588 211 L 602.517 247.835 L 602.517 247.835 L 602.517 247.835 L 602.517 247.835 Z " fill="rgb(0,0,0)" fill-opacity="0.1"/><path d=" M 447.919 211 L 499.253 273.002 L 550.588 211 L 447.919 211 L 447.919 211 L 447.919 211 L 447.919 211 Z " fill="rgb(0,0,0)" fill-opacity="0.1"/><path d=" M 395.99 247.835 L 400.763 355.262 L 411.12 375.12 L 417.775 427.289 L 465.827 488.472 L 499.253 482.948 L 499.253 498.908 L 459.857 498.908 L 392.21 427.289 L 395.99 247.835 L 395.99 247.835 L 395.99 247.835 L 395.99 247.835 Z " fill="rgb(0,0,0)" fill-opacity="0.1"/><path d=" M 602.517 247.835 L 598.936 355.262 L 580.732 427.289 L 532.68 488.472 L 499.253 482.948 L 499.253 498.908 L 538.65 498.908 L 611.869 427.289 L 602.517 247.835 L 602.517 247.835 L 602.517 247.835 L 602.517 247.835 Z " fill="rgb(0,0,0)" fill-opacity="0.1"/><path d=" M 464.931 433.837 L 499.253 427.289 L 533.576 433.837 L 499.253 433.837 L 464.931 433.837 L 464.931 433.837 L 464.931 433.837 L 464.931 433.837 Z " fill="rgb(0,0,0)" fill-opacity="0.1"/><path d=" M 499.253 394.549 L 482.54 385.956 L 515.967 385.956 L 499.253 394.549 L 499.253 394.549 L 499.253 394.549 L 499.253 394.549 Z " fill="rgb(0,0,0)" fill-opacity="0.1"/></g></g><g><path d=" M 387.399 532.974 L 348 518.31 L 412 518.31 L 498.592 640 L 588.724 518.31 L 640.845 518.31 L 607.547 529.666 L 692.424 580.873 L 794 640 L 716 802 L 640.845 952 L 630 1000 L 381.69 1000 L 366 952 L 276 802 L 194 640 L 307.042 580.873 L 387.399 532.974 Z " fill="rgb(14,83,35)"/><path d=" M 276 802 L 194 640 L 412 943 L 429 1000 L 381.69 1000 L 366 952 L 276 802 L 276 802 Z " fill="rgb(0,0,0)" fill-opacity="0.2"/><path d=" M 794 640 L 716 802 L 640.845 952 L 630 1000 L 583 1000 L 588.724 943 L 794 640 L 794 640 Z " fill="rgb(0,0,0)" fill-opacity="0.2"/><path d=" M 348 518.31 L 412 518.31 L 498.592 640 L 387.399 532.974 L 348 518.31 Z " fill="rgb(0,0,0)" fill-opacity="0.2"/><path d=" M 348 556 L 387.399 532.974 L 498.592 640 L 348 556 Z " fill="rgb(0,0,0)" fill-opacity="0.3"/><path d=" M 307.042 580.873 L 348 556 L 498.592 640 L 307.042 580.873 Z " fill="rgb(0,0,0)" fill-opacity="0.1"/><path d=" M 651 556 L 692.424 580.873 L 498.592 640 L 651 556 Z " fill="rgb(0,0,0)" fill-opacity="0.1"/><path d=" M 651 556 L 607.547 529.666 L 498.592 640 L 651 556 Z " fill="rgb(0,0,0)" fill-opacity="0.3"/><path d=" M 640.845 518.31 L 588.724 518.31 L 498.592 640 L 607.547 529.666 L 640.845 518.31 Z " fill="rgb(0,0,0)" fill-opacity="0.2"/><path d=" M 477 1000 L 463 924 L 266 602 L 194 640 L 412 943 L 429 1000 L 477 1000 L 477 1000 Z " fill="rgb(0,0,0)" fill-opacity="0.1"/><path d=" M 535 1000 L 542 924 L 726 601 L 794 640 L 588.724 943 L 583 1000 L 535 1000 L 535 1000 Z " fill="rgb(0,0,0)" fill-opacity="0.1"/><path d=" M 212.121 580.873 L 633.788 996 L 646.845 943 L 670.182 897.97 L 316.667 580.873 L 212.121 580.873 Z " fill="rgb(59,18,18)"/><path d=" M 212.121 580.873 L 633.788 996 L 646.845 943 L 276 580.873 L 212.121 580.873 Z " fill="rgb(0,0,0)" fill-opacity="0.1"/><g><path d=" M 555.619 784.748 L 545.3 796.067 L 585.583 832.789 L 595.901 821.47 L 555.619 784.748 Z " fill="rgb(234,162,91)"/><path d=" M 543.593 782.561 L 565.769 807.717 L 597.616 830.957 L 490.94 947.976 L 418.275 969.512 L 379 969.512 L 437.341 899.115 L 543.593 782.561 Z " fill="rgb(74,44,10)"/><path d=" M 481.333 802.696 L 530 846.667 L 571.239 884.667 L 561.321 912 L 504 875.333 L 469.333 821.47 L 481.333 802.696 Z " fill="rgb(53,16,16)"/><path d=" M 379 969.512 L 451.217 933.375 L 565.769 807.717 L 597.616 830.957 L 490.94 947.976 L 418.275 969.512 L 379 969.512 Z " fill="rgb(0,0,0)" fill-opacity="0.1"/><path d=" M 567.368 780.219 L 541.177 770.165 L 513.998 784.6 L 536.354 783.645 L 565.22 799.292 L 569.018 804.153 L 574.209 807.486 L 595.446 837.514 L 593.564 857.133 L 607.72 832.244 L 593.501 804.043 L 646.667 741.333 L 638.667 729.333 L 623.849 724.667 L 567.368 780.219 Z " fill="rgb(59,51,51)"/><path d=" M 569.018 804.153 L 574.209 807.486 L 595.446 837.514 L 593.564 857.133 L 607.72 832.244 L 593.501 804.043 L 646.667 741.333 L 638.667 729.333 L 569.018 804.153 Z " fill="rgb(0,0,0)" fill-opacity="0.1"/><polygon points="543.259,779.085,541.68,780.817,539.389,780.316,538.678,778.081,540.258,776.349,542.549,776.85" fill="rgb(198,134,32)"/><polygon points="602.771,833.336,601.191,835.069,598.901,834.567,598.19,832.333,599.77,830.6,602.06,831.102" fill="rgb(198,134,32)"/><polygon points="577.661,803.425,571.01,801.968,568.945,795.479,573.533,790.447,580.185,791.903,582.249,798.392" fill="rgb(198,134,32)"/><polygon points="590.146,819.485,585.677,818.507,584.29,814.147,587.372,810.766,591.842,811.744,593.229,816.104" fill="rgb(198,134,32)"/><polygon points="558.239,790.232,553.77,789.254,552.383,784.894,555.465,781.513,559.934,782.491,561.321,786.851" fill="rgb(198,134,32)"/></g><path d=" M 507.333 789.333 L 504 802 L 535 842 L 578 870.667 L 588.724 859.333 L 592.667 848.667 L 559.25 816.75 L 527.333 789.333 L 507.333 789.333 Z " fill="rgb(59,18,18)"/><path d=" M 498.592 742.667 L 366 710.606 L 348 697.333 L 307.042 580.873 L 359 549 L 498.592 742.667 L 498.592 742.667 Z " fill="rgb(7,36,10)"/><path d=" M 640.845 718.182 L 660.667 697.333 L 692.424 580.873 L 641.845 549 L 498.592 742.667 L 640.845 718.182 L 640.845 718.182 Z " fill="rgb(7,36,10)"/><g><path d=" M 520.981 729.161 L 510.64 717.835 L 502.884 710.079 L 482.201 722.513 L 474.076 729.161 L 459.795 733.839 L 474.076 747.628 L 487.126 752.552 L 498.821 762.155 L 514.703 757.231 L 520.981 744.371 L 526.7 741.965 L 535.564 741.965 L 541.72 736.246 L 526.7 733.839 L 520.981 729.161 L 520.981 729.161 Z " fill="rgb(157,230,179)"/><path d=" M 474.076 729.161 L 499.124 737.477 L 482.201 722.457 L 474.076 729.161 L 474.076 729.161 Z " fill="rgb(0,0,0)" fill-opacity="0.1"/><path d=" M 459.795 733.839 L 474.076 747.628 L 498.821 737.477 L 474.076 729.161 L 459.795 733.839 L 459.795 733.839 Z " fill="rgb(0,0,0)" fill-opacity="0.15"/><path d=" M 502.884 710.079 L 482.201 722.457 L 498.821 737.477 L 502.884 710.079 L 502.884 710.079 Z " fill="rgb(255,255,255)" fill-opacity="0.15"/><path d=" M 520.981 729.161 L 526.7 733.839 L 498.821 737.477 L 503.746 710.079 L 520.981 729.161 L 520.981 729.161 Z " fill="rgb(255,255,255)" fill-opacity="0.05"/><path d=" M 474.076 747.628 L 499.124 737.477 L 487.126 752.552 L 474.076 747.628 L 474.076 747.628 Z " fill="rgb(255,255,255)" fill-opacity="0.05"/><path d=" M 514.703 757.231 L 498.821 737.477 L 487.126 752.552 L 498.821 762.155 L 514.703 757.231 L 514.703 757.231 Z " fill="rgb(0,0,0)" fill-opacity="0.05"/><path d=" M 520.981 744.371 L 499.124 737.477 L 514.703 757.231 L 520.981 744.371 L 520.981 744.371 Z " fill="rgb(0,0,0)" fill-opacity="0.1"/><path d=" M 526.7 741.965 L 499.124 737.477 L 520.981 744.371 L 526.7 741.965 L 526.7 741.965 Z " fill="rgb(0,0,0)" fill-opacity="0.15"/><path d=" M 526.7 733.839 L 499.124 737.477 L 527.87 737.477 L 535.564 739.939 L 541.72 736.246 L 526.7 733.839 L 526.7 733.839 Z " fill="rgb(255,255,255)" fill-opacity="0.15"/></g></g><g><path d=" M 149.091 681 L 109.017 772.667 L 119.333 876 L 154.269 889.004 L 167 872 L 175.043 884.185 L 217.904 874.243 L 226.902 829.5 L 235.9 870.069 L 275 861 L 280.909 733.042 L 149.091 681 L 149.091 681 Z " fill="rgb(15,87,37)"/><path d=" M 149.091 681 L 167 872 L 154.269 889.004 L 119.333 876 L 109.017 772.667 L 149.091 681 L 149.091 681 Z " fill="rgb(0,0,0)" fill-opacity="0.05"/><path d=" M 275 861 L 235.9 870.069 L 226.902 829.5 L 217.904 874.243 L 208 876 L 221.333 709.333 L 280.909 733.042 L 275 861 L 275 861 Z " fill="rgb(0,0,0)" fill-opacity="0.15"/><path d=" M 149.091 681 L 221.333 709.333 L 208 876 L 175.043 884.185 L 167 872 L 149.091 681 L 149.091 681 Z " fill="rgb(0,0,0)" fill-opacity="0.1"/><g><path d=" M 312.535 574.648 L 209.718 574.648 L 123.803 614.085 L 117.039 636.375 L 122.014 642.935 L 105.71 673.71 L 109.017 684.47 L 95.902 706.03 L 97.804 714.536 L 87.705 733.042 L 61.831 818.31 L 312.535 733.803 L 350.72 703.736 L 350.72 659.644 L 312.535 574.648 L 312.535 574.648 Z " fill="rgb(15,87,37)"/><path d=" M 122.014 642.935 L 319.416 602.667 L 324.149 609.887 L 105.71 671.887 L 122.014 642.935 L 122.014 642.935 Z " fill="rgb(0,0,0)" fill-opacity="0.1"/><path d=" M 123.803 614.085 L 117.039 636.375 L 209.718 592.424 L 312.535 574.648 L 209.718 574.648 L 123.803 614.085 L 123.803 614.085 Z " fill="rgb(0,0,0)" fill-opacity="0.1"/><path d=" M 332.5 647.5 L 97.804 714.536 L 95.902 706.03 L 324.149 642.935 L 332.5 647.5 L 332.5 647.5 Z " fill="rgb(0,0,0)" fill-opacity="0.1"/><path d=" M 87.705 733.803 L 76.667 772.667 L 332.5 671.887 L 328.028 659.644 L 87.705 733.803 L 87.705 733.803 Z " fill="rgb(0,0,0)" fill-opacity="0.1"/><path d=" M 350.72 659.644 L 312.535 574.648 L 328.028 666.229 L 328.028 702.008 L 300.485 715.922 L 71.099 786.324 L 61.831 818.31 L 312.535 733.803 L 350.72 703.736 L 350.72 659.644 L 350.72 659.644 Z " fill="rgb(74,20,20)"/><g><path d=" M 376.208 718.338 L 338.347 740.198 L 300.485 718.338 L 300.485 674.619 L 338.347 652.76 L 376.208 674.619 L 376.208 718.338 Z " fill="rgb(235,235,235)"/><path d=" M 366.743 712.873 L 338.347 729.268 L 309.951 712.873 L 309.951 680.084 L 338.347 663.69 L 366.743 680.084 L 366.743 712.873 Z " fill="rgb(89,89,89)"/><path d=" M 338.347 652.76 L 338.347 696.479 L 376.208 674.619 L 338.347 652.76 L 338.347 652.76 Z " fill="rgb(0,0,0)" fill-opacity="0.1"/><path d=" M 376.208 718.338 L 338.347 696.479 L 376.208 674.619 L 376.208 718.338 L 376.208 718.338 Z " fill="rgb(255,255,255)" fill-opacity="0.05"/><path d=" M 338.347 740.198 L 338.347 696.479 L 376.208 718.338 L 338.347 740.198 L 338.347 740.198 Z " fill="rgb(0,0,0)" fill-opacity="0.1"/><path d=" M 300.485 718.338 L 338.347 696.479 L 338.347 740.198 L 300.485 718.338 L 300.485 718.338 Z " fill="rgb(255,255,255)" fill-opacity="0.05"/><path d=" M 300.485 674.619 L 338.347 696.479 L 300.485 718.338 L 300.485 674.619 L 300.485 674.619 Z " fill="rgb(0,0,0)" fill-opacity="0.1"/><path d=" M 338.347 652.76 L 338.347 696.479 L 300.485 674.619 L 338.347 652.76 L 338.347 652.76 Z " fill="rgb(255,255,255)" fill-opacity="0.05"/></g></g></g><g><path d=" M 848.464 681 L 888.538 772.667 L 878.221 876 L 843.286 889.004 L 830.555 872 L 822.512 884.185 L 779.65 874.243 L 770.652 829.5 L 761.655 870.069 L 722.555 861 L 716.646 733.042 L 848.464 681 L 848.464 681 Z " fill="rgb(15,87,37)"/><path d=" M 848.464 681 L 830.555 872 L 843.286 889.004 L 878.221 876 L 888.538 772.667 L 848.464 681 L 848.464 681 Z " fill="rgb(0,0,0)" fill-opacity="0.05"/><path d=" M 722.555 861 L 761.655 870.069 L 770.652 829.5 L 779.65 874.243 L 789.555 876 L 776.221 709.333 L 716.646 733.042 L 722.555 861 L 722.555 861 Z " fill="rgb(0,0,0)" fill-opacity="0.15"/><path d=" M 848.464 681 L 776.221 709.333 L 789.555 876 L 822.512 884.185 L 830.555 872 L 848.464 681 L 848.464 681 Z " fill="rgb(0,0,0)" fill-opacity="0.1"/><g><path d=" M 685.019 574.648 L 787.836 574.648 L 873.752 614.085 L 880.516 636.375 L 875.541 642.935 L 891.845 673.71 L 888.538 684.47 L 901.653 706.03 L 899.751 714.536 L 909.849 733.042 L 935.724 818.31 L 685.019 733.803 L 646.835 703.736 L 646.835 659.644 L 685.019 574.648 L 685.019 574.648 Z " fill="rgb(15,87,37)"/><path d=" M 875.541 642.935 L 678.139 602.667 L 673.406 609.887 L 891.845 671.887 L 875.541 642.935 L 875.541 642.935 Z " fill="rgb(0,0,0)" fill-opacity="0.1"/><path d=" M 873.752 614.085 L 880.516 636.375 L 787.836 592.424 L 685.019 574.648 L 787.836 574.648 L 873.752 614.085 L 873.752 614.085 Z " fill="rgb(0,0,0)" fill-opacity="0.1"/><path d=" M 665.055 647.5 L 899.751 714.536 L 901.653 706.03 L 673.406 642.935 L 665.055 647.5 L 665.055 647.5 Z " fill="rgb(0,0,0)" fill-opacity="0.1"/><path d=" M 909.849 733.803 L 920.888 772.667 L 665.055 671.887 L 669.526 659.644 L 909.849 733.803 L 909.849 733.803 Z " fill="rgb(0,0,0)" fill-opacity="0.1"/><path d=" M 646.835 659.644 L 685.019 574.648 L 669.526 666.229 L 669.526 702.008 L 697.069 715.922 L 926.456 786.324 L 935.724 818.31 L 685.019 733.803 L 646.835 703.736 L 646.835 659.644 L 646.835 659.644 Z " fill="rgb(74,20,20)"/><g><path d=" M 621.346 718.338 L 659.208 740.198 L 697.069 718.338 L 697.069 674.619 L 659.208 652.76 L 621.346 674.619 L 621.346 718.338 Z " fill="rgb(235,235,235)"/><path d=" M 630.812 712.873 L 659.208 729.268 L 687.604 712.873 L 687.604 680.084 L 659.208 663.69 L 630.812 680.084 L 630.812 712.873 Z " fill="rgb(89,89,89)"/><path d=" M 659.208 652.76 L 659.208 696.479 L 621.346 674.62 L 659.208 652.76 L 659.208 652.76 Z " fill="rgb(0,0,0)" fill-opacity="0.1"/><path d=" M 621.346 718.338 L 659.208 696.479 L 621.346 674.62 L 621.346 718.338 L 621.346 718.338 Z " fill="rgb(255,255,255)" fill-opacity="0.05"/><path d=" M 659.208 740.198 L 659.208 696.479 L 621.346 718.338 L 659.208 740.198 L 659.208 740.198 Z " fill="rgb(0,0,0)" fill-opacity="0.1"/><path d=" M 697.069 718.338 L 659.208 696.479 L 659.208 740.198 L 697.069 718.338 L 697.069 718.338 Z " fill="rgb(255,255,255)" fill-opacity="0.05"/><path d=" M 697.069 674.62 L 659.208 696.479 L 697.069 718.338 L 697.069 674.62 L 697.069 674.62 Z " fill="rgb(0,0,0)" fill-opacity="0.1"/><path d=" M 659.208 652.76 L 659.208 696.479 L 697.069 674.62 L 659.208 652.76 L 659.208 652.76 Z " fill="rgb(255,255,255)" fill-opacity="0.05"/></g></g></g></g></svg>