<?xml version="1.0" encoding="UTF-8" standalone="no"?><!-- Generator: Gravit.io --><svg xmlns="http://www.w3.org/2000/svg" xmlns:xlink="http://www.w3.org/1999/xlink" style="isolation:isolate" viewBox="0 0 1000 1000" width="1000pt" height="1000pt"><defs><clipPath id="_clipPath_qxrYGp0lPAzpl9vDMembJNLw5L4a5jM2"><rect width="1000" height="1000"/></clipPath></defs><g clip-path="url(#_clipPath_qxrYGp0lPAzpl9vDMembJNLw5L4a5jM2)"><rect width="1000" height="1000" style="fill:rgb(0,0,0)" fill-opacity="0"/><g><path d=" M 501.062 629.867 L 619.334 548.019 L 589.458 518.522 L 558.764 419.513 L 501.062 419.513 L 501.062 629.867 L 501.062 629.867 L 501.062 629.867 L 501.062 629.867 Z " fill="rgb(0,0,0)" fill-opacity="0.1"/><path d=" M 577.833 1174.168 L 627.966 935.521 L 798.864 645.009 L 588.64 518.552 L 560.421 419.513 L 499.554 419.513 L 447.654 419.513 L 411.435 518.552 L 201.212 645.009 L 377.931 935.521 L 422.243 1174.168 L 500.521 1211 L 577.833 1174.168 L 577.833 1174.168 L 577.833 1174.168 Z " fill="rgb(255,221,187)"/><path d=" M 499.554 492.769 L 499.554 419.513 L 560.421 419.513 L 588.64 518.552 L 798.864 645.009 L 627.966 935.521 L 577.833 1174.168 L 499.554 1211 L 499.554 492.769 L 499.554 492.769 L 499.554 492.769 Z " fill="rgb(0,0,0)" fill-opacity="0.1"/><path d=" M 340.226 700.258 L 393.018 743.228 L 500.521 743.228 L 607.055 743.228 L 659.849 700.258 L 588.64 729.724 L 411.435 729.724 L 340.226 700.258 L 340.226 700.258 L 340.226 700.258 L 340.226 700.258 Z " fill="rgb(0,0,0)" fill-opacity="0.1"/><path d=" M 377.931 935.521 L 422.243 1174.168 L 499.554 1211 L 395.592 820.723 L 201.212 645.009 L 377.931 935.521 L 377.931 935.521 L 377.931 935.521 L 377.931 935.521 Z " fill="rgb(0,0,0)" fill-opacity="0.1"/><path d=" M 627.966 935.521 L 577.833 1174.168 L 500.521 1211 L 605.389 819.057 L 798.864 645.009 L 627.966 935.521 L 627.966 935.521 L 627.966 935.521 L 627.966 935.521 Z " fill="rgb(0,0,0)" fill-opacity="0.1"/><path d=" M 426.516 541.006 L 377.931 576.556 L 440.736 557.596 L 482.988 571.117 L 499.554 659.902 L 516.104 571.498 L 560.421 557.596 L 627.966 576.556 L 573.456 541.006 L 560.421 529.156 L 499.554 557.596 L 440.736 529.156 L 426.516 541.006 L 426.516 541.006 L 426.516 541.006 L 426.516 541.006 Z " fill="rgb(0,0,0)" fill-opacity="0.1"/></g><g><path d=" M 222.383 589.612 L 138.371 618.5 L 138.371 700.168 L 153.447 753.5 L 138.371 803.5 L 172.26 1022.535 L 214.481 1070.423 L 253.421 1029.577 L 276.703 815.167 L 267.735 736.834 L 305.037 643.501 L 222.383 589.612 L 222.383 589.612 L 222.383 589.612 L 222.383 589.612 Z " fill="rgb(255,221,187)"/><path d=" M 222.383 736.834 L 305.037 643.501 L 267.735 736.834 L 222.383 736.834 L 222.383 736.834 L 222.383 736.834 L 222.383 736.834 Z " fill="rgb(0,0,0)" fill-opacity="0.2"/><path d=" M 222.383 589.612 L 222.383 736.834 L 305.037 643.501 L 222.383 589.612 L 222.383 589.612 L 222.383 589.612 L 222.383 589.612 Z " fill="rgb(0,0,0)" fill-opacity="0.15"/><path d=" M 138.371 618.5 L 222.383 736.834 L 222.383 589.612 L 138.371 618.5 L 138.371 618.5 L 138.371 618.5 L 138.371 618.5 Z " fill="rgb(0,0,0)" fill-opacity="0.05"/><path d=" M 138.371 700.168 L 138.371 618.5 L 222.383 736.834 L 138.371 700.168 L 138.371 700.168 L 138.371 700.168 L 138.371 700.168 Z " fill="rgb(0,0,0)" fill-opacity="0.1"/><path d=" M 153.447 753.5 L 222.383 736.834 L 138.371 700.168 L 153.447 753.5 L 153.447 753.5 L 153.447 753.5 L 153.447 753.5 Z " fill="rgb(255,255,255)" fill-opacity="0.1"/><path d=" M 251.333 1035.333 L 214 1069.333 L 222.383 736.834 L 267.735 736.834 L 276.703 815.167 L 267.735 902.667 L 251.333 1035.333 L 251.333 1035.333 Z " fill="rgb(0,0,0)" fill-opacity="0.1"/><path d=" M 222.383 736.834 L 153.447 753.5 L 138.371 803.5 L 172.26 1053.521 L 214.481 1100 L 222.383 736.834 L 222.383 736.834 L 222.383 736.834 L 222.383 736.834 Z " fill="rgb(0,0,0)" fill-opacity="0.05"/></g><g><path d=" M 785.094 589.612 L 869.106 618.5 L 869.106 700.168 L 854.03 753.5 L 869.106 803.5 L 835.217 1022.535 L 792.996 1070.422 L 754.056 1029.578 L 730.774 815.167 L 739.742 736.834 L 702.44 643.501 L 785.094 589.612 L 785.094 589.612 L 785.094 589.612 L 785.094 589.612 Z " fill="rgb(255,221,187)"/><path d=" M 785.094 736.834 L 702.44 643.501 L 739.742 736.834 L 785.094 736.834 L 785.094 736.834 L 785.094 736.834 L 785.094 736.834 Z " fill="rgb(0,0,0)" fill-opacity="0.2"/><path d=" M 785.094 589.612 L 785.094 736.834 L 702.44 643.501 L 785.094 589.612 L 785.094 589.612 L 785.094 589.612 L 785.094 589.612 Z " fill="rgb(0,0,0)" fill-opacity="0.15"/><path d=" M 869.106 618.5 L 785.094 736.834 L 785.094 589.612 L 869.106 618.5 L 869.106 618.5 L 869.106 618.5 L 869.106 618.5 Z " fill="rgb(0,0,0)" fill-opacity="0.05"/><path d=" M 869.106 700.168 L 869.106 618.5 L 785.094 736.834 L 869.106 700.168 L 869.106 700.168 L 869.106 700.168 L 869.106 700.168 Z " fill="rgb(0,0,0)" fill-opacity="0.1"/><path d=" M 854.03 753.5 L 785.094 736.834 L 869.106 700.168 L 854.03 753.5 L 854.03 753.5 L 854.03 753.5 L 854.03 753.5 Z " fill="rgb(255,255,255)" fill-opacity="0.1"/><path d=" M 756.144 1035.333 L 793.477 1069.333 L 785.094 736.834 L 739.742 736.834 L 730.774 815.167 L 739.742 902.667 L 756.144 1035.333 L 756.144 1035.333 Z " fill="rgb(0,0,0)" fill-opacity="0.1"/><path d=" M 785.094 736.834 L 854.03 753.5 L 869.106 803.5 L 835.217 1053.521 L 792.996 1100 L 785.094 736.834 L 785.094 736.834 L 785.094 736.834 L 785.094 736.834 Z " fill="rgb(0,0,0)" fill-opacity="0.05"/></g><g><path d=" M 395.99 247.835 L 392.21 427.289 L 459.857 498.908 L 499.253 498.908 L 538.65 498.908 L 611.869 427.289 L 602.517 247.835 L 550.588 211 L 499.253 211 L 447.919 211 L 395.99 247.835 L 395.99 247.835 L 395.99 247.835 Z " fill="rgb(255,221,187)"/><path d=" M 602.517 247.835 L 612.665 427.289 L 538.65 498.908 L 499.253 498.908 L 499.253 273.002 L 447.919 211 L 550.588 211 L 602.517 247.835 L 602.517 247.835 L 602.517 247.835 Z " fill="rgb(0,0,0)" fill-opacity="0.1"/><path d=" M 447.919 211 L 499.253 273.002 L 550.588 211 L 447.919 211 L 447.919 211 L 447.919 211 Z " fill="rgb(0,0,0)" fill-opacity="0.1"/><path d=" M 395.99 247.835 L 400.763 355.262 L 411.12 375.12 L 417.775 427.289 L 465.827 488.472 L 499.253 482.948 L 499.253 498.908 L 459.857 498.908 L 392.21 427.289 L 395.99 247.835 L 395.99 247.835 L 395.99 247.835 Z " fill="rgb(0,0,0)" fill-opacity="0.1"/><path d=" M 602.517 247.835 L 598.936 355.262 L 580.732 427.289 L 532.68 488.472 L 499.253 482.948 L 499.253 498.908 L 538.65 498.908 L 611.869 427.289 L 602.517 247.835 L 602.517 247.835 L 602.517 247.835 Z " fill="rgb(0,0,0)" fill-opacity="0.1"/><path d=" M 464.931 433.837 L 499.253 427.289 L 533.576 433.837 L 499.253 433.837 L 464.931 433.837 L 464.931 433.837 L 464.931 433.837 Z " fill="rgb(0,0,0)" fill-opacity="0.1"/><path d=" M 499.253 394.549 L 482.54 385.956 L 515.967 385.956 L 499.253 394.549 L 499.253 394.549 L 499.253 394.549 Z " fill="rgb(0,0,0)" fill-opacity="0.1"/></g><g><path d=" M 318 643 L 245 580.648 L 192.141 580.648 L 129 606 L 121 708.451 L 153 1000 L 269 1000 L 288 810 L 299 680 L 318 643 Z " fill="rgb(255,244,219)"/><path d=" M 129 606 L 188 637.333 L 192.141 580.648 L 129 606 Z " fill="rgb(0,0,0)" fill-opacity="0.1"/><path d=" M 288 810 L 288 791.041 L 245 580.648 L 188 637.333 L 269 1000 L 288 810 Z " fill="rgb(0,0,0)" fill-opacity="0.15"/><path d=" M 245 580.648 L 188 637.333 L 192.141 580.648 L 245 580.648 Z " fill="rgb(0,0,0)" fill-opacity="0.15"/><path d=" M 129 606 L 121 708.451 L 188 637.333 L 129 606 Z " fill="rgb(0,0,0)" fill-opacity="0.05"/><path d=" M 153 1000 L 121 708.451 L 188 637.333 L 153 1000 Z " fill="rgb(0,0,0)" fill-opacity="0.08"/><path d=" M 188 637.333 L 153 1000 L 269 1000 L 188 637.333 Z " fill="rgb(0,0,0)" fill-opacity="0.1"/></g><g><path d=" M 689 643 L 762 580.648 L 814.859 580.648 L 878 606 L 886 708.451 L 854 1000 L 738 1000 L 719 810 L 708 680 L 689 643 Z " fill="rgb(255,244,219)"/><path d=" M 878 606 L 819 637.333 L 814.859 580.648 L 878 606 Z " fill="rgb(0,0,0)" fill-opacity="0.1"/><path d=" M 719 810 L 719 791.041 L 762 580.648 L 819 637.333 L 738 1000 L 719 810 Z " fill="rgb(0,0,0)" fill-opacity="0.15"/><path d=" M 762 580.648 L 819 637.333 L 814.859 580.648 L 762 580.648 Z " fill="rgb(0,0,0)" fill-opacity="0.15"/><path d=" M 878 606 L 886 708.451 L 819 637.333 L 878 606 Z " fill="rgb(0,0,0)" fill-opacity="0.05"/><path d=" M 854 1000 L 886 708.451 L 819 637.333 L 854 1000 Z " fill="rgb(0,0,0)" fill-opacity="0.08"/><path d=" M 819 637.333 L 854 1000 L 738 1000 L 819 637.333 Z " fill="rgb(0,0,0)" fill-opacity="0.1"/></g><g><path d=" M 500.183 539.437 L 412.676 512.676 L 190.141 580.648 L 278.873 783 L 367.606 943.662 L 377.465 1000 L 629.577 1000 L 640.845 943.662 L 728.234 783 L 814.085 580.648 L 595.775 512.676 L 500.183 539.437 Z " fill="rgb(255,244,219)"/><path d=" M 412.676 1000 L 412.676 943.662 L 246 562 L 190.141 580.648 L 278.873 783 L 367.606 943.662 L 378 1000 L 412.676 1000 Z " fill="rgb(0,0,0)" fill-opacity="0.2"/><path d=" M 595.775 1000 L 595.775 943.662 L 762.451 565 L 814.085 580.648 L 728.234 783 L 640.845 943.662 L 630.451 1000 L 595.775 1000 Z " fill="rgb(0,0,0)" fill-opacity="0.2"/><path d=" M 246 562 L 296 548 L 446 943.662 L 446 1000 L 412.676 1000 L 412.676 943.662 L 246 562 Z " fill="rgb(0,0,0)" fill-opacity="0.1"/><path d=" M 762.451 565 L 712.451 548 L 562.451 943.662 L 562.451 1000 L 595.775 1000 L 595.775 943.662 L 762.451 565 Z " fill="rgb(0,0,0)" fill-opacity="0.1"/><path d=" M 190.141 580.648 L 500.183 847.887 L 814.085 580.648 L 757.746 606 L 500.183 715.451 L 227.169 596 L 190.141 580.648 Z " fill="rgb(0,0,0)" fill-opacity="0.2"/><path d=" M 189.141 580.648 L 500.183 833.803 L 815.085 579.648 L 788.667 571.648 L 500.183 708.451 L 216 572.648 L 189.141 580.648 Z " fill="rgb(221,207,173)"/><g><path d=" M 328.169 891.549 L 400 891.549 L 432.394 869.014 L 560.563 869.014 L 585.915 891.549 L 683.099 889.754 L 640.845 943.662 L 640.845 1000 L 367.606 1000 L 367.606 943.662 L 328.169 891.549 Z " fill="rgb(181,165,130)"/><path d=" M 363.38 908.721 L 416.725 908.721 L 443.991 889.754 L 551.866 889.754 L 573.204 908.721 L 647.887 908.721 L 619.437 952.582 L 619.437 1000 L 389.46 1000 L 389.46 952.582 L 363.38 908.721 Z " fill="rgb(221,207,173)"/><path d=" M 363 908.5 L 389.46 952.582 L 389.46 1000 L 400 952.582 L 379 919.5 L 419.5 919.5 L 446 903 L 552 903 L 569 919.5 L 632.5 919.5 L 610 952.582 L 619.437 1000 L 619.437 952.582 L 648.5 908.5 L 573.5 908.721 L 552 889.754 L 443.991 889.754 L 416.725 908.5 L 363 908.5 Z " fill="rgb(0,0,0)" fill-opacity="0.1"/></g><path d=" M 216 572.648 L 500.183 728.169 L 788.667 571.648 L 692.958 580.648 L 500.183 636.986 L 315.493 580.648 L 216 572.648 Z " fill="rgb(0,0,0)" fill-opacity="0.1"/><path d=" M 216 572.648 L 500.183 708.451 L 788.667 571.648 L 758.746 563 L 500.183 630.986 L 248 561 L 216 572.648 Z " fill="rgb(238,222,186)"/><path d=" M 246 562 L 500.183 664 L 757.746 561 L 595.775 521.676 L 500.183 548.437 L 412.676 521.676 L 246 562 Z " fill="rgb(0,0,0)" fill-opacity="0.1"/><path d=" M 246 562 L 500.183 650 L 757.746 562 L 589.333 508 L 500.183 539.437 L 412.676 508 L 246 562 Z " fill="rgb(255,244,219)"/><path d=" M 412.676 508 L 500.183 552 L 589.333 508 L 500.183 539.437 L 412.676 508 Z " fill="rgb(0,0,0)" fill-opacity="0.3"/></g></g></svg>