<?xml version="1.0" encoding="UTF-8" standalone="no"?><!-- Generator: Gravit.io --><svg xmlns="http://www.w3.org/2000/svg" xmlns:xlink="http://www.w3.org/1999/xlink" style="isolation:isolate" viewBox="0 0 1000 1000" width="1000pt" height="1000pt"><defs><clipPath id="_clipPath_68NpYr9mOazcdfvR72ChK7qYlH0nwg60"><rect width="1000" height="1000"/></clipPath></defs><g clip-path="url(#_clipPath_68NpYr9mOazcdfvR72ChK7qYlH0nwg60)"><g><g><path d=" M 501.062 629.867 L 619.334 548.019 L 589.458 518.522 L 558.764 419.513 L 501.062 419.513 L 501.062 629.867 L 501.062 629.867 L 501.062 629.867 Z " fill="rgb(0,0,0)" fill-opacity="0.1"/><path d=" M 577.833 1174.168 L 627.966 935.521 L 798.864 645.009 L 588.64 518.552 L 560.421 419.513 L 499.554 419.513 L 447.654 419.513 L 411.435 518.552 L 201.212 645.009 L 377.931 935.521 L 422.243 1174.168 L 500.521 1211 L 577.833 1174.168 L 577.833 1174.168 Z " fill="rgb(255,221,187)"/><path d=" M 499.554 492.769 L 499.554 419.513 L 560.421 419.513 L 588.64 518.552 L 798.864 645.009 L 627.966 935.521 L 577.833 1174.168 L 499.554 1211 L 499.554 492.769 L 499.554 492.769 Z " fill="rgb(0,0,0)" fill-opacity="0.1"/><path d=" M 340.226 700.258 L 393.018 743.228 L 500.521 743.228 L 607.055 743.228 L 659.849 700.258 L 588.64 729.724 L 411.435 729.724 L 340.226 700.258 L 340.226 700.258 L 340.226 700.258 Z " fill="rgb(0,0,0)" fill-opacity="0.1"/><path d=" M 377.931 935.521 L 422.243 1174.168 L 499.554 1211 L 395.592 820.723 L 201.212 645.009 L 377.931 935.521 L 377.931 935.521 L 377.931 935.521 Z " fill="rgb(0,0,0)" fill-opacity="0.1"/><path d=" M 627.966 935.521 L 577.833 1174.168 L 500.521 1211 L 605.389 819.057 L 798.864 645.009 L 627.966 935.521 L 627.966 935.521 L 627.966 935.521 Z " fill="rgb(0,0,0)" fill-opacity="0.1"/><path d=" M 426.516 541.006 L 377.931 576.556 L 440.736 557.596 L 482.988 571.117 L 499.554 659.902 L 516.104 571.498 L 560.421 557.596 L 627.966 576.556 L 573.456 541.006 L 560.421 529.156 L 499.554 557.596 L 440.736 529.156 L 426.516 541.006 L 426.516 541.006 L 426.516 541.006 Z " fill="rgb(0,0,0)" fill-opacity="0.1"/></g><g><path d=" M 222.383 589.612 L 138.371 618.5 L 138.371 700.168 L 153.447 753.5 L 138.371 803.5 L 172.26 1022.535 L 214.481 1070.423 L 253.421 1029.577 L 276.703 815.167 L 267.735 736.834 L 305.037 643.501 L 222.383 589.612 L 222.383 589.612 L 222.383 589.612 Z " fill="rgb(255,221,187)"/><path d=" M 222.383 736.834 L 305.037 643.501 L 267.735 736.834 L 222.383 736.834 L 222.383 736.834 L 222.383 736.834 Z " fill="rgb(0,0,0)" fill-opacity="0.2"/><path d=" M 222.383 589.612 L 222.383 736.834 L 305.037 643.501 L 222.383 589.612 L 222.383 589.612 L 222.383 589.612 Z " fill="rgb(0,0,0)" fill-opacity="0.15"/><path d=" M 138.371 618.5 L 222.383 736.834 L 222.383 589.612 L 138.371 618.5 L 138.371 618.5 L 138.371 618.5 Z " fill="rgb(0,0,0)" fill-opacity="0.05"/><path d=" M 138.371 700.168 L 138.371 618.5 L 222.383 736.834 L 138.371 700.168 L 138.371 700.168 L 138.371 700.168 Z " fill="rgb(0,0,0)" fill-opacity="0.1"/><path d=" M 153.447 753.5 L 222.383 736.834 L 138.371 700.168 L 153.447 753.5 L 153.447 753.5 L 153.447 753.5 Z " fill="rgb(255,255,255)" fill-opacity="0.1"/><path d=" M 251.333 1035.333 L 214 1069.333 L 222.383 736.834 L 267.735 736.834 L 276.703 815.167 L 267.735 902.667 L 251.333 1035.333 Z " fill="rgb(0,0,0)" fill-opacity="0.1"/><path d=" M 222.383 736.834 L 153.447 753.5 L 138.371 803.5 L 172.26 1053.521 L 214.481 1100 L 222.383 736.834 L 222.383 736.834 L 222.383 736.834 Z " fill="rgb(0,0,0)" fill-opacity="0.05"/></g><g><path d=" M 785.094 589.612 L 869.106 618.5 L 869.106 700.168 L 854.03 753.5 L 869.106 803.5 L 835.217 1022.535 L 792.996 1070.422 L 754.056 1029.578 L 730.774 815.167 L 739.742 736.834 L 702.44 643.501 L 785.094 589.612 L 785.094 589.612 L 785.094 589.612 Z " fill="rgb(255,221,187)"/><path d=" M 785.094 736.834 L 702.44 643.501 L 739.742 736.834 L 785.094 736.834 L 785.094 736.834 L 785.094 736.834 Z " fill="rgb(0,0,0)" fill-opacity="0.2"/><path d=" M 785.094 589.612 L 785.094 736.834 L 702.44 643.501 L 785.094 589.612 L 785.094 589.612 L 785.094 589.612 Z " fill="rgb(0,0,0)" fill-opacity="0.15"/><path d=" M 869.106 618.5 L 785.094 736.834 L 785.094 589.612 L 869.106 618.5 L 869.106 618.5 L 869.106 618.5 Z " fill="rgb(0,0,0)" fill-opacity="0.05"/><path d=" M 869.106 700.168 L 869.106 618.5 L 785.094 736.834 L 869.106 700.168 L 869.106 700.168 L 869.106 700.168 Z " fill="rgb(0,0,0)" fill-opacity="0.1"/><path d=" M 854.03 753.5 L 785.094 736.834 L 869.106 700.168 L 854.03 753.5 L 854.03 753.5 L 854.03 753.5 Z " fill="rgb(255,255,255)" fill-opacity="0.1"/><path d=" M 756.144 1035.333 L 793.477 1069.333 L 785.094 736.834 L 739.742 736.834 L 730.774 815.167 L 739.742 902.667 L 756.144 1035.333 Z " fill="rgb(0,0,0)" fill-opacity="0.1"/><path d=" M 785.094 736.834 L 854.03 753.5 L 869.106 803.5 L 835.217 1053.521 L 792.996 1100 L 785.094 736.834 L 785.094 736.834 L 785.094 736.834 Z " fill="rgb(0,0,0)" fill-opacity="0.05"/></g><g><path d=" M 395.99 247.835 L 392.21 427.289 L 459.857 498.908 L 499.253 498.908 L 538.65 498.908 L 611.869 427.289 L 602.517 247.835 L 550.588 211 L 499.253 211 L 447.919 211 L 395.99 247.835 L 395.99 247.835 Z " fill="rgb(255,221,187)"/><path d=" M 602.517 247.835 L 612.665 427.289 L 538.65 498.908 L 499.253 498.908 L 499.253 273.002 L 447.919 211 L 550.588 211 L 602.517 247.835 L 602.517 247.835 Z " fill="rgb(0,0,0)" fill-opacity="0.1"/><path d=" M 447.919 211 L 499.253 273.002 L 550.588 211 L 447.919 211 L 447.919 211 Z " fill="rgb(0,0,0)" fill-opacity="0.1"/><path d=" M 395.99 247.835 L 400.763 355.262 L 411.12 375.12 L 417.775 427.289 L 465.827 488.472 L 499.253 482.948 L 499.253 498.908 L 459.857 498.908 L 392.21 427.289 L 395.99 247.835 L 395.99 247.835 Z " fill="rgb(0,0,0)" fill-opacity="0.1"/><path d=" M 602.517 247.835 L 598.936 355.262 L 580.732 427.289 L 532.68 488.472 L 499.253 482.948 L 499.253 498.908 L 538.65 498.908 L 611.869 427.289 L 602.517 247.835 L 602.517 247.835 Z " fill="rgb(0,0,0)" fill-opacity="0.1"/><path d=" M 464.931 433.837 L 499.253 427.289 L 533.576 433.837 L 499.253 433.837 L 464.931 433.837 L 464.931 433.837 Z " fill="rgb(0,0,0)" fill-opacity="0.1"/><path d=" M 499.253 394.549 L 482.54 385.956 L 515.967 385.956 L 499.253 394.549 L 499.253 394.549 Z " fill="rgb(0,0,0)" fill-opacity="0.1"/></g></g><g><path d=" M 411 516 L 165 643.236 L 317 837 L 380 971 L 380 1034.848 L 628 1031.818 L 628 966 L 688 837 L 829 643.236 L 587 516 L 503 617 L 411 516 Z " fill="rgb(113,100,92)"/><path d=" M 682 566 L 548 771 L 503 1084.848 L 595 1013 L 641 800 L 829 643.236 L 682 566 Z " fill="rgb(0,0,0)" fill-opacity="0.05"/><path d=" M 313.5 566 L 447.5 771 L 503 1095.455 L 421 1011 L 359 800 L 166.5 643.236 L 313.5 566 Z " fill="rgb(0,0,0)" fill-opacity="0.05"/><path d=" M 588.667 514 L 491.333 617 L 380 1000 L 411 1000 L 514.667 643.236 L 612 529 L 588.667 514 Z " fill="rgb(83,47,47)"/><path d=" M 411 516 L 514.667 624.333 L 503 660 L 392 526 L 411 516 Z " fill="rgb(83,47,47)"/><path d=" M 166 643.236 L 359 800 L 424.242 1019.697 L 380 1048.485 L 380 971 L 318 836 L 166 643.236 Z " fill="rgb(0,0,0)" fill-opacity="0.1"/><path d=" M 826 643.236 L 641 800 L 588.667 1000 L 628 1063.636 L 624.985 969.503 L 685 836 L 826 643.236 Z " fill="rgb(0,0,0)" fill-opacity="0.1"/><path d=" M 370 950.667 L 380 968.667 L 378 986.667 L 629.333 986.667 L 629.333 968.667 L 637 950.667 L 370 950.667 Z " fill="rgb(83,47,47)"/><path d=" M 380 968.667 L 378 986.667 L 629.333 986.667 L 629.333 968.667 L 380 968.667 Z " fill="rgb(0,0,0)" fill-opacity="0.1"/></g><g><path d=" M 157.746 624.775 L 44.5 582 L 112.676 696.606 L 218.31 762.803 L 284.667 781.113 L 252.113 675.479 L 157.746 624.775 Z " fill="rgb(55,50,46)"/><path d=" M 138.667 628 L 115 808 L 184.507 1075.758 L 262 1090 L 269.014 966 L 284.507 808 L 277.465 628 L 138.667 628 Z " fill="rgb(113,100,92)"/><path d=" M 277.465 628 L 204 808 L 216 969.667 L 218.31 1078.788 L 260 1089 L 269.014 969.667 L 284.507 808 L 277.465 628 Z " fill="rgb(0,0,0)" fill-opacity="0.1"/><path d=" M 138.667 628 L 204 808 L 215.333 957.667 L 212 1101.515 L 184.507 1075.758 L 115 808 L 138.667 628 Z " fill="rgb(255,255,255)" fill-opacity="0.05"/><path d=" M 321.127 638.859 L 277.465 572.662 L 138.667 545 L 44.5 582 L 148.592 635.338 L 184.507 675.479 L 269.014 762.803 L 284.507 781.113 L 321.127 638.859 Z " fill="rgb(98,84,75)"/><path d=" M 284.667 808.333 L 204.956 808.333 L 119.333 773.667 L 112.667 808.333 L 135.333 875 L 212 904.333 L 274 887.667 L 284.667 808.333 Z " fill="rgb(83,47,47)"/><path d=" M 278.508 854.136 L 204.956 859.5 L 112.667 808.333 L 135.333 875 L 212 904.333 L 274 887.667 L 278.508 854.136 Z " fill="rgb(0,0,0)" fill-opacity="0.1"/><path d=" M 284.507 781.113 L 321.127 638.859 L 277.465 572.662 L 284.507 781.113 Z " fill="rgb(0,0,0)" fill-opacity="0.1"/><path d=" M 145.333 633 L 277.465 572.662 L 284.507 781.113 L 145.333 633 Z " fill="rgb(0,0,0)" fill-opacity="0.05"/><path d=" M 277.465 572.662 L 138.667 545 L 44 581.667 L 145.333 633 L 277.465 572.662 Z " fill="rgb(255,255,255)" fill-opacity="0.05"/><path d=" M 284.848 779 L 284.848 792.333 L 137.879 639.606 L 51.5 594.5 L 46.5 583.5 L 150 629 L 284.848 779 Z " fill="rgb(83,47,47)"/></g><g><path d=" M 846.818 624.775 L 960.064 582 L 891.888 696.606 L 786.254 762.803 L 719.897 781.113 L 752.451 675.479 L 846.818 624.775 Z " fill="rgb(55,50,46)"/><path d=" M 865.896 628 L 889.564 808 L 820.057 1075.758 L 742.564 1090 L 735.549 966 L 720.057 808 L 727.099 628 L 865.896 628 Z " fill="rgb(113,100,92)"/><path d=" M 727.099 628 L 800.564 808 L 788.564 969.667 L 786.254 1078.788 L 744.564 1089 L 735.549 969.667 L 720.057 808 L 727.099 628 Z " fill="rgb(0,0,0)" fill-opacity="0.1"/><path d=" M 865.896 628 L 800.564 808 L 789.231 957.667 L 792.564 1101.515 L 820.057 1075.758 L 889.564 808 L 865.896 628 Z " fill="rgb(255,255,255)" fill-opacity="0.05"/><path d=" M 683.436 638.859 L 727.099 572.662 L 865.896 545 L 960.064 582 L 855.972 635.338 L 820.057 675.479 L 735.549 762.803 L 720.057 781.113 L 683.436 638.859 Z " fill="rgb(98,84,75)"/><path d=" M 719.897 808.333 L 799.608 808.333 L 885.231 773.667 L 891.897 808.333 L 869.231 875 L 792.564 904.333 L 730.564 887.667 L 719.897 808.333 Z " fill="rgb(83,47,47)"/><path d=" M 726.056 854.136 L 799.608 859.5 L 891.897 808.333 L 869.231 875 L 792.564 904.333 L 730.564 887.667 L 726.056 854.136 Z " fill="rgb(0,0,0)" fill-opacity="0.1"/><path d=" M 720.057 781.113 L 683.436 638.859 L 727.099 572.662 L 720.057 781.113 Z " fill="rgb(0,0,0)" fill-opacity="0.1"/><path d=" M 859.231 633 L 727.099 572.662 L 720.057 781.113 L 859.231 633 Z " fill="rgb(0,0,0)" fill-opacity="0.05"/><path d=" M 727.099 572.662 L 865.896 545 L 960.564 581.667 L 859.231 633 L 727.099 572.662 Z " fill="rgb(255,255,255)" fill-opacity="0.05"/><path d=" M 719.716 779 L 719.716 792.333 L 866.685 639.606 L 953.064 594.5 L 958.064 583.5 L 854.564 629 L 719.716 779 Z " fill="rgb(83,47,47)"/></g></g></svg>