<?xml version="1.0" encoding="UTF-8" standalone="no"?><!-- Generator: Gravit.io --><svg xmlns="http://www.w3.org/2000/svg" xmlns:xlink="http://www.w3.org/1999/xlink" style="isolation:isolate" viewBox="0 0 1000 1000" width="1000pt" height="1000pt"><defs><clipPath id="_clipPath_ZALpw6dIyLWZO17dgtOHEbq4uVWvPL8W"><rect width="1000" height="1000"/></clipPath></defs><g clip-path="url(#_clipPath_ZALpw6dIyLWZO17dgtOHEbq4uVWvPL8W)"><g><g><path d=" M 501.062 629.867 L 619.334 548.019 L 589.458 518.522 L 558.764 419.513 L 501.062 419.513 L 501.062 629.867 L 501.062 629.867 L 501.062 629.867 Z " fill="rgb(0,0,0)" fill-opacity="0.1"/><path d=" M 577.833 1174.168 L 627.966 935.521 L 798.864 645.009 L 588.64 518.552 L 560.421 419.513 L 499.554 419.513 L 447.654 419.513 L 411.435 518.552 L 201.212 645.009 L 377.931 935.521 L 422.243 1174.168 L 500.521 1211 L 577.833 1174.168 L 577.833 1174.168 Z " fill="rgb(255,221,187)"/><path d=" M 499.554 492.769 L 499.554 419.513 L 560.421 419.513 L 588.64 518.552 L 798.864 645.009 L 627.966 935.521 L 577.833 1174.168 L 499.554 1211 L 499.554 492.769 L 499.554 492.769 Z " fill="rgb(0,0,0)" fill-opacity="0.1"/><path d=" M 340.226 700.258 L 393.018 743.228 L 500.521 743.228 L 607.055 743.228 L 659.849 700.258 L 588.64 729.724 L 411.435 729.724 L 340.226 700.258 L 340.226 700.258 L 340.226 700.258 Z " fill="rgb(0,0,0)" fill-opacity="0.1"/><path d=" M 377.931 935.521 L 422.243 1174.168 L 499.554 1211 L 395.592 820.723 L 201.212 645.009 L 377.931 935.521 L 377.931 935.521 L 377.931 935.521 Z " fill="rgb(0,0,0)" fill-opacity="0.1"/><path d=" M 627.966 935.521 L 577.833 1174.168 L 500.521 1211 L 605.389 819.057 L 798.864 645.009 L 627.966 935.521 L 627.966 935.521 L 627.966 935.521 Z " fill="rgb(0,0,0)" fill-opacity="0.1"/><path d=" M 426.516 541.006 L 377.931 576.556 L 440.736 557.596 L 482.988 571.117 L 499.554 659.902 L 516.104 571.498 L 560.421 557.596 L 627.966 576.556 L 573.456 541.006 L 560.421 529.156 L 499.554 557.596 L 440.736 529.156 L 426.516 541.006 L 426.516 541.006 L 426.516 541.006 Z " fill="rgb(0,0,0)" fill-opacity="0.1"/></g><g><path d=" M 222.383 589.612 L 138.371 618.5 L 138.371 700.168 L 153.447 753.5 L 138.371 803.5 L 172.26 1022.535 L 214.481 1070.423 L 253.421 1029.577 L 276.703 815.167 L 267.735 736.834 L 305.037 643.501 L 222.383 589.612 L 222.383 589.612 L 222.383 589.612 Z " fill="rgb(255,221,187)"/><path d=" M 222.383 736.834 L 305.037 643.501 L 267.735 736.834 L 222.383 736.834 L 222.383 736.834 L 222.383 736.834 Z " fill="rgb(0,0,0)" fill-opacity="0.2"/><path d=" M 222.383 589.612 L 222.383 736.834 L 305.037 643.501 L 222.383 589.612 L 222.383 589.612 L 222.383 589.612 Z " fill="rgb(0,0,0)" fill-opacity="0.15"/><path d=" M 138.371 618.5 L 222.383 736.834 L 222.383 589.612 L 138.371 618.5 L 138.371 618.5 L 138.371 618.5 Z " fill="rgb(0,0,0)" fill-opacity="0.05"/><path d=" M 138.371 700.168 L 138.371 618.5 L 222.383 736.834 L 138.371 700.168 L 138.371 700.168 L 138.371 700.168 Z " fill="rgb(0,0,0)" fill-opacity="0.1"/><path d=" M 153.447 753.5 L 222.383 736.834 L 138.371 700.168 L 153.447 753.5 L 153.447 753.5 L 153.447 753.5 Z " fill="rgb(255,255,255)" fill-opacity="0.1"/><path d=" M 251.333 1035.333 L 214 1069.333 L 222.383 736.834 L 267.735 736.834 L 276.703 815.167 L 267.735 902.667 L 251.333 1035.333 Z " fill="rgb(0,0,0)" fill-opacity="0.1"/><path d=" M 222.383 736.834 L 153.447 753.5 L 138.371 803.5 L 172.26 1053.521 L 214.481 1100 L 222.383 736.834 L 222.383 736.834 L 222.383 736.834 Z " fill="rgb(0,0,0)" fill-opacity="0.05"/></g><g><path d=" M 785.094 589.612 L 869.106 618.5 L 869.106 700.168 L 854.03 753.5 L 869.106 803.5 L 835.217 1022.535 L 792.996 1070.422 L 754.056 1029.578 L 730.774 815.167 L 739.742 736.834 L 702.44 643.501 L 785.094 589.612 L 785.094 589.612 L 785.094 589.612 Z " fill="rgb(255,221,187)"/><path d=" M 785.094 736.834 L 702.44 643.501 L 739.742 736.834 L 785.094 736.834 L 785.094 736.834 L 785.094 736.834 Z " fill="rgb(0,0,0)" fill-opacity="0.2"/><path d=" M 785.094 589.612 L 785.094 736.834 L 702.44 643.501 L 785.094 589.612 L 785.094 589.612 L 785.094 589.612 Z " fill="rgb(0,0,0)" fill-opacity="0.15"/><path d=" M 869.106 618.5 L 785.094 736.834 L 785.094 589.612 L 869.106 618.5 L 869.106 618.5 L 869.106 618.5 Z " fill="rgb(0,0,0)" fill-opacity="0.05"/><path d=" M 869.106 700.168 L 869.106 618.5 L 785.094 736.834 L 869.106 700.168 L 869.106 700.168 L 869.106 700.168 Z " fill="rgb(0,0,0)" fill-opacity="0.1"/><path d=" M 854.03 753.5 L 785.094 736.834 L 869.106 700.168 L 854.03 753.5 L 854.03 753.5 L 854.03 753.5 Z " fill="rgb(255,255,255)" fill-opacity="0.1"/><path d=" M 756.144 1035.333 L 793.477 1069.333 L 785.094 736.834 L 739.742 736.834 L 730.774 815.167 L 739.742 902.667 L 756.144 1035.333 Z " fill="rgb(0,0,0)" fill-opacity="0.1"/><path d=" M 785.094 736.834 L 854.03 753.5 L 869.106 803.5 L 835.217 1053.521 L 792.996 1100 L 785.094 736.834 L 785.094 736.834 L 785.094 736.834 Z " fill="rgb(0,0,0)" fill-opacity="0.05"/></g><g><path d=" M 395.99 247.835 L 392.21 427.289 L 459.857 498.908 L 499.253 498.908 L 538.65 498.908 L 611.869 427.289 L 602.517 247.835 L 550.588 211 L 499.253 211 L 447.919 211 L 395.99 247.835 L 395.99 247.835 Z " fill="rgb(255,221,187)"/><path d=" M 602.517 247.835 L 612.665 427.289 L 538.65 498.908 L 499.253 498.908 L 499.253 273.002 L 447.919 211 L 550.588 211 L 602.517 247.835 L 602.517 247.835 Z " fill="rgb(0,0,0)" fill-opacity="0.1"/><path d=" M 447.919 211 L 499.253 273.002 L 550.588 211 L 447.919 211 L 447.919 211 Z " fill="rgb(0,0,0)" fill-opacity="0.1"/><path d=" M 395.99 247.835 L 400.763 355.262 L 411.12 375.12 L 417.775 427.289 L 465.827 488.472 L 499.253 482.948 L 499.253 498.908 L 459.857 498.908 L 392.21 427.289 L 395.99 247.835 L 395.99 247.835 Z " fill="rgb(0,0,0)" fill-opacity="0.1"/><path d=" M 602.517 247.835 L 598.936 355.262 L 580.732 427.289 L 532.68 488.472 L 499.253 482.948 L 499.253 498.908 L 538.65 498.908 L 611.869 427.289 L 602.517 247.835 L 602.517 247.835 Z " fill="rgb(0,0,0)" fill-opacity="0.1"/><path d=" M 464.931 433.837 L 499.253 427.289 L 533.576 433.837 L 499.253 433.837 L 464.931 433.837 L 464.931 433.837 Z " fill="rgb(0,0,0)" fill-opacity="0.1"/><path d=" M 499.253 394.549 L 482.54 385.956 L 515.967 385.956 L 499.253 394.549 L 499.253 394.549 Z " fill="rgb(0,0,0)" fill-opacity="0.1"/></g></g><g><path d=" M 246 418 L 330 418 L 360 447 L 398 545.636 L 345 581 L 246 418 Z " fill="rgb(74,71,71)"/><path d=" M 746 424 L 662 424 L 632 453 L 594 551.636 L 647 587 L 746 424 Z " fill="rgb(74,71,71)"/><path d=" M 371.212 932 L 192.424 635.03 L 406.667 521.394 L 500 545.636 L 593.939 521.394 L 819.697 635.03 L 639.394 932 L 639.394 1054.727 L 371.212 1062.303 L 371.212 932 Z " fill="rgb(155,155,155)"/><path d=" M 192 636 L 371.385 931.373 L 371.212 1041 L 480 1047 L 303 577 L 192 636 Z " fill="rgb(0,0,0)" fill-opacity="0.15"/><path d=" M 820 636 L 640.171 932.104 L 640.171 1047 L 532 1047 L 709 579 L 820 636 Z " fill="rgb(0,0,0)" fill-opacity="0.15"/><path d=" M 303 579 L 480 1046 L 504 1046 L 360 548.636 L 303 579 Z " fill="rgb(0,0,0)" fill-opacity="0.1"/><path d=" M 709 579 L 532 1046 L 508 1046 L 647 545.636 L 709 579 Z " fill="rgb(0,0,0)" fill-opacity="0.1"/><path d=" M 246 418 L 351 626 L 469.68 673 L 500 920 L 528.444 673 L 656 626 L 746 424 L 645 484 L 622 581 L 604 599 L 500 626 L 398 599 L 377 581 L 345 464 L 246 418 Z " fill="rgb(130,130,130)"/><path d=" M 500 920 L 528.444 673 L 656 626 L 746 424 L 645 484 L 622 581 L 604 599 L 500 626 L 500 920 Z " fill="rgb(0,0,0)" fill-opacity="0.19"/><path d=" M 246 418 L 351 626 L 469.68 673 L 500 920 L 500 626 L 398 599 L 377 581 L 345 464 L 246 418 Z " fill="rgb(0,0,0)" fill-opacity="0.06"/><path d=" M 383.333 533.515 L 500 592 L 618.182 533.515 L 594 521.394 L 501.515 547.152 L 406.667 521.394 L 383.333 533.515 Z " fill="rgb(0,0,0)" fill-opacity="0.1"/><path d=" M 499.997 637.667 L 510.515 645.098 L 510.515 654.76 L 499.997 660.333 L 491 654.76 L 491 645.098 L 499.997 637.667 Z " fill="rgb(244,244,244)"/><path d=" M 541.997 626.333 L 552.515 633.765 L 552.515 643.426 L 541.997 649 L 533 643.426 L 533 633.765 L 541.997 626.333 Z " fill="rgb(244,244,244)"/><path d=" M 455.997 626.333 L 466.515 633.765 L 466.515 643.426 L 455.997 649 L 447 643.426 L 447 633.765 L 455.997 626.333 Z " fill="rgb(244,244,244)"/><path d=" M 410.997 615 L 421.515 622.432 L 421.515 632.093 L 410.997 637.667 L 402 632.093 L 402 622.432 L 410.997 615 Z " fill="rgb(244,244,244)"/><path d=" M 583.997 615 L 594.515 622.432 L 594.515 632.093 L 583.997 637.667 L 575 632.093 L 575 622.432 L 583.997 615 Z " fill="rgb(244,244,244)"/></g><g><path d=" M 122 808 L 122 939 L 156 1120 L 255 1121 L 266 933 L 304 780 L 122 808 Z " fill="rgb(147,147,147)"/><path d=" M 122 792 L 122 933 L 150 1119 L 184.424 1122 L 162.667 771.667 L 122 792 Z " fill="rgb(255,255,255)" fill-opacity="0.1"/><path d=" M 304 780 L 266 933 L 255 1121 L 183.455 1114 L 224.667 780 L 304 780 Z " fill="rgb(0,0,0)" fill-opacity="0.1"/><path d=" M 333 887.545 L 400.336 767 L 369.636 643.098 L 342.758 635.667 L 304 577 L 60.182 487.545 L 108.667 599 L 70 732 L 108.667 843 L 282 808 L 333 887.545 Z " fill="rgb(121,121,121)"/><path d=" M 370.396 732.333 L 359.879 739.765 L 359.879 749.426 L 370.396 755 L 379.394 749.426 L 379.394 739.765 L 370.396 732.333 Z " fill="rgb(244,244,244)"/><path d=" M 361.639 686.667 L 351.121 694.098 L 351.121 703.76 L 361.639 709.333 L 370.636 703.76 L 370.636 694.098 L 361.639 686.667 Z " fill="rgb(244,244,244)"/><path d=" M 350.881 648.667 L 340.364 656.098 L 340.364 665.76 L 350.881 671.333 L 359.879 665.76 L 359.879 656.098 L 350.881 648.667 Z " fill="rgb(244,244,244)"/><path d=" M 355.639 780 L 345.121 787.432 L 345.121 797.093 L 355.639 802.667 L 364.636 797.093 L 364.636 787.432 L 355.639 780 Z " fill="rgb(244,244,244)"/><path d=" M 331.76 814 L 321.242 821.432 L 321.242 831.093 L 331.76 836.667 L 340.758 831.093 L 340.758 821.432 L 331.76 814 Z " fill="rgb(244,244,244)"/><path d=" M 60.182 487.545 L 255 636.03 L 342.758 635.667 L 304 577 L 60.182 487.545 Z " fill="rgb(0,0,0)" fill-opacity="0.1"/><path d=" M 109 600 L 60.182 487.545 L 255 635.667 L 282 808 L 109 600 Z " fill="rgb(255,255,255)" fill-opacity="0.05"/><path d=" M 343 635.667 L 282 808 L 255 636.03 L 343 635.667 Z " fill="rgb(0,0,0)" fill-opacity="0.15"/><path d=" M 282 808 L 108.667 843 L 70 732.333 L 220 734 L 282 808 Z " fill="rgb(0,0,0)" fill-opacity="0.15"/></g><g><path d=" M 887.518 808 L 887.518 939 L 853.518 1120 L 754.518 1121 L 743.518 933 L 705.518 780 L 887.518 808 Z " fill="rgb(147,147,147)"/><path d=" M 887.518 792 L 887.518 933 L 859.518 1119 L 825.094 1122 L 846.851 771.667 L 887.518 792 Z " fill="rgb(255,255,255)" fill-opacity="0.1"/><path d=" M 705.518 780 L 743.518 933 L 754.518 1121 L 826.063 1114 L 784.851 780 L 705.518 780 Z " fill="rgb(0,0,0)" fill-opacity="0.1"/><path d=" M 676.518 887.545 L 609.182 767 L 639.882 643.098 L 666.76 635.667 L 705.518 577 L 949.336 487.545 L 900.851 599 L 939.518 732 L 900.851 843 L 727.518 808 L 676.518 887.545 Z " fill="rgb(121,121,121)"/><path d=" M 639.122 732.333 L 649.639 739.765 L 649.639 749.426 L 639.122 755 L 630.124 749.426 L 630.124 739.765 L 639.122 732.333 Z " fill="rgb(244,244,244)"/><path d=" M 647.879 686.667 L 658.397 694.098 L 658.397 703.76 L 647.879 709.333 L 638.882 703.76 L 638.882 694.098 L 647.879 686.667 Z " fill="rgb(244,244,244)"/><path d=" M 658.637 648.667 L 669.154 656.098 L 669.154 665.76 L 658.637 671.333 L 649.639 665.76 L 649.639 656.098 L 658.637 648.667 Z " fill="rgb(244,244,244)"/><path d=" M 653.879 780 L 664.397 787.432 L 664.397 797.093 L 653.879 802.667 L 644.882 797.093 L 644.882 787.432 L 653.879 780 Z " fill="rgb(244,244,244)"/><path d=" M 677.758 814 L 688.276 821.432 L 688.276 831.093 L 677.758 836.667 L 668.76 831.093 L 668.76 821.432 L 677.758 814 Z " fill="rgb(244,244,244)"/><path d=" M 949.336 487.545 L 754.518 636.03 L 666.76 635.667 L 705.518 577 L 949.336 487.545 Z " fill="rgb(0,0,0)" fill-opacity="0.1"/><path d=" M 900.518 600 L 949.336 487.545 L 754.518 635.667 L 727.518 808 L 900.518 600 Z " fill="rgb(255,255,255)" fill-opacity="0.05"/><path d=" M 666.518 635.667 L 727.518 808 L 754.518 636.03 L 666.518 635.667 Z " fill="rgb(0,0,0)" fill-opacity="0.15"/><path d=" M 727.518 808 L 900.851 843 L 939.518 732.333 L 789.518 734 L 727.518 808 Z " fill="rgb(0,0,0)" fill-opacity="0.15"/></g></g></svg>