<?xml version="1.0" encoding="UTF-8" standalone="no"?><!-- Generator: Gravit.io --><svg xmlns="http://www.w3.org/2000/svg" xmlns:xlink="http://www.w3.org/1999/xlink" style="isolation:isolate" viewBox="0 0 1000 1000" width="1000pt" height="1000pt"><defs><clipPath id="_clipPath_7EhqzslLuWfKyfHzpuNiwpDQVnIPRIy9"><rect width="1000" height="1000"/></clipPath></defs><g clip-path="url(#_clipPath_7EhqzslLuWfKyfHzpuNiwpDQVnIPRIy9)"><g><g><path d=" M 501.062 629.867 L 619.334 548.019 L 589.458 518.522 L 558.764 419.513 L 501.062 419.513 L 501.062 629.867 L 501.062 629.867 L 501.062 629.867 Z " fill="rgb(0,0,0)" fill-opacity="0.1"/><path d=" M 577.833 1174.168 L 627.966 935.521 L 798.864 645.009 L 588.64 518.552 L 560.421 419.513 L 499.554 419.513 L 447.654 419.513 L 411.435 518.552 L 201.212 645.009 L 377.931 935.521 L 422.243 1174.168 L 500.521 1211 L 577.833 1174.168 L 577.833 1174.168 Z " fill="rgb(255,221,187)"/><path d=" M 499.554 492.769 L 499.554 419.513 L 560.421 419.513 L 588.64 518.552 L 798.864 645.009 L 627.966 935.521 L 577.833 1174.168 L 499.554 1211 L 499.554 492.769 L 499.554 492.769 Z " fill="rgb(0,0,0)" fill-opacity="0.1"/><path d=" M 340.226 700.258 L 393.018 743.228 L 500.521 743.228 L 607.055 743.228 L 659.849 700.258 L 588.64 729.724 L 411.435 729.724 L 340.226 700.258 L 340.226 700.258 L 340.226 700.258 Z " fill="rgb(0,0,0)" fill-opacity="0.1"/><path d=" M 377.931 935.521 L 422.243 1174.168 L 499.554 1211 L 395.592 820.723 L 201.212 645.009 L 377.931 935.521 L 377.931 935.521 L 377.931 935.521 Z " fill="rgb(0,0,0)" fill-opacity="0.1"/><path d=" M 627.966 935.521 L 577.833 1174.168 L 500.521 1211 L 605.389 819.057 L 798.864 645.009 L 627.966 935.521 L 627.966 935.521 L 627.966 935.521 Z " fill="rgb(0,0,0)" fill-opacity="0.1"/><path d=" M 426.516 541.006 L 377.931 576.556 L 440.736 557.596 L 482.988 571.117 L 499.554 659.902 L 516.104 571.498 L 560.421 557.596 L 627.966 576.556 L 573.456 541.006 L 560.421 529.156 L 499.554 557.596 L 440.736 529.156 L 426.516 541.006 L 426.516 541.006 L 426.516 541.006 Z " fill="rgb(0,0,0)" fill-opacity="0.1"/></g><g><path d=" M 222.383 589.612 L 138.371 618.5 L 138.371 700.168 L 153.447 753.5 L 138.371 803.5 L 172.26 1022.535 L 214.481 1070.423 L 253.421 1029.577 L 276.703 815.167 L 267.735 736.834 L 305.037 643.501 L 222.383 589.612 L 222.383 589.612 L 222.383 589.612 Z " fill="rgb(255,221,187)"/><path d=" M 222.383 736.834 L 305.037 643.501 L 267.735 736.834 L 222.383 736.834 L 222.383 736.834 L 222.383 736.834 Z " fill="rgb(0,0,0)" fill-opacity="0.2"/><path d=" M 222.383 589.612 L 222.383 736.834 L 305.037 643.501 L 222.383 589.612 L 222.383 589.612 L 222.383 589.612 Z " fill="rgb(0,0,0)" fill-opacity="0.15"/><path d=" M 138.371 618.5 L 222.383 736.834 L 222.383 589.612 L 138.371 618.5 L 138.371 618.5 L 138.371 618.5 Z " fill="rgb(0,0,0)" fill-opacity="0.05"/><path d=" M 138.371 700.168 L 138.371 618.5 L 222.383 736.834 L 138.371 700.168 L 138.371 700.168 L 138.371 700.168 Z " fill="rgb(0,0,0)" fill-opacity="0.1"/><path d=" M 153.447 753.5 L 222.383 736.834 L 138.371 700.168 L 153.447 753.5 L 153.447 753.5 L 153.447 753.5 Z " fill="rgb(255,255,255)" fill-opacity="0.1"/><path d=" M 251.333 1035.333 L 214 1069.333 L 222.383 736.834 L 267.735 736.834 L 276.703 815.167 L 267.735 902.667 L 251.333 1035.333 Z " fill="rgb(0,0,0)" fill-opacity="0.1"/><path d=" M 222.383 736.834 L 153.447 753.5 L 138.371 803.5 L 172.26 1053.521 L 214.481 1100 L 222.383 736.834 L 222.383 736.834 L 222.383 736.834 Z " fill="rgb(0,0,0)" fill-opacity="0.05"/></g><g><path d=" M 785.094 589.612 L 869.106 618.5 L 869.106 700.168 L 854.03 753.5 L 869.106 803.5 L 835.217 1022.535 L 792.996 1070.422 L 754.056 1029.578 L 730.774 815.167 L 739.742 736.834 L 702.44 643.501 L 785.094 589.612 L 785.094 589.612 L 785.094 589.612 Z " fill="rgb(255,221,187)"/><path d=" M 785.094 736.834 L 702.44 643.501 L 739.742 736.834 L 785.094 736.834 L 785.094 736.834 L 785.094 736.834 Z " fill="rgb(0,0,0)" fill-opacity="0.2"/><path d=" M 785.094 589.612 L 785.094 736.834 L 702.44 643.501 L 785.094 589.612 L 785.094 589.612 L 785.094 589.612 Z " fill="rgb(0,0,0)" fill-opacity="0.15"/><path d=" M 869.106 618.5 L 785.094 736.834 L 785.094 589.612 L 869.106 618.5 L 869.106 618.5 L 869.106 618.5 Z " fill="rgb(0,0,0)" fill-opacity="0.05"/><path d=" M 869.106 700.168 L 869.106 618.5 L 785.094 736.834 L 869.106 700.168 L 869.106 700.168 L 869.106 700.168 Z " fill="rgb(0,0,0)" fill-opacity="0.1"/><path d=" M 854.03 753.5 L 785.094 736.834 L 869.106 700.168 L 854.03 753.5 L 854.03 753.5 L 854.03 753.5 Z " fill="rgb(255,255,255)" fill-opacity="0.1"/><path d=" M 756.144 1035.333 L 793.477 1069.333 L 785.094 736.834 L 739.742 736.834 L 730.774 815.167 L 739.742 902.667 L 756.144 1035.333 Z " fill="rgb(0,0,0)" fill-opacity="0.1"/><path d=" M 785.094 736.834 L 854.03 753.5 L 869.106 803.5 L 835.217 1053.521 L 792.996 1100 L 785.094 736.834 L 785.094 736.834 L 785.094 736.834 Z " fill="rgb(0,0,0)" fill-opacity="0.05"/></g><g><path d=" M 395.99 247.835 L 392.21 427.289 L 459.857 498.908 L 499.253 498.908 L 538.65 498.908 L 611.869 427.289 L 602.517 247.835 L 550.588 211 L 499.253 211 L 447.919 211 L 395.99 247.835 L 395.99 247.835 Z " fill="rgb(255,221,187)"/><path d=" M 602.517 247.835 L 612.665 427.289 L 538.65 498.908 L 499.253 498.908 L 499.253 273.002 L 447.919 211 L 550.588 211 L 602.517 247.835 L 602.517 247.835 Z " fill="rgb(0,0,0)" fill-opacity="0.1"/><path d=" M 447.919 211 L 499.253 273.002 L 550.588 211 L 447.919 211 L 447.919 211 Z " fill="rgb(0,0,0)" fill-opacity="0.1"/><path d=" M 395.99 247.835 L 400.763 355.262 L 411.12 375.12 L 417.775 427.289 L 465.827 488.472 L 499.253 482.948 L 499.253 498.908 L 459.857 498.908 L 392.21 427.289 L 395.99 247.835 L 395.99 247.835 Z " fill="rgb(0,0,0)" fill-opacity="0.1"/><path d=" M 602.517 247.835 L 598.936 355.262 L 580.732 427.289 L 532.68 488.472 L 499.253 482.948 L 499.253 498.908 L 538.65 498.908 L 611.869 427.289 L 602.517 247.835 L 602.517 247.835 Z " fill="rgb(0,0,0)" fill-opacity="0.1"/><path d=" M 464.931 433.837 L 499.253 427.289 L 533.576 433.837 L 499.253 433.837 L 464.931 433.837 L 464.931 433.837 Z " fill="rgb(0,0,0)" fill-opacity="0.1"/><path d=" M 499.253 394.549 L 482.54 385.956 L 515.967 385.956 L 499.253 394.549 L 499.253 394.549 Z " fill="rgb(0,0,0)" fill-opacity="0.1"/></g></g></g></svg>