<?xml version="1.0" encoding="UTF-8" standalone="no"?><!-- Generator: Gravit.io --><svg xmlns="http://www.w3.org/2000/svg" xmlns:xlink="http://www.w3.org/1999/xlink" style="isolation:isolate" viewBox="0 0 1000 1000" width="1000pt" height="1000pt"><defs><clipPath id="_clipPath_6Tz4jzFHSY97FA9qRUCHc4eVOr7YTgRN"><rect width="1000" height="1000"/></clipPath></defs><g clip-path="url(#_clipPath_6Tz4jzFHSY97FA9qRUCHc4eVOr7YTgRN)"><path d=" M 478 333.334 L 488.667 349.333 L 476.781 340.169 L 407 317.333 L 422.667 317.333 L 470 327 L 478 333.334 L 478 333.334 Z " fill="rgb(96,96,96)"/><path d=" M 523.666 333.334 L 513 349.333 L 524.886 340.169 L 594.667 317.333 L 579 317.333 L 531.666 327 L 523.666 333.334 L 523.666 333.334 Z " fill="rgb(96,96,96)"/><path d=" M 478 333.334 L 488.667 349.333 L 476.781 340.169 L 407 317.333 L 422.667 317.333 L 470 327 L 478 333.334 Z " fill="rgb(0,0,0)" fill-opacity="0.3"/><path d=" M 523.666 333.334 L 513 349.333 L 524.886 340.169 L 594.667 317.333 L 579 317.333 L 531.666 327 L 523.666 333.334 Z " fill="rgb(0,0,0)" fill-opacity="0.3"/></g></svg>