<?xml version="1.0" encoding="UTF-8" standalone="no"?><!-- Generator: Gravit.io --><svg xmlns="http://www.w3.org/2000/svg" xmlns:xlink="http://www.w3.org/1999/xlink" style="isolation:isolate" viewBox="0 0 1000 1000" width="1000pt" height="1000pt"><defs><clipPath id="_clipPath_ZcioKef81xZbP24tluctqgyamxhxDpNi"><rect width="1000" height="1000"/></clipPath></defs><g clip-path="url(#_clipPath_ZcioKef81xZbP24tluctqgyamxhxDpNi)"><path d=" M 475.518 355.627 L 463.469 338.157 L 403.228 326.109 L 433.349 320.085 L 475.518 326.109 L 475.518 355.627 L 475.518 355.627 L 475.518 355.627 L 475.518 355.627 Z " fill="rgb(145,145,145)"/><path d=" M 523.71 355.627 L 535.759 338.157 L 596 326.109 L 565.879 320.085 L 523.71 326.109 L 523.71 355.627 L 523.71 355.627 L 523.71 355.627 L 523.71 355.627 Z " fill="rgb(145,145,145)"/><path d=" M 475.518 355.627 L 463.469 338.157 L 403.228 326.109 L 433.349 320.085 L 475.518 326.109 L 475.518 355.627 L 475.518 355.627 L 475.518 355.627 Z " fill="rgb(0,0,0)" fill-opacity="0.3"/><path d=" M 523.71 355.627 L 535.759 338.157 L 596 326.109 L 565.879 320.085 L 523.71 326.109 L 523.71 355.627 L 523.71 355.627 L 523.71 355.627 Z " fill="rgb(0,0,0)" fill-opacity="0.3"/></g></svg>