<?xml version="1.0" encoding="UTF-8" standalone="no"?><!-- Generator: Gravit.io --><svg xmlns="http://www.w3.org/2000/svg" xmlns:xlink="http://www.w3.org/1999/xlink" style="isolation:isolate" viewBox="0 0 1000 1000" width="1000pt" height="1000pt"><defs><clipPath id="_clipPath_PLepcgculS46XI6il26NZLVXHWIlsKrB"><rect width="1000" height="1000"/></clipPath></defs><g clip-path="url(#_clipPath_PLepcgculS46XI6il26NZLVXHWIlsKrB)"><path d=" M 410 315 L 455.504 320.97 L 472.5 310.5 L 464.5 334.5 L 416 324.5 L 401 334.5 L 410 315 L 410 315 Z " fill="rgb(130,128,128)"/><path d=" M 587 315 L 541.496 320.97 L 524.5 310.5 L 532.5 334.5 L 581 324.5 L 596 334.5 L 587 315 L 587 315 Z " fill="rgb(130,128,128)"/><path d=" M 410 315 L 455.504 320.97 L 472.5 310.5 L 464.5 334.5 L 416 324.5 L 401 334.5 L 410 315 Z " fill="rgb(0,0,0)" fill-opacity="0.3"/><path d=" M 587 315 L 541.496 320.97 L 524.5 310.5 L 532.5 334.5 L 581 324.5 L 596 334.5 L 587 315 Z " fill="rgb(0,0,0)" fill-opacity="0.3"/></g></svg>