<?xml version="1.0" encoding="UTF-8" standalone="no"?><!-- Generator: Gravit.io --><svg xmlns="http://www.w3.org/2000/svg" xmlns:xlink="http://www.w3.org/1999/xlink" style="isolation:isolate" viewBox="0 0 1000 1000" width="1000pt" height="1000pt"><defs><clipPath id="_clipPath_wXHx5juRIUrMFlDeTV9ZnGfsC7JpDRC9"><rect width="1000" height="1000"/></clipPath></defs><g clip-path="url(#_clipPath_wXHx5juRIUrMFlDeTV9ZnGfsC7JpDRC9)"><path d=" M 462.5 314.667 L 488 330.667 L 462.5 324.333 L 406.333 330.667 L 412.667 324.333 L 404.667 314.667 L 462.5 314.667 L 462.5 314.667 Z " fill="rgb(106,106,106)"/><path d=" M 537.167 314.667 L 511.667 330.667 L 537.167 324.333 L 593.333 330.667 L 587 324.333 L 595 314.667 L 537.167 314.667 L 537.167 314.667 Z " fill="rgb(106,106,106)"/><path d=" M 462.5 314.667 L 488 330.667 L 462.5 324.333 L 406.333 330.667 L 412.667 324.333 L 404.667 314.667 L 462.5 314.667 Z " fill="rgb(0,0,0)" fill-opacity="0.3"/><path d=" M 537.167 314.667 L 511.667 330.667 L 537.167 324.333 L 593.333 330.667 L 587 324.333 L 595 314.667 L 537.167 314.667 Z " fill="rgb(0,0,0)" fill-opacity="0.3"/></g></svg>