<?xml version="1.0" encoding="UTF-8" standalone="no"?><!-- Generator: Gravit.io --><svg xmlns="http://www.w3.org/2000/svg" xmlns:xlink="http://www.w3.org/1999/xlink" style="isolation:isolate" viewBox="0 0 1000 1000" width="1000pt" height="1000pt"><defs><clipPath id="_clipPath_knwPXwk4GinXISu95RdwgJD26MsHzZfy"><rect width="1000" height="1000"/></clipPath></defs><g clip-path="url(#_clipPath_knwPXwk4GinXISu95RdwgJD26MsHzZfy)"><path d=" M 442.5 319 L 455.504 320.97 L 472.5 310.5 L 464.5 334.5 L 442.5 331.5 L 401 334.5 L 442.5 319 L 442.5 319 Z " fill="rgb(136,136,136)"/><path d=" M 556 319 L 542.996 320.97 L 526 310.5 L 534 334.5 L 556 331.5 L 597.5 334.5 L 556 319 L 556 319 Z " fill="rgb(136,136,136)"/><path d=" M 442.5 319 L 455.504 320.97 L 472.5 310.5 L 464.5 334.5 L 442.5 331.5 L 401 334.5 L 442.5 319 Z " fill="rgb(0,0,0)" fill-opacity="0.3"/><path d=" M 556 319 L 542.996 320.97 L 526 310.5 L 534 334.5 L 556 331.5 L 597.5 334.5 L 556 319 Z " fill="rgb(0,0,0)" fill-opacity="0.3"/></g></svg>