<?xml version="1.0" encoding="UTF-8" standalone="no"?><!-- Generator: Gravit.io --><svg xmlns="http://www.w3.org/2000/svg" xmlns:xlink="http://www.w3.org/1999/xlink" style="isolation:isolate" viewBox="0 0 1000 1000" width="1000pt" height="1000pt"><defs><clipPath id="_clipPath_XBciVuteKMOK4fDxVBRqFJyRMZf7oJDY"><rect width="1000" height="1000"/></clipPath></defs><g clip-path="url(#_clipPath_XBciVuteKMOK4fDxVBRqFJyRMZf7oJDY)"><g><path d=" M 415.333 452 L 431 390.667 L 499 366 L 571 390.667 L 585.333 452 L 619 418.667 L 596 262 L 389.333 262 L 384 418.667 L 415.333 452 L 415.333 452 L 415.333 452 L 415.333 452 Z " fill="rgb(0,0,0)" fill-opacity="0.1"/><path d=" M 389.333 569.014 L 320 538 L 360 435 L 368 214 L 427 155 L 499 141 L 572 155 L 620 214 L 643 435 L 681 538 L 612 569.014 L 616 452 L 572 295 L 499 315 L 427 295 L 389.333 452 L 389.333 569.014 L 389.333 569.014 Z " fill="rgb(130,85,68)"/><path d=" M 389.333 452 L 389.333 569.014 L 320 538 L 389.333 452 L 389.333 452 L 389.333 452 Z " fill="rgb(0,0,0)" fill-opacity="0.1"/><path d=" M 612 569.014 L 616 452 L 681 538 L 612 569.014 L 612 569.014 Z " fill="rgb(0,0,0)" fill-opacity="0.1"/><path d=" M 389.333 452 L 360 435 L 320 538 L 389.333 452 L 389.333 452 L 389.333 452 L 389.333 452 Z " fill="rgb(0,0,0)" fill-opacity="0.05"/><path d=" M 616 452 L 643 435 L 681 538 L 616 452 L 616 452 L 616 452 L 616 452 Z " fill="rgb(0,0,0)" fill-opacity="0.05"/><path d=" M 389.333 452 L 360 435 L 368 214 L 427 295 L 389.333 452 L 389.333 452 L 389.333 452 L 389.333 452 Z " fill="rgb(0,0,0)" fill-opacity="0.1"/><path d=" M 643 435 L 616 452 L 571 295 L 620 214 L 643 435 L 643 435 L 643 435 L 643 435 Z " fill="rgb(0,0,0)" fill-opacity="0.1"/><path d=" M 368 214 L 427 155 L 499 141 L 431 176 L 499 230.146 L 452 268 L 427 295 L 368 214 L 368 214 L 368 214 L 368 214 Z " fill="rgb(0,0,0)" fill-opacity="0.05"/><path d=" M 571 295 L 540 268 L 499 230.146 L 560.667 176 L 499 141 L 572 155 L 620 214 L 571 295 L 571 295 L 571 295 L 571 295 Z " fill="rgb(0,0,0)" fill-opacity="0.05"/><path d=" M 452 268 L 499 230.146 L 540 268 L 572 295 L 499 315 L 427 295 L 452 268 L 452 268 L 452 268 L 452 268 Z " fill="rgb(0,0,0)" fill-opacity="0.1"/></g></g></svg>