<?xml version="1.0" encoding="UTF-8" standalone="no"?><!-- Generator: Gravit.io --><svg xmlns="http://www.w3.org/2000/svg" xmlns:xlink="http://www.w3.org/1999/xlink" style="isolation:isolate" viewBox="0 0 1000 1000" width="1000pt" height="1000pt"><defs><clipPath id="_clipPath_zNZ4PtihF8P1YrwPUPxQGvRB3NSHKbY2"><rect width="1000" height="1000"/></clipPath></defs><g clip-path="url(#_clipPath_zNZ4PtihF8P1YrwPUPxQGvRB3NSHKbY2)"><rect width="1000" height="1000" style="fill:rgb(0,0,0)" fill-opacity="0"/><g><path d=" M 378.667 386.667 L 395.333 431 L 429.333 407.333 L 456.667 374 L 499.592 380.667 L 544 374 L 565.333 407.333 L 605 437 L 614.667 370.667 L 565.333 269.333 L 420.667 269.333 L 378.667 386.667 Z " fill="rgb(0,0,0)" fill-opacity="0.2"/><path d=" M 381.69 580.873 L 357.333 574.667 L 332.394 541.549 L 307.042 504.225 L 381.69 216.901 L 436.62 156.338 L 499.592 156.338 L 561.859 156.338 L 616.901 216.901 L 690.437 504.225 L 666.084 541.549 L 640.845 567.606 L 616.901 580.873 L 602.704 518.31 L 602.704 384.507 L 561.859 300 L 499.592 319.718 L 436.62 300 L 395.775 384.507 L 395.775 518.31 L 381.69 580.873 L 381.69 580.873 L 381.69 580.873 Z " fill="rgb(14,83,35)"/><path d=" M 467.333 156.338 L 440.667 176 L 440.667 195 L 498.592 216.901 L 551.333 195 L 551.333 176 L 532.667 156.338 L 467.333 156.338 L 467.333 156.338 L 467.333 156.338 Z " fill="rgb(255,255,255)" fill-opacity="0.05"/><path d=" M 436.62 156.338 L 381.69 216.901 L 436.62 300 L 499.592 216.901 L 440.667 195 L 440.667 176 L 467.333 156.338 L 436.62 156.338 L 436.62 156.338 L 436.62 156.338 Z " fill="rgb(0,0,0)" fill-opacity="0.1"/><path d=" M 616.901 216.901 L 561.859 300 L 499.592 216.901 L 551.333 195 L 551.333 176 L 532.667 156.338 L 561.859 156.338 L 616.901 216.901 L 616.901 216.901 L 616.901 216.901 Z " fill="rgb(0,0,0)" fill-opacity="0.1"/><path d=" M 499.592 319.718 L 561.859 300 L 498.592 216.901 L 436.62 300 L 499.592 319.718 L 499.592 319.718 L 499.592 319.718 Z " fill="rgb(0,0,0)" fill-opacity="0.2"/><path d=" M 381.69 216.901 L 307.042 504.225 L 436.62 300 L 381.69 216.901 L 381.69 216.901 L 381.69 216.901 Z " fill="rgb(0,0,0)" fill-opacity="0.2"/><path d=" M 616.901 216.901 L 561.859 300 L 690.437 504.225 L 616.901 216.901 L 616.901 216.901 L 616.901 216.901 Z " fill="rgb(0,0,0)" fill-opacity="0.2"/><path d=" M 395.775 518.31 L 307.042 504.225 L 436.62 300 L 395.775 384.507 L 395.775 518.31 L 395.775 518.31 L 395.775 518.31 Z " fill="rgb(0,0,0)" fill-opacity="0.1"/><path d=" M 690.437 504.225 L 602.704 518.31 L 602.704 384.507 L 561.859 300 L 690.437 504.225 L 690.437 504.225 L 690.437 504.225 Z " fill="rgb(0,0,0)" fill-opacity="0.1"/><path d=" M 357.333 574.667 L 332.394 541.549 L 307.042 504.225 L 395.775 518.31 L 357.333 574.667 L 357.333 574.667 L 357.333 574.667 Z " fill="rgb(0,0,0)" fill-opacity="0.2"/><path d=" M 690.437 504.225 L 602.704 518.31 L 640.845 567.606 L 666.084 541.549 L 690.437 504.225 L 690.437 504.225 L 690.437 504.225 Z " fill="rgb(0,0,0)" fill-opacity="0.2"/><path d=" M 357.333 574.667 L 386 522 L 374.667 514.667 L 381.69 466.667 L 381.69 384.507 L 427.333 279.333 L 486.013 297 L 512.041 297 L 572 279.333 L 621.333 384.507 L 616.901 466.667 L 621.333 522 L 616.901 529 L 640.845 567.606 L 616.901 580.873 L 602.704 522 L 602.704 384.507 L 561.859 300 L 499.592 319.718 L 436.62 300 L 395.775 384.507 L 395.775 518.31 L 381.69 580.873 L 357.333 574.667 L 357.333 574.667 L 357.333 574.667 Z " fill="rgb(74,20,20)"/></g></g></svg>