<?xml version="1.0" encoding="UTF-8" standalone="no"?><!-- Generator: Gravit.io --><svg xmlns="http://www.w3.org/2000/svg" xmlns:xlink="http://www.w3.org/1999/xlink" style="isolation:isolate" viewBox="0 0 1000 1000" width="1000pt" height="1000pt"><defs><clipPath id="_clipPath_AACfcYD8621WgFoqyxWt5Aa7FVs4TVCW"><rect width="1000" height="1000"/></clipPath></defs><g clip-path="url(#_clipPath_AACfcYD8621WgFoqyxWt5Aa7FVs4TVCW)"><g><path d=" M 482 527.318 L 482 374 L 400 336 L 400 319 L 501 336 L 590 319 L 590 336 L 516 374 L 516 527.318 L 627 479 L 627 319 L 596 174 L 498 136 L 400 182 L 362 319 L 377 479 L 482 527.318 Z " fill="rgb(128,127,127)"/><path d=" M 466.667 497.333 L 444 485.333 L 439.383 402 L 427.009 479 L 410.426 470.667 L 404.667 402 L 393.333 463.333 L 384 455.333 L 368 365.333 L 377 479 L 482 527.318 L 482 402 L 466.667 497.333 Z " fill="rgb(40,40,40)"/><path d=" M 531.333 497.333 L 554 485.333 L 558.617 402 L 570.991 479 L 587.574 470.667 L 593.333 402 L 604.667 463.333 L 614 455.333 L 627 365.333 L 627 479 L 516 527.318 L 516 402 L 531.333 497.333 Z " fill="rgb(40,40,40)"/><path d=" M 384 243 L 501 203 L 609 236 L 596 174 L 498 136 L 400 182 L 384 243 Z " fill="rgb(0,0,0)" fill-opacity="0.1"/><path d=" M 553.609 260.264 L 509.325 157.208 L 508.624 312.222 L 555.031 206.779 L 453.515 287.959 L 544.206 285.571 L 443.391 211.736 L 487.675 314.792 L 488.376 159.778 L 441.969 265.221 L 543.485 184.041 L 452.794 186.429 L 553.609 260.264 Z " fill="rgb(104,25,25)"/><g><path d=" M 370 284 L 280 236 L 289.909 136 L 349 76 L 233 116 L 202 250 L 325 362 L 362 356 L 370 284 Z " fill="rgb(215,206,175)"/><path d=" M 395 267 L 379 320 L 379 375 L 357 362 L 363 274 L 395 267 Z " fill="rgb(123,121,112)"/><path d=" M 349 76 L 259.853 124 L 289.909 136 L 349 76 Z " fill="rgb(0,0,0)" fill-opacity="0.1"/><path d=" M 349 76 L 259.853 124 L 233 116 L 349 76 Z " fill="rgb(255,255,255)" fill-opacity="0.1"/><path d=" M 280 235.224 L 245 235.224 L 259.853 124 L 289.909 136 L 280 235.224 Z " fill="rgb(0,0,0)" fill-opacity="0.1"/><path d=" M 233 116 L 202 250 L 245 238.681 L 259.853 124 L 233 116 Z " fill="rgb(255,255,255)" fill-opacity="0.05"/><path d=" M 363 281.553 L 280 235.224 L 245 235.224 L 362 327 L 363 281.553 Z " fill="rgb(0,0,0)" fill-opacity="0.05"/><path d=" M 202 250 L 245 235.224 L 362 327 L 357 356 L 325 362 L 202 250 Z " fill="rgb(255,255,255)" fill-opacity="0.1"/></g><g><path d=" M 625.485 284 L 715.485 236 L 705.576 136 L 646.485 76 L 762.485 116 L 793.485 250 L 670.485 362 L 633.485 356 L 625.485 284 Z " fill="rgb(215,206,175)"/><path d=" M 600.485 267 L 616.485 320 L 616.485 375 L 638.485 362 L 632.485 274 L 600.485 267 Z " fill="rgb(123,121,112)"/><path d=" M 646.485 76 L 735.632 124 L 705.576 136 L 646.485 76 Z " fill="rgb(0,0,0)" fill-opacity="0.1"/><path d=" M 646.485 76 L 735.632 124 L 762.485 116 L 646.485 76 Z " fill="rgb(255,255,255)" fill-opacity="0.1"/><path d=" M 715.485 235.224 L 750.485 235.224 L 735.632 124 L 705.576 136 L 715.485 235.224 Z " fill="rgb(0,0,0)" fill-opacity="0.1"/><path d=" M 762.485 116 L 793.485 250 L 750.485 238.681 L 735.632 124 L 762.485 116 Z " fill="rgb(255,255,255)" fill-opacity="0.05"/><path d=" M 632.485 281.553 L 715.485 235.224 L 750.485 235.224 L 633.485 327 L 632.485 281.553 Z " fill="rgb(0,0,0)" fill-opacity="0.05"/><path d=" M 793.485 250 L 750.485 235.224 L 633.485 327 L 638.485 356 L 670.485 362 L 793.485 250 Z " fill="rgb(255,255,255)" fill-opacity="0.1"/></g><path d=" M 399.5 336 L 482 374 L 404.667 346 L 404.667 384.5 Q 391.618 323.301 390.5 321.5 L 399.5 262.5 L 407 311 L 427.009 311 L 423 292.5 L 455.5 315.5 L 451 298 L 498.5 321.5 L 498.5 337 L 399.5 321.5 L 399.5 336 Z " fill="rgb(40,40,40)"/><path d=" M 590 336 L 516 374 L 587.574 346 L 587.574 384.5 L 599.5 321 L 596 262.5 L 588.5 311 L 568.491 311 L 572.5 292.5 L 540 315.5 L 544.5 298 L 497 321.5 L 498 337 L 590 320 L 590 336 Z " fill="rgb(40,40,40)"/></g></g></svg>