<?xml version="1.0" encoding="UTF-8" standalone="no"?><!-- Generator: Gravit.io --><svg xmlns="http://www.w3.org/2000/svg" xmlns:xlink="http://www.w3.org/1999/xlink" style="isolation:isolate" viewBox="0 0 1000 1000" width="1000pt" height="1000pt"><defs><clipPath id="_clipPath_vZCcpgTc2fbQs2YGWtMvp9UGLGR9Db2U"><rect width="1000" height="1000"/></clipPath></defs><g clip-path="url(#_clipPath_vZCcpgTc2fbQs2YGWtMvp9UGLGR9Db2U)"><g><path d=" M 442.667 411 L 434.667 432.333 L 442.667 479.667 L 490.667 533 L 490.667 565 L 467.333 633 L 500 697.667 L 525 633 L 506 565 L 506 533 L 556.667 479.667 L 564.667 431 L 556.667 411 L 530.667 474.333 L 506 474.333 L 498.333 456.333 L 490.667 474.333 L 467.333 474.333 L 442.667 411 Z " fill="rgb(51,51,51)"/><path d=" M 442.667 411 L 500 400.333 L 556.667 411 L 556.667 432.333 L 500 411 L 442.667 432.333 L 442.667 411 Z " fill="rgb(51,51,51)"/><path d=" M 490.667 533 L 490.667 565 L 506 565 L 506 533 L 490.667 533 Z " fill="rgb(117,50,50)"/><path d=" M 442.667 411 L 467.333 474.333 L 442.667 479.667 L 442.667 411 Z " fill="rgb(0,0,0)" fill-opacity="0.1"/><path d=" M 556.667 411 L 530.667 474.333 L 556.667 479.667 L 556.667 411 Z " fill="rgb(0,0,0)" fill-opacity="0.1"/><path d=" M 498.333 456.333 L 490.667 474.333 L 498.333 533 L 498.333 456.333 Z " fill="rgb(255,255,255)" fill-opacity="0.05"/><path d=" M 506 474.333 L 498.333 533 L 506 533 L 530.667 474.333 L 506 474.333 Z " fill="rgb(255,255,255)" fill-opacity="0.05"/><path d=" M 467.333 474.333 L 490.667 533 L 498.333 533 L 490.667 474.333 L 467.333 474.333 Z " fill="rgb(0,0,0)" fill-opacity="0.1"/><path d=" M 498.333 565 L 467.333 633 L 490.667 565 L 498.333 565 Z " fill="rgb(0,0,0)" fill-opacity="0.1"/><path d=" M 525 633 L 506 565 L 500 565 L 525 633 Z " fill="rgb(0,0,0)" fill-opacity="0.1"/><path d=" M 500 697.667 L 467.333 633 L 498.333 565 L 500 697.667 Z " fill="rgb(255,255,255)" fill-opacity="0.05"/></g></g></svg>