<?xml version="1.0" encoding="UTF-8" standalone="no"?><!-- Generator: Gravit.io --><svg xmlns="http://www.w3.org/2000/svg" xmlns:xlink="http://www.w3.org/1999/xlink" style="isolation:isolate" viewBox="0 0 1000 1000" width="1000pt" height="1000pt"><defs><clipPath id="_clipPath_mNwdsGNMfStJDs2xBwJWPhKv5rmRdK5N"><rect width="1000" height="1000"/></clipPath></defs><g clip-path="url(#_clipPath_mNwdsGNMfStJDs2xBwJWPhKv5rmRdK5N)"><g><path d=" M 438 384 L 401.06 342.433 L 394.333 320 L 382 384 L 382 442.121 L 408 646 L 424 614 L 446.97 755 L 474 640 L 499 818 L 532 640 L 556.5 750 L 572.667 614 L 598 646 L 618 429.333 L 618 374.667 L 607 320 L 598 342.171 L 572.667 384 L 562.121 442.121 L 515.5 453.357 L 499 442.121 L 484 453.357 L 446.97 442.121 L 438 384 L 438 384 Z " fill="rgb(51,51,51)"/><path d=" M 446.97 442.121 L 484 418.397 L 499 418.397 L 513.481 418.397 L 562.121 442.121 L 572.667 411 L 499 398.667 L 432.667 411 L 446.97 442.121 L 446.97 442.121 Z " fill="rgb(51,51,51)"/><path d=" M 499 398.667 L 484 418 L 513.481 418.397 L 499 398.667 L 499 398.667 Z " fill="rgb(0,0,0)" fill-opacity="0.05"/><path d=" M 568 410 L 513.481 418 L 499 398.667 L 568 410 L 568 410 Z " fill="rgb(255,255,255)" fill-opacity="0.05"/><path d=" M 442 410 L 484 418.397 L 498.667 398.667 L 442 410 L 442 410 Z " fill="rgb(255,255,255)" fill-opacity="0.05"/><path d=" M 394.333 320 L 382 384 L 401.06 342.433 L 394.333 320 L 394.333 320 Z " fill="rgb(255,255,255)" fill-opacity="0.1"/><path d=" M 607 320 L 598 342.171 L 618 374.667 L 607 320 L 607 320 Z " fill="rgb(255,255,255)" fill-opacity="0.1"/><path d=" M 572.667 384 L 618 374.667 L 598 342.433 L 572.667 384 L 572.667 384 Z " fill="rgb(0,0,0)" fill-opacity="0.1"/><path d=" M 438 384 L 382 384 L 401.06 342.433 L 438 384 L 438 384 Z " fill="rgb(0,0,0)" fill-opacity="0.1"/><path d=" M 484 418 L 442 410 L 446.97 442.121 L 484 418 L 484 418 Z " fill="rgb(0,0,0)" fill-opacity="0.1"/><path d=" M 562.121 442.121 L 568 411 L 513.481 418.397 L 562.121 442.121 L 562.121 442.121 Z " fill="rgb(0,0,0)" fill-opacity="0.05"/><path d=" M 382 384 L 382 442.121 L 438 384 L 382 384 L 382 384 Z " fill="rgb(0,0,0)" fill-opacity="0.05"/><path d=" M 572.667 384 L 618 429.333 L 618 374.667 L 572.667 384 L 572.667 384 Z " fill="rgb(0,0,0)" fill-opacity="0.05"/><path d=" M 572.667 384 L 618 429.333 L 598 646 L 572.667 384 L 572.667 384 Z " fill="rgb(0,0,0)" fill-opacity="0.1"/><path d=" M 438 384 L 382 442.121 L 408 646 L 438 384 L 438 384 Z " fill="rgb(0,0,0)" fill-opacity="0.1"/><path d=" M 446.97 442.121 L 438 384 L 408 646 L 446.97 442.121 L 446.97 442.121 Z " fill="rgb(255,255,255)" fill-opacity="0.05"/><path d=" M 598 646 L 572.667 384 L 562.121 442.121 L 598 646 L 598 646 Z " fill="rgb(255,255,255)" fill-opacity="0.05"/><path d=" M 446.97 442.121 L 424 614 L 408 646 L 446.97 442.121 L 446.97 442.121 Z " fill="rgb(0,0,0)" fill-opacity="0.05"/><path d=" M 598 646 L 562.121 442.121 L 572.667 614 L 598 646 L 598 646 Z " fill="rgb(0,0,0)" fill-opacity="0.05"/><path d=" M 484 453.357 L 446.97 442.121 L 424 614 L 484 453.357 L 484 453.357 Z " fill="rgb(0,0,0)" fill-opacity="0.05"/><path d=" M 515.5 453.357 L 562.121 442.121 L 572.667 614 L 515.5 453.357 L 515.5 453.357 Z " fill="rgb(0,0,0)" fill-opacity="0.05"/><path d=" M 474 640 L 484 453.357 L 446.97 755 L 474 640 L 474 640 Z " fill="rgb(255,255,255)" fill-opacity="0.05"/><path d=" M 424 614 L 446.97 755 L 484 453.357 L 424 614 L 424 614 Z " fill="rgb(0,0,0)" fill-opacity="0.1"/><path d=" M 515.5 453.357 L 572.667 614 L 556.5 750 L 515.5 453.357 L 515.5 453.357 Z " fill="rgb(0,0,0)" fill-opacity="0.1"/><path d=" M 556.5 750 L 515.5 453.357 L 532 640 L 556.5 750 L 556.5 750 Z " fill="rgb(255,255,255)" fill-opacity="0.1"/><path d=" M 499 442.121 L 499 815 L 474 640 L 499 442.121 Z " fill="rgb(0,0,0)" fill-opacity="0.15"/><path d=" M 532 640 L 499 442.121 L 499 815 L 532 640 Z " fill="rgb(0,0,0)" fill-opacity="0.05"/></g></g></svg>