<?xml version="1.0" encoding="UTF-8" standalone="no"?><!-- Generator: Gravit.io --><svg xmlns="http://www.w3.org/2000/svg" xmlns:xlink="http://www.w3.org/1999/xlink" style="isolation:isolate" viewBox="0 0 1000 1000" width="1000pt" height="1000pt"><defs><clipPath id="_clipPath_QZ9MHLl0xZWLFpOnUeVWxPlCJYFuecga"><rect width="1000" height="1000"/></clipPath></defs><g clip-path="url(#_clipPath_QZ9MHLl0xZWLFpOnUeVWxPlCJYFuecga)"><g><path d=" M 401.06 342.433 L 394.333 320 L 390 424.667 L 408 517.879 L 429.333 478.485 L 446.97 581.333 L 466.667 510.303 L 499 654.242 L 532 510.303 L 546.97 557.273 L 572.667 485.333 L 604.545 510.303 L 615.333 429.333 L 607 320 L 598 342.171 L 562.121 442.121 L 515.5 453.357 L 499 442.121 L 484 453.357 L 446.97 442.121 L 401.06 342.433 Z " fill="rgb(51,51,51)"/><path d=" M 446.97 442.121 L 484 418.397 L 499 418.397 L 513.481 418.397 L 562.121 442.121 L 572.667 424.667 L 499 398.667 L 432.667 424.667 L 446.97 442.121 Z " fill="rgb(51,51,51)"/><path d=" M 401.06 342.433 L 394.333 320 L 390 424.667 L 408 517.879 L 401.06 342.433 Z " fill="rgb(0,0,0)" fill-opacity="0.1"/><path d=" M 429.333 478.485 L 408 517.879 L 401.06 342.433 L 429.333 478.485 Z " fill="rgb(255,255,255)" fill-opacity="0.05"/><path d=" M 438 424.667 L 401.06 342.433 L 429.333 478.485 L 446.97 442.121 L 438 424.667 Z " fill="rgb(0,0,0)" fill-opacity="0.1"/><path d=" M 446.97 581.333 L 446.97 488.667 L 466.667 448.667 L 446.97 442.121 L 429.333 478.485 L 446.97 581.333 Z " fill="rgb(255,255,255)" fill-opacity="0.05"/><path d=" M 546.97 485.333 L 536 448.667 L 515.5 453.357 L 532 510.303 L 546.97 557.273 L 546.97 485.333 Z " fill="rgb(255,255,255)" fill-opacity="0.05"/><path d=" M 604.545 510.303 L 601 336.5 L 607 320 L 615.333 429.333 L 604.545 510.303 Z " fill="rgb(255,255,255)" fill-opacity="0.05"/><path d=" M 499 654.242 L 466.667 510.303 L 484 453.357 L 499 442.121 L 499 654.242 Z " fill="rgb(255,255,255)" fill-opacity="0.1"/><path d=" M 598 342.433 L 604.545 510.303 L 572.667 485.333 L 598 342.433 Z " fill="rgb(0,0,0)" fill-opacity="0.1"/><path d=" M 598 342.433 L 562.121 442.121 L 572.667 485.333 L 598 342.433 Z " fill="rgb(0,0,0)" fill-opacity="0.05"/><path d=" M 499 398.667 L 484 418.397 L 446.97 442.121 L 438 422.667 L 499 398.667 Z " fill="rgb(0,0,0)" fill-opacity="0.05"/><path d=" M 499 398.667 L 513.481 418.397 L 562.121 442.121 L 569.333 423.667 L 499 398.667 Z " fill="rgb(0,0,0)" fill-opacity="0.1"/></g></g></svg>