<?xml version="1.0" encoding="UTF-8" standalone="no"?><!-- Generator: Gravit.io --><svg xmlns="http://www.w3.org/2000/svg" xmlns:xlink="http://www.w3.org/1999/xlink" style="isolation:isolate" viewBox="0 0 1000 1000" width="1000pt" height="1000pt"><defs><clipPath id="_clipPath_ypJ3HZ85HhHMlwXVRSHgUH5X6L8It3vw"><rect width="1000" height="1000"/></clipPath></defs><g clip-path="url(#_clipPath_ypJ3HZ85HhHMlwXVRSHgUH5X6L8It3vw)"><g><path d=" M 494 178 L 420 164 L 439 191 L 377 222 L 412 231 L 351 280 L 387 280 L 351 372 L 387 366 L 387 469.333 L 420 521 L 433 262 L 476 280 L 494 268 L 500 289 L 514 268 L 560 349 L 567 268 L 602 595 L 636 392 L 672 443 L 618 211 L 579 178 L 537 147 L 550 178 L 494 156 L 494 178 L 494 178 Z " fill="rgb(51,51,51)"/><path d=" M 602 595 L 567 268 L 636 392 L 602 595 L 602 595 L 602 595 Z " fill="rgb(0,0,0)" fill-opacity="0.1"/><path d=" M 672 443 L 636 392 L 567 268 L 644.667 329 L 672 443 L 672 443 L 672 443 Z " fill="rgb(255,255,255)" fill-opacity="0.05"/><path d=" M 618 211 L 567 268 L 644.667 329 L 618 211 L 618 211 L 618 211 Z " fill="rgb(0,0,0)" fill-opacity="0.05"/><path d=" M 494 156 L 567 268 L 618 211 L 494 156 L 494 156 L 494 156 Z " fill="rgb(0,0,0)" fill-opacity="0.1"/><path d=" M 420 164 L 567 268 L 494 156 L 494 178 L 420 164 L 420 164 L 420 164 Z " fill="rgb(255,255,255)" fill-opacity="0.1"/><path d=" M 560 349 L 567 268 L 420 164 L 514 268 L 560 349 L 560 349 L 560 349 Z " fill="rgb(255,255,255)" fill-opacity="0.05"/><path d=" M 500 289 L 494 268 L 420 164 L 514 268 L 500 289 L 500 289 L 500 289 Z " fill="rgb(0,0,0)" fill-opacity="0.15"/><path d=" M 377 222 L 412 231 L 494 268 L 439 191 L 377 222 L 377 222 L 377 222 Z " fill="rgb(0,0,0)" fill-opacity="0.1"/><path d=" M 433 262 L 412 231 L 494 268 L 476 280 L 433 262 L 433 262 L 433 262 Z " fill="rgb(0,0,0)" fill-opacity="0.1"/><path d=" M 351 280 L 387 280 L 433 262 L 412 231 L 351 280 L 351 280 L 351 280 Z " fill="rgb(255,255,255)" fill-opacity="0.1"/><path d=" M 351 372 L 387 280 L 433 262 L 387 366 L 351 372 L 351 372 L 351 372 Z " fill="rgb(0,0,0)" fill-opacity="0.1"/><path d=" M 420 521 L 402 475 L 433 262 L 420 517 L 420 521 Z " fill="rgb(255,255,255)" fill-opacity="0.1"/><path d=" M 420 521 L 387 469.333 L 433 262 L 420 517 L 420 521 Z " fill="rgb(0,0,0)" fill-opacity="0.1"/></g></g></svg>