<?xml version="1.0" encoding="UTF-8" standalone="no"?><!-- Generator: Gravit.io --><svg xmlns="http://www.w3.org/2000/svg" xmlns:xlink="http://www.w3.org/1999/xlink" style="isolation:isolate" viewBox="0 0 1000 1000" width="1000pt" height="1000pt"><defs><clipPath id="_clipPath_iPjarQ5EDCBoHM0zIELL53u9wnNWwIuH"><rect width="1000" height="1000"/></clipPath></defs><g clip-path="url(#_clipPath_iPjarQ5EDCBoHM0zIELL53u9wnNWwIuH)"><g><path d=" M 395.455 341.152 L 392.5 241 L 446.97 204.788 L 548.485 204.788 L 610.5 241 L 607.576 341.152 L 581.818 265.394 L 500 288.121 L 430.303 265.394 L 395.455 341.152 Z " fill="rgb(51,51,51)"/><path d=" M 481.833 206.439 L 463.652 156.439 L 521 80.545 L 657.576 191.288 L 665.167 439.636 L 624.242 232.061 L 546.985 156.439 L 518.197 191.288 L 518.197 215.53 L 481.833 206.439 Z " fill="rgb(51,51,51)"/><path d=" M 657.576 191.288 L 624.242 232.061 L 665.167 439.636 L 657.576 191.288 Z " fill="rgb(0,0,0)" fill-opacity="0.1"/><path d=" M 546.985 156.439 L 657.576 191.288 L 624.242 232.061 L 546.985 156.439 Z " fill="rgb(255,255,255)" fill-opacity="0.05"/><path d=" M 521 80.545 L 546.985 156.439 L 657.576 191.288 L 521 80.545 Z " fill="rgb(0,0,0)" fill-opacity="0.05"/><path d=" M 518.197 191.288 L 521 80.545 L 546.985 156.439 L 518.197 191.288 Z " fill="rgb(0,0,0)" fill-opacity="0.1"/><path d=" M 463.652 156.439 L 521 80.545 L 490.909 156.439 L 518.197 195 L 477 191.288 L 463.652 156.439 Z " fill="rgb(255,255,255)" fill-opacity="0.05"/><path d=" M 500 288.121 L 477 204.788 L 521 204.788 L 500 288.121 Z " fill="rgb(255,255,255)" fill-opacity="0.05"/><path d=" M 477 204.788 L 500 215.53 L 521 204.788 L 518.197 195 L 477 191.288 L 477 204.788 Z " fill="rgb(91,34,34)"/><path d=" M 500 288.121 L 446.97 206.439 L 392.5 241 L 500 288.121 Z " fill="rgb(255,255,255)" fill-opacity="0.05"/><path d=" M 500 288.121 L 548.485 204.788 L 610.5 241 L 500 288.121 Z " fill="rgb(0,0,0)" fill-opacity="0.1"/><path d=" M 610.5 241 L 581.818 265.394 L 607.576 341.152 L 610.5 241 Z " fill="rgb(0,0,0)" fill-opacity="0.1"/><path d=" M 430.303 265.394 L 392.5 241 L 395.455 341.152 L 430.303 265.394 Z " fill="rgb(0,0,0)" fill-opacity="0.05"/></g></g></svg>