<?xml version="1.0" encoding="UTF-8" standalone="no"?><!-- Generator: Gravit.io --><svg xmlns="http://www.w3.org/2000/svg" xmlns:xlink="http://www.w3.org/1999/xlink" style="isolation:isolate" viewBox="0 0 1000 1000" width="1000pt" height="1000pt"><defs><clipPath id="_clipPath_Aglz1xIYBdmkxPHJKhR3vNFZuGkVv5FK"><rect width="1000" height="1000"/></clipPath></defs><g clip-path="url(#_clipPath_Aglz1xIYBdmkxPHJKhR3vNFZuGkVv5FK)"><g><path d=" M 579.333 387.333 L 570 268 L 560 282 L 542 274 L 522 282 L 498 298.667 L 472.667 282 L 454.667 274 L 442 282 L 442 438 L 425.333 282 L 411.333 286 L 399.333 382 L 399.333 518 L 375.333 456.667 L 370.667 317.333 L 381.333 221.333 L 442 162.667 L 498 150.667 L 560 162.667 L 622.667 217.333 L 637.333 317.333 L 622.667 486.667 L 608.667 566 L 590.667 438 L 590.667 317.333 L 579.333 387.333 Z " fill="rgb(142,36,36)"/><path d=" M 399.333 518 L 375.333 456.667 L 399.333 387.333 L 399.333 518 L 399.333 518 Z " fill="rgb(0,0,0)" fill-opacity="0.1"/><path d=" M 370.667 317.333 L 375.333 456.667 L 399.333 387.333 L 411.333 286 L 370.667 317.333 L 370.667 317.333 Z " fill="rgb(255,255,255)" fill-opacity="0.1"/><path d=" M 381.333 221.333 L 370.667 317.333 L 411.333 286 L 381.333 221.333 L 381.333 221.333 Z " fill="rgb(255,255,255)" fill-opacity="0.05"/><path d=" M 425.333 282 L 442 162.667 L 381.333 221.333 L 411.333 286 L 425.333 282 L 425.333 282 Z " fill="rgb(0,0,0)" fill-opacity="0.1"/><path d=" M 442 282 L 442 438 L 425.333 282 L 442 162.667 L 442 282 L 442 282 Z " fill="rgb(255,255,255)" fill-opacity="0.1"/><path d=" M 454.667 274 L 442 162.667 L 442 282 L 454.667 274 L 454.667 274 Z " fill="rgb(0,0,0)" fill-opacity="0.1"/><path d=" M 472.667 282 L 442 162.667 L 454.667 274 L 472.667 282 L 472.667 282 Z " fill="rgb(0,0,0)" fill-opacity="0.05"/><path d=" M 498 298.667 L 498 150.667 L 442 162.667 L 472.667 282 L 498 298.667 Z " fill="rgb(255,255,255)" fill-opacity="0.05"/><path d=" M 522 282 L 498 298.667 L 498 150.667 L 560 162.667 L 522 282 Z " fill="rgb(0,0,0)" fill-opacity="0.05"/><path d=" M 542 274 L 522 282 L 560 162.667 L 573.333 175 L 542 274 Z " fill="rgb(255,255,255)" fill-opacity="0.1"/><path d=" M 560 282 L 542 274 L 573.333 175 L 570 268 L 560 282 Z " fill="rgb(0,0,0)" fill-opacity="0.1"/><path d=" M 579.333 387.333 L 570 268 L 573.333 175 L 590.667 317.333 L 579.333 387.333 Z " fill="rgb(255,255,255)" fill-opacity="0.1"/><path d=" M 608.539 364 L 590.667 438 L 590.667 317.333 L 573.333 175 L 622.667 217.333 L 608.539 364 Z " fill="rgb(0,0,0)" fill-opacity="0.1"/><path d=" M 608.539 566 L 608.667 364 L 622.667 217.333 L 608.539 566 L 608.539 566 Z " fill="rgb(0,0,0)" fill-opacity="0.1"/><path d=" M 622.667 486.667 L 608.667 566 L 618.841 315.514 L 622.667 221.333 L 637.333 317.333 L 622.667 486.667 L 622.667 486.667 Z " fill="rgb(255,255,255)" fill-opacity="0.1"/></g></g></svg>