<?xml version="1.0" encoding="UTF-8" standalone="no"?><!-- Generator: Gravit.io --><svg xmlns="http://www.w3.org/2000/svg" xmlns:xlink="http://www.w3.org/1999/xlink" style="isolation:isolate" viewBox="0 0 1000 1000" width="1000pt" height="1000pt"><defs><clipPath id="_clipPath_o9477znDmPPtfZ5ae3ayvo5UHfxK616W"><rect width="1000" height="1000"/></clipPath></defs><g clip-path="url(#_clipPath_o9477znDmPPtfZ5ae3ayvo5UHfxK616W)"><g><path d=" M 358.194 231.348 L 336.129 283.522 L 336.129 527 L 369.226 422.652 L 391.29 498.014 L 396.806 289.319 L 418.871 306.71 L 457.484 271.928 L 490.581 306.71 L 567.806 283.522 L 595.387 248.739 L 606.419 341.493 L 634 271.928 L 606.419 179.174 L 512.645 138.594 L 391.29 127 L 429.903 150.188 L 336.129 179.174 L 391.29 179.174 L 292 248.739 L 358.194 231.348 Z " fill="rgb(51, 51, 51)"/><path d=" M 606.419 341.493 L 634 271.928 L 595.387 248.739 L 606.419 341.493 Z " fill="rgb(0,0,0)" fill-opacity="0.1"/><path d=" M 595.387 248.739 L 512.645 138.594 L 606.419 179.174 L 595.387 248.739 Z " fill="rgb(255,255,255)" fill-opacity="0.1"/><path d=" M 595.387 248.739 L 490.581 306.71 L 567.806 283.522 L 595.387 248.739 Z " fill="rgb(0,0,0)" fill-opacity="0.05"/><path d=" M 512.645 138.594 L 391.29 127 L 595.387 248.739 L 512.645 138.594 Z " fill="rgb(0,0,0)" fill-opacity="0.1"/><path d=" M 429.903 150.188 L 336.129 179.174 L 396.806 179.174 L 595.387 248.739 L 429.903 150.188 Z " fill="rgb(0,0,0)" fill-opacity="0.05"/><path d=" M 391.29 179.174 L 292 248.739 L 463 202.362 L 391.29 179.174 Z " fill="rgb(255,255,255)" fill-opacity="0.1"/><path d=" M 595.387 248.739 L 358.194 231.348 L 463 202.362 L 595.387 248.739 Z " fill="rgb(0,0,0)" fill-opacity="0.05"/><path d=" M 595.387 248.739 L 457.484 271.928 L 490.581 306.71 L 595.387 248.739 Z " fill="rgb(255,255,255)" fill-opacity="0.05"/><path d=" M 358.194 231.348 L 336.129 283.522 L 336.129 527 L 358.194 231.348 Z " fill="rgb(255,255,255)" fill-opacity="0.05"/><path d=" M 358.194 231.348 L 336.129 527 L 369.226 422.652 L 358.194 231.348 Z " fill="rgb(0,0,0)" fill-opacity="0.05"/><path d=" M 391.29 498.014 L 369.226 422.652 L 358.194 231.348 L 391.29 498.014 Z " fill="rgb(0,0,0)" fill-opacity="0.1"/><path d=" M 457.484 271.928 L 358.194 231.348 L 595.387 248.739 L 457.484 271.928 Z " fill="rgb(0,0,0)" fill-opacity="0.1"/><path d=" M 396.806 289.319 L 457.484 271.928 L 418.871 306.71 L 396.806 289.319 Z " fill="rgb(0,0,0)" fill-opacity="0.1"/><path d=" M 358.194 231.348 L 396.806 289.319 L 457.484 271.928 L 358.194 231.348 Z " fill="rgb(0,0,0)" fill-opacity="0.05"/></g></g></svg>
