<?xml version="1.0" encoding="UTF-8" standalone="no"?><!-- Generator: Gravit.io --><svg xmlns="http://www.w3.org/2000/svg" xmlns:xlink="http://www.w3.org/1999/xlink" style="isolation:isolate" viewBox="0 0 1000 1000" width="1000pt" height="1000pt"><defs><clipPath id="_clipPath_DCSK4m0ub3yMvgp1rc0ZyKFBQxlCrZLj"><rect width="1000" height="1000"/></clipPath></defs><g clip-path="url(#_clipPath_DCSK4m0ub3yMvgp1rc0ZyKFBQxlCrZLj)"><path d=" M 590 155 L 614 136 L 477 155 L 397 219 L 343 354 L 366 328 L 381 487 L 390 428 L 419 542 L 432 283 L 499 308 L 540 283 L 550 428 L 561 283 L 590 542 L 614 428 L 628 487 L 645 354 L 660 378 L 645 283 L 691 264 L 660 238 L 676 229 L 645 209 L 676 200 L 645 185 L 676 172 L 590 155 Z " fill="rgb(193,93,93)"/><path d=" M 614 136 L 477 155 L 397 219 L 486.667 167.333 L 614 136 Z " fill="rgb(0,0,0)" fill-opacity="0.15"/><path d=" M 676 172 L 590 155 L 486.667 167.333 L 676 172 Z " fill="rgb(0,0,0)" fill-opacity="0.15"/><path d=" M 614 136 L 486.667 167.333 L 590 155 L 614 136 Z " fill="rgb(255,255,255)" fill-opacity="0.05"/><path d=" M 676 172 L 486.667 167.333 L 645 185 L 676 172 Z " fill="rgb(255,255,255)" fill-opacity="0.1"/><path d=" M 676 200 L 486.667 188.667 L 397 219 L 486.667 167.333 L 645 185 L 676 200 Z " fill="rgb(0,0,0)" fill-opacity="0.1"/><path d=" M 645 209 L 676 200 L 486.667 188.667 L 645 209 Z " fill="rgb(255,255,255)" fill-opacity="0.05"/><path d=" M 676 229 L 486.667 209 L 397 219 L 486.667 188.667 L 645 209 L 676 229 Z " fill="rgb(0,0,0)" fill-opacity="0.05"/><path d=" M 550 428 L 561 283 L 540 283 L 550 428 Z " fill="rgb(255,255,255)" fill-opacity="0.1"/><path d=" M 499 308 L 550 264 L 590 219 L 561 283 L 540 283 L 499 308 Z " fill="rgb(255,255,255)" fill-opacity="0.1"/><path d=" M 419 542 L 390 428 L 432 283 L 419 542 Z " fill="rgb(0,0,0)" fill-opacity="0.1"/><path d=" M 381 487 L 366 328 L 432 283 L 390 428 L 381 487 Z " fill="rgb(255,255,255)" fill-opacity="0.1"/><path d=" M 397 219 L 366 328 L 432 283 L 397 219 Z " fill="rgb(0,0,0)" fill-opacity="0.15"/><path d=" M 499 308 L 397 219 L 432 283 L 499 308 Z " fill="rgb(0,0,0)" fill-opacity="0.05"/><path d=" M 445.333 229 L 499 308 L 397 219 L 445.333 229 Z " fill="rgb(255,255,255)" fill-opacity="0.05"/><path d=" M 397 219 L 486.667 209 L 499 308 L 445.333 229 L 397 219 Z " fill="rgb(0,0,0)" fill-opacity="0.05"/><path d=" M 343 354 L 397 219 L 366 328 L 343 354 Z " fill="rgb(0,0,0)" fill-opacity="0.1"/><path d=" M 499 308 L 519.333 212.667 L 486.667 209 L 499 308 Z " fill="rgb(255,255,255)" fill-opacity="0.05"/><path d=" M 499 308 L 519.333 212.667 L 590 219 L 536.5 233 L 499 308 Z " fill="rgb(0,0,0)" fill-opacity="0.1"/><path d=" M 550 264 L 499 308 L 536.5 233 L 590 219 L 550 264 Z " fill="rgb(0,0,0)" fill-opacity="0.05"/><path d=" M 660 238 L 590 219 L 676 229 L 660 238 Z " fill="rgb(255,255,255)" fill-opacity="0.05"/><path d=" M 691 264 L 590 219 L 660 238 L 691 264 Z " fill="rgb(0,0,0)" fill-opacity="0.1"/><path d=" M 645 283 L 590 219 L 691 264 L 645 283 Z " fill="rgb(255,255,255)" fill-opacity="0.1"/><path d=" M 660 378 L 645 283 L 590 219 L 645 354 L 660 378 Z " fill="rgb(0,0,0)" fill-opacity="0.1"/><path d=" M 628 487 L 645 354 L 590 219 L 628 382 L 628 487 Z " fill="rgb(255,255,255)" fill-opacity="0.1"/><path d=" M 614 428 L 590 219 L 628 382 L 628 487 L 614 428 Z " fill="rgb(0,0,0)" fill-opacity="0.1"/><path d=" M 590 542 L 561 283 L 590 219 L 594 424 L 590 542 Z " fill="rgb(0,0,0)" fill-opacity="0.15"/><path d=" M 614 428 L 590 219 L 594 428 L 590 542 L 614 428 Z " fill="rgb(0,0,0)" fill-opacity="0.05"/></g></svg>