<?xml version="1.0" encoding="UTF-8" standalone="no"?><!-- Generator: Gravit.io --><svg xmlns="http://www.w3.org/2000/svg" xmlns:xlink="http://www.w3.org/1999/xlink" style="isolation:isolate" viewBox="0 0 1000 1000" width="1000pt" height="1000pt"><defs><clipPath id="_clipPath_LbA3qGgArPVKH2bA8SnimFj6HO76M7cH"><rect width="1000" height="1000"/></clipPath></defs><g clip-path="url(#_clipPath_LbA3qGgArPVKH2bA8SnimFj6HO76M7cH)"><path d=" M 432 277 L 457 306 L 457 287 L 497 316 L 506 304 L 532 382 L 548 491 L 548 677 L 592 595 L 604 633 L 649 471 L 628 267 L 556 193 L 505 163 L 519 184 L 432 163 L 457 184 L 370 202 L 396 202 L 317 256 L 349 256 L 311 332 L 343 316 L 349 530 L 370 499 L 406 608 L 406 332 L 432 277 Z " fill="rgb(51, 51, 51)"/><path d=" M 406 608 L 406 332 L 370 499 L 406 608 Z " fill="rgb(0,0,0)" fill-opacity="0.1"/><path d=" M 406 332 L 349 530 L 370 499 L 406 332 Z " fill="rgb(255,255,255)" fill-opacity="0.1"/><path d=" M 343 316 L 432 277 L 406 332 L 349 530 L 343 316 Z " fill="rgb(0,0,0)" fill-opacity="0.1"/><path d=" M 311 332 L 349 256 L 338 304 L 311 332 Z " fill="rgb(255,255,255)" fill-opacity="0.1"/><path d=" M 343 316 L 311 332 L 338 304 L 432 277 L 343 316 Z " fill="rgb(0,0,0)" fill-opacity="0.1"/><path d=" M 338 304 L 349 256 L 432 277 L 338 304 Z " fill="rgb(255,255,255)" fill-opacity="0.15"/><path d=" M 457 304 L 432 277 L 349 256 L 446 256 L 457 287 L 457 304 Z " fill="rgb(0,0,0)" fill-opacity="0.15"/><path d=" M 497 316 L 457 287 L 446 256 L 497 316 Z " fill="rgb(255,255,255)" fill-opacity="0.1"/><path d=" M 446 256 L 497 316 L 506 304 L 446 256 Z " fill="rgb(0,0,0)" fill-opacity="0.1"/><path d=" M 317 256 L 396 202 L 457 211.333 L 396 222 L 317 256 Z " fill="rgb(255,255,255)" fill-opacity="0.1"/><path d=" M 548 677 L 548 491 L 592 595 L 548 677 Z " fill="rgb(0,0,0)" fill-opacity="0.1"/><path d=" M 604 633 L 592 595 L 649 471 L 604 633 Z " fill="rgb(0,0,0)" fill-opacity="0.1"/><path d=" M 628 267 L 604 296 L 592 595 L 628 267 Z " fill="rgb(0,0,0)" fill-opacity="0.1"/><path d=" M 592 595 L 628 267 L 649 471 L 592 595 Z " fill="rgb(255,255,255)" fill-opacity="0.05"/><path d=" M 592 595 L 548 494.667 L 604 296 L 592 595 Z " fill="rgb(0,0,0)" fill-opacity="0.15"/><path d=" M 628 267 L 548 287 L 574 346 L 548 499 L 604 296 L 628 267 Z " fill="rgb(255,255,255)" fill-opacity="0.05"/><path d=" M 506 304 L 532 382 L 548 494.667 L 574 346 L 548 287 L 506 304 Z " fill="rgb(0,0,0)" fill-opacity="0.1"/><path d=" M 506 163 L 556 193 L 628 267 L 506 163 Z " fill="rgb(255,255,255)" fill-opacity="0.05"/><path d=" M 519 184 L 506 163 L 628 267 L 519 184 Z " fill="rgb(0,0,0)" fill-opacity="0.05"/><path d=" M 432 163 L 519 184 L 628 267 L 432 163 Z " fill="rgb(255,255,255)" fill-opacity="0.1"/><path d=" M 457 184 L 432 163 L 628 267 L 457 184 Z " fill="rgb(0,0,0)" fill-opacity="0.1"/><path d=" M 370 202 L 457 184 L 628 267 L 457 211.333 L 396 202 L 370 202 Z " fill="rgb(0,0,0)" fill-opacity="0.1"/><path d=" M 317 256 L 396 222 L 457 211.333 L 446 256 L 317 256 Z " fill="rgb(0,0,0)" fill-opacity="0.05"/><path d=" M 506 304 L 446 256 L 457 211.333 L 506 304 Z " fill="rgb(255,255,255)" fill-opacity="0.05"/><path d=" M 548 287 L 506 304 L 457 211.333 L 548 287 Z " fill="rgb(0,0,0)" fill-opacity="0.05"/><path d=" M 628 267 L 457 211.333 L 548 287 L 628 267 Z " fill="rgb(255,255,255)" fill-opacity="0.1"/></g></svg>
