<?xml version="1.0" encoding="UTF-8" standalone="no"?><!-- Generator: Gravit.io --><svg xmlns="http://www.w3.org/2000/svg" xmlns:xlink="http://www.w3.org/1999/xlink" style="isolation:isolate" viewBox="0 0 1000 1000" width="1000pt" height="1000pt"><defs><clipPath id="_clipPath_rUELXK7Kub8uyEd8ShvjGHgkE0SBB51Z"><rect width="1000" height="1000"/></clipPath></defs><g clip-path="url(#_clipPath_rUELXK7Kub8uyEd8ShvjGHgkE0SBB51Z)"><path d=" M 359.091 225.758 L 352.209 396.937 L 340.909 551.515 L 401.515 404.545 L 413.636 310.606 L 433.333 328.788 L 457.576 298.485 L 500 345.455 L 479.466 386.364 L 519.697 360.606 L 530.303 310.606 L 581.818 289.394 L 581.818 310.606 L 592.424 404.545 L 656.061 551.515 L 647.681 396.937 L 639.394 225.758 L 592.424 174.242 L 500 162.121 L 413.636 181.818 L 359.091 225.758 Z " fill="rgb(51, 51, 51)"/><path d=" M 401.515 404.545 L 359.091 225.758 L 413.636 310.606 L 401.515 404.545 Z " fill="rgb(0,0,0)" fill-opacity="0.1"/><path d=" M 340.909 551.515 L 352.209 404.545 L 359.091 225.758 L 401.515 404.545 L 340.909 551.515 Z " fill="rgb(255,255,255)" fill-opacity="0.05"/><path d=" M 433.333 328.788 L 413.636 310.606 L 413.636 181.818 L 433.333 328.788 Z " fill="rgb(0,0,0)" fill-opacity="0.1"/><path d=" M 359.091 225.758 L 413.636 181.818 L 413.636 310.606 L 359.091 225.758 Z " fill="rgb(255,255,255)" fill-opacity="0.15"/><path d=" M 479.466 386.364 L 500 345.455 L 519.697 360.606 L 479.466 386.364 Z " fill="rgb(0,0,0)" fill-opacity="0.05"/><path d=" M 530.303 310.606 L 500 345.455 L 519.697 360.606 L 530.303 310.606 Z " fill="rgb(0,0,0)" fill-opacity="0.1"/><path d=" M 413.636 181.818 L 457.576 298.485 L 500 345.455 L 530.303 310.606 L 413.636 181.818 Z " fill="rgb(255,255,255)" fill-opacity="0.05"/><path d=" M 433.333 328.788 L 413.636 181.818 L 457.576 298.485 L 433.333 328.788 Z " fill="rgb(255,255,255)" fill-opacity="0.1"/><path d=" M 530.303 310.606 L 500 162.121 L 413.636 181.818 L 530.303 310.606 Z " fill="rgb(0,0,0)" fill-opacity="0.1"/><path d=" M 581.818 289.394 L 530.303 310.606 L 546.879 168.242 L 592.424 174.242 L 581.818 289.394 Z " fill="rgb(255,255,255)" fill-opacity="0.05"/><path d=" M 656.061 551.515 L 592.424 404.545 L 639.394 225.758 L 656.061 551.515 Z " fill="rgb(255,255,255)" fill-opacity="0.1"/><path d=" M 581.818 289.394 L 581.818 310.606 L 592.424 404.545 L 639.394 225.758 L 581.818 289.394 Z " fill="rgb(0,0,0)" fill-opacity="0.1"/><path d=" M 592.424 174.242 L 581.818 289.394 L 639.394 225.758 L 592.424 174.242 Z " fill="rgb(255,255,255)" fill-opacity="0.1"/></g></svg>
