<?xml version="1.0" encoding="UTF-8" standalone="no"?><!-- Generator: Gravit.io --><svg xmlns="http://www.w3.org/2000/svg" xmlns:xlink="http://www.w3.org/1999/xlink" style="isolation:isolate" viewBox="0 0 1000 1000" width="1000pt" height="1000pt"><defs><clipPath id="_clipPath_58fA5PXPWLYJPJ9QRt34bgzFvSNWiNSI"><rect width="1000" height="1000"/></clipPath></defs><g clip-path="url(#_clipPath_58fA5PXPWLYJPJ9QRt34bgzFvSNWiNSI)"><g><path d=" M 486 202 L 524 202 L 559 163 L 654 257 L 666 385 L 691 153 L 486 102 L 486 202 Z " fill="rgb(49,49,49)"/><path d=" M 533.833 203 L 475.833 203 L 483.333 181 L 543.833 186.5 L 533.833 203 Z " fill="rgb(142,43,43)"/><path d=" M 391 399 L 408 293 L 502 301 L 588 293 L 607 399 L 628 301 L 550 192 L 455 192 L 373 301 L 391 399 Z " fill="rgb(49,49,49)"/><path d=" M 455 192 L 408 293 L 502 301 L 455 192 Z " fill="rgb(0,0,0)" fill-opacity="0.1"/><path d=" M 550 192 L 588 293 L 503 301 L 550 192 Z " fill="rgb(0,0,0)" fill-opacity="0.1"/><path d=" M 502 301 L 455 192 L 550 192 L 502 301 Z " fill="rgb(255,255,255)" fill-opacity="0.05"/><path d=" M 408 293 L 391 399 L 373 301 L 408 293 Z " fill="rgb(0,0,0)" fill-opacity="0.1"/><path d=" M 588 293 L 607 399 L 628 301 L 588 293 Z " fill="rgb(0,0,0)" fill-opacity="0.1"/><path d=" M 537.333 186.5 L 486 102 L 559 163 L 537.333 186.5 Z " fill="rgb(0,0,0)" fill-opacity="0.1"/><path d=" M 654 257 L 666 385 L 691 156.667 L 654 257 Z " fill="rgb(0,0,0)" fill-opacity="0.1"/><path d=" M 559 163 L 691 153 L 654 257 L 559 163 Z " fill="rgb(255,255,255)" fill-opacity="0.05"/></g></g></svg>