<?xml version="1.0" encoding="UTF-8" standalone="no"?><!-- Generator: Gravit.io --><svg xmlns="http://www.w3.org/2000/svg" xmlns:xlink="http://www.w3.org/1999/xlink" style="isolation:isolate" viewBox="0 0 1000 1000" width="1000pt" height="1000pt"><defs><clipPath id="_clipPath_QTKoTiFozkyQZe9qStcEiN6crnouE7gF"><rect width="1000" height="1000"/></clipPath></defs><g clip-path="url(#_clipPath_QTKoTiFozkyQZe9qStcEiN6crnouE7gF)"><g><path d=" M 539.909 185 L 465.667 185 L 342.939 325.909 L 359.606 518.333 L 465.667 612 L 414.152 459.242 L 399 325.909 L 500.515 280.455 L 588.394 325.909 L 579.303 459.242 L 539.909 612 L 632.333 518.333 L 650.515 325.909 C 625.982 294.655 553.026 201.711 539.909 185 Z " fill="rgb(70,70,70)"/><path d=" M 539.909 185 L 588.394 325.909 L 650.515 325.909 L 539.909 185 Z " fill="rgb(255,255,255)" fill-opacity="0.1"/><path d=" M 609 493 L 539.909 612 L 632.333 518.333 L 650.515 325.909 L 609 493 Z " fill="rgb(0,0,0)" fill-opacity="0.1"/><path d=" M 588.394 325.909 L 539.909 185 L 465.667 185 L 500.515 280.455 L 588.394 325.909 Z " fill="rgb(0,0,0)" fill-opacity="0.1"/><path d=" M 342.939 325.909 L 465.667 185 L 500.515 280.455 L 342.939 325.909 Z " fill="rgb(0,0,0)" fill-opacity="0.05"/><path d=" M 500.515 280.455 L 399 325.909 L 414.152 459.242 L 465.667 545.606 L 383.035 493 L 342.939 325.909 L 500.515 280.455 Z " fill="rgb(255,255,255)" fill-opacity="0.05"/></g></g></svg>