<?xml version="1.0" encoding="UTF-8" standalone="no"?><!-- Generator: Gravit.io --><svg xmlns="http://www.w3.org/2000/svg" xmlns:xlink="http://www.w3.org/1999/xlink" style="isolation:isolate" viewBox="0 0 1000 1000" width="1000pt" height="1000pt"><defs><clipPath id="_clipPath_vGXJzs3oPgAAOfrbCpp0O7hEtBzy30Dj"><rect width="1000" height="1000"/></clipPath></defs><g clip-path="url(#_clipPath_vGXJzs3oPgAAOfrbCpp0O7hEtBzy30Dj)"><g><path d=" M 539.909 185 L 465.667 185 L 342.939 325.909 L 367 512 L 307 625 L 429 574 L 414.152 459.242 L 399 325.909 L 500.515 280.455 L 588.394 325.909 L 579.303 459.242 L 554 574 L 681 615 L 632.333 518.333 L 650.515 325.909 C 625.982 294.655 553.026 201.711 539.909 185 Z " fill="rgb(51, 51, 51)"/><path d=" M 539.909 185 L 588.394 325.909 L 650.515 325.909 L 539.909 185 L 539.909 185 Z " fill="rgb(255,255,255)" fill-opacity="0.1"/><path d=" M 609 493 L 554 574 L 632.333 518.333 L 650.515 325.909 L 609 493 Z " fill="rgb(0,0,0)" fill-opacity="0.1"/><path d=" M 588.394 325.909 L 539.909 185 L 465.667 185 L 500.515 280.455 L 588.394 325.909 L 588.394 325.909 Z " fill="rgb(0,0,0)" fill-opacity="0.1"/><path d=" M 342.939 325.909 L 465.667 185 L 500.515 280.455 L 342.939 325.909 L 342.939 325.909 Z " fill="rgb(0,0,0)" fill-opacity="0.05"/><path d=" M 500.515 280.455 L 399 325.909 L 414.152 460.061 L 429 574 L 307 625 L 383.035 493 L 342.939 325.909 L 500.515 280.455 Z " fill="rgb(255,255,255)" fill-opacity="0.05"/></g></g></svg>
