<?xml version="1.0" encoding="UTF-8" standalone="no"?><!-- Generator: Gravit.io --><svg xmlns="http://www.w3.org/2000/svg" xmlns:xlink="http://www.w3.org/1999/xlink" style="isolation:isolate" viewBox="0 0 1000 1000" width="1000pt" height="1000pt"><defs><clipPath id="_clipPath_3dLsyVFAanzGnLErcXpSeq1y63uXXDsr"><rect width="1000" height="1000"/></clipPath></defs><g clip-path="url(#_clipPath_3dLsyVFAanzGnLErcXpSeq1y63uXXDsr)"><g><rect x="0" y="0" width="1000" height="1000" transform="matrix(1,0,0,1,0,0)" fill="rgb(200,227,247)"/><g><path d=" M 0 644 L 198 306 L 390.909 566 L 477.273 484 L 587.879 550 L 858.439 493.939 L 1000 566 L 1000 1000 L 0 1000 L 0 644 L 0 644 L 0 644 Z " fill="rgb(156,157,204)"/><path d=" M 174.648 933.803 L 198 306 L 0 644 L 174.648 933.803 L 174.648 933.803 Z " fill="rgb(0,0,0)" fill-opacity="0.1"/><path d=" M 390.909 566 L 198 306 L 174.648 933.803 L 390.909 566 L 390.909 566 Z " fill="rgb(255,255,255)" fill-opacity="0.1"/><path d=" M 477.273 484 L 518.31 611.268 L 587.879 550 L 477.273 484 L 477.273 484 Z " fill="rgb(255,255,255)" fill-opacity="0.1"/><path d=" M 390.909 566 L 432.394 805.634 L 518.31 611.268 L 477.273 484 L 390.909 566 L 390.909 566 Z " fill="rgb(0,0,0)" fill-opacity="0.1"/><path d=" M 587.879 550 L 654.93 839.437 L 858.439 493.939 L 587.879 550 L 587.879 550 Z " fill="rgb(255,255,255)" fill-opacity="0.1"/><path d=" M 1000 566 L 858.439 493.939 L 905.634 790.141 L 1000 566 L 1000 566 Z " fill="rgb(255,255,255)" fill-opacity="0.05"/></g><g><path d=" M 580 800 L 580 200 L 516 200 L 758.515 18 L 1032 200 L 970 200 L 970 839.394 L 580 800 L 580 800 L 580 800 Z " fill="rgb(176,150,150)"/><path d=" M 602 345 L 901.515 345 L 901.515 978.333 L 602 978.333 L 602 345 L 602 345 L 602 345 Z " fill="rgb(159,129,129)"/><path d=" M 628 1000 L 496 1000 L 496 350 L 436 306 L 436 222 L 462.182 222 L 462.182 242 L 487 242 L 487 222 L 517 222 L 517 242 L 544 242 L 544 222 L 574 222 L 574 242 L 602 242 L 602 222 L 628 222 L 628 242 L 657 242 L 657 222 L 688 222 L 688 306 L 628 350 L 628 1000 L 628 1000 L 628 1000 Z " fill="rgb(159,129,129)"/><path d=" M 1004.152 1000 L 872.152 1000 L 872.152 350 L 812.152 306 L 812.152 222 L 838.333 222 L 838.333 242 L 863.152 242 L 863.152 222 L 893.152 222 L 893.152 242 L 920.152 242 L 920.152 222 L 950.152 222 L 950.152 242 L 978.152 242 L 978.152 222 L 1004.152 222 L 1004.152 242 L 1033.152 242 L 1033.152 222 L 1064.152 222 L 1064.152 306 L 1004.152 350 L 1004.152 1000 L 1004.152 1000 L 1004.152 1000 Z " fill="rgb(159,129,129)"/></g><path d=" M 0 678 L 42 678 L 68 646 L 68 614 L 22 614 L 152 518 L 286 614 L 232 614 L 232 654 L 334 644 L 334 590 L 312 590 L 378 534 L 442 590 L 420 590 L 420 644 L 554 658 L 554 590 L 531 590 L 602 504 L 676 590 L 654 590 L 654 656 L 718 658 L 718 566 L 694 566 L 770 484 L 840 566 L 818 566 L 818 658 L 912 678 L 912 632 L 884 632 L 970 550 L 1040 632 L 1014 632 L 1012 692 L 1000 1000 L 0 1000 L 0 678 L 0 678 L 0 678 Z " fill="rgb(96,66,66)"/><g><path d=" M 1000 839.394 L 1000 739.394 L 556.081 756 L 296.97 703.03 L 0 739.394 L 0 839.394 L 0 1000 L 1000 1000 L 1000 839.394 L 1000 839.394 L 1000 839.394 Z " fill="rgb(128,101,77)"/><path d=" M 709.859 928.169 L 836.62 859.155 L 930.986 825.352 L 1038.028 859.155 L 1064.789 928.169 L 1038.028 977.465 L 978.873 1018.31 L 749.296 977.465 L 709.859 928.169 L 709.859 928.169 Z " fill="rgb(38,28,28)"/><path d=" M 757.746 773.239 L 846.479 773.239 L 898.592 787.324 L 898.592 811.268 L 846.479 825.352 L 757.746 825.352 L 698.592 811.268 L 757.746 773.239 L 757.746 773.239 Z " fill="rgb(38,28,28)"/></g></g><g><path d=" M 945.138 63.286 L 919.713 77.965 L 894.287 63.286 L 894.287 33.927 L 919.713 19.247 L 945.138 33.927 L 945.138 63.286 L 945.138 63.286 Z " fill="rgb(243,255,115)"/><path d=" M 979.501 80.554 L 918.97 115.501 L 858.439 80.554 L 858.439 10.658 L 918.97 -24.289 L 979.501 10.658 L 979.501 80.554 L 979.501 80.554 Z " fill="rgb(243,255,115)" fill-opacity="0.1"/><path d=" M 1030.426 111.935 L 919.463 176 L 808.499 111.935 L 808.499 -16.194 L 919.463 -80.259 L 1030.426 -16.194 L 1030.426 111.935 L 1030.426 111.935 Z " fill="rgb(243,255,115)" fill-opacity="0.1"/><path d=" M 1086.304 145.818 L 919.713 242 L 753.121 145.818 L 753.121 -46.545 L 919.713 -142.727 L 1086.304 -46.545 L 1086.304 145.818 L 1086.304 145.818 Z " fill="rgb(243,255,115)" fill-opacity="0.1"/><path d=" M 68 63.286 L 232 33.927 L 602 49.637 L 796 45.606 L 544 98.027 L 198 115.501 L 68 63.286 L 68 63.286 L 68 63.286 Z " fill="rgb(255,255,255)" fill-opacity="0.3"/><path d=" M 350 128 L 718 128 L 907 176 L 758.515 200 L 350 128 L 350 128 L 350 128 Z " fill="rgb(255,255,255)" fill-opacity="0.3"/><path d=" M 496 176 L 274 143.968 L 22 164 L 178 222 L 496 176 L 496 176 L 496 176 Z " fill="rgb(255,255,255)" fill-opacity="0.3"/></g><g><path d=" M -56 877 L 39.034 851 L 198 827 L 442 899 L 496 959 L 286 983.333 L 77.074 983.333 L -62 957.41 L -56 877 L -56 877 L -56 877 Z " fill="rgb(0,0,0)" fill-opacity="0.2"/><path d=" M 130.659 921.999 L 155.499 713.466 L 39.034 583.513 L 14.696 583.513 L 26.814 567.84 L -16.589 512.174 L 47.984 574.216 L 25.188 512.174 L 69.455 594.845 L 155.499 677.517 L 164.634 587.602 L 137.436 563.005 L 88.175 531.839 L 121.19 548.312 L 25.188 461.489 L 68.894 489.861 L 47.984 461.489 L 88.175 502.377 L 168.026 554.214 L 174.437 491.121 L 26.814 366.49 L 93.478 403.501 L 77.074 382.738 L 124.606 420.782 L 178.541 450.726 L 199.831 188.716 L 216.535 452.51 L 333.82 401.854 L 297.085 425.717 L 317.548 425.717 L 276.441 439.127 L 219.061 476.401 L 225.868 584.628 L 273.394 572.48 L 317.548 538.24 L 287.003 569.002 L 407.349 538.24 L 228.498 626.44 L 232.591 691.516 L 351.901 615.948 L 316.436 646.481 L 380.83 635.063 L 297.085 662.781 L 234.211 717.272 L 247.088 921.999 L 273.394 959 L 111.268 959 L 130.659 921.999 L 130.659 921.999 Z " fill="rgb(49,36,19)"/><path d=" M 77.074 391.977 L 57.377 366.49 L 26.814 310.881 L 57.377 310.881 L 93.478 366.49 L 77.074 391.977 L 77.074 391.977 L 77.074 391.977 Z " fill="rgb(51,48,13)"/><path d=" M 297.085 420.782 L 317.548 374.6 L 373.79 374.6 L 351.901 420.782 L 297.085 420.782 L 297.085 420.782 L 297.085 420.782 Z " fill="rgb(138,130,15)"/><path d=" M 309.411 425.717 L 333.82 439.127 L 366.941 420.782 L 351.901 403.501 L 309.411 425.717 L 309.411 425.717 L 309.411 425.717 Z " fill="rgb(104,98,19)"/><path d=" M 47.984 391.977 L -30.287 374.6 L -8.371 319.57 L 47.984 339.844 L 47.984 391.977 L 47.984 391.977 L 47.984 391.977 Z " fill="rgb(53,50,6)"/><path d=" M 297.085 548.312 L 309.411 512.174 L 351.901 502.377 L 342.285 531.839 L 297.085 548.312 L 297.085 548.312 L 297.085 548.312 Z " fill="rgb(104,98,19)"/><path d=" M 373.79 548.312 L 423.101 512.174 L 464.193 531.839 L 423.101 569.002 L 373.79 548.312 L 373.79 548.312 L 373.79 548.312 Z " fill="rgb(66,62,10)"/><path d=" M 333.82 635.063 L 342.285 587.602 L 373.79 594.845 L 380.83 607.751 L 333.82 635.063 L 333.82 635.063 L 333.82 635.063 Z " fill="rgb(104,98,19)"/><path d=" M 351.901 635.063 L 390.227 594.845 L 464.193 635.063 L 423.101 662.781 L 351.901 635.063 L 351.901 635.063 L 351.901 635.063 Z " fill="rgb(77,72,13)"/><path d=" M 39.034 538.24 L 3.957 502.377 L 14.696 461.489 L 47.984 512.174 L 39.034 538.24 L 39.034 538.24 L 39.034 538.24 Z " fill="rgb(138,132,46)"/><path d=" M 25.188 574.216 L -30.287 587.602 L -30.287 662.781 L 39.034 635.063 L 25.188 574.216 L 25.188 574.216 L 25.188 574.216 Z " fill="rgb(104,98,12)"/><path d=" M 3.957 538.24 L -52.203 512.174 L -52.203 452.51 L -8.371 476.401 L 3.957 538.24 L 3.957 538.24 L 3.957 538.24 Z " fill="rgb(132,124,21)"/><path d=" M 93.478 538.24 L 57.377 548.312 L 26.814 489.861 L 88.175 512.174 L 93.478 538.24 L 93.478 538.24 L 93.478 538.24 Z " fill="rgb(104,98,19)"/><path d=" M 39.034 476.401 L -8.371 461.489 L -16.589 403.501 L 26.814 425.717 L 39.034 476.401 L 39.034 476.401 L 39.034 476.401 Z " fill="rgb(136,129,26)"/><path d=" M 57.377 476.401 L 25.188 461.489 L 14.696 403.501 L 57.377 403.501 L 57.377 476.401 L 57.377 476.401 L 57.377 476.401 Z " fill="rgb(104,98,19)"/><path d=" M 199.831 439.127 L 3.957 302.192 L -111.102 205.167 L -128.909 -33.778 L 168.026 -96.048 L 431.319 -3.367 L 482 157.378 L 450.496 310.881 L 199.831 439.127 L 199.831 439.127 L 199.831 439.127 Z " fill="rgb(104,98,19)"/><path d=" M 380.83 291.301 L 234.211 188.716 L 174.437 49.128 L 167.642 -96.048 L 431.319 -3.367 L 482 157.378 L 450.496 310.881 L 380.83 291.301 L 380.83 291.301 L 380.83 291.301 Z " fill="rgb(255,255,255)" fill-opacity="0.1"/><path d=" M 93.478 -80.2 L 168.026 -96.048 L 174.437 49.128 L 234.211 188.716 L 380.83 291.301 L 450.496 310.881 L 351.901 359.769 L 168.026 241.852 L 93.478 49.128 L 93.478 -80.2 L 93.478 -80.2 L 93.478 -80.2 Z " fill="rgb(255,255,255)" fill-opacity="0.05"/><path d=" M 150 932 L 164.634 916 L 178.541 753 L 178.541 921.999 L 150 932 Z " fill="rgb(0,0,0)" fill-opacity="0.3"/><path d=" M 202 657 L 202 934 L 247 951 L 229 927 L 202 657 Z " fill="rgb(0,0,0)" fill-opacity="0.3"/><path d=" M 156 696 L 81 620 L 156 686 L 156 696 Z " fill="rgb(0,0,0)" fill-opacity="0.3"/><path d=" M 229 696 L 287 664 L 229 716 L 229 696 Z " fill="rgb(0,0,0)" fill-opacity="0.3"/><path d=" M 171 696 L 190 455 L 190 664 L 171 696 Z " fill="rgb(0,0,0)" fill-opacity="0.3"/><path d=" M 202 604 L 328 566 L 229 610 L 202 604 Z " fill="rgb(0,0,0)" fill-opacity="0.3"/><path d=" M 202 572 L 202 486 L 212 556 L 202 572 Z " fill="rgb(0,0,0)" fill-opacity="0.3"/><path d=" M 190 464 L 81 405 L 156 455 L 190 464 Z " fill="rgb(0,0,0)" fill-opacity="0.3"/><path d=" M 220 464 L 263 438 L 247 455 L 220 464 Z " fill="rgb(0,0,0)" fill-opacity="0.3"/><path d=" M 156 566 L 97 516 L 140 540 L 156 566 Z " fill="rgb(0,0,0)" fill-opacity="0.3"/></g></g></svg>