<?xml version="1.0" encoding="UTF-8" standalone="no"?><!-- Generator: Gravit.io --><svg xmlns="http://www.w3.org/2000/svg" xmlns:xlink="http://www.w3.org/1999/xlink" style="isolation:isolate" viewBox="0 0 1000 1000" width="1000pt" height="1000pt"><defs><clipPath id="_clipPath_2YL8WZ6gt73ayeEEnzsOzONiXaZSHnKw"><rect width="1000" height="1000"/></clipPath></defs><g clip-path="url(#_clipPath_2YL8WZ6gt73ayeEEnzsOzONiXaZSHnKw)"><path d=" M 0 0 L 0 1000 L 1000 1000 L 1000 0 L 0 0 Z " fill="rgb(56,57,108)"/><g><path d=" M 0 490 L 160 270 L 235.382 368.576 L 400 50 L 600 350 L 760 310 L 810 360 L 940 160 L 1000 280 L 1000 1000 L 0 1000 L 0 490 Z " fill="rgb(21,39,87)"/><path d=" M 80 940 L 0 490 L 160 270 L 80 940 Z " fill="rgb(0,0,0)" fill-opacity="0.1"/><path d=" M 236 371 L 160 270 L 80 940 L 236 371 Z " fill="rgb(255,255,255)" fill-opacity="0.05"/><path d=" M 400 50 L 236 370 L 420 650 L 400 50 Z " fill="rgb(0,0,0)" fill-opacity="0.05"/><path d=" M 600 350 L 400 50 L 420 650 L 600 350 Z " fill="rgb(255,255,255)" fill-opacity="0.1"/><path d=" M 600 350 L 440 620 L 760 310 L 600 350 Z " fill="rgb(255,255,255)" fill-opacity="0.05"/><path d=" M 810 360 L 790 580 L 860 570 L 810 360 Z " fill="rgb(0,0,0)" fill-opacity="0.1"/><path d=" M 940 160 L 1000 280 L 1000 470 L 940 160 Z " fill="rgb(0,0,0)" fill-opacity="0.1"/><path d=" M 790 560 L 810 360 L 760 310 L 632.5 437.5 L 690 610 L 790 560 Z " fill="rgb(0,0,0)" fill-opacity="0.05"/><path d=" M 810 360 L 940 160 L 1000 450 L 860 570 L 810 360 Z " fill="rgb(255,255,255)" fill-opacity="0.1"/></g><g><polygon points="743.111,254.9,598.889,254.9,526.778,130,598.889,5.1,743.111,5.1,815.222,130" fill="rgb(244,255,160)"/><polygon points="757.586,275,584.38,275,497.778,125,584.38,-25,757.586,-25,844.188,125" fill="rgb(244,255,160)" fill-opacity="0.07"/><polygon points="775.171,307,567.325,307,463.402,127,567.325,-53,775.171,-53,879.094,127" fill="rgb(244,255,160)" fill-opacity="0.07"/></g><path d=" M 0 660 L 80 610 L 180 600 L 260 630 L 390 620 L 480 600 L 630 630 L 760 590 L 820 620 L 940 600 L 1000 630 L 1000 1000 L 0 1000 L 0 660 Z " fill="rgb(10,23,57)"/><path d=" M 0 1000 L 0 810 L 170 730 L 300 750 L 300 610 L 260 610 L 435 420 L 610 610 L 570 610 L 570 750 L 660 720 L 800 740 L 910 730 L 1000 750 L 1000 1000 L 0 1000 Z " fill="rgb(5,15,38)"/><path d=" M 410 510 L 450 510 L 480 570 L 380 570 L 410 510 Z " fill="rgb(193,175,82)"/><path d=" M 425 500 L 425 580 L 435 580 L 435 500 L 425 500 Z " fill="rgb(5,15,38)"/><path d=" M 385 545 L 475 545 L 475 535 L 385 535 L 385 545 Z " fill="rgb(5,15,38)"/><path d=" M 861.141 973.37 L 884.402 915.217 L 902.202 644.655 L 849.511 577.935 L 744.837 624.457 L 777.3 595.6 L 733.207 589.565 L 797.174 577.935 L 849.511 531.413 L 906.704 576.225 L 911.352 505.58 L 748.149 412.13 L 640.163 391.848 L 699.971 384.543 L 651.793 356.957 L 822.366 423.702 L 744.837 368.587 L 866.617 441.018 L 919.293 461.63 L 922.63 399.906 L 890.348 369.938 L 837.88 322.065 L 593.641 298.804 L 849.511 287.174 L 892.011 334.7 L 925.487 347.052 L 928.344 294.197 L 907.663 263.913 L 873.676 265.22 L 768.098 252.283 L 841.058 247.93 L 790.069 220.903 L 686.685 217.391 L 628.533 263.913 L 675.054 205.761 L 582.011 194.13 L 742.874 195.887 L 651.793 147.609 L 790.578 197.703 L 628.533 -15.217 L 713.142 81.593 L 709.946 54.565 L 744.121 117.039 L 825.699 210.379 L 907.663 217.391 L 930.824 248.324 L 937.407 126.521 L 768.098 -26.848 L 875.747 53.068 L 837.88 -85 L 898.657 70.077 L 938.846 99.912 L 942.554 31.304 L 960 -85 L 977.446 31.304 L 980.316 77.228 L 1023.967 19.674 L 1047.228 31.304 L 1105.38 19.674 L 1221.685 -73.37 L 1152.559 -5.462 L 1221.685 -26.848 L 1115.195 31.244 L 1047.228 66.196 L 1023.967 54.565 L 985.41 158.741 L 989.47 223.689 L 1058.859 194.13 L 1140.272 205.761 L 1186.793 135.978 L 1172.275 183.359 L 1256.576 124.348 L 1140.272 229.022 L 1047.228 229.022 L 994.002 296.206 L 1000.707 403.478 L 1035.598 333.696 L 1070.489 368.587 L 1303.098 252.283 L 1151.477 348.838 L 1221.685 345.326 L 1108.157 376.425 L 1062.386 405.573 L 1035.598 391.848 L 999.26 445.773 L 1007.685 601.196 L 1047.228 473.261 L 1082.12 554.674 L 1156.382 535.174 L 1197.257 524.441 L 1337.989 484.891 L 1267.623 520.781 L 1314.728 519.783 L 1237.459 536.166 L 1082.12 589.565 L 1047.228 554.674 L 1010.12 652.119 L 1023.967 915.217 L 1047.228 973.37 L 965.815 985 L 861.141 973.37 Z " fill="rgb(0,0,0)"/><path d=" M -40.891 986.954 L -14.799 921.724 L 5.168 618.231 L -53.937 543.39 L -171.351 595.574 L -134.936 563.206 L -184.397 556.436 L -112.644 543.39 L -53.937 491.207 L 10.218 541.473 L 15.431 462.229 L -167.636 357.405 L -288.765 334.655 L -221.677 326.461 L -275.719 295.517 L -84.385 370.386 L -171.351 308.563 L -34.748 389.809 L 24.339 412.931 L 28.082 343.693 L -8.129 310.078 L -66.983 256.379 L -340.949 230.287 L -53.937 217.241 L -6.263 270.551 L 31.286 284.406 L 34.491 225.119 L 11.293 191.149 L -26.831 192.615 L -145.259 178.103 L -63.419 173.221 L -120.614 142.904 L -236.581 138.965 L -301.811 191.149 L -249.627 125.919 L -353.995 112.873 L -173.553 114.843 L -275.719 60.689 L -120.042 116.88 L -301.811 -121.955 L -206.903 -13.362 L -210.489 -43.679 L -172.153 26.399 L -80.647 131.1 L 11.293 138.965 L 37.272 173.663 L 44.658 37.035 L -145.259 -135.001 L -24.508 -45.358 L -66.983 -200.231 L 1.191 -26.28 L 46.271 7.187 L 50.431 -69.771 L 70 -200.231 L 89.569 -69.771 L 92.789 -18.258 L 141.753 -82.817 L 167.845 -69.771 L 233.075 -82.817 L 363.535 -187.185 L 285.995 -111.012 L 363.535 -135.001 L 244.084 -69.839 L 167.845 -30.633 L 141.753 -43.679 L 98.503 73.177 L 103.056 146.029 L 180.891 112.873 L 272.213 125.919 L 324.397 47.643 L 308.111 100.79 L 402.673 34.597 L 272.213 152.011 L 167.845 152.011 L 108.14 227.372 L 115.661 347.701 L 154.799 269.425 L 193.937 308.563 L 454.857 178.103 L 284.782 286.41 L 363.535 282.471 L 236.189 317.354 L 184.847 350.05 L 154.799 334.655 L 114.038 395.143 L 123.489 569.482 L 167.845 425.977 L 206.983 517.298 L 290.284 495.425 L 336.134 483.386 L 493.995 439.023 L 415.064 479.281 L 467.903 478.161 L 381.229 496.538 L 206.983 556.436 L 167.845 517.298 L 126.22 626.604 L 141.753 921.724 L 167.845 986.954 L 76.523 1000 L -40.891 986.954 Z " fill="rgb(0,0,0)"/><path d=" M 0 1000 L 0 920 L 80 910 L 170 890 L 240 920 L 330 900 L 400 910 L 470 910 L 560 910 L 600 920 L 670 890 L 770 900 L 830 920 L 860 900 L 940 930 L 1000 900 L 1000 1000 L 0 1000 Z " fill="rgb(2,8,21)"/></g></svg>