<?xml version="1.0" encoding="UTF-8" standalone="no"?><!-- Generator: Gravit.io --><svg xmlns="http://www.w3.org/2000/svg" xmlns:xlink="http://www.w3.org/1999/xlink" style="isolation:isolate" viewBox="0 0 1000 1000" width="1000pt" height="1000pt"><defs><clipPath id="_clipPath_EBYd9CfqcUFkDyVsBPx8dr05CSd89BOT"><rect width="1000" height="1000"/></clipPath></defs><g clip-path="url(#_clipPath_EBYd9CfqcUFkDyVsBPx8dr05CSd89BOT)"><rect x="0" y="0" width="1000" height="1000" transform="matrix(1,0,0,1,0,0)" fill="rgb(203,237,242)"/><g><path d=" M -104 566 L -14 432 L 124 272 L 200.251 383.917 L 236 408 L 272 432 L 414 168 L 570 383.917 L 612.7 301.317 L 698 232 L 782 432 L 984 346 L 1066 408 L 1076 628 L 1000 1000 L 0 1000 L -30 646 L -104 566 Z " fill="rgb(107,187,200)"/><path d=" M 124 276 L 0 416 L 0 1009.091 L 86 1015.152 L 124 276 Z " fill="rgb(255,255,255)" fill-opacity="0.1"/><path d=" M 124.242 275.977 L 246.97 886.584 L 274.242 432 L 200.251 383.917 L 124.242 275.977 Z " fill="rgb(0,0,0)" fill-opacity="0.1"/><path d=" M 413.636 168 L 392.424 388.099 L 246.97 886.584 L 274.242 432 L 413.636 168 Z " fill="rgb(255,255,255)" fill-opacity="0.1"/><path d=" M 571.212 383.917 L 414 168 L 456.061 377.455 L 593.939 875.939 L 571.212 383.917 Z " fill="rgb(0,0,0)" fill-opacity="0.1"/><path d=" M 698 232 L 613.636 300 L 666.667 516.667 L 715.152 272.727 L 698 232 Z " fill="rgb(255,255,255)" fill-opacity="0.1"/><path d=" M 613.636 300 L 571.212 388.099 L 596.97 869.697 L 666.667 516.667 L 613.636 300 Z " fill="rgb(0,0,0)" fill-opacity="0.05"/><path d=" M 715.152 272.727 L 596.97 871.212 L 782 432 L 715.152 272.727 Z " fill="rgb(0,0,0)" fill-opacity="0.15"/><path d=" M 780.303 431.818 L 824.242 600 L 984.848 346 L 780.303 431.818 Z " fill="rgb(255,255,255)" fill-opacity="0.1"/><path d=" M 1000 600 L 984.848 346 L 1103.03 416 L 1000 600 Z " fill="rgb(255,255,255)" fill-opacity="0.05"/><path d=" M 984 346 L 824.242 601.515 L 959.091 918.182 L 1090.909 612.121 L 984 346 Z " fill="rgb(0,0,0)" fill-opacity="0.1"/><path d=" M 782 432 L 824.242 601.515 L 959.091 918.182 L 592 870 L 782 432 Z " fill="rgb(0,0,0)" fill-opacity="0.05"/></g><g><path d=" M -20 588 L 86 484 L 172 498 L 204 524 L 360 484 L 462 484 L 500 524 L 642 498 L 762 524 L 800 540 L 904 484 L 1002 540 L 1074 624 L 1074 720 L 1070 1016 L -78 1014 L -70 722 L -20 588 Z " fill="rgb(58,115,75)"/><path d=" M -22.727 593.939 L 126 650 L 172 498 L 86 484 L -22.727 593.939 Z " fill="rgb(0,0,0)" fill-opacity="0.05"/><path d=" M 360 484 L 204 524 L 328.788 740.909 L 360 484 Z " fill="rgb(255,255,255)" fill-opacity="0.05"/><path d=" M 462 484 L 600 740.909 L 328.788 735 L 360 484 L 462 484 Z " fill="rgb(0,0,0)" fill-opacity="0.05"/><path d=" M 500 524 L 462 484 L 600 740.909 L 753.03 725.758 L 500 524 Z " fill="rgb(0,0,0)" fill-opacity="0.1"/><path d=" M 172.727 498.485 L 125.758 654.545 L 328.788 737.879 L 207.576 524.242 L 172.727 498.485 Z " fill="rgb(0,0,0)" fill-opacity="0.15"/><path d=" M 642 498.485 L 684 561 L 642 638 L 501 524.242 L 642 498.485 Z " fill="rgb(255,255,255)" fill-opacity="0.05"/><path d=" M 800 542 L 775 573 L 684 561 L 642 498.485 L 764 524.242 L 800 542 Z " fill="rgb(0,0,0)" fill-opacity="0.05"/><path d=" M 684 561 L 642 638 L 753.03 725.758 L 925 774 L 800 542 L 775 573 L 684 561 Z " fill="rgb(0,0,0)" fill-opacity="0.1"/><path d=" M 904 484 L 1060 573 L 1000 765 L 925 774 L 904 484 Z " fill="rgb(0,0,0)" fill-opacity="0.1"/><path d=" M 800 542 L 904 484 L 925 774 L 800 542 Z " fill="rgb(255,255,255)" fill-opacity="0.05"/></g><g><path d=" M -62 676 L 82 552 L 172 602 L 269.714 592.919 L 376.096 640.61 L 478 602 L 664 700 L 762 640.61 L 868 660 L 958 552 L 1118 684 L 1084 942 L 1106 1060 L -54 1068 L -50 940 L -62 676 Z " fill="rgb(70,125,87)"/><path d=" M 82 552 L -19.697 640.61 L -78 904 L 84.414 878 L 118.182 739.394 L 82 552 Z " fill="rgb(255,255,255)" fill-opacity="0.05"/><path d=" M 172 602 L 82 552 L 118.182 739.394 L 269.714 592.919 L 172 602 Z " fill="rgb(0,0,0)" fill-opacity="0.05"/><path d=" M 376.096 640.61 L 436.364 768.182 L 70 968 L 118.182 739.394 L 269.714 592.919 L 376.096 640.61 Z " fill="rgb(0,0,0)" fill-opacity="0.1"/><path d=" M 478 602 L 376.096 640.61 L 436.364 768.182 L 580 982 L 478 602 Z " fill="rgb(255,255,255)" fill-opacity="0.1"/><path d=" M 664 700 L 678.788 839.394 L 580 968 L 478 602 L 664 700 Z " fill="rgb(0,0,0)" fill-opacity="0.1"/><path d=" M 762 640.61 L 664 700 L 678.788 839.394 L 720 968 L 898.485 825.758 L 762 640.61 Z " fill="rgb(255,255,255)" fill-opacity="0.1"/><path d=" M 868 660 L 762 640.61 L 898.485 825.758 L 958 552 L 868 660 Z " fill="rgb(0,0,0)" fill-opacity="0.1"/><path d=" M 958 554.545 L 898.485 825.758 L 1031.818 895.455 L 1036.364 610.606 L 958 554.545 Z " fill="rgb(0,0,0)" fill-opacity="0.2"/></g><g><path d=" M -50 868 L 146 796 L 294 824 L 478 734 L 698 844 L 930 796 L 1078 876 L 1074 1038 L -60 1052 L -50 868 Z " fill="rgb(42,98,45)"/><path d=" M -58 872 L 146 824 L 298 846 L 416 846 L 360 914 L 322 942 L 168 954 L 0 942 L -58 872 Z " fill="rgb(0,0,0)" fill-opacity="0.2"/><path d=" M 854 836 L 674 884 L 570 924 L 770 954 L 934 942 L 1138 954 Q 1064 936 1066 924 Q 1068 912 854 836 Z " fill="rgb(0,0,0)" fill-opacity="0.2"/></g><g><path d=" M 103.03 69.697 L 186.364 43.939 L 566.667 69.697 L 753.03 43.939 L 862.121 80.303 L 739.394 112.121 L 478.788 112.121 L 322.727 80.303 L 103.03 69.697 Z " fill="rgb(255,255,255)" fill-opacity="0.5"/><path d=" M 495.455 160.606 L 824.242 112.121 L 1106.061 131.818 L 1168.182 224.242 L 1051.515 186.364 L 883.333 196.97 L 495.455 160.606 Z " fill="rgb(255,255,255)" fill-opacity="0.4"/><path d=" M -42.424 204.545 L 231.818 168.182 L 409.091 160.606 L 713.636 204.545 L 351.515 256.061 L -42.424 204.545 Z " fill="rgb(255,255,255)" fill-opacity="0.2"/><path d=" M 344 330 L 602 266 L 1144 330 L 1192 366 L 724 384 L 344 330 Z " fill="rgb(255,255,255)" fill-opacity="0.2"/></g><g><path d=" M 65.152 28.788 L 19.697 45.857 L 19.697 98.615 L 65.152 118.788 L 110.606 98.615 L 110.606 45.857 L 65.152 28.788 Z " fill="rgb(255,251,133)"/><path d=" M 65.152 -21.97 L -12.121 13.95 L -12.121 124.974 L 65.152 167.424 L 142.424 124.974 L 142.424 13.95 L 65.152 -21.97 Z " fill="rgb(255,251,133)" fill-opacity="0.1"/><path d=" M 73.485 -104.924 L -68.182 -37.539 L -68.182 170.742 L 73.485 250.379 L 215.152 170.742 L 215.152 -37.539 L 73.485 -104.924 Z " fill="rgb(255,251,133)" fill-opacity="0.1"/><path d=" M 66.667 -165.53 L -131.818 -70.056 L -131.818 225.046 L 66.667 337.879 L 265.152 225.046 L 265.152 -70.056 L 66.667 -165.53 Z " fill="rgb(255,251,133)" fill-opacity="0.1"/></g><g><path d=" M 528.917 131.939 L 568.667 117.939 L 581.167 117.939 L 616.695 131.939 L 581.167 125.939 L 584.167 143.439 L 572.167 125.939 L 528.917 131.939 Z " fill="rgb(51,51,51)"/><path d=" M 582.167 100.111 L 606.773 78.939 L 616.695 78.939 L 645.667 104.939 L 616.695 84.882 L 619.076 97.882 L 609.551 84.882 L 582.167 100.111 Z " fill="rgb(51,51,51)"/><path d=" M 480.417 60.468 L 499.598 69.468 L 507.332 69.468 L 518.917 60.468 L 507.332 72.439 L 509.189 78.939 L 501.764 72.439 L 480.417 60.468 Z " fill="rgb(51,51,51)"/><path d=" M 518.917 60.575 L 538.195 69.939 L 545.968 69.939 L 568.667 58.439 L 545.968 75.439 L 544.278 78.939 L 539.864 75.439 L 518.917 60.575 Z " fill="rgb(51,51,51)"/><path d=" M 528.917 44.868 L 539.864 48.939 L 544.278 48.939 L 557.167 43.939 L 544.278 47.797 L 545.337 45.297 L 541.099 47.797 L 528.917 44.868 Z " fill="rgb(51,51,51)"/></g><g><g><path d=" M 184.848 896.97 L 124 875.758 L 154.545 824 L 154.545 640.61 L 82 533.333 L 43.939 568.182 L 58.889 544.376 L 71.212 524.242 L 16.667 515.152 L 82 507.576 L 175.758 614 L 163.111 550.778 L 143.677 517.187 L 82 487.818 L 117.253 491.705 L 87 457 L 155.609 513.278 L 129.732 383.917 L 71.212 432 L 95.886 390.864 L 31.818 367.359 L 129.732 367.359 L 175.758 472.727 L 184.848 196.97 L 209.834 196.97 L 236 507.576 L 358 472.727 L 401.515 472.727 L 281.818 507.576 L 241.444 550.778 L 247.706 672.699 L 313 614 L 291.984 639.151 L 350 626 L 282.791 650.154 L 241.444 699.638 L 227.273 760.606 L 236 824 L 254.545 875.758 L 184.848 896.97 Z " fill="rgb(79,58,58)"/><path d=" M 143.677 863 L 169 841 L 184.848 650.154 L 184.848 860.667 L 192 879.333 L 143.677 863 Z " fill="rgb(0,0,0)" fill-opacity="0.1"/><path d=" M 237.152 863 L 222.697 841 L 199 804 L 205.424 862.73 L 199 875.758 L 237.152 863 Z " fill="rgb(0,0,0)" fill-opacity="0.1"/><path d=" M 76.212 546.333 L 87 581.182 L 63.889 601 L 21.667 601 L 21.667 557.376 L 76.212 546.333 Z " fill="rgb(11,77,15)"/><path d=" M 53.818 487.818 L 64.606 522.667 L 41.495 542.485 L -0.727 542.485 L -0.727 498.861 L 53.818 487.818 Z " fill="rgb(33,119,37)"/><path d=" M 87.697 395.394 L 119 401.437 L 75.374 450.061 L 33.152 450.061 L 33.152 406.437 L 87.697 395.394 Z " fill="rgb(22,98,25)"/><path d=" M 55.03 340.026 L 65.818 374.874 L 42.707 394.692 L 6.662 388.281 L -58 376.779 L 0.485 351.069 L 55.03 340.026 Z " fill="rgb(40,79,42)"/><path d=" M 298.543 59.982 L 433.475 302 L 209.834 395.394 L 43.939 282 L 76.212 126 L 298.543 59.982 Z " fill="rgb(26,115,30)"/><path d=" M 312 309 L 368.667 233 L 330.667 116 L 433.475 302 L 209.834 395.394 L 312 309 Z " fill="rgb(0,0,0)" fill-opacity="0.1"/><path d=" M 109 295 L 199 246 L 281.818 136 L 298.543 59.982 L 76.212 126 L 43.939 282 L 109 295 Z " fill="rgb(225,255,0)" fill-opacity="0.1"/><path d=" M 474.688 376.779 L 510.768 493.081 L 433.475 559.221 L 298.543 546.333 L 272 472.727 L 292.262 413.634 L 474.688 376.779 Z " fill="rgb(22,104,27)"/><path d=" M 308 620 L 302.667 587.333 L 330.667 571.333 L 355.333 592.667 L 308 620 Z " fill="rgb(17,91,21)"/><path d=" M 334 631.333 L 368.667 613.333 L 405.333 626.667 L 375.333 643.333 L 334 631.333 Z " fill="rgb(18,64,20)"/><path d=" M 101.333 473.333 L 101.333 438.667 L 58.667 423.333 L 80 469.333 L 101.333 473.333 Z " fill="rgb(13,59,15)"/><path d=" M 101.333 492.667 L 50 454 L 30 478.667 L 42.667 509.333 L 101.333 492.667 Z " fill="rgb(9,79,12)"/><path d=" M 297 170 L 297 59 L 282.791 136 L 200 246 L 109 295 L 43.939 282 L 117.253 332 L 222 268 L 297 170 Z " fill="rgb(208,255,0)" fill-opacity="0.05"/><path d=" M 297 59.982 L 367 233 L 312 309 L 211 394 L 117.253 332 L 223 268 L 298.543 170 L 297 59.982 Z " fill="rgb(0,0,0)" fill-opacity="0.02"/></g><g><path d=" M 162 475 L 140.5 408 L 169 475 L 177 559 L 180.667 612.667 L 162 475 Z " fill="rgb(0,0,0)" fill-opacity="0.1"/><path d=" M 231 677 L 217 714 L 217 766 L 231 698 L 231 677 Z " fill="rgb(0,0,0)" fill-opacity="0.1"/><path d=" M 93 532 L 137 602 L 169 633 L 93 532 Z " fill="rgb(0,0,0)" fill-opacity="0.1"/><path d=" M 274 502 L 240 517 L 231 550 L 274 502 Z " fill="rgb(0,0,0)" fill-opacity="0.1"/><path d=" M 217 408 L 206 475 L 217 602 L 224 475 L 217 408 Z " fill="rgb(0,0,0)" fill-opacity="0.1"/><path d=" M 206 789.333 L 195.455 640.909 L 195.455 550 L 206 622.727 L 206 789.333 Z " fill="rgb(0,0,0)" fill-opacity="0.1"/><path d=" M 195.455 408 L 186 456 L 191.5 511 L 195.455 408 Z " fill="rgb(0,0,0)" fill-opacity="0.1"/><path d=" M 82 373.5 L 124 373.5 L 110.5 388 L 114.5 376.5 L 82 373.5 Z " fill="rgb(0,0,0)" fill-opacity="0.1"/></g></g><g><g><path d=" M 836 454 L 804.432 318 L 818.697 413.634 L 818.697 425 L 766 349.903 L 818.697 466 L 836 578 L 758 413.634 L 783.097 522 L 758 516 L 790.944 539.753 L 818.697 646 L 658 430.242 L 685.82 481.098 L 650 466 L 712.289 529.483 L 818.697 724 L 796 882 L 852 913.758 L 898 882 L 887.415 718.167 L 905 674 L 926.796 602.632 L 984 554 L 932.251 584.771 L 946 539.753 L 887.415 646 L 935 481.098 L 887.415 554 L 876.281 475.243 L 990 330 L 940.216 375.135 L 946 318 L 921.379 392.212 L 871 437.886 L 887.415 222 L 857.291 349.903 L 852 170 L 836 454 Z " fill="rgb(79,58,58)"/><path d=" M 651.241 453.148 L 620.938 403.693 L 637.605 359.754 L 687.062 403.693 L 687.062 480.246 L 651.241 453.148 Z " fill="rgb(42,98,45)"/><path d=" M 703.03 505.291 L 685.82 481.098 L 658 466 L 636.364 466 L 559.091 475.243 L 601.515 522 L 685.82 529.483 L 703.03 505.291 Z " fill="rgb(16,87,20)"/><path d=" M 790.944 539.753 L 748.485 539.753 L 725.758 493.939 L 766 481.098 L 790.944 539.753 Z " fill="rgb(17,96,21)"/><path d=" M 766 454 L 725.758 430.242 L 712.289 349.903 L 758 403.693 L 783.097 437.886 L 766 454 Z " fill="rgb(28,74,30)"/><path d=" M 796 413.634 L 725.758 349.903 L 748.485 286.364 L 783.097 330 L 796 413.634 Z " fill="rgb(42,98,45)"/><path d=" M 836 403.693 L 818.697 413.634 L 748.485 330 L 796 237.879 L 818.697 286.364 L 836 403.693 Z " fill="rgb(42,98,45)"/><path d=" M 913.636 403.693 L 935 286.364 L 974.242 286.364 L 954.545 339.394 L 913.636 403.693 Z " fill="rgb(42,98,45)"/><path d=" M 905 505.291 L 905 466 L 954.545 437.886 L 962.121 505.291 L 951.909 515.55 L 913.636 554 L 905 505.291 Z " fill="rgb(29,91,32)"/><path d=" M 926.796 578 L 921.379 516 L 984 505.291 L 984 529.483 L 926.796 578 Z " fill="rgb(35,111,39)"/><path d=" M 940.216 602.632 L 962.121 554 L 990 554 L 990 602.632 L 940.216 602.632 Z " fill="rgb(24,123,29)"/><path d=" M 932.251 403.693 L 984 298.485 L 1040.909 286.364 L 1040.909 339.394 L 932.251 403.693 Z " fill="rgb(42,98,45)"/><path d=" M 1066.667 403.693 L 836 505.291 L 658 309.091 L 620.938 186.364 L 766 78.788 L 871 62.121 L 1107.576 125.758 L 1066.667 403.693 Z " fill="rgb(27,115,31)"/><path d=" M 766 78.788 L 825.758 219.697 L 658 309.091 L 620.938 186.364 L 766 78.788 Z " fill="rgb(242,255,0)" fill-opacity="0.1"/><path d=" M 871 62.121 L 926.796 246.97 L 725.758 383.333 L 658 309.091 L 825.758 219.697 L 766 78.788 L 871 62.121 Z " fill="rgb(179,255,0)" fill-opacity="0.07"/><path d=" M 961.121 86.909 L 990 275.758 L 796 460 L 725.758 383.333 L 921.379 246.97 L 871 62.121 L 961.121 86.909 Z " fill="rgb(255,255,255)" fill-opacity="0.02"/><path d=" M 836 505.291 L 796 460 L 990 275.758 L 962.121 86.909 L 1023 104 L 1093 392.212 L 836 505.291 Z " fill="rgb(0,0,0)" fill-opacity="0.02"/></g><g><path d=" M 866 505 L 859 667 L 879 589 L 866 505 Z " fill="rgb(0,0,0)" fill-opacity="0.1"/><path d=" M 826 776.667 L 815 865 L 838 886 L 826 776.667 Z " fill="rgb(0,0,0)" fill-opacity="0.1"/><path d=" M 866 886 L 889 871 L 873 673 L 866 886 Z " fill="rgb(0,0,0)" fill-opacity="0.1"/><path d=" M 770.5 622 L 718 527 L 826 685 L 770.5 622 Z " fill="rgb(0,0,0)" fill-opacity="0.1"/><path d=" M 784 476 L 793 527 L 806 549 L 784 476 Z " fill="rgb(0,0,0)" fill-opacity="0.1"/><path d=" M 815 561 L 832.667 610 L 838 685 L 815 561 Z " fill="rgb(0,0,0)" fill-opacity="0.1"/><path d=" M 850 505 L 845.333 534 L 850 561 L 850 505 Z " fill="rgb(0,0,0)" fill-opacity="0.1"/><path d=" M 900 549 L 889 574 L 889 610 L 900 549 Z " fill="rgb(0,0,0)" fill-opacity="0.1"/><path d=" M 920 600.667 L 896 685 L 920 618.667 L 920 600.667 Z " fill="rgb(0,0,0)" fill-opacity="0.1"/><path d=" M 850 667 L 832.667 765.333 L 845.333 810 L 850 738 L 850 667 Z " fill="rgb(0,0,0)" fill-opacity="0.15"/></g></g></g></svg>