<?xml version="1.0" encoding="UTF-8" standalone="no"?><!-- Generator: Gravit.io --><svg xmlns="http://www.w3.org/2000/svg" xmlns:xlink="http://www.w3.org/1999/xlink" style="isolation:isolate" viewBox="0 0 1000 1000" width="1000pt" height="1000pt"><defs><clipPath id="_clipPath_O0S5hZqrXoP3kAbob6k0bgDUa1iom2sz"><rect width="1000" height="1000"/></clipPath></defs><g clip-path="url(#_clipPath_O0S5hZqrXoP3kAbob6k0bgDUa1iom2sz)"><rect x="0" y="0" width="1000" height="1000" transform="matrix(1,0,0,1,0,0)" fill="rgb(208,228,242)"/><path d=" M 0 358 L 62 304 L 250 508 L 312 346 L 418 486 L 604 358 L 736 508 L 814 346 L 898 456 L 1024 442 L 1000 1000 L 0 1000 L 0 358 L 0 358 Z " fill="rgb(182,206,223)"/><g><path d=" M 0 528 L 206 236 L 352 486 L 418 398 L 492 358 L 604 58 L 800 486 L 898 358 L 1000 486 L 1000 1000 L 0 1000 L 0 528 L 0 528 Z " fill="rgb(111,144,168)"/><path d=" M 193.939 903.03 L 0 528 L 206 236 L 193.939 903.03 L 193.939 903.03 Z " fill="rgb(255,255,255)" fill-opacity="0.05"/><path d=" M 352 486 L 206 236 L 193.939 903.03 L 352 486 L 352 486 Z " fill="rgb(0,0,0)" fill-opacity="0.1"/><path d=" M 418 398 L 352 486 L 193.939 903.03 L 459.091 512.121 L 418 398 L 418 398 Z " fill="rgb(0,0,0)" fill-opacity="0.05"/><path d=" M 492 358 L 418 398 L 459.091 512.121 L 559.091 878.788 L 604 58 L 492 358 L 492 358 Z " fill="rgb(255,255,255)" fill-opacity="0.1"/><path d=" M 604 58 L 672.727 812.121 L 800 486 L 604 58 L 604 58 Z " fill="rgb(0,0,0)" fill-opacity="0.1"/><path d=" M 898 358 L 800 486 L 860.606 828.788 L 898 358 L 898 358 Z " fill="rgb(0,0,0)" fill-opacity="0.05"/><path d=" M 1000 486 L 898 358 L 1000 828.788 L 1000 486 L 1000 486 Z " fill="rgb(0,0,0)" fill-opacity="0.15"/></g><rect x="0" y="744" width="1000" height="256" transform="matrix(1,0,0,1,0,0)" fill="rgb(133,106,82)"/><path d=" M 37.879 109.091 L 312 66.667 L 509.091 96.97 L 386.364 109.091 L 37.879 109.091 L 37.879 109.091 Z " fill="rgb(255,255,255)" fill-opacity="0.3"/><path d=" M 262.121 177.273 L 595.455 119.697 L 950 165.152 L 704.545 193.939 L 386.364 177.273 L 262.121 177.273 L 262.121 177.273 Z " fill="rgb(255,255,255)" fill-opacity="0.3"/><path d=" M 574.242 53.03 L 760.606 30.303 L 880.303 96.97 L 704.545 96.97 L 595.455 77.273 L 574.242 53.03 L 574.242 53.03 Z " fill="rgb(255,255,255)" fill-opacity="0.3"/><path d=" M 921.212 40.909 L 983.333 18.182 L 1000 53.03 L 921.212 40.909 L 921.212 40.909 Z " fill="rgb(255,255,255)" fill-opacity="0.3"/><path d=" M 80 762 L 93.939 743.939 L 93.939 96.97 L 150 48.485 L 834.848 48.485 L 907.576 96.97 L 907.576 743.939 L 920 762 L 1000 798.485 L 1000 0 L 182 0 L 0 0 L 0 798.485 L 80 762 L 80 762 Z " fill="rgb(147,117,91)"/><path d=" M 62 774 L 75 684 L 75 89.97 L 150 30.303 L 834.848 30.303 L 925.212 86.97 L 925.212 684 L 934 774 L 1000 798.485 L 1000 0 L 182 0 L 0 0 L 0 798.485 L 62 774 L 62 774 Z " fill="rgb(74,48,25)" fill-opacity="0.3"/><g><g><path d=" M 124.667 548 L 124.667 598.667 L 134.667 612.333 L 124.667 626 L 124.667 647.333 L 114.667 659.667 L 124.667 672 L 124.667 689.333 L 134.667 702 L 124.667 714.667 L 124.667 762 L 143.667 773.333 L 162.667 763 L 162.667 715.667 L 154.667 703.5 L 162.667 689.333 L 162.667 672 L 172 659.667 L 162.667 647.333 L 162.667 626 L 154.667 611.667 L 162.667 597.333 L 162.667 548 L 124.667 548 L 124.667 548 Z " fill="rgb(147,117,91)"/><path d=" M 143.667 548 L 143.667 773.333 L 162.667 763 L 162.667 715.667 L 154.667 703.5 L 162.667 689.333 L 162.667 672 L 172 659.667 L 162.667 647.333 L 162.667 626 L 154.667 611.667 L 162.667 597.333 L 162.667 548 L 143.667 548 L 143.667 548 Z " fill="rgb(0,0,0)" fill-opacity="0.1"/></g><g><path d=" M 212.97 548 L 212.97 598.667 L 222.97 612.333 L 212.97 626 L 212.97 647.333 L 202.97 659.667 L 212.97 672 L 212.97 689.333 L 222.97 702 L 212.97 714.667 L 212.97 762 L 231.97 773.333 L 250.97 763 L 250.97 715.667 L 242.97 703.5 L 250.97 689.333 L 250.97 672 L 260.303 659.667 L 250.97 647.333 L 250.97 626 L 242.97 611.667 L 250.97 597.333 L 250.97 548 L 212.97 548 L 212.97 548 Z " fill="rgb(147,117,91)"/><path d=" M 231.97 548 L 231.97 773.333 L 250.97 763 L 250.97 715.667 L 242.97 703.5 L 250.97 689.333 L 250.97 672 L 260.303 659.667 L 250.97 647.333 L 250.97 626 L 242.97 611.667 L 250.97 597.333 L 250.97 548 L 231.97 548 L 231.97 548 Z " fill="rgb(0,0,0)" fill-opacity="0.1"/></g><g><path d=" M 382.121 548 L 382.121 598.667 L 392.121 612.333 L 382.121 626 L 382.121 647.333 L 372.121 659.667 L 382.121 672 L 382.121 689.333 L 392.121 702 L 382.121 714.667 L 382.121 762 L 401.121 773.333 L 420.121 763 L 420.121 715.667 L 412.121 703.5 L 420.121 689.333 L 420.121 672 L 429.455 659.667 L 420.121 647.333 L 420.121 626 L 412.121 611.667 L 420.121 597.333 L 420.121 548 L 382.121 548 L 382.121 548 Z " fill="rgb(147,117,91)"/><path d=" M 401.121 548 L 401.121 773.333 L 420.121 763 L 420.121 715.667 L 412.121 703.5 L 420.121 689.333 L 420.121 672 L 429.455 659.667 L 420.121 647.333 L 420.121 626 L 412.121 611.667 L 420.121 597.333 L 420.121 548 L 401.121 548 L 401.121 548 Z " fill="rgb(0,0,0)" fill-opacity="0.1"/></g><g><path d=" M 560.667 548 L 560.667 598.667 L 570.667 612.333 L 560.667 626 L 560.667 647.333 L 550.667 659.667 L 560.667 672 L 560.667 689.333 L 570.667 702 L 560.667 714.667 L 560.667 762 L 579.667 773.333 L 598.667 763 L 598.667 715.667 L 590.667 703.5 L 598.667 689.333 L 598.667 672 L 608 659.667 L 598.667 647.333 L 598.667 626 L 590.667 611.667 L 598.667 597.333 L 598.667 548 L 560.667 548 L 560.667 548 Z " fill="rgb(147,117,91)"/><path d=" M 579.667 548 L 579.667 773.333 L 598.667 763 L 598.667 715.667 L 590.667 703.5 L 598.667 689.333 L 598.667 672 L 608 659.667 L 598.667 647.333 L 598.667 626 L 590.667 611.667 L 598.667 597.333 L 598.667 548 L 579.667 548 L 579.667 548 Z " fill="rgb(0,0,0)" fill-opacity="0.1"/></g><g><path d=" M 742.939 548 L 742.939 598.667 L 752.939 612.333 L 742.939 626 L 742.939 647.333 L 732.939 659.667 L 742.939 672 L 742.939 689.333 L 752.939 702 L 742.939 714.667 L 742.939 762 L 761.939 773.333 L 780.939 763 L 780.939 715.667 L 772.939 703.5 L 780.939 689.333 L 780.939 672 L 790.273 659.667 L 780.939 647.333 L 780.939 626 L 772.939 611.667 L 780.939 597.333 L 780.939 548 L 742.939 548 L 742.939 548 Z " fill="rgb(147,117,91)"/><path d=" M 761.939 548 L 761.939 773.333 L 780.939 763 L 780.939 715.667 L 772.939 703.5 L 780.939 689.333 L 780.939 672 L 790.273 659.667 L 780.939 647.333 L 780.939 626 L 772.939 611.667 L 780.939 597.333 L 780.939 548 L 761.939 548 L 761.939 548 Z " fill="rgb(0,0,0)" fill-opacity="0.1"/></g><g><path d=" M 835 548 L 835 598.667 L 845 612.333 L 835 626 L 835 647.333 L 825 659.667 L 835 672 L 835 689.333 L 845 702 L 835 714.667 L 835 762 L 854 773.333 L 873 763 L 873 715.667 L 865 703.5 L 873 689.333 L 873 672 L 882.333 659.667 L 873 647.333 L 873 626 L 865 611.667 L 873 597.333 L 873 548 L 835 548 L 835 548 Z " fill="rgb(147,117,91)"/><path d=" M 854 548 L 854 773.333 L 873 763 L 873 715.667 L 865 703.5 L 873 689.333 L 873 672 L 882.333 659.667 L 873 647.333 L 873 626 L 865 611.667 L 873 597.333 L 873 548 L 854 548 L 854 548 Z " fill="rgb(0,0,0)" fill-opacity="0.1"/></g><g><path d=" M 464.667 548 L 464.667 598.667 L 474.667 612.333 L 464.667 626 L 464.667 647.333 L 454.667 659.667 L 464.667 672 L 464.667 689.333 L 474.667 702 L 464.667 714.667 L 464.667 762 L 483.667 773.333 L 502.667 763 L 502.667 715.667 L 494.667 703.5 L 502.667 689.333 L 502.667 672 L 512 659.667 L 502.667 647.333 L 502.667 626 L 494.667 611.667 L 502.667 597.333 L 502.667 548 L 464.667 548 L 464.667 548 Z " fill="rgb(147,117,91)"/><path d=" M 483.667 548 L 483.667 773.333 L 502.667 763 L 502.667 715.667 L 494.667 703.5 L 502.667 689.333 L 502.667 672 L 512 659.667 L 502.667 647.333 L 502.667 626 L 494.667 611.667 L 502.667 597.333 L 502.667 548 L 483.667 548 L 483.667 548 Z " fill="rgb(0,0,0)" fill-opacity="0.1"/></g><g><path d=" M 297.545 548 L 297.545 598.667 L 307.545 612.333 L 297.545 626 L 297.545 647.333 L 287.545 659.667 L 297.545 672 L 297.545 689.333 L 307.545 702 L 297.545 714.667 L 297.545 762 L 316.545 773.333 L 335.545 763 L 335.545 715.667 L 327.545 703.5 L 335.545 689.333 L 335.545 672 L 344.879 659.667 L 335.545 647.333 L 335.545 626 L 327.545 611.667 L 335.545 597.333 L 335.545 548 L 297.545 548 L 297.545 548 Z " fill="rgb(147,117,91)"/><path d=" M 316.545 548 L 316.545 773.333 L 335.545 763 L 335.545 715.667 L 327.545 703.5 L 335.545 689.333 L 335.545 672 L 344.879 659.667 L 335.545 647.333 L 335.545 626 L 327.545 611.667 L 335.545 597.333 L 335.545 548 L 316.545 548 L 316.545 548 Z " fill="rgb(0,0,0)" fill-opacity="0.1"/></g><g><path d=" M 652.485 548 L 652.485 598.667 L 662.485 612.333 L 652.485 626 L 652.485 647.333 L 642.485 659.667 L 652.485 672 L 652.485 689.333 L 662.485 702 L 652.485 714.667 L 652.485 762 L 671.485 773.333 L 690.485 763 L 690.485 715.667 L 682.485 703.5 L 690.485 689.333 L 690.485 672 L 699.818 659.667 L 690.485 647.333 L 690.485 626 L 682.485 611.667 L 690.485 597.333 L 690.485 548 L 652.485 548 L 652.485 548 Z " fill="rgb(147,117,91)"/><path d=" M 671.485 548 L 671.485 773.333 L 690.485 763 L 690.485 715.667 L 682.485 703.5 L 690.485 689.333 L 690.485 672 L 699.818 659.667 L 690.485 647.333 L 690.485 626 L 682.485 611.667 L 690.485 597.333 L 690.485 548 L 671.485 548 L 671.485 548 Z " fill="rgb(0,0,0)" fill-opacity="0.1"/></g><g><path d=" M 93.939 528 L 907.576 528 L 907.576 572 L 93.939 572 L 93.939 528 L 93.939 528 Z " fill="rgb(147,117,91)"/><path d=" M 93.939 528 L 907.576 528 L 907.576 535 L 93.939 535 L 93.939 528 L 93.939 528 Z " fill="rgb(255,255,255)" fill-opacity="0.1"/></g></g><g><path d=" M 142.667 533.333 L 151.333 474 L 182.667 456.667 L 202 450.667 L 195.333 438 L 195.333 404 L 212 414.667 L 234 414.667 L 250 404 L 250 438 L 242.667 450.667 L 234 469.333 L 250 533.333 L 234 533.333 L 212 526.667 L 174.667 533.333 L 157.333 533.333 L 157.333 575.333 L 136.667 614 L 114.667 620.667 L 106 606 L 118.667 601.333 L 124 606 L 142.667 572 L 142.667 533.333 L 142.667 533.333 Z " fill="rgb(87,76,76)"/><path d=" M 197.667 471.333 L 159.667 469.333 L 182 456.667 L 195.333 452.5 L 197.667 471.333 L 197.667 471.333 Z " fill="rgb(204,204,204)"/></g><g><g><path d=" M 588 842.221 L 588 624.939 L 603.909 624.939 L 619.818 624.939 L 619.818 842.221 L 604.667 845.909 L 588 842.221 L 588 842.221 Z " fill="rgb(81,54,31)"/><path d=" M 603.909 624.939 L 619.818 624.939 L 619.818 842.221 L 604.667 845.909 L 603.909 624.939 L 603.909 624.939 Z " fill="rgb(0,0,0)" fill-opacity="0.1"/><path d=" M 652.182 857 L 652.182 645 L 668.091 645 L 684 645 L 684 857 L 668.848 862.636 L 652.182 857 L 652.182 857 Z " fill="rgb(81,54,31)"/><path d=" M 668.091 645 L 684 645 L 684 857 L 668.848 862.636 L 668.091 645 L 668.091 645 Z " fill="rgb(0,0,0)" fill-opacity="0.1"/><path d=" M 891.727 842.221 L 891.727 631 L 907.636 631 L 923.545 631 L 923.545 842.221 L 908.394 845.909 L 891.727 842.221 L 891.727 842.221 Z " fill="rgb(81,54,31)"/><path d=" M 907.636 631 L 923.545 631 L 923.545 842.221 L 908.394 845.909 L 907.636 631 L 907.636 631 Z " fill="rgb(0,0,0)" fill-opacity="0.1"/><path d=" M 951.788 859.765 L 951.788 645 L 967.697 645 L 983.606 645 L 984 859.765 L 968.455 862.636 L 951.788 859.765 L 951.788 859.765 Z " fill="rgb(81,54,31)"/><path d=" M 967.697 645 L 983.606 645 L 984 859.765 L 968.455 862.636 L 967.697 645 L 967.697 645 Z " fill="rgb(0,0,0)" fill-opacity="0.1"/><path d=" M 588 616.333 L 588 624.939 L 652.182 653.727 L 983.545 653.727 L 984 645 L 919.909 616.333 L 588 616.333 L 588 616.333 Z " fill="rgb(81,54,31)"/><path d=" M 588 620.333 L 588 611 L 919.909 611 L 984 640.333 L 984 649.667 L 659 649.667 L 588 620.333 L 588 620.333 Z " fill="rgb(142,119,99)"/></g><g><path d=" M 763.5 554 L 758.5 560.5 L 758.5 612.5 L 758.5 619.5 L 764.273 625.5 L 793.5 643.5 L 876.5 643.5 L 876.5 637.5 L 846.5 619.5 L 843 612.5 L 843 560.5 L 836.5 554 L 763.5 554 L 763.5 554 Z " fill="rgb(51,51,51)"/><path d=" M 763.5 565.5 L 763.5 606 L 768.467 612.5 L 836.023 612.5 L 839.5 606 L 839.5 565.5 L 833.042 560.5 L 768.467 560.5 L 763.5 565.5 L 763.5 565.5 Z " fill="rgb(157,157,157)"/><path d=" M 766.625 568.125 L 766.625 571 L 806.125 571 L 806.125 568.125 L 766.625 568.125 L 766.625 568.125 Z " fill="rgb(225,126,26)"/><path d=" M 766.625 573.5 L 766.625 576.375 L 829.125 576.375 L 829.125 573.5 L 766.625 573.5 L 766.625 573.5 Z " fill="rgb(23,183,65)"/><path d=" M 766.625 580 L 766.625 582.875 L 804 582.875 L 804 580 L 766.625 580 L 766.625 580 Z " fill="rgb(0,119,170)"/><path d=" M 766.625 586.625 L 766.625 589.5 L 816.375 589.5 L 816.375 586.625 L 766.625 586.625 L 766.625 586.625 Z " fill="rgb(183,21,21)"/><path d=" M 777 619.5 L 836.5 619.5 L 858 632.5 L 843 632.5 L 830.5 625.5 L 810 625.5 L 822 632.5 L 799 632.5" fill="rgb(142,130,130)"/></g><path d=" M 839.438 565.625 L 826.188 612.5 L 836.25 612.5 L 839.438 606.125 L 839.438 565.625 Z " fill="rgb(255,255,255)" fill-opacity="0.1"/><path d=" M 802 560.5 L 785.5 612.5 L 804.125 612.5 L 820.375 560.5 L 802 560.5 Z " fill="rgb(255,255,255)" fill-opacity="0.1"/><g><path d=" M 902.365 608.258 L 876.5 608.258 L 876.5 610.563 L 876.5 618.056 L 882.84 626.125 L 896.673 626.125 L 903.589 618.056 L 910.29 616.975 L 910.29 613.229 L 903.589 610.563 L 902.365 608.258 L 902.365 608.258 Z " fill="rgb(172,161,215)"/><path d=" M 888.027 610.635 L 888.027 612.652 L 890.261 612.652 L 890.261 619.857 L 888.027 619.857 L 884.713 618.056 L 884.569 620.433 L 888.027 622.739 L 892.782 622.739 L 892.782 610.635 L 888.027 610.635 L 888.027 610.635 Z " fill="rgb(79,57,151)"/><path d=" M 884.713 604.511 L 878.805 595.289 L 889.036 582.897 L 884.713 576.125 L 892.206 582.897 L 882.552 595.289 L 884.713 604.511 L 884.713 604.511 Z " fill="rgb(142,99,99)"/><path d=" M 889.036 604.511 L 892.206 599.324 L 887.739 596.442 L 899.699 586.644 L 892.206 595.289 L 895.376 599.324 L 889.036 604.511 L 889.036 604.511 Z " fill="rgb(142,99,99)"/></g><path d=" M 678.5 637.5 L 653 620.667 L 674 620.667 L 700 637.5 L 678.5 637.5 L 678.5 637.5 Z " fill="rgb(208,228,242)"/><path d=" M 642.5 633.5 L 617 616.667 L 638 616.667 L 664 633.5 L 642.5 633.5 L 642.5 633.5 Z " fill="rgb(208,228,242)"/><path d=" M 722.563 618.313 L 717.5 622.25 L 711.721 626.839 L 710.938 628.25 L 708.375 627.438 L 709 629 L 710.938 630.625 L 714 629 L 724.625 619.271 L 725.375 617.375 L 722.563 618.313 L 722.563 618.313 Z " fill="rgb(55,58,59)"/><path d=" M 627.333 620.667 L 668 631.333 L 677.333 620.667 L 643.333 614 L 627.333 620.667 L 627.333 620.667 Z " fill="rgb(208,228,242)"/></g><g><path d=" M 120.175 822.298 L 147.42 788.436 L 150 748.056 L 135.37 719.481 L 114.211 706.774 L 106.571 687.098 L 116.69 658.436 L 110.099 620.717 L 91.892 603.098 L 40.151 591.968 L -4.749 619.985 L -15.902 642.735 L -9.311 680.454 L 9.929 703.986 L 9.414 725.087 L -3.853 743.81 L -10.254 776.059 L 14.562 817.067 L 51.22 834.348 L 83.529 840.207 L 120.175 822.298 L 120.175 822.298 Z " fill="rgb(111,57,19)"/><path d=" M 118.639 818.624 L 145.355 786.01 L 147.994 747.204 L 133.784 719.791 L 113.149 707.644 L 105.741 688.761 L 115.711 661.192 L 109.382 624.97 L 91.645 608.094 L 41.127 597.552 L -2.822 624.602 L -13.785 646.493 L -7.455 682.715 L 11.274 705.269 L 10.709 725.544 L -2.308 743.573 L -8.655 774.577 L 15.469 813.906 L 51.235 830.403 L 82.783 835.938 L 118.639 818.624 L 118.639 818.624 Z " fill="rgb(172,95,40)"/><path d=" M 46.442 710.122 L 16.723 683.496 L 22.935 654.366 L 48.054 641.034 L 74.277 645.394 L 89.999 670.691 L 76.112 704.938 L 46.442 710.122 L 46.442 710.122 Z " fill="rgb(193,138,99)"/><path d=" M -0.036 436.059 L 35.911 659.202 L 49.827 651.695 L 64.232 654.253 L 24.098 431.842 L -0.036 436.059 L -0.036 436.059 Z " fill="rgb(72,54,41)"/><path d=" M -0.036 436.059 L -7.974 419.681 L -12.105 396.039 L 1.543 375.381 L 22.865 389.928 L 26.996 413.57 L 24.098 431.842 L -0.036 436.059 L -0.036 436.059 Z " fill="rgb(106,44,44)"/><path d=" M 50.124 698.509 L 29.882 680.373 L 34.113 660.531 L 51.222 651.451 L 69.083 654.42 L 79.792 671.651 L 70.333 694.977 L 50.124 698.509 L 50.124 698.509 Z " fill="rgb(108,72,46)"/><path d=" M 56.094 759.728 L 50.475 764.245 L 51.253 768.695 L 86.208 762.587 L 85.43 758.137 L 79.861 755.575 L 56.094 759.728 L 56.094 759.728 Z " fill="rgb(72,54,41)"/><path d=" M 1.114 423.845 L -0.293 424.091 L 56.328 764.425 L 59.093 763.942 L 1.114 423.845 L 1.114 423.845 Z " fill="rgb(108,89,75)"/><path d=" M 5.054 423.157 L 3.647 423.403 L 60.269 763.736 L 63.034 763.253 L 5.054 423.157 L 5.054 423.157 Z " fill="rgb(108,89,75)"/><path d=" M 8.994 422.468 L 7.587 422.714 L 64.209 763.048 L 66.974 762.564 L 8.994 422.468 L 8.994 422.468 Z " fill="rgb(108,89,75)"/><path d=" M 11.949 421.952 L 10.543 422.198 L 67.164 762.531 L 69.929 762.048 L 11.949 421.952 L 11.949 421.952 Z " fill="rgb(108,89,75)"/><path d=" M 15.89 421.263 L 14.483 421.509 L 71.105 761.843 L 73.87 761.359 L 15.89 421.263 L 15.89 421.263 Z " fill="rgb(108,89,75)"/><path d=" M 19.83 420.575 L 18.423 420.821 L 75.045 761.154 L 77.81 760.671 L 19.83 420.575 L 19.83 420.575 Z " fill="rgb(108,89,75)"/></g></g></svg>