<?xml version="1.0" encoding="UTF-8" standalone="no"?><!-- Generator: Gravit.io --><svg xmlns="http://www.w3.org/2000/svg" xmlns:xlink="http://www.w3.org/1999/xlink" style="isolation:isolate" viewBox="0 0 1000 1000" width="1000pt" height="1000pt"><defs><clipPath id="_clipPath_CKvHin3a4zXKsEuXZq90cM43XExeDAMn"><rect width="1000" height="1000"/></clipPath></defs><g clip-path="url(#_clipPath_CKvHin3a4zXKsEuXZq90cM43XExeDAMn)"><g><rect x="0" y="0" width="1000" height="1000" transform="matrix(1,0,0,1,0,0)" fill="rgb(7,44,145)"/><g><path d=" M 0 509.091 L 71.212 442.424 L 134.241 421.793 L 246.97 260.606 L 504.545 569.697 L 546.97 489.394 L 598.485 509.091 L 650 442.424 L 790.909 545.455 L 937.879 348.485 L 1000 465.152 L 1000 1000 L 0 1000 L 0 509.091 Z " fill="rgb(4,22,70)"/><path d=" M 0 509.091 L 71.212 442.424 L 134.241 422.727 L 281.818 1000 L 0 1000 L 0 509.091 Z " fill="rgb(0,0,0)" fill-opacity="0.1"/><path d=" M 246.97 260.606 L 390 856 L 515.152 1000 L 504.545 569.697 L 246.97 260.606 Z " fill="rgb(255,255,255)" fill-opacity="0.1"/><path d=" M 246.97 260.606 L 201.515 678.788 L 134.241 422.727 L 246.97 260.606 Z " fill="rgb(0,0,0)" fill-opacity="0.05"/><path d=" M 547 489 L 505 569.697 L 511 867 L 601 568 L 547 489 Z " fill="rgb(0,0,0)" fill-opacity="0.05"/><path d=" M 598.485 509.091 L 547 489.394 L 601 569.697 L 598.485 509.091 Z " fill="rgb(255,255,255)" fill-opacity="0.05"/><path d=" M 650 442.424 L 598.485 509.091 L 601 568 L 671 753 L 650 442.424 Z " fill="rgb(0,0,0)" fill-opacity="0.05"/><path d=" M 650 442.424 L 790.909 545.455 L 671 753 L 650 442.424 Z " fill="rgb(255,255,255)" fill-opacity="0.1"/><path d=" M 937.879 348.485 L 790.909 545.455 L 860.606 719.697 L 937.879 348.485 Z " fill="rgb(255,255,255)" fill-opacity="0.1"/><path d=" M 671 753 L 790.909 545.455 L 860.606 719.697 L 671 753 Z " fill="rgb(255,255,255)" fill-opacity="0.05"/><path d=" M 937.879 348.485 L 1000 465.152 L 1000 804.545 L 860.606 719.697 L 937.879 348.485 Z " fill="rgb(0,0,0)" fill-opacity="0.05"/></g><g><path d=" M 0 1000 L 0 645.455 L 209.091 581.818 L 395.455 659.091 L 640.909 593.939 L 743.939 645.455 L 1000 645.455 L 1000 1000 L 0 1000 Z " fill="rgb(8,32,96)"/><path d=" M 180.303 977.273 L 0 939.394 L 0 645.455 L 209.091 581.818 L 180.303 977.273 Z " fill="rgb(0,0,0)" fill-opacity="0.1"/><path d=" M 395.455 659.091 L 209.091 581.818 L 180.303 977.273 L 395.455 659.091 Z " fill="rgb(255,255,255)" fill-opacity="0.05"/><path d=" M 640.909 593.939 L 395.455 659.091 L 350 939.394 L 640.909 593.939 Z " fill="rgb(0,0,0)" fill-opacity="0.05"/><path d=" M 640.909 593.939 L 706 760 L 743.939 645.455 L 640.909 593.939 Z " fill="rgb(0,0,0)" fill-opacity="0.1"/><path d=" M 827 645.455 L 933 810 L 1000 645.455 L 827 645.455 Z " fill="rgb(0,0,0)" fill-opacity="0.1"/><path d=" M 743.939 645.455 L 688 821 L 827 645.455 L 743.939 645.455 Z " fill="rgb(255,255,255)" fill-opacity="0.05"/></g><path d=" M 0 1000 L 0 889.394 L 327.273 824.242 L 612.121 846.97 L 822.727 837.879 L 1000 878.788 L 1000 1000 L 0 1000 Z " fill="rgb(2,0,34)"/></g><g><path d=" M 77 31 L 71.212 44.5 L 58 48.5 L 71.212 56.5 L 77 68 L 83.5 56.5 L 97 48.5 L 83.5 44.5 L 77 31 Z " fill="rgb(255,255,255)"/><path d=" M 113.274 138.25 L 110.652 145 L 104.667 147 L 110.652 151 L 113.274 156.75 L 116.218 151 L 122.333 147 L 116.218 145 L 113.274 138.25 Z " fill="rgb(255,255,255)"/><path d=" M 314.034 103.5 L 312.501 107.392 L 309 108.545 L 312.501 110.851 L 314.034 114.167 L 315.756 110.851 L 319.333 108.545 L 315.756 107.392 L 314.034 103.5 Z " fill="rgb(255,255,255)"/><path d=" M 319.201 306.833 L 317.667 310.725 L 314.167 311.878 L 317.667 314.185 L 319.201 317.5 L 320.923 314.185 L 324.5 311.878 L 320.923 310.725 L 319.201 306.833 Z " fill="rgb(255,255,255)"/><path d=" M 140.534 23.667 L 139.001 27.559 L 135.5 28.712 L 139.001 31.018 L 140.534 34.333 L 142.256 31.018 L 145.833 28.712 L 142.256 27.559 L 140.534 23.667 Z " fill="rgb(255,255,255)"/><path d=" M 678.75 325.583 L 675.856 332.333 L 669.25 334.333 L 675.856 338.333 L 678.75 344.083 L 682 338.333 L 688.75 334.333 L 682 332.333 L 678.75 325.583 Z " fill="rgb(255,255,255)"/><path d=" M 30.774 388.25 L 28.152 395 L 22.167 397 L 28.152 401 L 30.774 406.75 L 33.718 401 L 39.833 397 L 33.718 395 L 30.774 388.25 Z " fill="rgb(255,255,255)"/><path d=" M 326.034 18.333 L 324.501 22.225 L 321 23.378 L 324.501 25.685 L 326.034 29 L 327.756 25.685 L 331.333 23.378 L 327.756 22.225 L 326.034 18.333 Z " fill="rgb(255,255,255)"/><path d=" M 232.534 62.667 L 231.001 66.559 L 227.5 67.712 L 231.001 70.018 L 232.534 73.333 L 234.256 70.018 L 237.833 67.712 L 234.256 66.559 L 232.534 62.667 Z " fill="rgb(255,255,255)"/><path d=" M 173.368 98.167 L 171.834 102.059 L 168.333 103.212 L 171.834 105.518 L 173.368 108.833 L 175.09 105.518 L 178.667 103.212 L 175.09 102.059 L 173.368 98.167 Z " fill="rgb(255,255,255)"/><path d=" M 19.982 196.333 L 16.794 203.083 L 9.515 205.083 L 16.794 209.083 L 19.982 214.833 L 23.563 209.083 L 31 205.083 L 23.563 203.083 L 19.982 196.333 Z " fill="rgb(255,255,255)"/><path d=" M 77.274 263.833 L 74.652 270.583 L 68.667 272.583 L 74.652 276.583 L 77.274 282.333 L 80.218 276.583 L 86.333 272.583 L 80.218 270.583 L 77.274 263.833 Z " fill="rgb(255,255,255)"/><path d=" M 205.034 18.333 L 203.501 22.225 L 200 23.378 L 203.501 25.685 L 205.034 29 L 206.756 25.685 L 210.333 23.378 L 206.756 22.225 L 205.034 18.333 Z " fill="rgb(255,255,255)"/><path d=" M 52.701 153.667 L 51.167 157.559 L 47.667 158.712 L 51.167 161.018 L 52.701 164.333 L 54.423 161.018 L 58 158.712 L 54.423 157.559 L 52.701 153.667 Z " fill="rgb(255,255,255)"/><path d=" M 167 203 L 161.212 216.5 L 148 220.5 L 161.212 228.5 L 167 240 L 173.5 228.5 L 187 220.5 L 173.5 216.5 L 167 203 Z " fill="rgb(255,255,255)"/><path d=" M 956.94 86.833 L 954.318 93.583 L 948.333 95.583 L 954.318 99.583 L 956.94 105.333 L 959.885 99.583 L 966 95.583 L 959.885 93.583 L 956.94 86.833 Z " fill="rgb(255,255,255)"/><path d=" M 262.034 159 L 260.501 162.892 L 257 164.045 L 260.501 166.351 L 262.034 169.667 L 263.756 166.351 L 267.333 164.045 L 263.756 162.892 L 262.034 159 Z " fill="rgb(255,255,255)"/><path d=" M 931.019 221.5 L 929.485 225.392 L 925.985 226.545 L 929.485 228.851 L 931.019 232.167 L 932.741 228.851 L 936.318 226.545 L 932.741 225.392 L 931.019 221.5 Z " fill="rgb(255,255,255)"/><path d=" M 449.013 175 L 446.267 181.75 L 440 183.75 L 446.267 187.75 L 449.013 193.5 L 452.096 187.75 L 458.5 183.75 L 452.096 181.75 L 449.013 175 Z " fill="rgb(255,255,255)"/><path d=" M 822.501 334.833 L 819.879 341.583 L 813.894 343.583 L 819.879 347.583 L 822.501 353.333 L 825.445 347.583 L 831.561 343.583 L 825.445 341.583 L 822.501 334.833 Z " fill="rgb(255,255,255)"/><path d=" M 372.034 68 L 370.501 71.892 L 367 73.045 L 370.501 75.351 L 372.034 78.667 L 373.756 75.351 L 377.333 73.045 L 373.756 71.892 L 372.034 68 Z " fill="rgb(255,255,255)"/><path d=" M 441.534 34.333 L 440.001 38.225 L 436.5 39.378 L 440.001 41.685 L 441.534 45 L 443.256 41.685 L 446.833 39.378 L 443.256 38.225 L 441.534 34.333 Z " fill="rgb(255,255,255)"/><path d=" M 598.5 263.833 L 595.606 270.583 L 589 272.583 L 595.606 276.583 L 598.5 282.333 L 601.75 276.583 L 608.5 272.583 L 601.75 270.583 L 598.5 263.833 Z " fill="rgb(255,255,255)"/><path d=" M 558.769 353.333 L 556.098 360.083 L 550 362.083 L 556.098 366.083 L 558.769 371.833 L 561.769 366.083 L 568 362.083 L 561.769 360.083 L 558.769 353.333 Z " fill="rgb(255,255,255)"/><path d=" M 467.333 442 L 464.439 447.959 L 457.833 449.725 L 464.439 453.257 L 467.333 458.333 L 470.583 453.257 L 477.333 449.725 L 470.583 447.959 L 467.333 442 Z " fill="rgb(255,255,255)"/><path d=" M 480.774 236.083 L 478.152 242.833 L 472.167 244.833 L 478.152 248.833 L 480.774 254.583 L 483.718 248.833 L 489.833 244.833 L 483.718 242.833 L 480.774 236.083 Z " fill="rgb(255,255,255)"/><path d=" M 787.034 234.667 L 785.501 238.559 L 782 239.712 L 785.501 242.018 L 787.034 245.333 L 788.756 242.018 L 792.333 239.712 L 788.756 238.559 L 787.034 234.667 Z " fill="rgb(255,255,255)"/><path d=" M 627.868 164.333 L 626.334 168.225 L 622.833 169.378 L 626.334 171.685 L 627.868 175 L 629.59 171.685 L 633.167 169.378 L 629.59 168.225 L 627.868 164.333 Z " fill="rgb(255,255,255)"/><path d=" M 256.865 29.708 L 255.307 33.083 L 251.75 34.083 L 255.307 36.083 L 256.865 38.958 L 258.615 36.083 L 262.25 34.083 L 258.615 33.083 L 256.865 29.708 Z " fill="rgb(255,255,255)"/><path d=" M 509.607 96.083 L 506.985 102.833 L 501 104.833 L 506.985 108.833 L 509.607 114.583 L 512.551 108.833 L 518.667 104.833 L 512.551 102.833 L 509.607 96.083 Z " fill="rgb(255,255,255)"/><path d=" M 372.034 159 L 370.501 162.892 L 367 164.045 L 370.501 166.351 L 372.034 169.667 L 373.756 166.351 L 377.333 164.045 L 373.756 162.892 L 372.034 159 Z " fill="rgb(255,255,255)"/><path d=" M 472.034 329.5 L 470.501 333.392 L 467 334.545 L 470.501 336.851 L 472.034 340.167 L 473.756 336.851 L 477.333 334.545 L 473.756 333.392 L 472.034 329.5 Z " fill="rgb(255,255,255)"/><path d=" M 627.5 25.667 L 621.712 39.167 L 608.5 43.167 L 621.712 51.167 L 627.5 62.667 L 634 51.167 L 647.5 43.167 L 634 39.167 L 627.5 25.667 Z " fill="rgb(255,255,255)"/><path d=" M 391.607 263.833 L 388.985 270.583 L 383 272.583 L 388.985 276.583 L 391.607 282.333 L 394.551 276.583 L 400.667 272.583 L 394.551 270.583 L 391.607 263.833 Z " fill="rgb(255,255,255)"/><path d=" M 883.034 18.333 L 881.501 22.225 L 878 23.378 L 881.501 25.685 L 883.034 29 L 884.756 25.685 L 888.333 23.378 L 884.756 22.225 L 883.034 18.333 Z " fill="rgb(255,255,255)"/><path d=" M 733.534 29 L 732.001 32.892 L 728.5 34.045 L 732.001 36.351 L 733.534 39.667 L 735.256 36.351 L 738.833 34.045 L 735.256 32.892 L 733.534 29 Z " fill="rgb(255,255,255)"/></g><g><path d=" M 853 44.5 L 821.955 56.5 L 790.909 75.351 L 776 113 L 790.909 153 L 822.727 175 L 853 184 L 822.727 153 L 808 113 L 822.727 78.667 L 853 44.5 Z " fill="rgb(255,255,255)"/><polygon points="890.59,195.138,787.705,222.706,712.388,147.389,739.956,44.504,842.841,16.936,918.158,92.253" fill="rgb(235,235,235)" fill-opacity="0.05"/><polygon points="949.025,251.093,776.499,297.321,650.201,171.024,696.43,-1.502,868.955,-47.73,995.253,78.567" fill="rgb(235,235,235)" fill-opacity="0.05"/><polygon points="1002.622,299.378,756.881,367.139,576.987,182.012,642.833,-70.878,888.573,-138.639,1068.467,46.488" fill="rgb(235,235,235)" fill-opacity="0.05"/></g><g><path d=" M 664.667 902.667 L 664.667 730 L 625 720 L 769.667 523 L 804.333 523 L 961 720 L 931.333 730 L 931.333 902.667 L 664.667 902.667 Z " fill="rgb(2,0,34)"/><path d=" M 625 720 L 621.5 730 L 631.5 730 L 625 720 Z " fill="rgb(11,2,34)" vector-effect="non-scaling-stroke" stroke-width="1" stroke="rgb(0,0,0)" stroke-linejoin="miter" stroke-linecap="square" stroke-miterlimit="3"/><path d=" M 612 739 L 621.5 730 L 631.5 730 L 639.5 739 L 639.5 772.5 L 631.5 779 L 621.5 779 L 612 772.5 L 612 739 Z " fill="rgb(219,203,79)" vector-effect="non-scaling-stroke" stroke-width="5" stroke="rgb(11,2,34)" stroke-linejoin="miter" stroke-linecap="square" stroke-miterlimit="3"/><polygon points="673.339,783.742,625,811.65,576.661,783.742,576.661,727.925,625,700.016,673.339,727.925" fill="rgb(219,203,79)" fill-opacity="0.05"/><polygon points="692.836,800.671,626.5,841.333,560.164,800.671,560.164,719.345,626.5,678.683,692.836,719.345" fill="rgb(219,203,79)" fill-opacity="0.05"/><polygon points="701.668,808.671,625.75,858,549.832,808.671,549.832,710.012,625.75,660.683,701.668,710.012" fill="rgb(219,203,79)" fill-opacity="0.05"/><path d=" M 804.333 600 L 769.667 600 L 734.667 660.683 L 839.667 660.683 L 804.333 600 Z " fill="rgb(219,203,79)"/><path d=" M 782.75 593.75 L 782.75 666.75 L 790 666.75 L 790 593.75 L 782.75 593.75 Z " fill="rgb(11,2,34)"/><path d=" M 746 633.875 L 825.5 633.875 L 825.5 626.625 L 746 626.625 L 746 633.875 Z " fill="rgb(11,2,34)"/><path d=" M 769.667 523 L 775 520.5 L 775 517.75 L 762.25 509 L 756.75 498 L 766 495.5 L 784.75 509 L 835 517.75 L 778.25 517.75 L 778.25 520.5 L 784.75 523 L 769.667 523 Z " fill="rgb(0,0,0)"/></g><g><path d=" M 90 920 L 127 879 L 133.797 685.958 L 23 609 L 46 619 L 42.5 595 L 55.752 626.015 L 134.468 666.911 L 136.366 612.995 L 65.435 540.564 L 27 515 L 54.296 529.19 L 12 486 L 97.289 553.368 L 90 502 L 112.979 565.761 L 137.352 585.012 L 141.574 465.091 L 54.296 388 L 141.574 447 L 144.904 389.309 L 133.797 355.333 L 145.828 373.285 L 150 301 L 160.595 436.014 L 162.346 486.058 L 234 404 L 196.084 470.478 L 252 447 L 186.744 486.854 L 163.783 527.113 L 166.156 594.925 L 275 515 L 254.376 537.426 L 292 529.19 L 239.531 553.569 L 167.451 631.949 L 170.462 718 L 210.949 691 L 234 649 L 220 685.958 L 315 612.995 L 275 649 L 306 638 L 252 675 L 171.788 747 L 177 879 L 220 920 L 90 920 Z " fill="rgb(2,0,34)"/><path d=" M 80.667 411.333 L 54.296 411.333 L 46 378 L 74 378 L 80.667 411.333 Z " fill="rgb(2,0,34)" vector-effect="non-scaling-stroke" stroke-width="1" stroke="rgb(0,0,0)" stroke-linejoin="miter" stroke-linecap="square" stroke-miterlimit="3"/><path d=" M 141.574 373.285 L 113 355.333 L 113 311 L 141.574 340 L 141.574 373.285 Z " fill="rgb(2,0,34)" vector-effect="non-scaling-stroke" stroke-width="1" stroke="rgb(0,0,0)" stroke-linejoin="miter" stroke-linecap="square" stroke-miterlimit="3"/><path d=" M 150 325 L 113 284 L 144.904 254 L 196.084 301 L 150 325 Z " fill="rgb(2,0,34)" vector-effect="non-scaling-stroke" stroke-width="1" stroke="rgb(0,0,0)" stroke-linejoin="miter" stroke-linecap="square" stroke-miterlimit="3"/><path d=" M 210.949 436.014 L 220 373.285 L 285 347 L 239.531 421 L 210.949 436.014 Z " fill="rgb(2,0,34)" vector-effect="non-scaling-stroke" stroke-width="1" stroke="rgb(0,0,0)" stroke-linejoin="miter" stroke-linecap="square" stroke-miterlimit="3"/><path d=" M 220 465.091 L 254.376 430 L 285 436.014 L 254.376 465.091 L 220 465.091 Z " fill="rgb(2,0,34)" vector-effect="non-scaling-stroke" stroke-width="1" stroke="rgb(0,0,0)" stroke-linejoin="miter" stroke-linecap="square" stroke-miterlimit="3"/><path d=" M 245 540.564 L 261 502 L 292 486.854 L 285 515 L 245 540.564 Z " fill="rgb(2,0,34)" vector-effect="non-scaling-stroke" stroke-width="1" stroke="rgb(0,0,0)" stroke-linejoin="miter" stroke-linecap="square" stroke-miterlimit="3"/><path d=" M 268 540.564 L 306 508 L 324 527.113 L 324 553.569 L 268 540.564 Z " fill="rgb(2,0,34)" vector-effect="non-scaling-stroke" stroke-width="1" stroke="rgb(0,0,0)" stroke-linejoin="miter" stroke-linecap="square" stroke-miterlimit="3"/><path d=" M 220 666.911 L 220 631.949 L 252 609 L 252 649 L 220 666.911 Z " fill="rgb(2,0,34)" vector-effect="non-scaling-stroke" stroke-width="1" stroke="rgb(0,0,0)" stroke-linejoin="miter" stroke-linecap="square" stroke-miterlimit="3"/><path d=" M 292 626.015 L 315 585.012 L 356 594.925 L 332 619 L 292 626.015 Z " fill="rgb(2,0,34)" vector-effect="non-scaling-stroke" stroke-width="1" stroke="rgb(0,0,0)" stroke-linejoin="miter" stroke-linecap="square" stroke-miterlimit="3"/><path d=" M 292 649 L 324 612.995 L 368 626.015 L 343 638 L 292 649 Z " fill="rgb(2,0,34)" vector-effect="non-scaling-stroke" stroke-width="1" stroke="rgb(0,0,0)" stroke-linejoin="miter" stroke-linecap="square" stroke-miterlimit="3"/><path d=" M 46 609 L 27 585.012 L 42.5 566 L 74 595 L 46 609 Z " fill="rgb(2,0,34)" vector-effect="non-scaling-stroke" stroke-width="1" stroke="rgb(0,0,0)" stroke-linejoin="miter" stroke-linecap="square" stroke-miterlimit="3"/><path d=" M 35 619 L 23 594.925 L 3 609 L 12 631.949 L 35 619 Z " fill="rgb(2,0,34)" vector-effect="non-scaling-stroke" stroke-width="1" stroke="rgb(0,0,0)" stroke-linejoin="miter" stroke-linecap="square" stroke-miterlimit="3"/><path d=" M 35 521 L 23 508 L 3 515 L 27 540.564 L 35 521 Z " fill="rgb(2,0,34)" vector-effect="non-scaling-stroke" stroke-width="1" stroke="rgb(0,0,0)" stroke-linejoin="miter" stroke-linecap="square" stroke-miterlimit="3"/><path d=" M 23 495 L 12 447 L -34 447 L -19 486.854 L 23 495 Z " fill="rgb(2,0,34)" vector-effect="non-scaling-stroke" stroke-width="1" stroke="rgb(0,0,0)" stroke-linejoin="miter" stroke-linecap="square" stroke-miterlimit="3"/><path d=" M 97.289 521 L 74 495 L 90 465.091 L 113 486.854 L 97.289 521 Z " fill="rgb(2,0,34)"/></g></g></svg>