<?xml version="1.0" encoding="UTF-8" standalone="no"?><!-- Generator: Gravit.io --><svg xmlns="http://www.w3.org/2000/svg" xmlns:xlink="http://www.w3.org/1999/xlink" style="isolation:isolate" viewBox="0 0 1000 1000" width="1000pt" height="1000pt"><defs><clipPath id="_clipPath_GWoNjK1i0gdreL6flMgC7oPsxot7QkNu"><rect width="1000" height="1000"/></clipPath></defs><g clip-path="url(#_clipPath_GWoNjK1i0gdreL6flMgC7oPsxot7QkNu)"><rect x="0" y="0" width="1000" height="1000" transform="matrix(1,0,0,1,0,0)" fill="rgb(199,227,244)"/><g><path d=" M 228.788 686.364 L 365.152 774.242 L 542.424 786.364 L 340.909 1000 L 1000 1000 L 1000 774.242 L 578.788 657.576 L 228.788 686.364 Z " fill="rgb(104,60,60)"/><path d=" M 607.576 686.364 L 542.424 786.364 L 365.152 774.242 L 353.03 719.697 L 466.667 672.727 L 607.576 686.364 Z " fill="rgb(0,0,0)" fill-opacity="0.1"/><path d=" M 775.758 774.242 L 595.455 709.091 L 542.424 786.364 L 466.667 866.667 L 669.697 893.939 L 775.758 774.242 Z " fill="rgb(0,0,0)" fill-opacity="0.2"/><path d=" M 0 843.939 L 274.242 804.545 L 453.03 843.939 L 731.818 830.303 L 721.212 774.242 L 578.788 695.455 L 353.03 719.697 L 228.788 686.364 L 440.909 625.758 L 731.818 657.576 L 1000 719.697 L 1000 1000 L 0 1000 L 0 843.939 Z " fill="rgb(193,129,157)"/></g><g><polygon points="943.263,101.204,893.939,129.682,844.615,101.204,844.615,44.25,893.939,15.773,943.263,44.25" fill="rgb(255,255,163)"/><polygon points="1003.236,147.951,893.939,211.053,784.643,147.951,784.643,21.746,893.939,-41.356,1003.236,21.746" fill="rgb(255,255,163)" fill-opacity="0.2"/><polygon points="1035.268,159.496,894.256,240.909,753.244,159.496,753.244,-3.33,894.256,-84.744,1035.268,-3.33" fill="rgb(255,255,163)" fill-opacity="0.2"/><polygon points="973.566,126.18,894.256,171.97,814.946,126.18,814.946,34.601,894.256,-11.189,973.566,34.601" fill="rgb(255,255,163)" fill-opacity="0.2"/><path d=" M -94.697 68.182 L 305.303 0 L 643.182 57.576 L 331.061 112.121 L -94.697 68.182 Z " fill="rgb(255,0,166)" fill-opacity="0.2"/><path d=" M 496.97 196.97 L 643.182 112.121 L 804.545 184.848 L 981.818 157.576 L 869.697 231.818 L 643.182 231.818 L 496.97 196.97 Z " fill="rgb(255,0,157)" fill-opacity="0.2"/><path d=" M 36.364 184.848 L 175.758 157.576 L 496.97 231.818 L 331.061 240.909 L 36.364 184.848 Z " fill="rgb(255,0,157)" fill-opacity="0.2"/><path d=" M 781.818 84.848 L 721.212 42.424 L 831.818 12.121 L 956.061 42.424 L 781.818 84.848 Z " fill="rgb(255,0,157)" fill-opacity="0.2"/><path d=" M 496.97 330.303 L 712.121 292.424 L 981.818 380.303 L 578.788 380.303 L 496.97 330.303 Z " fill="rgb(255,0,157)" fill-opacity="0.2"/><path d=" M -68.182 362.121 L 157.576 316.667 L 554.545 380.303 L 395.455 392.424 L 143.939 419.697 L -68.182 362.121 Z " fill="rgb(255,0,157)" fill-opacity="0.2"/></g><g><path d=" M 287.879 695.455 L 321.212 669.697 L 340.909 618.182 L 330.303 500 L 248.485 403.03 L 125.758 383.333 L 46.97 436.364 L 28.788 500 L 28.788 403.03 L 109.091 346.97 L 28.788 313.636 L 142.424 331.818 L 93.567 243.309 L 28.788 226.147 L 111.355 226.147 L 165.152 331.818 L 165.152 256.061 L 185.606 256.061 L 353.03 175.758 L 234.848 256.061 L 330.303 256.061 L 189.394 275.758 L 216.667 339.394 L 287.879 383.333 L 453.03 500 L 453.03 612.209 L 503.03 639.394 L 560.606 657.576 L 486.364 669.697 L 287.879 695.455 Z " fill="rgb(49,38,38)"/><path d=" M 204.545 263.636 L 365.152 157.576 L 542.424 292.424 L 384.848 392.424 L 204.545 263.636 Z " fill="rgb(170,48,101)"/><path d=" M 446.5 292.424 L 437.5 313.636 L 384.848 392.424 L 542.424 292.424 L 401.5 186.364 L 437.5 263.636 L 446.5 292.424 Z " fill="rgb(255,255,255)" fill-opacity="0.1"/><path d=" M 327.5 351 L 384.848 392.424 L 437.5 313.636 L 446.5 292.424 L 437.5 263.636 L 404.5 194.5 L 361 197.5 L 398 263.636 L 408 289.5 L 390 310 L 327.5 351 Z " fill="rgb(255,255,255)" fill-opacity="0.05"/><path d=" M 259 302 L 293 275.758 L 287.879 251 L 269.333 222.667 L 353.03 186.364 L 398 263.636 L 408 289.5 L 390 310 L 327.5 351 L 259 302 Z " fill="rgb(0,0,0)" fill-opacity="0.05"/><path d=" M 234.848 243.309 L 274.242 18.182 L 453.03 46.97 L 468.182 218.182 L 234.848 243.309 Z " fill="rgb(227,109,160)"/><path d=" M 309.333 50.667 L 411.333 80.667 L 468.182 218.182 L 453.03 46.97 L 274.242 18.182 L 309.333 50.667 Z " fill="rgb(255,255,255)" fill-opacity="0.1"/><path d=" M 269.333 50.667 L 377.333 121.212 L 424.667 222.667 L 468.182 218.182 L 411.333 80.667 L 309.333 50.667 L 274.242 18.182 L 269.333 50.667 Z " fill="rgb(255,255,255)" fill-opacity="0.05"/><path d=" M 63.636 243.309 L 0 256.061 L -46.97 226.147 L 10.606 186.364 L 63.636 243.309 Z " fill="rgb(247,146,190)"/><path d=" M 111.355 339.394 L 10.606 186.364 L -157.576 313.636 L -84.848 392.424 L 111.355 339.394 Z " fill="rgb(134,46,84)"/><path d=" M 109.091 363.636 L 0 383.333 L -77.273 548.485 L 28.788 584.848 L 142.424 521.212 L 109.091 363.636 Z " fill="rgb(153,26,81)"/><path d=" M 6 403.03 L 70.667 403.03 L 93.567 423.333 L 142.424 521.212 L 109.091 363.636 L -47.333 392.424 L 6 403.03 Z " fill="rgb(255,255,255)" fill-opacity="0.1"/><path d=" M 248.485 131.818 L 111.355 263.636 L 10.606 256.061 L -66.667 153.03 L -39.394 -51.515 L 177.273 18.182 L 248.485 131.818 Z " fill="rgb(181,73,120)"/><path d=" M 503.03 140.909 L 551.515 121.212 L 595.455 148.485 L 551.515 157.576 L 503.03 140.909 Z " fill="rgb(198,85,134)"/><path d=" M 560.606 218.182 L 578.788 204.545 L 595.455 226.147 L 560.606 218.182 Z " fill="rgb(181,73,120)"/><path d=" M 578.788 413.636 L 625.758 413.636 L 646.97 457.576 L 610.606 457.576 L 578.788 413.636 Z " fill="rgb(210,141,171)"/><path d=" M 742.424 218.182 L 786.364 186.364 L 822.727 204.545 L 795.455 243.309 L 742.424 218.182 Z " fill="rgb(181,73,120)"/><path d=" M 560.606 584.848 L 610.606 595.455 L 625.758 639.394 L 578.788 625.758 L 560.606 584.848 Z " fill="rgb(181,73,120)"/><path d=" M 786.364 472.727 L 822.727 457.576 L 848.485 472.727 L 833.333 500 L 786.364 472.727 Z " fill="rgb(247,128,179)"/><path d=" M 111.355 618.182 L 111.355 669.697 L 142.424 686.364 L 142.424 657.576 L 111.355 618.182 Z " fill="rgb(200,93,140)"/><path d=" M 440.909 457.576 L 453.03 510.606 L 495.455 521.212 L 495.455 500 L 440.909 457.576 Z " fill="rgb(181,73,120)"/><path d=" M 751.515 639.394 L 806.061 695.455 L 833.333 686.364 L 806.061 669.697 L 751.515 639.394 Z " fill="rgb(223,132,172)"/><path d=" M 634.848 100 L 646.97 75.758 L 689.394 89.394 L 671.212 121.212 L 634.848 100 Z " fill="rgb(181,73,120)"/><path d=" M 877.273 46.97 L 934.848 18.182 L 987.879 36.364 L 962.121 60.606 L 877.273 46.97 Z " fill="rgb(213,155,180)"/><path d=" M 663.636 313.636 L 704.545 292.424 L 751.515 313.636 L 721.212 331.818 L 663.636 313.636 Z " fill="rgb(225,138,176)"/><path d=" M 877.273 339.394 L 934.848 292.424 L 951.515 331.818 L 877.273 339.394 Z " fill="rgb(215,143,174)"/><path d=" M 877.273 595.455 L 962.121 584.848 L 975.758 625.758 L 877.273 595.455 Z " fill="rgb(181,73,120)"/><path d=" M 922.727 695.455 L 951.515 686.364 L 962.121 709.091 L 922.727 695.455 Z " fill="rgb(195,86,133)"/><path d=" M 848.485 745.455 L 887.879 745.455 L 895.455 774.242 L 848.485 745.455 Z " fill="rgb(181,73,120)"/><path d=" M 848.485 804.545 L 887.879 830.303 L 857.576 843.939 L 822.727 830.303 L 848.485 804.545 Z " fill="rgb(166,11,78)"/><path d=" M 934.848 910.606 L 987.879 910.606 L 987.879 878.788 L 922.727 865.152 L 934.848 910.606 Z " fill="rgb(181,73,120)"/><path d=" M 795.455 924.242 L 689.394 924.242 L 663.636 890.909 L 751.515 900 L 795.455 924.242 Z " fill="rgb(128,20,67)"/><path d=" M 56.061 924.242 L 125.758 878.788 L 216.667 937.879 L 134.848 946.97 L 56.061 924.242 Z " fill="rgb(130,40,79)"/><path d=" M 303.03 878.788 L 384.848 865.152 L 468.182 900 L 384.848 900 L 303.03 878.788 Z " fill="rgb(113,36,69)"/><path d=" M 542.424 669.697 L 578.788 686.364 L 595.455 669.697 L 560.606 657.576 L 542.424 669.697 Z " fill="rgb(181,73,120)"/><path d=" M 268.667 50.667 L 378 121.212 L 424.667 223.333 L 340.909 231.667 L 331.333 142 L 255 131.333 L 268.667 50.667 Z " fill="rgb(0,0,0)" fill-opacity="0.05"/><path d=" M 115.091 267.576 L 169.152 118.939 L 125.212 44.364 L 13.091 -11.697 L 86.356 -9.061 L 182.788 20.121 L 252 133.939 L 115.091 267.576 Z " fill="rgb(255,245,108)" fill-opacity="0.1"/><path d=" M -24 -6.061 L 71 60.939 L 110 126.939 L 56 260.939 L 114.091 265.576 L 169.152 118.939 L 125.212 44.364 L 4 -17.061 L -24 -6.061 Z " fill="rgb(255,255,255)" fill-opacity="0.05"/><path d=" M 142.667 521.212 L 78.667 556.667 L 52 483.333 L 18.667 462.667 L -45.333 452.667 L -31.667 403.03 L 70.667 403.03 L 95.333 425.667 L 142.667 521.212 Z " fill="rgb(255,255,255)" fill-opacity="0.05"/><path d=" M 242 371 L 435.5 500.5 L 430 570.5 L 420 500.5 L 242 371 Z " fill="rgb(32,26,23)"/><path d=" M 177.273 275.758 L 177.273 331.818 L 204.545 371 L 177.273 275.758 Z " fill="rgb(32,26,23)"/><path d=" M 125.212 339.394 L 169.152 346.97 L 195 377 L 158 357 L 125.212 339.394 Z " fill="rgb(32,26,23)"/><path d=" M 361 510.606 L 365.152 612.209 L 349 661 L 336.5 677.5 L 361 669.697 L 374.5 625.758 L 361 510.606 Z " fill="rgb(32,26,23)"/><path d=" M 437.5 600 L 430 636.5 L 479.5 657.576 L 509.5 652.5 L 479.5 648.5 L 443.5 636.5 L 437.5 600 Z " fill="rgb(32,26,23)"/><path d=" M 303.03 428.5 L 384.848 521.212 L 395 639.394 L 390 521.212 L 303.03 428.5 Z " fill="rgb(32,26,23)"/></g></g></svg>