<?xml version="1.0" encoding="UTF-8" standalone="no"?><!-- Generator: Gravit.io --><svg xmlns="http://www.w3.org/2000/svg" xmlns:xlink="http://www.w3.org/1999/xlink" style="isolation:isolate" viewBox="0 0 1000 1000" width="1000pt" height="1000pt"><defs><clipPath id="_clipPath_McCQNNcKb4pZ0eWqR2km7XHQxPfDtSJu"><rect width="1000" height="1000"/></clipPath></defs><g clip-path="url(#_clipPath_McCQNNcKb4pZ0eWqR2km7XHQxPfDtSJu)"><path d=" M 456.083 314.667 L 440.375 309.667 L 405.333 294 L 446.5 292 L 475.667 314.667 L 486 305.333 L 483.333 326 L 456.083 314.667 L 456.083 314.667 Z " fill="rgb(147,147,147)"/><path d=" M 542.917 314.667 L 558.625 309.667 L 593.667 294 L 552.5 292 L 523.333 314.667 L 513 305.333 L 515.667 326 L 542.917 314.667 L 542.917 314.667 Z " fill="rgb(147,147,147)"/><path d=" M 456.083 314.667 L 440.375 309.667 L 405.333 294 L 446.5 292 L 475.667 314.667 L 486 305.333 L 483.333 326 L 456.083 314.667 Z " fill="rgb(0,0,0)" fill-opacity="0.3"/><path d=" M 542.917 314.667 L 558.625 309.667 L 593.667 294 L 552.5 292 L 523.333 314.667 L 513 305.333 L 515.667 326 L 542.917 314.667 Z " fill="rgb(0,0,0)" fill-opacity="0.3"/></g></svg>