<?xml version="1.0" encoding="UTF-8" standalone="no"?><!-- Generator: Gravit.io --><svg xmlns="http://www.w3.org/2000/svg" xmlns:xlink="http://www.w3.org/1999/xlink" style="isolation:isolate" viewBox="0 0 1000 1000" width="1000pt" height="1000pt"><defs><clipPath id="_clipPath_xXcLyYMw5VbJfQP2S67gWrJRAgcXBNad"><rect width="1000" height="1000"/></clipPath></defs><g clip-path="url(#_clipPath_xXcLyYMw5VbJfQP2S67gWrJRAgcXBNad)"><path d=" M 478.063 326.816 L 465.827 315.765 L 417.775 310.24 L 447.919 297.964 L 482.54 315.765 L 478.063 326.816 L 478.063 326.816 L 478.063 326.816 Z " fill="rgb(128,128,128)"/><path d=" M 520.444 326.816 L 532.68 315.765 L 580.732 310.24 L 550.588 297.964 L 515.967 315.765 L 520.444 326.816 L 520.444 326.816 L 520.444 326.816 Z " fill="rgb(128,128,128)"/><path d=" M 478.063 326.816 L 465.827 315.765 L 417.775 310.24 L 447.919 297.964 L 482.54 315.765 L 478.063 326.816 L 478.063 326.816 Z " fill="rgb(0,0,0)" fill-opacity="0.3"/><path d=" M 520.444 326.816 L 532.68 315.765 L 580.732 310.24 L 550.588 297.964 L 515.967 315.765 L 520.444 326.816 L 520.444 326.816 Z " fill="rgb(0,0,0)" fill-opacity="0.3"/></g></svg>