<?xml version="1.0" encoding="UTF-8" standalone="no"?><!-- Generator: Gravit.io --><svg xmlns="http://www.w3.org/2000/svg" xmlns:xlink="http://www.w3.org/1999/xlink" style="isolation:isolate" viewBox="0 0 1000 1000" width="1000pt" height="1000pt"><defs><clipPath id="_clipPath_i45OKtKdKSLQmWXhJgEmJ4eoroHHx0gv"><rect width="1000" height="1000"/></clipPath></defs><g clip-path="url(#_clipPath_i45OKtKdKSLQmWXhJgEmJ4eoroHHx0gv)"><path d=" M 478.063 326.816 L 468.333 321.25 L 440.333 315.765 L 421.667 313 L 406.333 308 L 421.667 305.333 L 448.333 310 L 468.333 313 L 478.063 319.25 L 478.063 326.816 L 478.063 326.816 Z " fill="rgb(145,145,145)"/><path d=" M 518.833 326.816 L 528.563 321.25 L 556.563 315.765 L 575.23 313 L 590.563 308 L 575.23 305.333 L 548.563 310 L 528.563 313 L 518.833 319.25 L 518.833 326.816 L 518.833 326.816 Z " fill="rgb(145,145,145)"/><path d=" M 478.063 326.816 L 468.333 321.25 L 440.333 315.765 L 421.667 313 L 406.333 308 L 421.667 305.333 L 448.333 310 L 468.333 313 L 478.063 319.25 L 478.063 326.816 Z " fill="rgb(0,0,0)" fill-opacity="0.3"/><path d=" M 518.833 326.816 L 528.563 321.25 L 556.563 315.765 L 575.23 313 L 590.563 308 L 575.23 305.333 L 548.563 310 L 528.563 313 L 518.833 319.25 L 518.833 326.816 Z " fill="rgb(0,0,0)" fill-opacity="0.3"/></g></svg>