<?xml version="1.0" encoding="UTF-8" standalone="no"?><!-- Generator: Gravit.io --><svg xmlns="http://www.w3.org/2000/svg" xmlns:xlink="http://www.w3.org/1999/xlink" style="isolation:isolate" viewBox="0 0 1000 1000" width="1000pt" height="1000pt"><defs><clipPath id="_clipPath_dWoJQEVU1RCQT5CWAXk7lJqzshJr2En5"><rect width="1000" height="1000"/></clipPath></defs><g clip-path="url(#_clipPath_dWoJQEVU1RCQT5CWAXk7lJqzshJr2En5)"><path d=" M 478.063 326.816 L 468.333 321.25 L 442.75 315 L 408 315 L 413 305.333 L 408 296.5 L 442.75 300 L 468.333 313 L 478.063 319.25 L 478.063 326.816 Z " fill="rgb(134,134,134)"/><path d=" M 518.333 326.816 L 528.063 321.25 L 553.646 315 L 588.396 315 L 583.396 305.333 L 588.396 296.5 L 553.646 300 L 528.063 313 L 518.333 319.25 L 518.333 326.816 Z " fill="rgb(134,134,134)"/><path d=" M 478.063 326.816 L 468.333 321.25 L 442.75 315 L 408 315 L 413 305.333 L 408 296.5 L 442.75 300 L 468.333 313 L 478.063 319.25 L 478.063 326.816 Z " fill="rgb(0,0,0)" fill-opacity="0.3"/><path d=" M 518.333 326.816 L 528.063 321.25 L 553.646 315 L 588.396 315 L 583.396 305.333 L 588.396 296.5 L 553.646 300 L 528.063 313 L 518.333 319.25 L 518.333 326.816 Z " fill="rgb(0,0,0)" fill-opacity="0.3"/></g></svg>