<?xml version="1.0" encoding="UTF-8" standalone="no"?><!-- Generator: Gravit.io --><svg xmlns="http://www.w3.org/2000/svg" xmlns:xlink="http://www.w3.org/1999/xlink" style="isolation:isolate" viewBox="0 0 1000 1000" width="1000pt" height="1000pt"><defs><clipPath id="_clipPath_fUT2z1JwhbyzTc5JbzY40sKigcfl7ENh"><rect width="1000" height="1000"/></clipPath></defs><g clip-path="url(#_clipPath_fUT2z1JwhbyzTc5JbzY40sKigcfl7ENh)"><path d=" M 478.063 326.816 L 458.75 319.25 L 417.775 310.24 L 384.5 306 L 424 302.5 L 406.5 291 L 440.25 299.25 L 433.25 291 L 455 302.5 L 447 291 L 465.25 306 L 462.5 295 L 474.75 310.24 L 478.063 319.25 L 478.063 326.816 Z " fill="rgb(128,128,128)"/><path d=" M 518.275 326.816 L 537.588 319.25 L 578.563 310.24 L 611.838 306 L 572.338 302.5 L 589.838 291 L 556.088 299.25 L 563.088 291 L 541.338 302.5 L 549.338 291 L 531.088 306 L 533.838 295 L 521.588 310.24 L 518.275 319.25 L 518.275 326.816 Z " fill="rgb(128,128,128)"/><path d=" M 478.063 326.816 L 458.75 319.25 L 417.775 310.24 L 384.5 306 L 424 302.5 L 406.5 291 L 440.25 299.25 L 433.25 291 L 455 302.5 L 447 291 L 465.25 306 L 462.5 295 L 474.75 310.24 L 478.063 319.25 L 478.063 326.816 Z " fill="rgb(0,0,0)" fill-opacity="0.3"/><path d=" M 518.275 326.816 L 537.588 319.25 L 578.563 310.24 L 611.838 306 L 572.338 302.5 L 589.838 291 L 556.088 299.25 L 563.088 291 L 541.338 302.5 L 549.338 291 L 531.088 306 L 533.838 295 L 521.588 310.24 L 518.275 319.25 L 518.275 326.816 Z " fill="rgb(0,0,0)" fill-opacity="0.3"/></g></svg>