<?xml version="1.0" encoding="UTF-8" standalone="no"?><!-- Generator: Gravit.io --><svg xmlns="http://www.w3.org/2000/svg" xmlns:xlink="http://www.w3.org/1999/xlink" style="isolation:isolate" viewBox="0 0 1000 1000" width="1000pt" height="1000pt"><defs><clipPath id="_clipPath_aZiTkNJMllFqhixncse6Z0OIssIaLKLc"><rect width="1000" height="1000"/></clipPath></defs><g clip-path="url(#_clipPath_aZiTkNJMllFqhixncse6Z0OIssIaLKLc)"><path d=" M 484.667 326.816 L 436 310.24 L 408 314.24 L 386.667 346 L 398.667 310.24 L 436 289.333 L 490.667 320 L 484.667 326.816 L 484.667 326.816 Z " fill="rgb(113,113,113)"/><path d=" M 516 326.816 L 564.667 310.24 L 592.667 314.24 L 614 346 L 602 310.24 L 564.667 289.333 L 510 320 L 516 326.816 L 516 326.816 Z " fill="rgb(113,113,113)"/><path d=" M 484.667 326.816 L 436 310.24 L 408 314.24 L 386.667 346 L 398.667 310.24 L 436 289.333 L 490.667 320 L 484.667 326.816 Z " fill="rgb(0,0,0)" fill-opacity="0.3"/><path d=" M 516 326.816 L 564.667 310.24 L 592.667 314.24 L 614 346 L 602 310.24 L 564.667 289.333 L 510 320 L 516 326.816 Z " fill="rgb(0,0,0)" fill-opacity="0.3"/></g></svg>