<?xml version="1.0" encoding="UTF-8" standalone="no"?><!-- Generator: Gravit.io --><svg xmlns="http://www.w3.org/2000/svg" xmlns:xlink="http://www.w3.org/1999/xlink" style="isolation:isolate" viewBox="0 0 1000 1000" width="1000pt" height="1000pt"><defs><clipPath id="_clipPath_QhKoJZEHdGJY85N6pPsPr8a5pfABHPah"><rect width="1000" height="1000"/></clipPath></defs><g clip-path="url(#_clipPath_QhKoJZEHdGJY85N6pPsPr8a5pfABHPah)"><path d=" M 481 316.765 L 465.827 316.765 L 428.564 311.24 L 413 320.5 L 421.5 298.964 L 447.919 298.964 L 473.046 304 L 485.5 298.964 L 481 316.765 L 481 316.765 Z " fill="rgb(155,155,155)"/><path d=" M 515.5 316.765 L 530.673 316.765 L 567.936 311.24 L 583.5 320.5 L 575 298.964 L 548.581 298.964 L 523.454 304 L 511 298.964 L 515.5 316.765 L 515.5 316.765 Z " fill="rgb(155,155,155)"/><path d=" M 481 316.765 L 465.827 316.765 L 428.564 311.24 L 413 320.5 L 421.5 298.964 L 447.919 298.964 L 473.046 304 L 485.5 298.964 L 481 316.765 Z " fill="rgb(0,0,0)" fill-opacity="0.3"/><path d=" M 515.5 316.765 L 530.673 316.765 L 567.936 311.24 L 583.5 320.5 L 575 298.964 L 548.581 298.964 L 523.454 304 L 511 298.964 L 515.5 316.765 Z " fill="rgb(0,0,0)" fill-opacity="0.3"/></g></svg>