<?xml version="1.0" encoding="UTF-8" standalone="no"?><!-- Generator: Gravit.io --><svg xmlns="http://www.w3.org/2000/svg" xmlns:xlink="http://www.w3.org/1999/xlink" style="isolation:isolate" viewBox="0 0 1000 1000" width="1000pt" height="1000pt"><defs><clipPath id="_clipPath_HBUbgFxgHWiztYyzrUKr26BZsCk3yVro"><rect width="1000" height="1000"/></clipPath></defs><g clip-path="url(#_clipPath_HBUbgFxgHWiztYyzrUKr26BZsCk3yVro)"><path d=" M 448.5 319.5 L 424.667 312 L 410 285 L 443 299 L 456.083 304 L 475.667 314.667 L 483.333 326 L 448.5 319.5 Z " fill="rgb(108,108,108)"/><path d=" M 551.5 319.5 L 575.333 312 L 590 285 L 557 299 L 543.917 304 L 524.333 314.667 L 516.667 326 L 551.5 319.5 Z " fill="rgb(108,108,108)"/><path d=" M 448.5 319.5 L 424.667 312 L 410 285 L 443 299 L 456.083 304 L 475.667 314.667 L 483.333 326 L 448.5 319.5 Z " fill="rgb(0,0,0)" fill-opacity="0.3"/><path d=" M 551.5 319.5 L 575.333 312 L 590 285 L 557 299 L 543.917 304 L 524.333 314.667 L 516.667 326 L 551.5 319.5 Z " fill="rgb(0,0,0)" fill-opacity="0.3"/></g></svg>