<?xml version="1.0" encoding="UTF-8" standalone="no"?><!-- Generator: Gravit.io --><svg xmlns="http://www.w3.org/2000/svg" xmlns:xlink="http://www.w3.org/1999/xlink" style="isolation:isolate" viewBox="0 0 1000 1000" width="1000pt" height="1000pt"><defs><clipPath id="_clipPath_r98pBJIvL6ZZDvueCMjwlwRQYQVX0VIr"><rect width="1000" height="1000"/></clipPath></defs><g clip-path="url(#_clipPath_r98pBJIvL6ZZDvueCMjwlwRQYQVX0VIr)"><path d=" M 472 322 L 442.75 315 L 417.176 310.084 L 406.333 308 L 437.75 294.5 L 468.333 294.5 L 492.5 322 L 472 322 L 472 322 Z " fill="rgb(168,168,168)"/><path d=" M 528.167 322 L 557.417 315 L 582.991 310.084 L 593.833 308 L 562.417 294.5 L 531.833 294.5 L 507.667 322 L 528.167 322 L 528.167 322 Z " fill="rgb(168,168,168)"/><path d=" M 472 322 L 442.75 315 L 417.176 310.084 L 406.333 308 L 437.75 294.5 L 468.333 294.5 L 492.5 322 L 472 322 Z " fill="rgb(0,0,0)" fill-opacity="0.3"/><path d=" M 528.167 322 L 557.417 315 L 582.991 310.084 L 593.833 308 L 562.417 294.5 L 531.833 294.5 L 507.667 322 L 528.167 322 Z " fill="rgb(0,0,0)" fill-opacity="0.3"/></g></svg>