<?xml version="1.0" encoding="UTF-8" standalone="no"?><!-- Generator: Gravit.io --><svg xmlns="http://www.w3.org/2000/svg" xmlns:xlink="http://www.w3.org/1999/xlink" style="isolation:isolate" viewBox="0 0 1000 1000" width="1000pt" height="1000pt"><defs><clipPath id="_clipPath_O8NIaZjj0XsRGMoUl0OgUQgaLxZOI0RZ"><rect width="1000" height="1000"/></clipPath></defs><g clip-path="url(#_clipPath_O8NIaZjj0XsRGMoUl0OgUQgaLxZOI0RZ)"><g><path d=" M 402.144 356.994 L 390.096 338.922 L 310 420.885 L 360 392.897 L 372.024 387.115 L 390.096 405.187 L 402.144 415.103 L 402.144 356.994 L 402.144 356.994 L 402.144 356.994 Z " fill="rgb(251,210,169)"/><path d=" M 390.096 350.97 L 390.096 381.091 L 378.048 375.066 L 346.5 392.897 L 390.096 350.97 L 390.096 350.97 L 390.096 350.97 Z " fill="rgb(0,0,0)" fill-opacity="0.1"/><path d=" M 600.909 356.994 L 612.957 338.922 L 693.053 420.885 L 643.053 392.897 L 631.029 387.115 L 612.957 405.187 L 600.909 415.103 L 600.909 356.994 L 600.909 356.994 L 600.909 356.994 Z " fill="rgb(251,210,169)"/><path d=" M 612.957 350.97 L 612.957 381.091 L 625.005 375.066 L 656.553 392.897 L 612.957 350.97 L 612.957 350.97 L 612.957 350.97 Z " fill="rgb(0,0,0)" fill-opacity="0.1"/></g></g></svg>