<?xml version="1.0" encoding="UTF-8" standalone="no"?><!-- Generator: Gravit.io --><svg xmlns="http://www.w3.org/2000/svg" xmlns:xlink="http://www.w3.org/1999/xlink" style="isolation:isolate" viewBox="0 0 1000 1000" width="1000pt" height="1000pt"><defs><clipPath id="_clipPath_jFXY4wgrzGareEXAWRSs6taHzqkSAuol"><rect width="1000" height="1000"/></clipPath></defs><g clip-path="url(#_clipPath_jFXY4wgrzGareEXAWRSs6taHzqkSAuol)"><g><path d=" M 402.144 356.994 L 390.096 338.922 L 354.667 282.667 L 362 354.667 L 372.024 387.115 L 390.096 405.187 L 402.144 415.103 L 402.144 356.994 L 402.144 356.994 L 402.144 356.994 Z " fill="rgb(251,210,169)"/><path d=" M 390.096 350.97 L 390.096 381.091 L 378.048 375.066 L 366 313.667 L 390.096 350.97 L 390.096 350.97 L 390.096 350.97 Z " fill="rgb(0,0,0)" fill-opacity="0.1"/><path d=" M 600.667 362.776 L 612.715 344.704 L 648.144 288.448 L 640.811 360.448 L 630.787 392.897 L 612.715 410.969 L 600.667 420.885 L 600.667 362.776 L 600.667 362.776 L 600.667 362.776 Z " fill="rgb(251,210,169)"/><path d=" M 612.715 356.752 L 612.715 386.873 L 624.763 380.848 L 636.811 319.448 L 612.715 356.752 L 612.715 356.752 L 612.715 356.752 Z " fill="rgb(0,0,0)" fill-opacity="0.1"/></g></g></svg>