<?xml version="1.0" encoding="UTF-8" standalone="no"?><!-- Generator: Gravit.io --><svg xmlns="http://www.w3.org/2000/svg" xmlns:xlink="http://www.w3.org/1999/xlink" style="isolation:isolate" viewBox="0 0 1000 1000" width="1000pt" height="1000pt"><defs><clipPath id="_clipPath_D1KCTYNzwwOmPHir04Y2i8FTJe5YpzMU"><rect width="1000" height="1000"/></clipPath></defs><g clip-path="url(#_clipPath_D1KCTYNzwwOmPHir04Y2i8FTJe5YpzMU)"><g><path d=" M 402.144 356.994 L 390.096 338.922 L 372.024 332.898 L 366 350.97 L 372.024 387.115 L 390.096 405.187 L 402.144 415.103 L 402.144 356.994 L 402.144 356.994 L 402.144 356.994 Z " fill="rgb(251,210,169)"/><path d=" M 390.096 350.97 L 390.096 381.091 L 378.048 375.066 L 378.048 350.97 L 390.096 350.97 L 390.096 350.97 L 390.096 350.97 Z " fill="rgb(0,0,0)" fill-opacity="0.1"/><path d=" M 594.916 356.994 L 606.964 338.922 L 625.036 332.898 L 631.06 350.97 L 625.036 387.115 L 606.964 405.187 L 594.916 415.103 L 594.916 356.994 L 594.916 356.994 L 594.916 356.994 Z " fill="rgb(251,210,169)"/><path d=" M 606.964 350.97 L 606.964 381.091 L 619.012 375.066 L 619.012 350.97 L 606.964 350.97 L 606.964 350.97 L 606.964 350.97 Z " fill="rgb(0,0,0)" fill-opacity="0.1"/></g></g></svg>