<?xml version="1.0" encoding="UTF-8" standalone="no"?><!-- Generator: Gravit.io --><svg xmlns="http://www.w3.org/2000/svg" xmlns:xlink="http://www.w3.org/1999/xlink" style="isolation:isolate" viewBox="0 0 1000 1000" width="1000pt" height="1000pt"><defs><clipPath id="_clipPath_8FEXZGm3FXt0j04k6qnMSn7DEzsexSnS"><rect width="1000" height="1000"/></clipPath></defs><g clip-path="url(#_clipPath_8FEXZGm3FXt0j04k6qnMSn7DEzsexSnS)"><g><path d=" M 491.253 1220.626 L 373.783 1094.119 L 415.952 943.518 L 309.526 620.626 L 373.783 576.048 L 443.265 576.048 L 478.128 489.375 L 512.527 489.375 L 543.265 576.048 L 620.771 576.048 L 690.55 620.626 L 584.626 943.518 L 620.771 1094.119 L 491.253 1220.626 L 491.253 1220.626 L 491.253 1220.626 L 491.253 1220.626 Z " fill="rgb(251,210,169)"/><path d=" M 491.253 1220.626 L 497.277 489.375 L 512.527 489.375 L 543.265 576.048 L 620.771 576.048 L 690.55 620.626 L 584.626 943.518 L 620.771 1094.119 L 491.253 1220.626 L 491.253 1220.626 L 491.253 1220.626 L 491.253 1220.626 Z " fill="rgb(0,0,0)" fill-opacity="0.07"/><path d=" M 338.265 756.771 L 415.952 831.068 L 497.277 798.939 L 497.277 726.65 L 411.434 576.048 L 373.783 576.048 L 347.679 714.602 L 331.614 726.65 L 338.265 756.771 L 338.265 756.771 L 338.265 756.771 Z " fill="rgb(106,53,53)"/><path d=" M 663.265 756.771 L 584.124 831.068 L 497.277 798.939 L 485.229 798.939 L 485.229 726.65 L 497.277 726.65 L 584.124 576.048 L 626.293 576.048 L 652.397 714.602 L 668.462 726.65 L 663.265 756.771 L 663.265 756.771 L 663.265 756.771 Z " fill="rgb(106,53,53)"/><path d=" M 338.265 756.771 L 497.277 798.939 L 415.952 831.068 L 338.265 756.771 L 338.265 756.771 L 338.265 756.771 Z " fill="rgb(0,0,0)" fill-opacity="0.15"/><path d=" M 663.265 756.771 L 496.932 798.939 L 584.124 831.068 L 663.265 756.771 L 663.265 756.771 L 663.265 756.771 Z " fill="rgb(0,0,0)" fill-opacity="0.15"/><path d=" M 347.679 714.602 L 496.932 798.939 L 338.265 756.771 L 331.614 726.65 L 347.679 714.602 L 347.679 714.602 L 347.679 714.602 Z " fill="rgb(0,0,0)" fill-opacity="0.1"/><path d=" M 652.398 714.602 L 497.277 798.939 L 663.265 756.771 L 668.462 726.65 L 652.398 714.602 L 652.398 714.602 L 652.398 714.602 Z " fill="rgb(0,0,0)" fill-opacity="0.1"/><path d=" M 373.783 576.048 L 477.151 763.137 L 496.932 798.939 L 347.679 714.602 L 373.783 576.048 L 373.783 576.048 L 373.783 576.048 Z " fill="rgb(255,255,255)" fill-opacity="0.05"/><path d=" M 626.293 576.048 L 496.932 798.626 L 652.398 714.602 L 626.293 576.048 L 626.293 576.048 L 626.293 576.048 Z " fill="rgb(255,255,255)" fill-opacity="0.05"/></g><g><path d=" M 263.292 671.978 L 263.292 733.277 L 252.813 1008.344 L 290.215 1053 L 335.335 1003.936 L 338.107 797.177 L 345.518 675.995 L 330.239 644.181 L 366.239 584.774 L 268.518 643.906 L 263.292 671.978 L 263.292 671.978 Z " fill="rgb(251,210,169)"/><path d=" M 290.215 1053 L 335.335 1003.936 L 307.194 620.136 L 290.215 1053 L 290.215 1053 Z " fill="rgb(0,0,0)" fill-opacity="0.1"/><path d=" M 330.239 605.77 L 345.518 675.995 L 338.107 797.177 L 335.335 1003.936 L 307.194 620.136 L 330.239 605.77 L 330.239 605.77 Z " fill="rgb(0,0,0)" fill-opacity="0.05"/><path d=" M 263.976 675.995 L 263.292 733.277 L 252.813 1008.344 L 290.215 1053 L 295.745 646.388 L 268.518 643.906 L 263.976 675.995 L 263.976 675.995 Z " fill="rgb(255,255,255)" fill-opacity="0.05"/></g><g><path d=" M 736.784 670.861 L 736.784 731.374 L 747.263 1002.917 L 709.861 1047 L 664.741 998.565 L 661.969 794.455 L 654.558 674.826 L 669.837 643.419 L 633.837 584.774 L 731.558 643.149 L 736.784 670.861 L 736.784 670.861 Z " fill="rgb(237,199,160)"/><path d=" M 709.861 1047 L 664.741 998.565 L 692.882 619.683 L 709.861 1047 L 709.861 1047 Z " fill="rgb(0,0,0)" fill-opacity="0.1"/><path d=" M 669.837 605.501 L 654.558 674.826 L 661.969 794.455 L 664.741 998.565 L 692.882 619.683 L 669.837 605.501 L 669.837 605.501 Z " fill="rgb(0,0,0)" fill-opacity="0.05"/><path d=" M 736.1 674.826 L 736.784 731.374 L 747.263 1002.917 L 709.861 1047 L 704.331 645.599 L 731.558 643.149 L 736.1 674.826 L 736.1 674.826 Z " fill="rgb(255,255,255)" fill-opacity="0.05"/></g><g><path d=" M 388.566 289.662 L 388.566 464.361 L 484.952 536.651 L 515.072 536.651 L 605.434 464.361 L 605.434 289.662 L 539.169 211.349 L 460.855 211.349 L 388.566 289.662 L 388.566 289.662 L 388.566 289.662 Z " fill="rgb(251,210,169)"/><path d=" M 497 506.531 L 497 289.662 L 460.855 211.349 L 539.169 211.349 L 605.434 289.662 L 605.434 464.361 L 515.072 536.651 L 497 536.651 L 497 506.531 L 497 506.531 L 497 506.531 Z " fill="rgb(0,0,0)" fill-opacity="0.07"/><path d=" M 460.855 211.349 L 497 289.662 L 539.169 211.349 L 460.855 211.349 L 460.855 211.349 L 460.855 211.349 Z " fill="rgb(0,0,0)" fill-opacity="0.05"/><path d=" M 510.169 422.193 L 483.831 422.193 L 497 381.784 L 510.169 422.193 L 510.169 422.193 Z " fill="rgb(0,0,0)" fill-opacity="0.1"/><path d=" M 453.126 469.017 L 497 475.906 L 540.874 469.017 L 497 469.017 L 453.126 469.017 Z " fill="rgb(0,0,0)" fill-opacity="0.1"/></g></g></svg>