<?xml version="1.0" encoding="UTF-8" standalone="no"?><!-- Generator: Gravit.io --><svg xmlns="http://www.w3.org/2000/svg" xmlns:xlink="http://www.w3.org/1999/xlink" style="isolation:isolate" viewBox="0 0 1000 1000" width="1000pt" height="1000pt"><defs><clipPath id="_clipPath_zfiaqRk6v2Y3CvYaoYJJsUhhUXHAvLtb"><rect width="1000" height="1000"/></clipPath></defs><g clip-path="url(#_clipPath_zfiaqRk6v2Y3CvYaoYJJsUhhUXHAvLtb)"><g><g><g><path d=" M 491.253 1220.626 L 373.783 1094.119 L 415.952 943.518 L 309.526 620.626 L 373.783 576.048 L 443.265 576.048 L 478.128 489.375 L 512.527 489.375 L 543.265 576.048 L 620.771 576.048 L 690.55 620.626 L 584.626 943.518 L 620.771 1094.119 L 491.253 1220.626 L 491.253 1220.626 L 491.253 1220.626 L 491.253 1220.626 L 491.253 1220.626 L 491.253 1220.626 Z " fill="rgb(251,210,169)"/><path d=" M 491.253 1220.626 L 497.277 489.375 L 512.527 489.375 L 543.265 576.048 L 620.771 576.048 L 690.55 620.626 L 584.626 943.518 L 620.771 1094.119 L 491.253 1220.626 L 491.253 1220.626 L 491.253 1220.626 L 491.253 1220.626 L 491.253 1220.626 L 491.253 1220.626 Z " fill="rgb(0,0,0)" fill-opacity="0.07"/><path d=" M 338.265 756.771 L 415.952 831.068 L 497.277 798.939 L 497.277 726.65 L 411.434 576.048 L 373.783 576.048 L 347.679 714.602 L 331.614 726.65 L 338.265 756.771 L 338.265 756.771 L 338.265 756.771 L 338.265 756.771 L 338.265 756.771 Z " fill="rgb(106,53,53)"/><path d=" M 663.265 756.771 L 584.124 831.068 L 497.277 798.939 L 485.229 798.939 L 485.229 726.65 L 497.277 726.65 L 584.124 576.048 L 626.293 576.048 L 652.397 714.602 L 668.462 726.65 L 663.265 756.771 L 663.265 756.771 L 663.265 756.771 L 663.265 756.771 L 663.265 756.771 Z " fill="rgb(106,53,53)"/><path d=" M 338.265 756.771 L 497.277 798.939 L 415.952 831.068 L 338.265 756.771 L 338.265 756.771 L 338.265 756.771 L 338.265 756.771 L 338.265 756.771 Z " fill="rgb(0,0,0)" fill-opacity="0.15"/><path d=" M 663.265 756.771 L 496.932 798.939 L 584.124 831.068 L 663.265 756.771 L 663.265 756.771 L 663.265 756.771 L 663.265 756.771 L 663.265 756.771 Z " fill="rgb(0,0,0)" fill-opacity="0.15"/><path d=" M 347.679 714.602 L 496.932 798.939 L 338.265 756.771 L 331.614 726.65 L 347.679 714.602 L 347.679 714.602 L 347.679 714.602 L 347.679 714.602 L 347.679 714.602 Z " fill="rgb(0,0,0)" fill-opacity="0.1"/><path d=" M 652.398 714.602 L 497.277 798.939 L 663.265 756.771 L 668.462 726.65 L 652.398 714.602 L 652.398 714.602 L 652.398 714.602 L 652.398 714.602 L 652.398 714.602 Z " fill="rgb(0,0,0)" fill-opacity="0.1"/><path d=" M 373.783 576.048 L 477.151 763.137 L 496.932 798.939 L 347.679 714.602 L 373.783 576.048 L 373.783 576.048 L 373.783 576.048 L 373.783 576.048 L 373.783 576.048 Z " fill="rgb(255,255,255)" fill-opacity="0.05"/><path d=" M 626.293 576.048 L 496.932 798.626 L 652.398 714.602 L 626.293 576.048 L 626.293 576.048 L 626.293 576.048 L 626.293 576.048 L 626.293 576.048 Z " fill="rgb(255,255,255)" fill-opacity="0.05"/></g><g><path d=" M 263.292 671.978 L 263.292 733.277 L 252.813 1008.344 L 290.215 1053 L 335.335 1003.936 L 338.107 797.177 L 345.518 675.995 L 330.239 644.181 L 366.239 584.774 L 268.518 643.906 L 263.292 671.978 L 263.292 671.978 L 263.292 671.978 L 263.292 671.978 Z " fill="rgb(251,210,169)"/><path d=" M 290.215 1053 L 335.335 1003.936 L 307.194 620.136 L 290.215 1053 L 290.215 1053 L 290.215 1053 L 290.215 1053 Z " fill="rgb(0,0,0)" fill-opacity="0.1"/><path d=" M 330.239 605.77 L 345.518 675.995 L 338.107 797.177 L 335.335 1003.936 L 307.194 620.136 L 330.239 605.77 L 330.239 605.77 L 330.239 605.77 L 330.239 605.77 Z " fill="rgb(0,0,0)" fill-opacity="0.05"/><path d=" M 263.976 675.995 L 263.292 733.277 L 252.813 1008.344 L 290.215 1053 L 295.745 646.388 L 268.518 643.906 L 263.976 675.995 L 263.976 675.995 L 263.976 675.995 L 263.976 675.995 Z " fill="rgb(255,255,255)" fill-opacity="0.05"/></g><g><path d=" M 736.784 670.861 L 736.784 731.374 L 747.263 1002.917 L 709.861 1047 L 664.741 998.565 L 661.969 794.455 L 654.558 674.826 L 669.837 643.419 L 633.837 584.774 L 731.558 643.149 L 736.784 670.861 L 736.784 670.861 L 736.784 670.861 L 736.784 670.861 Z " fill="rgb(237,199,160)"/><path d=" M 709.861 1047 L 664.741 998.565 L 692.882 619.683 L 709.861 1047 L 709.861 1047 L 709.861 1047 L 709.861 1047 Z " fill="rgb(0,0,0)" fill-opacity="0.1"/><path d=" M 669.837 605.501 L 654.558 674.826 L 661.969 794.455 L 664.741 998.565 L 692.882 619.683 L 669.837 605.501 L 669.837 605.501 L 669.837 605.501 L 669.837 605.501 Z " fill="rgb(0,0,0)" fill-opacity="0.05"/><path d=" M 736.1 674.826 L 736.784 731.374 L 747.263 1002.917 L 709.861 1047 L 704.331 645.599 L 731.558 643.149 L 736.1 674.826 L 736.1 674.826 L 736.1 674.826 L 736.1 674.826 Z " fill="rgb(255,255,255)" fill-opacity="0.05"/></g><g><path d=" M 388.566 289.662 L 388.566 464.361 L 484.952 536.651 L 515.072 536.651 L 605.434 464.361 L 605.434 289.662 L 539.169 211.349 L 460.855 211.349 L 388.566 289.662 L 388.566 289.662 L 388.566 289.662 L 388.566 289.662 L 388.566 289.662 Z " fill="rgb(251,210,169)"/><path d=" M 497 506.531 L 497 289.662 L 460.855 211.349 L 539.169 211.349 L 605.434 289.662 L 605.434 464.361 L 515.072 536.651 L 497 536.651 L 497 506.531 L 497 506.531 L 497 506.531 L 497 506.531 L 497 506.531 Z " fill="rgb(0,0,0)" fill-opacity="0.07"/><path d=" M 460.855 211.349 L 497 289.662 L 539.169 211.349 L 460.855 211.349 L 460.855 211.349 L 460.855 211.349 L 460.855 211.349 L 460.855 211.349 Z " fill="rgb(0,0,0)" fill-opacity="0.05"/><path d=" M 510.169 422.193 L 483.831 422.193 L 497 381.784 L 510.169 422.193 L 510.169 422.193 L 510.169 422.193 L 510.169 422.193 Z " fill="rgb(0,0,0)" fill-opacity="0.1"/><path d=" M 453.126 469.017 L 497 475.906 L 540.874 469.017 L 497 469.017 L 453.126 469.017 L 453.126 469.017 L 453.126 469.017 Z " fill="rgb(0,0,0)" fill-opacity="0.1"/></g></g><path d=" M 657.061 624.795 L 716.152 655.5 L 746.208 552.318 L 704.03 520.05 L 657.061 624.795 L 657.061 624.795 Z " fill="rgb(51,50,50)"/><path d=" M 349 624.795 L 289.909 655.5 L 259.853 552.318 L 302.03 520.05 L 349 624.795 L 349 624.795 Z " fill="rgb(51,50,50)"/><g><path d=" M 222.264 637.028 L 222.264 841.831 L 242.407 1038.028 L 333.72 1038.028 L 353.862 857.725 L 344.462 774.392 L 222.264 637.028 L 222.264 637.028 Z " fill="rgb(117,117,117)"/><path d=" M 274.527 1018.695 L 282.208 703.361 L 222.264 682.695 L 222.264 857.725 L 242.407 1038.028 L 274.527 1038.028 L 274.527 1018.695 L 274.527 1018.695 Z " fill="rgb(0,0,0)" fill-opacity="0.1"/><path d=" M 274.527 1038.028 L 281.617 744.028 L 331.71 763.361 L 314.114 1038.028 L 274.527 1038.028 L 274.527 1038.028 Z " fill="rgb(0,0,0)" fill-opacity="0.15"/><path d=" M 352.09 879.861 L 297.651 879.861 L 222.264 843.164 L 205.378 879.861 L 222.264 932.892 L 297.651 901.073 L 351.257 901.073 L 352.09 879.861 L 352.09 879.861 Z " fill="rgb(40,40,40)"/></g><g><path d=" M 774.427 643.887 L 774.427 848.69 L 756.069 1044.887 L 672.844 1044.887 L 654.485 864.584 L 663.052 781.251 L 774.427 643.887 L 774.427 643.887 Z " fill="rgb(117,117,117)"/><path d=" M 726.793 1025.554 L 719.793 710.22 L 774.427 689.554 L 774.427 864.584 L 756.069 1044.887 L 726.793 1044.887 L 726.793 1025.554 L 726.793 1025.554 Z " fill="rgb(0,0,0)" fill-opacity="0.1"/><path d=" M 726.793 1044.887 L 720.331 750.887 L 674.676 770.22 L 690.713 1044.887 L 726.793 1044.887 L 726.793 1044.887 Z " fill="rgb(0,0,0)" fill-opacity="0.15"/><path d=" M 656.1 886.72 L 705.718 886.72 L 774.427 850.023 L 789.818 886.72 L 774.427 939.751 L 705.718 907.932 L 656.86 907.932 L 656.1 886.72 L 656.1 886.72 Z " fill="rgb(40,40,40)"/></g><g><path d=" M 248.485 736.364 L 374.242 886 L 393.939 943.939 L 374.242 1000 L 631.818 1000 L 609.217 943.939 L 621.401 886 L 754.545 736.364 L 872.727 599 L 584.273 566 L 497.812 599 L 412.428 566 L 136.364 599 L 248.485 736.364 L 248.485 736.364 Z " fill="rgb(128,127,127)"/><path d=" M 374.242 1000 L 393.939 943.939 L 374.242 886 L 248.485 736.364 L 136.364 599 L 248.485 566 L 422 926 L 413.636 1000 L 374.242 1000 L 374.242 1000 Z " fill="rgb(0,0,0)" fill-opacity="0.2"/><path d=" M 630.394 1000 L 609.217 943.939 L 621.401 886 L 754.545 736.364 L 872.727 599 L 754.545 566 L 569.014 926 L 591 1000 L 630.394 1000 L 630.394 1000 Z " fill="rgb(0,0,0)" fill-opacity="0.2"/><path d=" M 413.636 1000 L 455 1000 L 476.056 908.451 L 345.455 540.909 L 248.485 566 L 422 926 L 413.636 1000 L 413.636 1000 Z " fill="rgb(0,0,0)" fill-opacity="0.1"/><path d=" M 591.364 1000 L 550 1000 L 514.085 908.451 L 659.545 540.909 L 754.545 566 L 569.014 926 L 591.364 1000 L 591.364 1000 Z " fill="rgb(0,0,0)" fill-opacity="0.1"/><path d=" M 584.273 890.512 L 406.545 890.512 L 372.242 886 L 384.848 908.451 L 617.31 908.451 L 624.401 886 L 584.273 890.512 L 584.273 890.512 Z " fill="rgb(75,74,74)"/><path d=" M 601.852 959.496 L 398.302 959.496 L 392.405 942.83 L 373.242 974.648 L 624.401 974.648 L 613.706 942.83 L 601.852 959.496 L 601.852 959.496 Z " fill="rgb(75,74,74)"/><path d=" M 429.577 555 L 398.302 574.218 L 413.636 599 L 497.812 623.521 L 569.014 599 L 584.273 573.218 L 569.014 555 L 532.394 547.188 L 540.845 558.188 L 550 573.218 L 494.277 579.333 L 442.254 579.333 L 442.254 566 L 455 548.188 L 429.577 555 L 429.577 555 Z " fill="rgb(103,102,102)"/><path d=" M 494.277 594.43 L 560.563 573.218 L 569.014 558.188 L 532.394 547.188 L 535.845 558.188 L 494.277 573.218 L 448.254 558.188 L 455 547.188 L 422 566 L 442.254 579.333 L 494.277 594.43 L 494.277 594.43 Z " fill="rgb(81,78,78)"/></g><g><path d=" M 276.273 564.167 L 298.18 542.424 L 373.242 661.419 L 312.636 517.07 L 164.152 496.5 L 90.135 547.413 L 73.242 611.409 L 225.788 823 L 276.273 837.5 L 365.242 781 L 276.273 564.167 L 276.273 564.167 Z " fill="rgb(74,74,74)"/><path d=" M 240.909 565.909 L 288.909 529.106 L 174.507 520.05 L 117.311 559.394 L 109.606 610.409 L 221.424 768.579 L 274.242 798.427 L 321.576 743.609 L 240.909 565.909 L 240.909 565.909 Z " fill="rgb(40,40,40)"/></g><g><path d=" M 729.788 564.167 L 707.881 542.424 L 632.818 661.419 L 693.424 517.07 L 841.909 496.5 L 915.926 547.413 L 932.818 611.409 L 780.273 823 L 729.788 837.5 L 640.818 781 L 729.788 564.167 L 729.788 564.167 Z " fill="rgb(74,74,74)"/><path d=" M 765.152 565.909 L 717.152 529.106 L 831.553 520.05 L 888.75 559.394 L 896.455 610.409 L 784.636 768.579 L 731.818 798.427 L 684.485 743.609 L 765.152 565.909 L 765.152 565.909 Z " fill="rgb(40,40,40)"/></g><g><path d=" M 465.152 964.667 L 438 908.667 L 498.485 905.333 L 558.667 908.667 L 537.879 964.667 L 465.152 964.667 L 465.152 964.667 Z " fill="rgb(40,40,40)"/><path d=" M 476.701 954.341 L 459 917.832 L 498.432 915.659 L 537.667 917.832 L 524.114 954.341 L 476.701 954.341 L 476.701 954.341 Z " fill="rgb(125,39,39)"/><path d=" M 498.432 935.5 L 498.432 915.659 L 537.667 917.832 L 524.114 954.341 L 498.485 954.341 L 498.432 935.5 L 498.432 935.5 Z " fill="rgb(0,0,0)" fill-opacity="0.1"/></g><g><path d=" M 595.551 744.209 L 546.786 848.5 L 449.254 848.5 L 400.488 744.209 L 449.254 639.919 L 546.786 639.919 L 595.551 744.209 L 595.551 744.209 Z " fill="rgb(40,40,40)"/><path d=" M 571.169 744.209 L 534.594 822.427 L 461.446 822.427 L 424.871 744.209 L 461.446 665.992 L 534.594 665.992 L 571.169 744.209 L 571.169 744.209 Z " fill="rgb(125,39,39)"/><path d=" M 498.02 744.209 L 498.02 665.992 L 534.594 665.992 L 498.02 744.209 L 498.02 744.209 Z " fill="rgb(0,0,0)" fill-opacity="0.1"/><path d=" M 534.594 822.427 L 498.02 744.209 L 498.02 822.427 L 534.594 822.427 L 534.594 822.427 Z " fill="rgb(255,255,255)" fill-opacity="0.05"/><path d=" M 498.02 744.209 L 498.02 822.427 L 461.446 822.427 L 498.02 744.209 L 498.02 744.209 Z " fill="rgb(0,0,0)" fill-opacity="0.1"/><path d=" M 461.446 665.992 L 498.02 744.209 L 498.02 665.992 L 461.446 665.992 L 461.446 665.992 Z " fill="rgb(255,255,255)" fill-opacity="0.05"/><path d=" M 424.871 744.209 L 498.02 744.209 L 461.446 665.992 L 424.871 744.209 L 424.871 744.209 Z " fill="rgb(0,0,0)" fill-opacity="0.1"/><path d=" M 461.152 822.427 L 424.871 744.209 L 498.02 744.209 L 461.152 822.427 L 461.152 822.427 Z " fill="rgb(255,255,255)" fill-opacity="0.05"/><path d=" M 534.594 822.427 L 498.02 744.209 L 571.169 744.209 L 534.594 822.427 L 534.594 822.427 Z " fill="rgb(0,0,0)" fill-opacity="0.1"/><path d=" M 533.879 665.992 L 498.02 744.209 L 571.169 744.209 L 533.879 665.992 L 533.879 665.992 Z " fill="rgb(255,255,255)" fill-opacity="0.05"/><path d=" M 442.158 673.5 L 379.333 634 L 358 573.239 L 315.493 573.239 L 335.211 639.919 L 422.871 716.152 L 442.158 673.5 L 442.158 673.5 Z " fill="rgb(40,40,40)"/><path d=" M 558.894 673.5 L 628.169 622.535 L 638.894 573.239 L 688.894 573.239 L 663.38 634 L 571.863 718.152 L 558.894 673.5 L 558.894 673.5 Z " fill="rgb(40,40,40)"/><path d=" M 424.871 788 L 358 832 L 347.887 859.155 L 369.014 881.69 L 379.333 848.5 L 443.158 816 L 424.871 788 L 424.871 788 Z " fill="rgb(40,40,40)"/><path d=" M 571.863 788 L 638.734 832 L 655.439 848.5 L 628.169 881.69 L 617.401 848.5 L 553.576 816 L 571.863 788 L 571.863 788 Z " fill="rgb(40,40,40)"/><path d=" M 424.871 722.795 L 477 723.5 L 451 668.5 L 424.871 722.795 L 424.871 722.795 Z " fill="rgb(40,40,40)"/><path d=" M 550 673.5 L 525 723.5 L 580.894 723.5 L 550 673.5 L 550 673.5 Z " fill="rgb(40,40,40)"/><path d=" M 563.5 788 L 525 759.5 L 550 816 L 563.5 788 L 563.5 788 Z " fill="rgb(40,40,40)"/><path d=" M 449.254 816 Q 447.5 813 472.701 759.5 L 431 783.318 Q 451.008 819 449.254 816 Z " fill="rgb(40,40,40)"/><path d=" M 486 832 L 498.02 801.5 L 511 832 L 486 832 L 486 832 Z " fill="rgb(40,40,40)"/><path d=" M 486 657 L 498.02 692.064 L 511 657 L 486 657 L 486 657 Z " fill="rgb(40,40,40)"/></g></g></g></svg>