<?xml version="1.0" encoding="UTF-8" standalone="no"?><!-- Generator: Gravit.io --><svg xmlns="http://www.w3.org/2000/svg" xmlns:xlink="http://www.w3.org/1999/xlink" style="isolation:isolate" viewBox="0 0 1000 1000" width="1000pt" height="1000pt"><defs><clipPath id="_clipPath_GJRISaziQXIG1jEgaGR0AjnildHoFFSz"><rect width="1000" height="1000"/></clipPath></defs><g clip-path="url(#_clipPath_GJRISaziQXIG1jEgaGR0AjnildHoFFSz)"><g><g><path d=" M 491.253 1220.626 L 373.783 1094.119 L 415.952 943.518 L 309.526 620.626 L 373.783 576.048 L 443.265 576.048 L 478.128 489.375 L 512.527 489.375 L 543.265 576.048 L 620.771 576.048 L 690.55 620.626 L 584.626 943.518 L 620.771 1094.119 L 491.253 1220.626 L 491.253 1220.626 L 491.253 1220.626 L 491.253 1220.626 L 491.253 1220.626 Z " fill="rgb(251,210,169)"/><path d=" M 491.253 1220.626 L 497.277 489.375 L 512.527 489.375 L 543.265 576.048 L 620.771 576.048 L 690.55 620.626 L 584.626 943.518 L 620.771 1094.119 L 491.253 1220.626 L 491.253 1220.626 L 491.253 1220.626 L 491.253 1220.626 L 491.253 1220.626 Z " fill="rgb(0,0,0)" fill-opacity="0.07"/><path d=" M 338.265 756.771 L 415.952 831.068 L 497.277 798.939 L 497.277 726.65 L 411.434 576.048 L 373.783 576.048 L 347.679 714.602 L 331.614 726.65 L 338.265 756.771 L 338.265 756.771 L 338.265 756.771 L 338.265 756.771 Z " fill="rgb(106,53,53)"/><path d=" M 663.265 756.771 L 584.124 831.068 L 497.277 798.939 L 485.229 798.939 L 485.229 726.65 L 497.277 726.65 L 584.124 576.048 L 626.293 576.048 L 652.397 714.602 L 668.462 726.65 L 663.265 756.771 L 663.265 756.771 L 663.265 756.771 L 663.265 756.771 Z " fill="rgb(106,53,53)"/><path d=" M 338.265 756.771 L 497.277 798.939 L 415.952 831.068 L 338.265 756.771 L 338.265 756.771 L 338.265 756.771 L 338.265 756.771 Z " fill="rgb(0,0,0)" fill-opacity="0.15"/><path d=" M 663.265 756.771 L 496.932 798.939 L 584.124 831.068 L 663.265 756.771 L 663.265 756.771 L 663.265 756.771 L 663.265 756.771 Z " fill="rgb(0,0,0)" fill-opacity="0.15"/><path d=" M 347.679 714.602 L 496.932 798.939 L 338.265 756.771 L 331.614 726.65 L 347.679 714.602 L 347.679 714.602 L 347.679 714.602 L 347.679 714.602 Z " fill="rgb(0,0,0)" fill-opacity="0.1"/><path d=" M 652.398 714.602 L 497.277 798.939 L 663.265 756.771 L 668.462 726.65 L 652.398 714.602 L 652.398 714.602 L 652.398 714.602 L 652.398 714.602 Z " fill="rgb(0,0,0)" fill-opacity="0.1"/><path d=" M 373.783 576.048 L 477.151 763.137 L 496.932 798.939 L 347.679 714.602 L 373.783 576.048 L 373.783 576.048 L 373.783 576.048 L 373.783 576.048 Z " fill="rgb(255,255,255)" fill-opacity="0.05"/><path d=" M 626.293 576.048 L 496.932 798.626 L 652.398 714.602 L 626.293 576.048 L 626.293 576.048 L 626.293 576.048 L 626.293 576.048 Z " fill="rgb(255,255,255)" fill-opacity="0.05"/></g><g><path d=" M 263.292 671.978 L 263.292 733.277 L 252.813 1008.344 L 290.215 1053 L 335.335 1003.936 L 338.107 797.177 L 345.518 675.995 L 330.239 644.181 L 366.239 584.774 L 268.518 643.906 L 263.292 671.978 L 263.292 671.978 L 263.292 671.978 Z " fill="rgb(251,210,169)"/><path d=" M 290.215 1053 L 335.335 1003.936 L 307.194 620.136 L 290.215 1053 L 290.215 1053 L 290.215 1053 Z " fill="rgb(0,0,0)" fill-opacity="0.1"/><path d=" M 330.239 605.77 L 345.518 675.995 L 338.107 797.177 L 335.335 1003.936 L 307.194 620.136 L 330.239 605.77 L 330.239 605.77 L 330.239 605.77 Z " fill="rgb(0,0,0)" fill-opacity="0.05"/><path d=" M 263.976 675.995 L 263.292 733.277 L 252.813 1008.344 L 290.215 1053 L 295.745 646.388 L 268.518 643.906 L 263.976 675.995 L 263.976 675.995 L 263.976 675.995 Z " fill="rgb(255,255,255)" fill-opacity="0.05"/></g><g><path d=" M 736.784 670.861 L 736.784 731.374 L 747.263 1002.917 L 709.861 1047 L 664.741 998.565 L 661.969 794.455 L 654.558 674.826 L 669.837 643.419 L 633.837 584.774 L 731.558 643.149 L 736.784 670.861 L 736.784 670.861 L 736.784 670.861 Z " fill="rgb(237,199,160)"/><path d=" M 709.861 1047 L 664.741 998.565 L 692.882 619.683 L 709.861 1047 L 709.861 1047 L 709.861 1047 Z " fill="rgb(0,0,0)" fill-opacity="0.1"/><path d=" M 669.837 605.501 L 654.558 674.826 L 661.969 794.455 L 664.741 998.565 L 692.882 619.683 L 669.837 605.501 L 669.837 605.501 L 669.837 605.501 Z " fill="rgb(0,0,0)" fill-opacity="0.05"/><path d=" M 736.1 674.826 L 736.784 731.374 L 747.263 1002.917 L 709.861 1047 L 704.331 645.599 L 731.558 643.149 L 736.1 674.826 L 736.1 674.826 L 736.1 674.826 Z " fill="rgb(255,255,255)" fill-opacity="0.05"/></g><g><path d=" M 388.566 289.662 L 388.566 464.361 L 484.952 536.651 L 515.072 536.651 L 605.434 464.361 L 605.434 289.662 L 539.169 211.349 L 460.855 211.349 L 388.566 289.662 L 388.566 289.662 L 388.566 289.662 L 388.566 289.662 Z " fill="rgb(251,210,169)"/><path d=" M 497 506.531 L 497 289.662 L 460.855 211.349 L 539.169 211.349 L 605.434 289.662 L 605.434 464.361 L 515.072 536.651 L 497 536.651 L 497 506.531 L 497 506.531 L 497 506.531 L 497 506.531 Z " fill="rgb(0,0,0)" fill-opacity="0.07"/><path d=" M 460.855 211.349 L 497 289.662 L 539.169 211.349 L 460.855 211.349 L 460.855 211.349 L 460.855 211.349 L 460.855 211.349 Z " fill="rgb(0,0,0)" fill-opacity="0.05"/><path d=" M 510.169 422.193 L 483.831 422.193 L 497 381.784 L 510.169 422.193 L 510.169 422.193 L 510.169 422.193 Z " fill="rgb(0,0,0)" fill-opacity="0.1"/><path d=" M 453.126 469.017 L 497 475.906 L 540.874 469.017 L 497 469.017 L 453.126 469.017 L 453.126 469.017 Z " fill="rgb(0,0,0)" fill-opacity="0.1"/></g><g><path d=" M 428.005 574.879 L 336 574.879 L 303.03 624.879 L 376 848 L 393.038 932 L 365.467 1036 L 612.258 1030 L 595.432 932 L 616 848 L 692.424 624.879 L 660 574.879 L 546.357 574.879 L 489.871 675.879 L 428.005 574.879 Z " fill="rgb(113,100,92)"/><path d=" M 643.939 587.879 L 520.131 829.879 L 505.337 1007.879 L 551.737 1071.879 L 557.333 848 L 692.424 624.879 L 643.939 587.879 Z " fill="rgb(0,0,0)" fill-opacity="0.05"/><path d=" M 346.97 587.879 L 452.55 829.879 L 467.344 1007.879 L 428.005 1069.333 L 420 848 L 303.03 624.879 L 346.97 587.879 Z " fill="rgb(0,0,0)" fill-opacity="0.05"/><path d=" M 376 848 L 303.03 624.879 L 420 848 L 428.005 1010.667 L 370.667 1024.667 L 393.038 932 L 376 848 Z " fill="rgb(0,0,0)" fill-opacity="0.1"/><path d=" M 616 848 L 692.424 624.879 L 557.333 848 L 553.333 1062.667 L 616 1065.333 L 595.432 932 L 616 848 Z " fill="rgb(0,0,0)" fill-opacity="0.1"/><path d=" M 546.357 574.879 L 482.026 675.879 L 390.348 1058.879 L 407.159 1058.879 L 497.716 702.115 L 575.727 574.879 L 546.357 574.879 Z " fill="rgb(83,47,47)"/><path d=" M 440.909 574.879 L 497.716 683.212 L 489.871 718.879 L 406.061 574.879 L 440.909 574.879 Z " fill="rgb(83,47,47)"/><path d=" M 390.667 921.333 L 488 931.333 L 599.333 921.333 L 596.333 931.333 L 599.333 942 L 488 960.667 L 390.667 942 L 392.667 931.333 L 390.667 921.333 Z " fill="rgb(83,47,47)"/></g><g><path d=" M 221.996 628.32 L 108.75 585.545 L 176.926 700.151 L 282.559 766.348 L 348.916 784.658 L 316.362 679.024 L 221.996 628.32 Z " fill="rgb(55,50,46)"/><path d=" M 202.916 631.545 L 221.996 852.511 L 257.477 1050.667 L 341.714 1046.667 L 348.757 852.511 L 341.714 631.545 L 202.916 631.545 Z " fill="rgb(113,100,92)"/><path d=" M 341.714 631.545 L 268.25 854.777 L 280.25 1055.273 L 341.714 1051.333 L 348.757 854.777 L 341.714 631.545 Z " fill="rgb(0,0,0)" fill-opacity="0.1"/><path d=" M 202.916 631.545 L 268.25 850.494 L 282.559 1051.333 L 258.144 1050 L 221.996 852.511 L 202.916 631.545 Z " fill="rgb(255,255,255)" fill-opacity="0.05"/><path d=" M 385.376 642.405 L 341.714 576.207 L 202.916 548.545 L 108.75 585.545 L 212.841 638.883 L 248.757 679.024 L 333.264 766.348 L 348.757 784.658 L 385.376 642.405 Z " fill="rgb(98,84,75)"/><path d=" M 349.098 854.777 L 348.757 812.667 L 268.25 852.511 L 218.25 811 L 221.996 852.511 L 227.81 875.191 L 273.677 913.333 L 346.757 875.191 L 349.098 854.777 Z " fill="rgb(83,47,47)"/><path d=" M 349.098 854.777 L 268.25 875.191 L 227.81 875.191 L 273.677 913.333 L 346.757 875.191 L 349.098 854.777 Z " fill="rgb(0,0,0)" fill-opacity="0.1"/><path d=" M 348.757 784.658 L 385.376 642.405 L 341.714 576.207 L 348.757 784.658 Z " fill="rgb(0,0,0)" fill-opacity="0.1"/><path d=" M 209.583 636.545 L 341.714 576.207 L 348.757 784.658 L 209.583 636.545 Z " fill="rgb(0,0,0)" fill-opacity="0.05"/><path d=" M 341.714 576.207 L 202.916 548.545 L 108.25 585.212 L 209.583 636.545 L 341.714 576.207 Z " fill="rgb(255,255,255)" fill-opacity="0.05"/><path d=" M 349.098 782.545 L 349.098 795.879 L 202.128 643.152 L 115.75 598.045 L 110.75 587.045 L 214.25 632.545 L 349.098 782.545 Z " fill="rgb(83,47,47)"/></g><g><path d=" M 773.814 628.32 L 887.061 585.545 L 818.885 700.151 L 713.251 766.348 L 646.894 784.658 L 679.448 679.024 L 773.814 628.32 Z " fill="rgb(55,50,46)"/><path d=" M 792.894 631.545 L 773.814 852.511 L 738.333 1050.667 L 654.096 1046.667 L 647.054 852.511 L 654.096 631.545 L 792.894 631.545 Z " fill="rgb(113,100,92)"/><path d=" M 654.096 631.545 L 727.561 854.777 L 715.561 1055.273 L 654.096 1051.333 L 647.054 854.777 L 654.096 631.545 Z " fill="rgb(0,0,0)" fill-opacity="0.1"/><path d=" M 792.894 631.545 L 727.561 850.494 L 713.251 1051.333 L 737.667 1050 L 773.814 852.511 L 792.894 631.545 Z " fill="rgb(255,255,255)" fill-opacity="0.05"/><path d=" M 610.434 642.405 L 654.096 576.207 L 792.894 548.545 L 887.061 585.545 L 782.969 638.883 L 747.054 679.024 L 662.547 766.348 L 647.054 784.658 L 610.434 642.405 Z " fill="rgb(98,84,75)"/><path d=" M 646.712 854.777 L 647.054 812.667 L 727.561 852.511 L 777.561 811 L 773.814 852.511 L 768 875.191 L 722.133 913.333 L 649.054 875.191 L 646.712 854.777 Z " fill="rgb(83,47,47)"/><path d=" M 646.712 854.777 L 727.561 875.191 L 768 875.191 L 722.133 913.333 L 649.054 875.191 L 646.712 854.777 Z " fill="rgb(0,0,0)" fill-opacity="0.1"/><path d=" M 647.054 784.658 L 610.434 642.405 L 654.096 576.207 L 647.054 784.658 Z " fill="rgb(0,0,0)" fill-opacity="0.1"/><path d=" M 786.227 636.545 L 654.096 576.207 L 647.054 784.658 L 786.227 636.545 Z " fill="rgb(0,0,0)" fill-opacity="0.05"/><path d=" M 654.096 576.207 L 792.894 548.545 L 887.561 585.212 L 786.227 636.545 L 654.096 576.207 Z " fill="rgb(255,255,255)" fill-opacity="0.05"/><path d=" M 646.712 782.545 L 646.712 795.879 L 793.682 643.152 L 880.061 598.045 L 885.061 587.045 L 781.561 632.545 L 646.712 782.545 Z " fill="rgb(83,47,47)"/></g></g></g></svg>