<?xml version="1.0" encoding="UTF-8" standalone="no"?><!-- Generator: Gravit.io --><svg xmlns="http://www.w3.org/2000/svg" xmlns:xlink="http://www.w3.org/1999/xlink" style="isolation:isolate" viewBox="0 0 1000 1000" width="1000pt" height="1000pt"><defs><clipPath id="_clipPath_IrC2u3frgl8aKiv48E9CYyr0JfNkWgyr"><rect width="1000" height="1000"/></clipPath></defs><g clip-path="url(#_clipPath_IrC2u3frgl8aKiv48E9CYyr0JfNkWgyr)"><rect width="1000" height="1000" style="fill:rgb(0,0,0)" fill-opacity="0"/><g><path d=" M 491.253 1220.626 L 373.783 1094.119 L 415.952 943.518 L 309.526 620.626 L 373.783 576.048 L 443.265 576.048 L 478.128 489.375 L 512.527 489.375 L 543.265 576.048 L 620.771 576.048 L 690.55 620.626 L 584.626 943.518 L 620.771 1094.119 L 491.253 1220.626 L 491.253 1220.626 L 491.253 1220.626 L 491.253 1220.626 L 491.253 1220.626 Z " fill="rgb(251,210,169)"/><path d=" M 491.253 1220.626 L 497.277 489.375 L 512.527 489.375 L 543.265 576.048 L 620.771 576.048 L 690.55 620.626 L 584.626 943.518 L 620.771 1094.119 L 491.253 1220.626 L 491.253 1220.626 L 491.253 1220.626 L 491.253 1220.626 L 491.253 1220.626 Z " fill="rgb(0,0,0)" fill-opacity="0.07"/><path d=" M 338.265 756.771 L 415.952 831.068 L 497.277 798.939 L 497.277 726.65 L 411.434 576.048 L 373.783 576.048 L 347.679 714.602 L 331.614 726.65 L 338.265 756.771 L 338.265 756.771 L 338.265 756.771 L 338.265 756.771 Z " fill="rgb(106,53,53)"/><path d=" M 663.265 756.771 L 584.124 831.068 L 497.277 798.939 L 485.229 798.939 L 485.229 726.65 L 497.277 726.65 L 584.124 576.048 L 626.293 576.048 L 652.397 714.602 L 668.462 726.65 L 663.265 756.771 L 663.265 756.771 L 663.265 756.771 L 663.265 756.771 Z " fill="rgb(106,53,53)"/><path d=" M 338.265 756.771 L 497.277 798.939 L 415.952 831.068 L 338.265 756.771 L 338.265 756.771 L 338.265 756.771 L 338.265 756.771 Z " fill="rgb(0,0,0)" fill-opacity="0.15"/><path d=" M 663.265 756.771 L 496.932 798.939 L 584.124 831.068 L 663.265 756.771 L 663.265 756.771 L 663.265 756.771 L 663.265 756.771 Z " fill="rgb(0,0,0)" fill-opacity="0.15"/><path d=" M 347.679 714.602 L 496.932 798.939 L 338.265 756.771 L 331.614 726.65 L 347.679 714.602 L 347.679 714.602 L 347.679 714.602 L 347.679 714.602 Z " fill="rgb(0,0,0)" fill-opacity="0.1"/><path d=" M 652.398 714.602 L 497.277 798.939 L 663.265 756.771 L 668.462 726.65 L 652.398 714.602 L 652.398 714.602 L 652.398 714.602 L 652.398 714.602 Z " fill="rgb(0,0,0)" fill-opacity="0.1"/><path d=" M 373.783 576.048 L 477.151 763.137 L 496.932 798.939 L 347.679 714.602 L 373.783 576.048 L 373.783 576.048 L 373.783 576.048 L 373.783 576.048 Z " fill="rgb(255,255,255)" fill-opacity="0.05"/><path d=" M 626.293 576.048 L 496.932 798.626 L 652.398 714.602 L 626.293 576.048 L 626.293 576.048 L 626.293 576.048 L 626.293 576.048 Z " fill="rgb(255,255,255)" fill-opacity="0.05"/></g><g><path d=" M 263.292 671.978 L 263.292 733.277 L 252.813 1008.344 L 290.215 1053 L 335.335 1003.936 L 338.107 797.177 L 345.518 675.995 L 330.239 644.181 L 366.239 584.774 L 268.518 643.906 L 263.292 671.978 L 263.292 671.978 L 263.292 671.978 Z " fill="rgb(251,210,169)"/><path d=" M 290.215 1053 L 335.335 1003.936 L 307.194 620.136 L 290.215 1053 L 290.215 1053 L 290.215 1053 Z " fill="rgb(0,0,0)" fill-opacity="0.1"/><path d=" M 330.239 605.77 L 345.518 675.995 L 338.107 797.177 L 335.335 1003.936 L 307.194 620.136 L 330.239 605.77 L 330.239 605.77 L 330.239 605.77 Z " fill="rgb(0,0,0)" fill-opacity="0.05"/><path d=" M 263.976 675.995 L 263.292 733.277 L 252.813 1008.344 L 290.215 1053 L 295.745 646.388 L 268.518 643.906 L 263.976 675.995 L 263.976 675.995 L 263.976 675.995 Z " fill="rgb(255,255,255)" fill-opacity="0.05"/></g><g><path d=" M 736.784 670.861 L 736.784 731.374 L 747.263 1002.917 L 709.861 1047 L 664.741 998.565 L 661.969 794.455 L 654.558 674.826 L 669.837 643.419 L 633.837 584.774 L 731.558 643.149 L 736.784 670.861 L 736.784 670.861 L 736.784 670.861 Z " fill="rgb(237,199,160)"/><path d=" M 709.861 1047 L 664.741 998.565 L 692.882 619.683 L 709.861 1047 L 709.861 1047 L 709.861 1047 Z " fill="rgb(0,0,0)" fill-opacity="0.1"/><path d=" M 669.837 605.501 L 654.558 674.826 L 661.969 794.455 L 664.741 998.565 L 692.882 619.683 L 669.837 605.501 L 669.837 605.501 L 669.837 605.501 Z " fill="rgb(0,0,0)" fill-opacity="0.05"/><path d=" M 736.1 674.826 L 736.784 731.374 L 747.263 1002.917 L 709.861 1047 L 704.331 645.599 L 731.558 643.149 L 736.1 674.826 L 736.1 674.826 L 736.1 674.826 Z " fill="rgb(255,255,255)" fill-opacity="0.05"/></g><g><path d=" M 388.566 289.662 L 388.566 464.361 L 484.952 536.651 L 515.072 536.651 L 605.434 464.361 L 605.434 289.662 L 539.169 211.349 L 460.855 211.349 L 388.566 289.662 L 388.566 289.662 L 388.566 289.662 L 388.566 289.662 Z " fill="rgb(251,210,169)"/><path d=" M 497 506.531 L 497 289.662 L 460.855 211.349 L 539.169 211.349 L 605.434 289.662 L 605.434 464.361 L 515.072 536.651 L 497 536.651 L 497 506.531 L 497 506.531 L 497 506.531 L 497 506.531 Z " fill="rgb(0,0,0)" fill-opacity="0.07"/><path d=" M 460.855 211.349 L 497 289.662 L 539.169 211.349 L 460.855 211.349 L 460.855 211.349 L 460.855 211.349 L 460.855 211.349 Z " fill="rgb(0,0,0)" fill-opacity="0.05"/><path d=" M 510.169 422.193 L 483.831 422.193 L 497 381.784 L 510.169 422.193 L 510.169 422.193 L 510.169 422.193 Z " fill="rgb(0,0,0)" fill-opacity="0.1"/><path d=" M 453.126 469.017 L 497 475.906 L 540.874 469.017 L 497 469.017 L 453.126 469.017 L 453.126 469.017 Z " fill="rgb(0,0,0)" fill-opacity="0.1"/></g><g><path d=" M 359.026 657.576 L 335.026 637.333 L 282.167 624.242 L 257 637.333 L 251 708.451 L 243.026 1000 L 346.97 1000 L 346.97 810 L 359.026 680 L 359.026 657.576 Z " fill="rgb(255,244,219)"/><path d=" M 346.97 785.333 L 320 637.333 L 278.026 637.333 L 346.97 1000 L 346.97 785.333 Z " fill="rgb(0,0,0)" fill-opacity="0.15"/><path d=" M 266 1000 L 243.026 1000 L 251 708.451 L 257 637.333 L 278.026 637.333 L 266 1000 Z " fill="rgb(0,0,0)" fill-opacity="0.08"/><path d=" M 278.026 637.333 L 266 1000 L 346.97 1000 L 278.026 637.333 Z " fill="rgb(0,0,0)" fill-opacity="0.1"/></g><g><path d=" M 633.837 657.576 L 657.837 637.333 L 710.696 624.242 L 735.863 637.333 L 741.863 708.451 L 749.837 1000 L 645.893 1000 L 645.893 810 L 633.837 680 L 633.837 657.576 Z " fill="rgb(255,244,219)"/><path d=" M 645.893 785.333 L 672.863 637.333 L 714.837 637.333 L 645.893 1000 L 645.893 785.333 Z " fill="rgb(0,0,0)" fill-opacity="0.15"/><path d=" M 726.863 1000 L 749.837 1000 L 741.863 708.451 L 735.863 637.333 L 714.837 637.333 L 726.863 1000 Z " fill="rgb(0,0,0)" fill-opacity="0.08"/><path d=" M 714.837 637.333 L 726.863 1000 L 645.893 1000 L 714.837 637.333 Z " fill="rgb(0,0,0)" fill-opacity="0.1"/></g><g><path d=" M 498.304 590 L 436 567.201 L 379.2 567.201 L 316 612 L 340 774 L 396 949.387 L 379.2 1000 L 615.848 1000 L 599.048 949.387 L 661 774 L 679.048 612 L 614.548 567.201 L 556.421 567.201 L 498.304 590 Z " fill="rgb(255,244,219)"/><path d=" M 419.69 1000 L 436 949.387 L 350 588 L 316 612 L 340 774 L 396 949.387 L 379.2 1000 L 419.69 1000 Z " fill="rgb(0,0,0)" fill-opacity="0.2"/><path d=" M 350 588 L 379.2 567.201 L 467 949.387 L 449.628 1000 L 419.69 1000 L 436 949.387 L 350 588 Z " fill="rgb(0,0,0)" fill-opacity="0.1"/><path d=" M 575.358 1000 L 559.048 949.387 L 645.048 588 L 679.048 612 L 661 774 L 599.048 949.387 L 615.848 1000 L 575.358 1000 Z " fill="rgb(0,0,0)" fill-opacity="0.2"/><path d=" M 645.048 588 L 615.848 567.201 L 528.048 949.387 L 545.421 1000 L 575.358 1000 L 559.048 949.387 L 645.048 588 Z " fill="rgb(0,0,0)" fill-opacity="0.1"/><g><path d=" M 378 908.023 L 424.867 923.847 L 447.614 908.023 L 537.613 908.023 L 555.415 923.847 L 623.657 908.023 L 602 950 L 620.5 1000 L 378 1000 L 395 950 L 378 908.023 Z " fill="rgb(181,165,130)"/><path d=" M 399.153 935.905 L 436.611 935.905 L 455.757 922.586 L 531.506 922.586 L 546.489 935.905 L 598.931 935.905 L 588.126 966.703 L 607.5 1000 L 398.886 1000 L 410.121 966.703 L 399.153 935.905 Z " fill="rgb(221,207,173)"/><path d=" M 398.886 935.749 L 410.121 966.703 L 398.886 1000 L 407.5 1000 L 424.867 966.703 L 410.121 943.474 L 438.56 943.474 L 457.168 931.887 L 531.6 931.887 L 543.537 943.474 L 588.126 943.474 L 572.327 966.703 L 598.931 1000 L 607.5 1000 L 588.126 966.703 L 599.361 935.749 L 546.697 935.905 L 531.6 922.586 L 455.757 922.586 L 436.611 935.749 L 398.886 935.749 Z " fill="rgb(0,0,0)" fill-opacity="0.1"/></g><path d=" M 498.304 863.346 L 737 637.057 L 722 642 L 498.304 744.369 L 257 637.057 L 498.304 863.346 Z " fill="rgb(0,0,0)" fill-opacity="0.2"/><path d=" M 257 637.057 L 498.304 850.693 L 737 637.057 L 722 629.667 L 498.304 738.08 L 269.953 623.265 L 257 637.057 Z " fill="rgb(221,207,173)"/><path d=" M 269.953 623.265 L 498.304 755.794 L 723.667 629.667 L 671.488 623.265 L 498.304 673.878 L 332.383 623.265 L 269.953 623.265 Z " fill="rgb(0,0,0)" fill-opacity="0.1"/><path d=" M 269.953 623.265 L 498.304 738.08 L 723.667 629.667 L 702.333 619.667 L 498.304 668.487 L 289 612 L 269.953 623.265 Z " fill="rgb(238,222,186)"/><path d=" M 289 612 L 498.304 698.146 L 702.333 619.667 L 584.182 570.286 L 498.304 594.328 L 419.69 570.286 L 289 612 Z " fill="rgb(0,0,0)" fill-opacity="0.1"/><path d=" M 379.2 567.201 L 289 612 L 498.304 685.569 L 702.333 619.667 L 615.848 567.201 L 541 564.5 L 498.304 586.242 L 447 564.5 L 379.2 567.201 Z " fill="rgb(255,244,219)"/><path d=" M 447 564.5 L 498.304 597.528 L 541 564.5 L 498.304 586.242 L 447 564.5 Z " fill="rgb(0,0,0)" fill-opacity="0.3"/></g></g></svg>