<?xml version="1.0" encoding="UTF-8" standalone="no"?><!-- Generator: Gravit.io --><svg xmlns="http://www.w3.org/2000/svg" xmlns:xlink="http://www.w3.org/1999/xlink" style="isolation:isolate" viewBox="0 0 1000 1000" width="1000pt" height="1000pt"><defs><clipPath id="_clipPath_sdAbOwRuH3hoODGIxp7pe84fe3qNonLR"><rect width="1000" height="1000"/></clipPath></defs><g clip-path="url(#_clipPath_sdAbOwRuH3hoODGIxp7pe84fe3qNonLR)"><g><path d=" M 491.253 1220.626 L 373.783 1094.119 L 415.952 943.518 L 309.526 620.626 L 373.783 576.048 L 443.265 576.048 L 478.128 489.375 L 512.527 489.375 L 543.265 576.048 L 620.771 576.048 L 690.55 620.626 L 584.626 943.518 L 620.771 1094.119 L 491.253 1220.626 L 491.253 1220.626 L 491.253 1220.626 L 491.253 1220.626 L 491.253 1220.626 Z " fill="rgb(251,210,169)"/><path d=" M 491.253 1220.626 L 497.277 489.375 L 512.527 489.375 L 543.265 576.048 L 620.771 576.048 L 690.55 620.626 L 584.626 943.518 L 620.771 1094.119 L 491.253 1220.626 L 491.253 1220.626 L 491.253 1220.626 L 491.253 1220.626 L 491.253 1220.626 Z " fill="rgb(0,0,0)" fill-opacity="0.07"/><path d=" M 338.265 756.771 L 415.952 831.068 L 497.277 798.939 L 497.277 726.65 L 411.434 576.048 L 373.783 576.048 L 347.679 714.602 L 331.614 726.65 L 338.265 756.771 L 338.265 756.771 L 338.265 756.771 L 338.265 756.771 Z " fill="rgb(106,53,53)"/><path d=" M 663.265 756.771 L 584.124 831.068 L 497.277 798.939 L 485.229 798.939 L 485.229 726.65 L 497.277 726.65 L 584.124 576.048 L 626.293 576.048 L 652.397 714.602 L 668.462 726.65 L 663.265 756.771 L 663.265 756.771 L 663.265 756.771 L 663.265 756.771 Z " fill="rgb(106,53,53)"/><path d=" M 338.265 756.771 L 497.277 798.939 L 415.952 831.068 L 338.265 756.771 L 338.265 756.771 L 338.265 756.771 L 338.265 756.771 Z " fill="rgb(0,0,0)" fill-opacity="0.15"/><path d=" M 663.265 756.771 L 496.932 798.939 L 584.124 831.068 L 663.265 756.771 L 663.265 756.771 L 663.265 756.771 L 663.265 756.771 Z " fill="rgb(0,0,0)" fill-opacity="0.15"/><path d=" M 347.679 714.602 L 496.932 798.939 L 338.265 756.771 L 331.614 726.65 L 347.679 714.602 L 347.679 714.602 L 347.679 714.602 L 347.679 714.602 Z " fill="rgb(0,0,0)" fill-opacity="0.1"/><path d=" M 652.398 714.602 L 497.277 798.939 L 663.265 756.771 L 668.462 726.65 L 652.398 714.602 L 652.398 714.602 L 652.398 714.602 L 652.398 714.602 Z " fill="rgb(0,0,0)" fill-opacity="0.1"/><path d=" M 373.783 576.048 L 477.151 763.137 L 496.932 798.939 L 347.679 714.602 L 373.783 576.048 L 373.783 576.048 L 373.783 576.048 L 373.783 576.048 Z " fill="rgb(255,255,255)" fill-opacity="0.05"/><path d=" M 626.293 576.048 L 496.932 798.626 L 652.398 714.602 L 626.293 576.048 L 626.293 576.048 L 626.293 576.048 L 626.293 576.048 Z " fill="rgb(255,255,255)" fill-opacity="0.05"/></g><g><path d=" M 263.292 671.978 L 263.292 733.277 L 252.813 1008.344 L 290.215 1053 L 335.335 1003.936 L 338.107 797.177 L 345.518 675.995 L 330.239 644.181 L 366.239 584.774 L 268.518 643.906 L 263.292 671.978 L 263.292 671.978 L 263.292 671.978 Z " fill="rgb(251,210,169)"/><path d=" M 290.215 1053 L 335.335 1003.936 L 307.194 620.136 L 290.215 1053 L 290.215 1053 L 290.215 1053 Z " fill="rgb(0,0,0)" fill-opacity="0.1"/><path d=" M 330.239 605.77 L 345.518 675.995 L 338.107 797.177 L 335.335 1003.936 L 307.194 620.136 L 330.239 605.77 L 330.239 605.77 L 330.239 605.77 Z " fill="rgb(0,0,0)" fill-opacity="0.05"/><path d=" M 263.976 675.995 L 263.292 733.277 L 252.813 1008.344 L 290.215 1053 L 295.745 646.388 L 268.518 643.906 L 263.976 675.995 L 263.976 675.995 L 263.976 675.995 Z " fill="rgb(255,255,255)" fill-opacity="0.05"/></g><g><path d=" M 736.784 670.861 L 736.784 731.374 L 747.263 1002.917 L 709.861 1047 L 664.741 998.565 L 661.969 794.455 L 654.558 674.826 L 669.837 643.419 L 633.837 584.774 L 731.558 643.149 L 736.784 670.861 L 736.784 670.861 L 736.784 670.861 Z " fill="rgb(237,199,160)"/><path d=" M 709.861 1047 L 664.741 998.565 L 692.882 619.683 L 709.861 1047 L 709.861 1047 L 709.861 1047 Z " fill="rgb(0,0,0)" fill-opacity="0.1"/><path d=" M 669.837 605.501 L 654.558 674.826 L 661.969 794.455 L 664.741 998.565 L 692.882 619.683 L 669.837 605.501 L 669.837 605.501 L 669.837 605.501 Z " fill="rgb(0,0,0)" fill-opacity="0.05"/><path d=" M 736.1 674.826 L 736.784 731.374 L 747.263 1002.917 L 709.861 1047 L 704.331 645.599 L 731.558 643.149 L 736.1 674.826 L 736.1 674.826 L 736.1 674.826 Z " fill="rgb(255,255,255)" fill-opacity="0.05"/></g><g><path d=" M 388.566 289.662 L 388.566 464.361 L 484.952 536.651 L 515.072 536.651 L 605.434 464.361 L 605.434 289.662 L 539.169 211.349 L 460.855 211.349 L 388.566 289.662 L 388.566 289.662 L 388.566 289.662 L 388.566 289.662 Z " fill="rgb(251,210,169)"/><path d=" M 497 506.531 L 497 289.662 L 460.855 211.349 L 539.169 211.349 L 605.434 289.662 L 605.434 464.361 L 515.072 536.651 L 497 536.651 L 497 506.531 L 497 506.531 L 497 506.531 L 497 506.531 Z " fill="rgb(0,0,0)" fill-opacity="0.07"/><path d=" M 460.855 211.349 L 497 289.662 L 539.169 211.349 L 460.855 211.349 L 460.855 211.349 L 460.855 211.349 L 460.855 211.349 Z " fill="rgb(0,0,0)" fill-opacity="0.05"/><path d=" M 510.169 422.193 L 483.831 422.193 L 497 381.784 L 510.169 422.193 L 510.169 422.193 L 510.169 422.193 Z " fill="rgb(0,0,0)" fill-opacity="0.1"/><path d=" M 453.126 469.017 L 497 475.906 L 540.874 469.017 L 497 469.017 L 453.126 469.017 L 453.126 469.017 Z " fill="rgb(0,0,0)" fill-opacity="0.1"/></g><g><path d=" M 246 463 L 330 463 L 360 492 L 398 590.636 L 345 626 L 246 463 Z " fill="rgb(74,71,71)"/><path d=" M 746 469 L 662 469 L 632 498 L 594 596.636 L 647 632 L 746 469 Z " fill="rgb(74,71,71)"/><path d=" M 371.212 1002 L 398 913.636 L 192.424 705.03 L 360 572.727 L 439.394 572.727 L 499.997 657 L 541.997 572.727 L 622 572.727 L 819.697 705.03 L 604 906.794 L 639.394 1002 L 639.394 1124.727 L 371.212 1132.303 L 371.212 1002 Z " fill="rgb(155,155,155)"/><path d=" M 192 706 L 398 913.636 L 351 1061 L 441 1116 L 480 1117 L 439.394 888 L 294 626 L 192 706 Z " fill="rgb(0,0,0)" fill-opacity="0.15"/><path d=" M 820 706 L 604 906.794 L 662 1060 L 571 1116 L 532 1117 L 569 881 L 716 637 L 820 706 Z " fill="rgb(0,0,0)" fill-opacity="0.15"/><path d=" M 294 626 L 439.394 888 L 480 1116 L 504 1116 L 469.68 881 L 345 584 L 294 626 Z " fill="rgb(0,0,0)" fill-opacity="0.1"/><path d=" M 716 637 L 569 881 L 532 1116 L 504.515 1113.636 L 533 881 L 656 596.636 L 716 637 Z " fill="rgb(0,0,0)" fill-opacity="0.1"/><path d=" M 246 463 L 351 671 L 469.68 718 L 500 965 L 528.444 718 L 656 671 L 746 469 L 645 529 L 622 626 L 604 644 L 500 671 L 398 644 L 377 626 L 345 509 L 246 463 Z " fill="rgb(130,130,130)"/><path d=" M 500 965 L 528.444 718 L 656 671 L 746 469 L 645 529 L 622 626 L 604 644 L 500 671 L 500 965 Z " fill="rgb(0,0,0)" fill-opacity="0.19"/><path d=" M 246 463 L 351 671 L 469.68 718 L 500 965 L 500 671 L 398 644 L 377 626 L 345 509 L 246 463 Z " fill="rgb(0,0,0)" fill-opacity="0.06"/><path d=" M 410.997 572.727 L 499.997 671.333 L 575 572.727 L 541.997 572.727 L 501.515 657 L 439.394 572.727 L 410.997 572.727 Z " fill="rgb(0,0,0)" fill-opacity="0.1"/><path d=" M 499.997 682.667 L 510.515 690.098 L 510.515 699.76 L 499.997 705.333 L 491 699.76 L 491 690.098 L 499.997 682.667 Z " fill="rgb(244,244,244)"/><path d=" M 541.997 671.333 L 552.515 678.765 L 552.515 688.426 L 541.997 694 L 533 688.426 L 533 678.765 L 541.997 671.333 Z " fill="rgb(244,244,244)"/><path d=" M 455.997 671.333 L 466.515 678.765 L 466.515 688.426 L 455.997 694 L 447 688.426 L 447 678.765 L 455.997 671.333 Z " fill="rgb(244,244,244)"/><path d=" M 410.997 660 L 421.515 667.432 L 421.515 677.093 L 410.997 682.667 L 402 677.093 L 402 667.432 L 410.997 660 Z " fill="rgb(244,244,244)"/><path d=" M 583.997 660 L 594.515 667.432 L 594.515 677.093 L 583.997 682.667 L 575 677.093 L 575 667.432 L 583.997 660 Z " fill="rgb(244,244,244)"/></g><g><path d=" M 218.025 863.263 L 241 985.005 L 332.182 1246.957 L 348.931 1155.429 L 350.881 967.611 L 358.537 809 L 218.025 863.263 Z " fill="rgb(147,147,147)"/><path d=" M 359.879 816.31 L 351.121 967.611 L 347.948 1155.609 L 300.281 1159.276 L 280.508 823.325 L 359.879 816.31 Z " fill="rgb(0,0,0)" fill-opacity="0.1"/><path d=" M 333 929.545 L 400.336 809 L 369.636 685.098 L 342.758 677.667 L 304 619 L 60.182 529.545 L 108.667 641 L 70 774 L 108.667 885 L 282 850 L 333 929.545 Z " fill="rgb(121,121,121)"/><path d=" M 370.396 774.333 L 359.879 781.765 L 359.879 791.426 L 370.396 797 L 379.394 791.426 L 379.394 781.765 L 370.396 774.333 Z " fill="rgb(244,244,244)"/><path d=" M 361.639 728.667 L 351.121 736.098 L 351.121 745.76 L 361.639 751.333 L 370.636 745.76 L 370.636 736.098 L 361.639 728.667 Z " fill="rgb(244,244,244)"/><path d=" M 350.881 690.667 L 340.364 698.098 L 340.364 707.76 L 350.881 713.333 L 359.879 707.76 L 359.879 698.098 L 350.881 690.667 Z " fill="rgb(244,244,244)"/><path d=" M 355.639 822 L 345.121 829.432 L 345.121 839.093 L 355.639 844.667 L 364.636 839.093 L 364.636 829.432 L 355.639 822 Z " fill="rgb(244,244,244)"/><path d=" M 331.76 856 L 321.242 863.432 L 321.242 873.093 L 331.76 878.667 L 340.758 873.093 L 340.758 863.432 L 331.76 856 Z " fill="rgb(244,244,244)"/><path d=" M 60.182 529.545 L 255 678.03 L 342.758 677.667 L 304 619 L 60.182 529.545 Z " fill="rgb(0,0,0)" fill-opacity="0.1"/><path d=" M 109 642 L 60.182 529.545 L 255 677.667 L 282 850 L 109 642 Z " fill="rgb(255,255,255)" fill-opacity="0.05"/><path d=" M 343 677.667 L 282 850 L 255 678.03 L 343 677.667 Z " fill="rgb(0,0,0)" fill-opacity="0.15"/><path d=" M 282 850 L 108.667 885 L 70 774.333 L 220 776 L 282 850 Z " fill="rgb(0,0,0)" fill-opacity="0.15"/></g><g><path d=" M 786.462 870.369 L 763.487 992.11 L 672.305 1254.063 L 655.556 1162.534 L 653.606 974.716 L 645.95 816.106 L 786.462 870.369 Z " fill="rgb(147,147,147)"/><path d=" M 644.609 823.415 L 653.366 974.716 L 656.54 1162.715 L 704.207 1166.382 L 723.98 830.43 L 644.609 823.415 Z " fill="rgb(0,0,0)" fill-opacity="0.1"/><path d=" M 671.487 936.651 L 604.152 816.106 L 634.851 692.204 L 661.73 684.772 L 700.487 626.106 L 944.306 536.651 L 895.821 648.106 L 934.487 781.106 L 895.821 892.106 L 722.487 857.106 L 671.487 936.651 Z " fill="rgb(121,121,121)"/><path d=" M 634.091 781.439 L 644.609 788.871 L 644.609 798.532 L 634.091 804.106 L 625.093 798.532 L 625.093 788.871 L 634.091 781.439 Z " fill="rgb(244,244,244)"/><path d=" M 642.848 735.772 L 653.366 743.204 L 653.366 752.865 L 642.848 758.439 L 633.851 752.865 L 633.851 743.204 L 642.848 735.772 Z " fill="rgb(244,244,244)"/><path d=" M 653.606 697.772 L 664.124 705.204 L 664.124 714.865 L 653.606 720.439 L 644.609 714.865 L 644.609 705.204 L 653.606 697.772 Z " fill="rgb(244,244,244)"/><path d=" M 648.848 829.106 L 659.366 836.537 L 659.366 846.198 L 648.848 851.772 L 639.851 846.198 L 639.851 836.537 L 648.848 829.106 Z " fill="rgb(244,244,244)"/><path d=" M 672.727 863.106 L 683.245 870.537 L 683.245 880.198 L 672.727 885.772 L 663.73 880.198 L 663.73 870.537 L 672.727 863.106 Z " fill="rgb(244,244,244)"/><path d=" M 944.306 536.651 L 749.487 685.136 L 661.73 684.772 L 700.487 626.106 L 944.306 536.651 Z " fill="rgb(0,0,0)" fill-opacity="0.1"/><path d=" M 895.487 649.106 L 944.306 536.651 L 749.487 684.772 L 722.487 857.106 L 895.487 649.106 Z " fill="rgb(255,255,255)" fill-opacity="0.05"/><path d=" M 661.487 684.772 L 722.487 857.106 L 749.487 685.136 L 661.487 684.772 Z " fill="rgb(0,0,0)" fill-opacity="0.15"/><path d=" M 722.487 857.106 L 895.821 892.106 L 934.487 781.439 L 784.487 783.106 L 722.487 857.106 Z " fill="rgb(0,0,0)" fill-opacity="0.15"/></g></g></svg>