<?xml version="1.0" encoding="UTF-8" standalone="no"?><!-- Generator: Gravit.io --><svg xmlns="http://www.w3.org/2000/svg" xmlns:xlink="http://www.w3.org/1999/xlink" style="isolation:isolate" viewBox="0 0 1000 1000" width="1000pt" height="1000pt"><defs><clipPath id="_clipPath_40wQRKZ0bsl0j2CTbpHe3PPiAv4vr5rM"><rect width="1000" height="1000"/></clipPath></defs><g clip-path="url(#_clipPath_40wQRKZ0bsl0j2CTbpHe3PPiAv4vr5rM)"><rect width="1000" height="1000" style="fill:rgb(0,0,0)" fill-opacity="0"/><path d=" M 363 620 L 344 1000 L 652 1000 L 619 620 L 363 620 Z " fill="rgb(7,36,10)"/><g><g><path d=" M 491.253 1220.626 L 373.783 1094.119 L 415.952 943.518 L 309.526 620.626 L 373.783 576.048 L 443.265 576.048 L 478.128 489.375 L 512.527 489.375 L 543.265 576.048 L 620.771 576.048 L 690.55 620.626 L 584.626 943.518 L 620.771 1094.119 L 491.253 1220.626 L 491.253 1220.626 L 491.253 1220.626 L 491.253 1220.626 L 491.253 1220.626 Z " fill="rgb(251,210,169)"/><path d=" M 491.253 1220.626 L 497.277 489.375 L 512.527 489.375 L 543.265 576.048 L 620.771 576.048 L 690.55 620.626 L 584.626 943.518 L 620.771 1094.119 L 491.253 1220.626 L 491.253 1220.626 L 491.253 1220.626 L 491.253 1220.626 L 491.253 1220.626 Z " fill="rgb(0,0,0)" fill-opacity="0.07"/><path d=" M 338.265 756.771 L 415.952 831.068 L 497.277 798.939 L 497.277 726.65 L 411.434 576.048 L 373.783 576.048 L 347.679 714.602 L 331.614 726.65 L 338.265 756.771 L 338.265 756.771 L 338.265 756.771 L 338.265 756.771 Z " fill="rgb(106,53,53)"/><path d=" M 663.265 756.771 L 584.124 831.068 L 497.277 798.939 L 485.229 798.939 L 485.229 726.65 L 497.277 726.65 L 584.124 576.048 L 626.293 576.048 L 652.397 714.602 L 668.462 726.65 L 663.265 756.771 L 663.265 756.771 L 663.265 756.771 L 663.265 756.771 Z " fill="rgb(106,53,53)"/><path d=" M 338.265 756.771 L 497.277 798.939 L 415.952 831.068 L 338.265 756.771 L 338.265 756.771 L 338.265 756.771 L 338.265 756.771 Z " fill="rgb(0,0,0)" fill-opacity="0.15"/><path d=" M 663.265 756.771 L 496.932 798.939 L 584.124 831.068 L 663.265 756.771 L 663.265 756.771 L 663.265 756.771 L 663.265 756.771 Z " fill="rgb(0,0,0)" fill-opacity="0.15"/><path d=" M 347.679 714.602 L 496.932 798.939 L 338.265 756.771 L 331.614 726.65 L 347.679 714.602 L 347.679 714.602 L 347.679 714.602 L 347.679 714.602 Z " fill="rgb(0,0,0)" fill-opacity="0.1"/><path d=" M 652.398 714.602 L 497.277 798.939 L 663.265 756.771 L 668.462 726.65 L 652.398 714.602 L 652.398 714.602 L 652.398 714.602 L 652.398 714.602 Z " fill="rgb(0,0,0)" fill-opacity="0.1"/><path d=" M 373.783 576.048 L 477.151 763.137 L 496.932 798.939 L 347.679 714.602 L 373.783 576.048 L 373.783 576.048 L 373.783 576.048 L 373.783 576.048 Z " fill="rgb(255,255,255)" fill-opacity="0.05"/><path d=" M 626.293 576.048 L 496.932 798.626 L 652.398 714.602 L 626.293 576.048 L 626.293 576.048 L 626.293 576.048 L 626.293 576.048 Z " fill="rgb(255,255,255)" fill-opacity="0.05"/></g><g><path d=" M 263.292 671.978 L 263.292 733.277 L 252.813 1008.344 L 290.215 1053 L 335.335 1003.936 L 338.107 797.177 L 345.518 675.995 L 330.239 644.181 L 366.239 584.774 L 268.518 643.906 L 263.292 671.978 L 263.292 671.978 L 263.292 671.978 Z " fill="rgb(251,210,169)"/><path d=" M 290.215 1053 L 335.335 1003.936 L 307.194 620.136 L 290.215 1053 L 290.215 1053 L 290.215 1053 Z " fill="rgb(0,0,0)" fill-opacity="0.1"/><path d=" M 330.239 605.77 L 345.518 675.995 L 338.107 797.177 L 335.335 1003.936 L 307.194 620.136 L 330.239 605.77 L 330.239 605.77 L 330.239 605.77 Z " fill="rgb(0,0,0)" fill-opacity="0.05"/><path d=" M 263.976 675.995 L 263.292 733.277 L 252.813 1008.344 L 290.215 1053 L 295.745 646.388 L 268.518 643.906 L 263.976 675.995 L 263.976 675.995 L 263.976 675.995 Z " fill="rgb(255,255,255)" fill-opacity="0.05"/></g><g><path d=" M 736.784 670.861 L 736.784 731.374 L 747.263 1002.917 L 709.861 1047 L 664.741 998.565 L 661.969 794.455 L 654.558 674.826 L 669.837 643.419 L 633.837 584.774 L 731.558 643.149 L 736.784 670.861 L 736.784 670.861 L 736.784 670.861 Z " fill="rgb(237,199,160)"/><path d=" M 709.861 1047 L 664.741 998.565 L 692.882 619.683 L 709.861 1047 L 709.861 1047 L 709.861 1047 Z " fill="rgb(0,0,0)" fill-opacity="0.1"/><path d=" M 669.837 605.501 L 654.558 674.826 L 661.969 794.455 L 664.741 998.565 L 692.882 619.683 L 669.837 605.501 L 669.837 605.501 L 669.837 605.501 Z " fill="rgb(0,0,0)" fill-opacity="0.05"/><path d=" M 736.1 674.826 L 736.784 731.374 L 747.263 1002.917 L 709.861 1047 L 704.331 645.599 L 731.558 643.149 L 736.1 674.826 L 736.1 674.826 L 736.1 674.826 Z " fill="rgb(255,255,255)" fill-opacity="0.05"/></g><g><path d=" M 388.566 289.662 L 388.566 464.361 L 484.952 536.651 L 515.072 536.651 L 605.434 464.361 L 605.434 289.662 L 539.169 211.349 L 460.855 211.349 L 388.566 289.662 L 388.566 289.662 L 388.566 289.662 L 388.566 289.662 Z " fill="rgb(251,210,169)"/><path d=" M 497 506.531 L 497 289.662 L 460.855 211.349 L 539.169 211.349 L 605.434 289.662 L 605.434 464.361 L 515.072 536.651 L 497 536.651 L 497 506.531 L 497 506.531 L 497 506.531 L 497 506.531 Z " fill="rgb(0,0,0)" fill-opacity="0.07"/><path d=" M 460.855 211.349 L 497 289.662 L 539.169 211.349 L 460.855 211.349 L 460.855 211.349 L 460.855 211.349 L 460.855 211.349 Z " fill="rgb(0,0,0)" fill-opacity="0.05"/><path d=" M 510.169 422.193 L 483.831 422.193 L 497 381.784 L 510.169 422.193 L 510.169 422.193 L 510.169 422.193 Z " fill="rgb(0,0,0)" fill-opacity="0.1"/><path d=" M 453.126 469.017 L 497 475.906 L 540.874 469.017 L 497 469.017 L 453.126 469.017 L 453.126 469.017 Z " fill="rgb(0,0,0)" fill-opacity="0.1"/></g></g><g><path d=" M 403.03 575.873 L 381.69 556 L 443.939 579.873 L 498.592 640 L 542 579.873 L 607.547 548 L 592.667 575.873 L 630 575.873 L 692.424 613.636 L 660.667 742.667 L 592.667 952 L 607.547 1000 L 387.399 1000 L 403.03 943 L 348 775.758 L 307.042 613.636 L 367 574.873 L 403.03 575.873 Z " fill="rgb(14,83,35)"/><path d=" M 348 775.758 L 307.042 613.636 L 359 580.873 L 443.939 943 L 443.939 1000 L 387.399 1000 L 407 952 L 348 775.758 Z " fill="rgb(0,0,0)" fill-opacity="0.2"/><path d=" M 660.667 594 L 692.424 613.636 L 660.667 742.667 L 592.667 952 L 607.547 1000 L 568.182 1000 L 568.182 943 L 660.667 594 Z " fill="rgb(0,0,0)" fill-opacity="0.2"/><path d=" M 381.69 556 L 443.939 580.873 L 498.592 640 L 403.03 575.873 L 381.69 556 Z " fill="rgb(0,0,0)" fill-opacity="0.2"/><path d=" M 345 588.909 L 367 574.873 L 403.03 575.873 L 498.592 640 L 345 588.909 Z " fill="rgb(0,0,0)" fill-opacity="0.3"/><path d=" M 307.042 613.636 L 345 588.909 L 498.592 640 L 307.042 613.636 Z " fill="rgb(0,0,0)" fill-opacity="0.1"/><path d=" M 668.333 598 L 692.424 613.636 L 498.592 640 L 668.333 598 Z " fill="rgb(0,0,0)" fill-opacity="0.1"/><path d=" M 667.333 598 L 630 575.873 L 592.667 575.873 L 498.592 640 L 667.333 598 Z " fill="rgb(0,0,0)" fill-opacity="0.3"/><path d=" M 607.547 548 L 542 579.873 L 498.592 640 L 592.667 575.873 L 607.547 548 Z " fill="rgb(0,0,0)" fill-opacity="0.2"/><path d=" M 489.394 1000 L 489.394 943 L 403.03 579.873 L 359 579.873 L 443.939 943 L 443.939 1000 L 489.394 1000 Z " fill="rgb(0,0,0)" fill-opacity="0.1"/><path d=" M 527.333 1000 L 527.333 933.333 L 607.547 580.873 L 660.667 602 L 568.182 943 L 568.182 1000 L 527.333 1000 Z " fill="rgb(0,0,0)" fill-opacity="0.1"/><path d=" M 307.042 613.636 L 592.667 952 L 615.152 907.576 L 630 870.667 L 359 580.873 L 307.042 613.636 Z " fill="rgb(59,18,18)"/><path d=" M 307.042 613.636 L 592.667 952 L 615.152 907.576 L 337.333 594 L 307.042 613.636 Z " fill="rgb(0,0,0)" fill-opacity="0.1"/><g><path d=" M 555.619 784.748 L 545.3 796.067 L 585.583 832.789 L 595.901 821.47 L 555.619 784.748 Z " fill="rgb(234,162,91)"/><path d=" M 543.593 782.561 L 565.769 807.717 L 597.616 830.957 L 490.94 947.976 L 418.275 969.512 L 379 969.512 L 437.341 899.115 L 543.593 782.561 Z " fill="rgb(74,44,10)"/><path d=" M 490.94 786.851 L 530 846.667 L 571.239 884.667 L 574.335 899.115 L 513.998 857.133 L 474.667 792.963 L 490.94 786.851 Z " fill="rgb(53,16,16)"/><path d=" M 379 969.512 L 451.217 933.375 L 565.769 807.717 L 597.616 830.957 L 490.94 947.976 L 418.275 969.512 L 379 969.512 Z " fill="rgb(0,0,0)" fill-opacity="0.1"/><path d=" M 567.368 780.219 L 541.177 770.165 L 513.998 784.6 L 536.354 783.645 L 565.22 799.292 L 569.018 804.153 L 574.209 807.486 L 595.446 837.514 L 593.564 857.133 L 607.72 832.244 L 593.501 804.043 L 646.667 741.333 L 638.667 729.333 L 623.849 724.667 L 567.368 780.219 Z " fill="rgb(59,51,51)"/><path d=" M 569.018 804.153 L 574.209 807.486 L 595.446 837.514 L 593.564 857.133 L 607.72 832.244 L 593.501 804.043 L 646.667 741.333 L 638.667 729.333 L 569.018 804.153 Z " fill="rgb(0,0,0)" fill-opacity="0.1"/><polygon points="543.259,779.085,541.68,780.817,539.389,780.316,538.678,778.081,540.258,776.349,542.549,776.85" fill="rgb(198,134,32)"/><polygon points="602.771,833.336,601.191,835.069,598.901,834.567,598.19,832.333,599.77,830.6,602.06,831.102" fill="rgb(198,134,32)"/><polygon points="577.661,803.425,571.01,801.968,568.945,795.479,573.533,790.447,580.185,791.903,582.249,798.392" fill="rgb(198,134,32)"/><polygon points="590.146,819.485,585.677,818.507,584.29,814.147,587.372,810.766,591.842,811.744,593.229,816.104" fill="rgb(198,134,32)"/><polygon points="558.239,790.232,553.77,789.254,552.383,784.894,555.465,781.513,559.934,782.491,561.321,786.851" fill="rgb(198,134,32)"/></g><path d=" M 512.667 789.333 L 520 798.667 L 550 842 L 582 859.333 L 588.724 859.333 L 592.667 848.667 L 559.25 816.75 L 527.333 789.333 L 512.667 789.333 Z " fill="rgb(59,18,18)"/><path d=" M 403.03 575.873 L 498.592 742.667 L 489.394 742.667 L 366 640 L 327.273 602 L 359 575.873 L 387.399 574.873 L 403.03 575.873 Z " fill="rgb(7,36,10)"/><path d=" M 512.667 742.667 L 640.845 640 L 653.03 588.909 L 630 575.873 L 615.152 574.873 L 592.667 574.873 L 498.592 742.667 L 512.667 742.667 Z " fill="rgb(7,36,10)"/><g><path d=" M 520.981 729.161 L 510.64 717.835 L 502.884 710.079 L 482.201 722.513 L 474.076 729.161 L 459.795 733.839 L 474.076 747.628 L 487.126 752.552 L 498.821 762.155 L 514.703 757.231 L 520.981 744.371 L 526.7 741.965 L 535.564 741.965 L 541.72 736.246 L 526.7 733.839 L 520.981 729.161 L 520.981 729.161 Z " fill="rgb(157,230,179)"/><path d=" M 474.076 729.161 L 499.124 737.477 L 482.201 722.457 L 474.076 729.161 L 474.076 729.161 Z " fill="rgb(0,0,0)" fill-opacity="0.1"/><path d=" M 459.795 733.839 L 474.076 747.628 L 498.821 737.477 L 474.076 729.161 L 459.795 733.839 L 459.795 733.839 Z " fill="rgb(0,0,0)" fill-opacity="0.15"/><path d=" M 502.884 710.079 L 482.201 722.457 L 498.821 737.477 L 502.884 710.079 L 502.884 710.079 Z " fill="rgb(255,255,255)" fill-opacity="0.15"/><path d=" M 520.981 729.161 L 526.7 733.839 L 498.821 737.477 L 503.746 710.079 L 520.981 729.161 L 520.981 729.161 Z " fill="rgb(255,255,255)" fill-opacity="0.05"/><path d=" M 474.076 747.628 L 499.124 737.477 L 487.126 752.552 L 474.076 747.628 L 474.076 747.628 Z " fill="rgb(255,255,255)" fill-opacity="0.05"/><path d=" M 514.703 757.231 L 498.821 737.477 L 487.126 752.552 L 498.821 762.155 L 514.703 757.231 L 514.703 757.231 Z " fill="rgb(0,0,0)" fill-opacity="0.05"/><path d=" M 520.981 744.371 L 499.124 737.477 L 514.703 757.231 L 520.981 744.371 L 520.981 744.371 Z " fill="rgb(0,0,0)" fill-opacity="0.1"/><path d=" M 526.7 741.965 L 499.124 737.477 L 520.981 744.371 L 526.7 741.965 L 526.7 741.965 Z " fill="rgb(0,0,0)" fill-opacity="0.15"/><path d=" M 526.7 733.839 L 499.124 737.477 L 527.87 737.477 L 535.564 739.939 L 541.72 736.246 L 526.7 733.839 L 526.7 733.839 Z " fill="rgb(255,255,255)" fill-opacity="0.15"/></g></g><g><path d=" M 231.091 681 L 191.017 772.667 L 201.333 876 L 236.269 889.004 L 249 872 L 257.043 884.185 L 299.904 874.243 L 308.902 829.5 L 317.9 870.069 L 357 861 L 362.909 733.042 L 231.091 681 Z " fill="rgb(15,87,37)"/><path d=" M 231.091 681 L 249 872 L 236.269 889.004 L 201.333 876 L 191.017 772.667 L 231.091 681 Z " fill="rgb(0,0,0)" fill-opacity="0.05"/><path d=" M 357 861 L 317.9 870.069 L 308.902 829.5 L 299.904 874.243 L 290 876 L 303.333 709.333 L 362.909 733.042 L 357 861 Z " fill="rgb(0,0,0)" fill-opacity="0.15"/><path d=" M 231.091 681 L 303.333 709.333 L 290 876 L 257.043 884.185 L 249 872 L 231.091 681 Z " fill="rgb(0,0,0)" fill-opacity="0.1"/><g><path d=" M 394.535 574.648 L 291.718 574.648 L 205.803 614.085 L 199.039 636.375 L 204.014 642.935 L 187.71 673.71 L 191.017 684.47 L 177.902 706.03 L 179.804 714.536 L 169.705 733.042 L 143.831 818.31 L 394.535 733.803 L 432.72 703.736 L 432.72 659.644 L 394.535 574.648 Z " fill="rgb(15,87,37)"/><path d=" M 204.014 642.935 L 401.416 602.667 L 406.149 609.887 L 187.71 671.887 L 204.014 642.935 Z " fill="rgb(0,0,0)" fill-opacity="0.1"/><path d=" M 205.803 614.085 L 199.039 636.375 L 291.718 592.424 L 394.535 574.648 L 291.718 574.648 L 205.803 614.085 Z " fill="rgb(0,0,0)" fill-opacity="0.1"/><path d=" M 414.5 647.5 L 179.804 714.536 L 177.902 706.03 L 406.149 642.935 L 414.5 647.5 Z " fill="rgb(0,0,0)" fill-opacity="0.1"/><path d=" M 169.705 733.803 L 158.667 772.667 L 414.5 671.887 L 410.028 659.644 L 169.705 733.803 Z " fill="rgb(0,0,0)" fill-opacity="0.1"/><path d=" M 432.72 659.644 L 394.535 574.648 L 410.028 666.229 L 410.028 702.008 L 382.485 715.922 L 153.099 786.324 L 143.831 818.31 L 394.535 733.803 L 432.72 703.736 L 432.72 659.644 Z " fill="rgb(74,20,20)"/><g><path d=" M 458.208 718.338 L 420.347 740.198 L 382.485 718.338 L 382.485 674.619 L 420.347 652.76 L 458.208 674.619 L 458.208 718.338 Z " fill="rgb(235,235,235)"/><path d=" M 448.743 712.873 L 420.347 729.268 L 391.951 712.873 L 391.951 680.084 L 420.347 663.69 L 448.743 680.084 L 448.743 712.873 Z " fill="rgb(89,89,89)"/><path d=" M 420.347 652.76 L 420.347 696.479 L 458.208 674.619 L 420.347 652.76 Z " fill="rgb(0,0,0)" fill-opacity="0.1"/><path d=" M 458.208 718.338 L 420.347 696.479 L 458.208 674.619 L 458.208 718.338 Z " fill="rgb(255,255,255)" fill-opacity="0.05"/><path d=" M 420.347 740.198 L 420.347 696.479 L 458.208 718.338 L 420.347 740.198 Z " fill="rgb(0,0,0)" fill-opacity="0.1"/><path d=" M 382.485 718.338 L 420.347 696.479 L 420.347 740.198 L 382.485 718.338 Z " fill="rgb(255,255,255)" fill-opacity="0.05"/><path d=" M 382.485 674.619 L 420.347 696.479 L 382.485 718.338 L 382.485 674.619 Z " fill="rgb(0,0,0)" fill-opacity="0.1"/><path d=" M 420.347 652.76 L 420.347 696.479 L 382.485 674.619 L 420.347 652.76 Z " fill="rgb(255,255,255)" fill-opacity="0.05"/></g></g></g><g><path d=" M 775.464 681 L 815.538 772.667 L 805.221 876 L 770.286 889.004 L 757.555 872 L 749.512 884.185 L 706.65 874.243 L 697.652 829.5 L 688.655 870.069 L 649.555 861 L 643.646 733.042 L 775.464 681 Z " fill="rgb(15,87,37)"/><path d=" M 775.464 681 L 757.555 872 L 770.286 889.004 L 805.221 876 L 815.538 772.667 L 775.464 681 Z " fill="rgb(0,0,0)" fill-opacity="0.05"/><path d=" M 649.555 861 L 688.655 870.069 L 697.652 829.5 L 706.65 874.243 L 716.555 876 L 703.221 709.333 L 643.646 733.042 L 649.555 861 Z " fill="rgb(0,0,0)" fill-opacity="0.15"/><path d=" M 775.464 681 L 703.221 709.333 L 716.555 876 L 749.512 884.185 L 757.555 872 L 775.464 681 Z " fill="rgb(0,0,0)" fill-opacity="0.1"/><g><path d=" M 612.019 574.648 L 714.836 574.648 L 800.752 614.085 L 807.516 636.375 L 802.541 642.935 L 818.845 673.71 L 815.538 684.47 L 828.653 706.03 L 826.751 714.536 L 836.849 733.042 L 862.724 818.31 L 612.019 733.803 L 573.835 703.736 L 573.835 659.644 L 612.019 574.648 Z " fill="rgb(15,87,37)"/><path d=" M 802.541 642.935 L 605.139 602.667 L 600.406 609.887 L 818.845 671.887 L 802.541 642.935 Z " fill="rgb(0,0,0)" fill-opacity="0.1"/><path d=" M 800.752 614.085 L 807.516 636.375 L 714.836 592.424 L 612.019 574.648 L 714.836 574.648 L 800.752 614.085 Z " fill="rgb(0,0,0)" fill-opacity="0.1"/><path d=" M 592.055 647.5 L 826.751 714.536 L 828.653 706.03 L 600.406 642.935 L 592.055 647.5 Z " fill="rgb(0,0,0)" fill-opacity="0.1"/><path d=" M 836.849 733.803 L 847.888 772.667 L 592.055 671.887 L 596.526 659.644 L 836.849 733.803 Z " fill="rgb(0,0,0)" fill-opacity="0.1"/><path d=" M 573.835 659.644 L 612.019 574.648 L 596.526 666.229 L 596.526 702.008 L 624.069 715.922 L 853.456 786.324 L 862.724 818.31 L 612.019 733.803 L 573.835 703.736 L 573.835 659.644 Z " fill="rgb(74,20,20)"/><g><path d=" M 548.346 718.338 L 586.208 740.198 L 624.069 718.338 L 624.069 674.619 L 586.208 652.76 L 548.346 674.619 L 548.346 718.338 Z " fill="rgb(235,235,235)"/><path d=" M 557.812 712.873 L 586.208 729.268 L 614.604 712.873 L 614.604 680.084 L 586.208 663.69 L 557.812 680.084 L 557.812 712.873 Z " fill="rgb(89,89,89)"/><path d=" M 586.208 652.76 L 586.208 696.479 L 548.346 674.62 L 586.208 652.76 Z " fill="rgb(0,0,0)" fill-opacity="0.1"/><path d=" M 548.346 718.338 L 586.208 696.479 L 548.346 674.62 L 548.346 718.338 Z " fill="rgb(255,255,255)" fill-opacity="0.05"/><path d=" M 586.208 740.198 L 586.208 696.479 L 548.346 718.338 L 586.208 740.198 Z " fill="rgb(0,0,0)" fill-opacity="0.1"/><path d=" M 624.069 718.338 L 586.208 696.479 L 586.208 740.198 L 624.069 718.338 Z " fill="rgb(255,255,255)" fill-opacity="0.05"/><path d=" M 624.069 674.62 L 586.208 696.479 L 624.069 718.338 L 624.069 674.62 Z " fill="rgb(0,0,0)" fill-opacity="0.1"/><path d=" M 586.208 652.76 L 586.208 696.479 L 624.069 674.62 L 586.208 652.76 Z " fill="rgb(255,255,255)" fill-opacity="0.05"/></g></g></g></g></svg>